<svg xmlns="http://www.w3.org/2000/svg" xmlns:xlink="http://www.w3.org/1999/xlink" viewBox="0 0 889.14 138"><defs><style>.cls-1{fill:none;}.cls-2{clip-path:url(#clip-path);}.cls-3{fill:#fcc200;}.cls-4{fill:#fff;}.cls-5{clip-path:url(#clip-path-3);}</style><clipPath id="clip-path" transform="translate(-0.33)"><rect class="cls-1" width="139.97" height="138"/></clipPath><clipPath id="clip-path-3" transform="translate(-0.33)"><rect class="cls-1" x="840.75" y="0.03" width="48.71" height="22.33"/></clipPath></defs><title>Asset 2</title><g id="Layer_2" data-name="Layer 2"><g id="Layer_1-2" data-name="Layer 1"><g class="cls-2"><g class="cls-2"><rect class="cls-3" x="92.04" width="46" height="46"/><rect class="cls-3" x="92.04" y="92" width="46" height="46"/><rect class="cls-3" x="46.04" y="46" width="46" height="46"/><rect class="cls-3" width="46" height="46"/><rect class="cls-3" y="92" width="46" height="46"/></g></g><path class="cls-4" d="M227.39,0V43.63h39.87V0h19.92V105.69H267.26V61.75H227.39v43.94H207.46V0Z" transform="translate(-0.33)"/><path class="cls-4" d="M339.27,28.69c20.38,0,33.67,11.62,33.67,29.14v47.86H354.21V95.12H352.1c-2.41,5-7.7,12.68-23.55,12.68-16.91,0-28.09-9.06-28.09-23.4,0-11.93,10.42-20.23,24.77-21.74l28.68-3.17V57.68c0-7.1-5.43-12.69-15.7-12.69-10,0-16.16,5.14-20.84,13L302,48C310.88,36.84,321,28.69,339.27,28.69Zm-6,63.41c13.28,0,20.68-7.85,20.68-18.12v-1.2l-23,2.71c-7.09.91-10.57,3.48-10.57,7.85C320.39,88.48,324.77,92.1,333.23,92.1Z" transform="translate(-0.33)"/><path class="cls-4" d="M398.6,30.8V7.55h19V30.8h20.54V47.11H417.62V84.85c0,3,1.51,4.53,4.23,4.53h12.08v16.31H413.39c-8.45,0-14.79-6-14.79-14.49V47.11h-19V30.8Z" transform="translate(-0.33)"/><path class="cls-4" d="M484.51,28.69c20.83,0,33.82,11.62,37.74,28.68l-18.72,4.84c-1.36-9.06-7.25-16.61-18.72-16.61s-20.23,9.06-20.23,22.65,8,22.64,20.23,22.64c11.47,0,16.76-6.64,18.72-16.45l18.72,4.68c-3.62,17.06-16.76,28.68-37.74,28.68-21.75,0-39-16.3-39-39.55S462.76,28.69,484.51,28.69Z" transform="translate(-0.33)"/><path class="cls-4" d="M553.05,0V42.88h1.81c3-7,10-13.29,23.7-13.29,16.61,0,29.14,11.93,29.14,31.41v44.69h-19V62.81c0-10.42-6-16.61-16.91-16.61-12.23,0-18.72,7.55-18.72,20.84v38.65H534V0Z" transform="translate(-0.33)"/><path class="cls-4" d="M633.21,0c6.69,0,11.9,4.67,11.9,11.49S639.9,23,633.21,23s-11.89-4.68-11.89-11.5S626.53,0,633.21,0Zm9.52,105.68h-19V30.8h19Z" transform="translate(-0.33)"/><path class="cls-4" d="M678.36,30.8V42.88h2.11c3-7,10-13.29,23.7-13.29,16.61,0,29.14,11.93,29.14,31.41v44.69h-19V62.81c0-10.42-6-16.61-16.91-16.61-12.23,0-18.72,7.55-18.72,20.84v38.65h-19V30.8Z" transform="translate(-0.33)"/><path class="cls-4" d="M823.9,30.8v72.32C823.9,123.66,809,138,785.39,138c-20.53,0-32.16-9.36-39.7-21.14l16-10c3.93,7.7,11.18,14.8,22.5,14.8,11.77,0,20.68-6,20.68-19.33V92.71h-1.81c-3.92,6.34-10.57,12.68-23.86,12.68-18.72,0-34.42-16-34.42-38.35s15.7-38.35,34.42-38.35c13.29,0,19.94,6.34,23.86,12.68h2.12V30.8ZM804.87,67c0-13.59-8.75-21.44-20.53-21.44-11.47,0-20.54,7.55-20.54,21.44s9.07,21.44,20.54,21.44C796.12,88.48,804.87,80.63,804.87,67Z" transform="translate(-0.33)"/><g class="cls-5"><g class="cls-5"><path class="cls-4" d="M840.75,0V3.85h7.61V22.36h4.31V3.85h7.61V0Zm41,0-5.14,18.5h-.41L871.07,0h-7.71V22.36h4.32V3.85h.41l5.14,18.51h6.37l5.14-18.51h.41V22.36h4.31V0Z" transform="translate(-0.33)"/></g></g></g></g></svg>