<?xml version="1.0" encoding="UTF-8"?>
<svg width="157px" height="90px" viewBox="0 0 157 90" version="1.1" xmlns="http://www.w3.org/2000/svg" xmlns:xlink="http://www.w3.org/1999/xlink">
    <!-- Generator: Sketch 59.1 (86144) - https://sketch.com -->
    <title>Artboard</title>
    <desc>Created with Sketch.</desc>
    <defs>
        <polygon id="path-1" points="0 89.1262136 156.996337 89.1262136 156.996337 0.00625447113 0 0.00625447113"></polygon>
        <polygon id="path-3" points="0.0615102041 0.0143478261 10.9968571 0.0143478261 10.9968571 5.83828696 0.0615102041 5.83828696"></polygon>
    </defs>
    <g id="Artboard" stroke="none" stroke-width="1" fill="none" fill-rule="evenodd">
        <g id="Group-15">
            <polygon id="Fill-1" fill="#FC493E" points="78 0 78 36 96.0812994 17.8469239 114 0"></polygon>
            <polygon id="Fill-2" fill="#FC493E" points="30 0 47.9187006 17.8469239 66 36 66 0"></polygon>
            <polygon id="Fill-3" fill="#FFFFFF" points="0 43 0 49.1712596 11.0576534 49.1712596 11.0576534 79 17.9423466 79 17.9423466 49.1712596 29 49.1712596 29 43"></polygon>
            <g id="Group-11">
                <path d="M33.7027713,55.8737445 L34.4351763,55.8737445 C35.4297713,53.0071119 37.6275097,52.0168206 40.9247713,52.0168206 L43.4365097,52.0168206 L43.4365097,57.9585682 L39.5635813,57.9585682 C36.2147713,57.9585682 33.8071763,59.7306684 33.8071763,63.3791099 L33.8071763,77.9726152 L27.2131763,77.9726152 L27.2131763,52.1213224 L33.7027713,52.1213224 L33.7027713,55.8737445 Z" id="Fill-4" fill="#FFFFFF"></path>
                <mask id="mask-2" fill="white">
                    <use xlink:href="#path-1"></use>
                </mask>
                <g id="Clip-7"></g>
                <path d="M46.7857383,77.9726673 L53.3797383,77.9726673 L53.3797383,52.1213746 L46.7857383,52.1213746 L46.7857383,77.9726673 Z M50.0827383,40.1333776 C52.6991433,40.1333776 54.740405,41.9575984 54.740405,44.6160092 C54.740405,47.2741594 52.6991433,49.0983802 50.0827383,49.0983802 C47.4660717,49.0983802 45.4250717,47.2741594 45.4250717,44.6160092 C45.4250717,41.9575984 47.4660717,40.1333776 50.0827383,40.1333776 L50.0827383,40.1333776 Z" id="Fill-6" fill="#FFFFFF" mask="url(#mask-2)"></path>
                <path d="M69.2362935,73.2817098 C73.8416268,73.2817098 76.4054368,70.5716995 76.4054368,67.0274992 L76.4054368,66.6102739 L68.4512935,67.5487052 C65.9916268,67.8611681 64.7879602,68.7474788 64.7879602,70.2587154 C64.7879602,72.0308155 66.3053652,73.2817098 69.2362935,73.2817098 M71.3293652,51.391582 C78.3943652,51.391582 82.9996985,55.4046071 82.9996985,61.4505958 L82.9996985,77.9725631 L76.5103652,77.9725631 L76.5103652,74.3241216 L75.7776985,74.3241216 C74.9403652,76.0443618 73.1086985,78.7022514 67.6136985,78.7022514 C61.7526268,78.7022514 57.8799602,75.5750158 57.8799602,70.6238201 C57.8799602,66.5062933 61.4909602,63.6396607 66.4623652,63.1184548 L76.4054368,62.0239223 L76.4054368,61.3984752 C76.4054368,58.9488074 74.5216985,57.020606 70.9632935,57.020606 C67.5090318,57.020606 65.3633652,58.7924456 63.7412935,61.5027164 L58.4032935,58.0630179 C61.4909602,54.206094 64.9972935,51.391582 71.3293652,51.391582" id="Fill-8" fill="#FFFFFF" mask="url(#mask-2)"></path>
                <path d="M107.805541,64.6298998 C107.805541,59.9390465 104.770208,57.2290363 100.68847,57.2290363 C96.7111365,57.2290363 93.5711365,59.8350659 93.5711365,64.6298998 C93.5711365,69.4247338 96.7111365,72.0307634 100.68847,72.0307634 C104.770208,72.0307634 107.805541,69.3207532 107.805541,64.6298998 L107.805541,64.6298998 Z M114.39928,52.1212182 L114.39928,77.0864609 C114.39928,84.1748615 109.218541,89.1263178 101.054541,89.1263178 C93.9372082,89.1263178 89.9080648,85.8948411 87.2913982,81.8294348 L92.8384698,78.3894757 C94.1988748,81.047626 96.7111365,83.4970332 100.635875,83.4970332 C104.717875,83.4970332 107.805541,81.4124701 107.805541,76.8258579 L107.805541,73.49014 L107.177541,73.49014 C105.816875,75.6792049 103.514208,77.8682698 98.9088748,77.8682698 C92.4198032,77.8682698 86.9768748,72.3437476 86.9768748,64.6298998 C86.9768748,56.9160521 92.4198032,51.3915299 98.9088748,51.3915299 C103.514208,51.3915299 105.816875,53.5805948 107.177541,55.7696597 L107.910208,55.7696597 L107.910208,52.1212182 L114.39928,52.1212182 Z" id="Fill-9" fill="#FFFFFF" mask="url(#mask-2)"></path>
                <path d="M137.634783,62.3888186 C137.163783,59.1052213 135.070449,57.0203975 131.668783,57.0203975 C127.953378,57.0203975 126.017044,59.2094624 125.493711,62.3888186 L137.634783,62.3888186 Z M131.721116,51.3916341 C139.257116,51.3916341 144.333449,56.6555534 144.333449,64.4215217 L144.333449,66.9754308 L125.441378,66.9754308 C125.703044,70.4151293 128.162711,73.0732795 131.930449,73.0732795 C135.593783,73.0732795 137.530378,71.0405764 138.419783,69.2163556 L143.810116,72.3435912 C142.030783,75.053862 138.995449,78.7023035 132.035378,78.7023035 C124.290044,78.7023035 118.690378,72.8647971 118.690378,64.8382259 C118.690378,57.0203975 124.080711,51.3916341 131.721116,51.3916341 L131.721116,51.3916341 Z" id="Fill-10" fill="#FFFFFF" mask="url(#mask-2)"></path>
            </g>
            <g id="Group-14" transform="translate(146.000000, 43.000000)">
                <mask id="mask-4" fill="white">
                    <use xlink:href="#path-3"></use>
                </mask>
                <g id="Clip-13"></g>
                <path d="M9.2664898,0.0141130435 L8.11283673,4.84150435 L8.02057143,4.84150435 L6.86714286,0.0141130435 L5.137,0.0141130435 L5.137,5.83828696 L6.10567347,5.83828696 L6.10567347,1.01089565 L6.19816327,1.01089565 L7.35181633,5.83828696 L8.78204082,5.83828696 L9.93546939,1.01089565 L10.0279592,1.01089565 L10.0279592,5.83828696 L10.9968571,5.83828696 L10.9968571,0.0141130435 L9.2664898,0.0141130435 Z M0.0615102041,0.0141130435 L0.0615102041,1.01089565 L1.76853061,1.01089565 L1.76853061,5.83828696 L2.73765306,5.83828696 L2.73765306,1.01089565 L4.44467347,1.01089565 L4.44467347,0.0141130435 L0.0615102041,0.0141130435 Z" id="Fill-12" fill="#FFFFFF" mask="url(#mask-4)"></path>
            </g>
        </g>
    </g>
</svg>