<?xml version="1.0" encoding="UTF-8"?>
<svg width="206px" height="46px" viewBox="0 0 206 46" version="1.1" xmlns="http://www.w3.org/2000/svg" xmlns:xlink="http://www.w3.org/1999/xlink">
    <!-- Generator: Sketch 52.2 (67145) - http://www.bohemiancoding.com/sketch -->
    <title>rf-hatching-black</title>
    <desc>Created with Sketch.</desc>
    <defs>
        <polygon id="path-1" points="0.168090289 0.00658187927 11.05634 0.00658187927 11.05634 5.02199635 0.168090289 5.02199635"></polygon>
    </defs>
    <g id="Page-1" stroke="none" stroke-width="1" fill="none" fill-rule="evenodd">
        <g id="Artboard" transform="translate(-97.000000, -2420.000000)">
            <g id="rf-hatching-black" transform="translate(97.000000, 2420.000000)">
                <path d="M56.07,39.866 L54.555,35.609 L54.497,35.609 L52.982,39.866 L56.07,39.866 Z M51,43.141 L54.108,34.595 L54.943,34.595 L58.052,43.141 L57.233,43.141 L56.319,40.567 L52.731,40.567 L51.818,43.141 L51,43.141 Z M160.485,37.266 C160.247,36.097 159.225,35.213 157.885,35.213 C156.267,35.213 154.948,36.502 154.948,38.868 C154.948,41.243 156.267,42.524 157.885,42.524 C159.225,42.524 160.247,41.644 160.485,40.471 L161.27,40.471 C160.99,42.039 159.705,43.258 157.885,43.258 C155.728,43.258 154.192,41.543 154.192,38.868 C154.192,36.193 155.728,34.478 157.885,34.478 C159.705,34.478 160.99,35.693 161.27,37.266 L160.485,37.266 Z M167.526,39.966 C167.526,38.531 166.783,37.32 165.451,37.32 C164.121,37.32 163.378,38.53 163.378,39.966 C163.378,41.401 164.121,42.595 165.451,42.595 C166.783,42.595 167.526,41.401 167.526,39.965 L167.526,39.966 Z M162.631,39.965 C162.631,38 163.791,36.645 165.451,36.645 C167.112,36.645 168.273,38 168.273,39.965 C168.273,41.919 167.113,43.275 165.451,43.275 C163.791,43.275 162.631,41.919 162.631,39.965 Z M169.911,36.731 L170.633,36.731 L170.633,37.717 L170.7,37.717 C170.955,37.053 171.58,36.649 172.419,36.649 C173.303,36.649 173.866,37.087 174.151,37.813 L174.205,37.813 C174.493,37.103 175.169,36.649 176.105,36.649 C177.293,36.649 178.032,37.412 178.032,38.848 L178.032,43.142 L177.289,43.142 L177.289,38.848 C177.289,37.838 176.726,37.328 175.879,37.328 C174.902,37.328 174.351,38 174.351,38.923 L174.351,43.142 L173.591,43.142 L173.591,38.782 C173.591,37.912 173.082,37.328 172.206,37.328 C171.316,37.328 170.654,38.038 170.654,39.035 L170.654,43.142 L169.911,43.142 L169.911,36.732 L169.911,36.731 Z M182.682,42.595 C183.958,42.595 184.664,41.435 184.664,39.941 C184.664,38.463 183.972,37.32 182.682,37.32 C181.43,37.32 180.724,38.405 180.724,39.94 C180.724,41.488 181.442,42.595 182.682,42.595 Z M179.99,36.732 L180.712,36.732 L180.712,37.954 L180.804,37.954 C181.063,37.378 181.584,36.644 182.761,36.644 C184.347,36.644 185.411,37.976 185.411,39.954 C185.411,41.94 184.343,43.274 182.774,43.274 C181.61,43.274 181.059,42.541 180.804,41.952 L180.737,41.952 L180.737,45.545 L179.99,45.545 L179.99,36.732 Z M190.872,40.684 L190.872,39.757 C190.655,39.97 189.72,40.087 189.194,40.15 C188.109,40.283 187.475,40.609 187.475,41.384 C187.475,42.16 188.101,42.607 188.94,42.607 C190.126,42.607 190.872,41.735 190.872,40.684 Z M186.732,41.351 C186.732,40.083 187.747,39.677 189.194,39.498 C190.272,39.365 190.872,39.357 190.872,38.873 L190.872,38.723 C190.872,37.846 190.334,37.312 189.362,37.312 C188.436,37.312 187.855,37.784 187.622,38.334 L186.916,38.079 C187.35,37.032 188.36,36.644 189.341,36.644 C190.321,36.644 191.615,37.069 191.615,38.789 L191.615,43.141 L190.872,43.141 L190.872,42.128 L190.826,42.128 C190.559,42.695 189.908,43.288 188.839,43.288 C187.676,43.288 186.732,42.586 186.732,41.351 Z M194.338,43.141 L193.595,43.141 L193.595,36.731 L194.317,36.731 L194.317,37.737 L194.384,37.737 C194.684,37.082 195.331,36.648 196.271,36.648 C197.563,36.648 198.444,37.47 198.444,38.99 L198.444,43.142 L197.701,43.142 L197.701,39.036 C197.701,37.988 197.067,37.329 196.082,37.329 C195.072,37.329 194.338,38.017 194.338,39.136 L194.338,43.142 L194.338,43.141 Z M199.978,45.411 L200.178,44.757 C200.934,44.995 201.434,44.824 201.789,43.855 L202.023,43.205 L199.665,36.732 L200.47,36.732 L202.373,42.161 L202.432,42.161 L204.335,36.731 L205.141,36.731 L202.427,44.155 C202.086,45.085 201.497,45.545 200.696,45.545 C200.404,45.545 200.128,45.482 199.978,45.412 L199.978,45.411 Z M63.63,37.984 C64.827,37.984 65.358,37.649 65.358,36.733 C65.358,35.961 64.82,35.48 63.618,35.48 L62.143,35.48 L62.143,37.98 L63.629,37.984 L63.63,37.984 Z M60.534,34.13 L63.87,34.13 C65.911,34.13 67.007,35.277 67.007,36.976 C67.007,38.182 66.357,38.897 65.31,39.319 L67.332,43.027 L65.534,43.027 L63.54,39.319 L62.143,39.319 L62.143,43.027 L60.533,43.027 L60.533,34.131 L60.534,34.13 Z M74.068,39.586 C74.068,37.548 75.302,36.136 77.258,36.136 C78.886,36.136 80.016,37.088 80.125,38.529 L78.62,38.529 C78.5,37.886 78.035,37.399 77.278,37.399 C76.308,37.399 75.662,38.208 75.662,39.554 C75.662,40.901 76.296,41.739 77.278,41.739 C77.968,41.739 78.486,41.327 78.62,40.611 L80.124,40.611 C80.011,42.026 78.942,43.022 77.264,43.022 C75.271,43.027 74.068,41.606 74.068,39.586 Z M85.319,39.586 C85.319,38.364 84.788,37.388 83.724,37.388 C82.661,37.388 82.113,38.364 82.113,39.586 C82.113,40.808 82.643,41.773 83.726,41.773 C84.807,41.773 85.319,40.803 85.319,39.583 L85.319,39.586 Z M80.519,39.586 C80.519,37.518 81.761,36.136 83.716,36.136 C85.671,36.136 86.914,37.519 86.914,39.586 C86.914,41.653 85.671,43.027 83.716,43.027 C81.761,43.027 80.518,41.649 80.518,39.587 L80.519,39.586 Z M87.366,36.354 L88.891,36.354 L88.891,37.466 L88.96,37.466 C89.1689621,36.7355016 89.8454465,36.2387277 90.605,36.258 C90.795,36.258 90.984,36.272 91.171,36.302 L91.171,37.748 C90.9321422,37.6889106 90.6870572,37.6586946 90.441,37.658 C89.577,37.658 88.937,38.257 88.937,39.103 L88.937,43.027 L87.367,43.027 L87.367,36.354 L87.366,36.354 Z M96.079,39.69 C96.079,38.395 95.522,37.563 94.51,37.563 C93.463,37.563 92.925,38.455 92.925,39.69 C92.925,40.925 93.472,41.854 94.51,41.854 C95.514,41.854 96.079,40.984 96.079,39.69 Z M91.322,39.7 C91.322,37.474 92.534,36.267 94.076,36.267 C95.254,36.267 95.744,36.976 95.983,37.464 L96.055,37.464 L96.055,34.141 L97.632,34.141 L97.632,43.027 L96.079,43.027 L96.079,41.976 L95.983,41.976 C95.736,42.462 95.223,43.027 94.076,43.027 C92.503,43.027 91.322,41.897 91.322,39.699 L91.322,39.7 Z M109.818,39.69 C109.818,38.395 109.261,37.563 108.25,37.563 C107.202,37.563 106.664,38.455 106.664,39.69 C106.664,40.925 107.21,41.854 108.25,41.854 C109.254,41.854 109.818,40.984 109.818,39.69 Z M105.061,39.7 C105.061,37.474 106.272,36.267 107.815,36.267 C108.993,36.267 109.483,36.976 109.723,37.464 L109.788,37.464 L109.788,34.141 L111.365,34.141 L111.365,43.027 L109.818,43.027 L109.818,41.976 L109.723,41.976 C109.474,42.462 108.957,43.021 107.812,43.021 C106.238,43.021 105.062,41.898 105.062,39.699 L105.061,39.7 Z M114.929,34.13 L120.629,34.13 L120.629,35.48 L116.539,35.48 L116.539,37.969 L120.237,37.969 L120.237,39.319 L116.54,39.319 L116.54,43.028 L114.929,43.028 L114.929,34.13 Z M125.247,36.354 L126.82,36.354 L126.82,43.027 L125.296,43.027 L125.296,41.841 L125.228,41.841 C124.923,42.587 124.218,43.027 123.219,43.027 C121.908,43.027 120.995,42.206 120.995,40.603 L120.995,36.35 L122.568,36.35 L122.568,40.36 C122.568,41.207 123.072,41.74 123.828,41.74 C124.523,41.74 125.248,41.237 125.248,40.22 L125.248,36.354 L125.247,36.354 Z M131.157,37.57 L129.841,37.57 L129.841,41.026 C129.841,41.66 130.157,41.798 130.554,41.798 C130.708,41.794 130.862,41.772 131.012,41.733 L131.278,42.969 C130.978,43.066 130.664,43.119 130.348,43.124 C129.166,43.159 128.254,42.542 128.262,41.287 L128.262,37.571 L127.315,37.571 L127.315,36.355 L128.262,36.355 L128.262,34.76 L129.836,34.76 L129.836,36.355 L131.152,36.355 L131.157,37.571 L131.157,37.57 Z M136.115,36.354 L137.687,36.354 L137.687,43.027 L136.163,43.027 L136.163,41.841 L136.093,41.841 C135.789,42.587 135.086,43.027 134.086,43.027 C132.775,43.027 131.861,42.206 131.861,40.603 L131.861,36.35 L133.434,36.35 L133.434,40.36 C133.434,41.207 133.939,41.74 134.694,41.74 C135.389,41.74 136.114,41.237 136.114,40.22 L136.114,36.354 L136.115,36.354 Z M138.69,36.354 L140.216,36.354 L140.216,37.466 L140.286,37.466 C140.495055,36.7351334 141.172079,36.2382654 141.932,36.258 C142.122,36.258 142.31,36.272 142.497,36.302 L142.497,37.748 C142.258151,37.688863 142.01306,37.6586464 141.767,37.658 C140.902,37.658 140.264,38.257 140.264,39.103 L140.264,43.027 L138.69,43.027 L138.69,36.354 Z M150.309,35.468 C150.377447,35.4682811 150.442838,35.4396822 150.489099,35.3892337 C150.535359,35.3387853 150.558197,35.2711663 150.552,35.203 C150.557111,35.1382706 150.533756,35.0745283 150.488035,35.0284235 C150.442315,34.9823188 150.37877,34.958431 150.314,34.963 L149.97,34.963 L149.97,35.463 L150.309,35.468 Z M149.73,34.78 L150.386,34.78 C150.617032,34.7766595 150.807164,34.9609754 150.811,35.192 L150.811,35.208 C150.815216,35.3746884 150.723993,35.5291839 150.576,35.606 L150.866,36.149 L150.601,36.149 L150.344,35.659 L149.97,35.659 L149.97,36.149 L149.73,36.149 L149.73,34.779 L149.73,34.78 Z M151.436,35.48 C151.435448,34.8152446 150.896256,34.276724 150.2315,34.2770001 C149.566745,34.2772762 149.028,34.8162444 149.028,35.481 C149.028,36.1457556 149.566745,36.6847238 150.2315,36.6849999 C150.896256,36.685276 151.435448,36.1467554 151.436,35.482 L151.436,35.479 L151.436,35.48 Z M148.752,35.48 C148.752,34.6626186 149.414619,34 150.232,34 C151.049381,34 151.712,34.6626186 151.712,35.48 C151.712,36.2973814 151.049381,36.96 150.232,36.96 C149.414619,36.96 148.752,36.2973814 148.752,35.48 Z M147.201,39.065 C147.193,38.157 146.585,37.496 145.681,37.496 C144.742,37.496 144.111,38.214 144.064,39.065 L147.201,39.065 Z M142.5,39.73 C142.5,37.67 143.748,36.267 145.66,36.267 C147.301,36.267 148.708,37.297 148.708,39.637 L148.708,40.12 L144.056,40.12 C144.069,41.263 144.742,41.802 145.759,41.802 C146.437,41.802 146.955,41.637 147.17,41.072 L148.704,41.072 C148.427,42.231 147.411,43.027 145.737,43.027 C143.729,43.027 142.5,41.823 142.5,39.73 Z M103.003,39.065 C102.996,38.157 102.387,37.496 101.483,37.496 C100.545,37.496 99.915,38.214 99.867,39.065 L103.004,39.065 L103.003,39.065 Z M98.304,39.73 C98.304,37.67 99.551,36.267 101.462,36.267 C103.105,36.267 104.512,37.297 104.512,39.637 L104.512,40.12 L99.861,40.12 C99.874,41.263 100.548,41.802 101.563,41.802 C102.241,41.802 102.759,41.637 102.976,41.072 L104.51,41.072 C104.23,42.231 103.216,43.027 101.542,43.027 C99.533,43.027 98.304,41.823 98.304,39.73 Z M72.137,39.065 C72.127,38.157 71.519,37.496 70.617,37.496 C69.677,37.496 69.047,38.214 69,39.065 L72.137,39.065 Z M67.436,39.73 C67.436,37.67 68.682,36.267 70.594,36.267 C72.237,36.267 73.644,37.297 73.644,39.637 L73.644,40.12 L68.993,40.12 C69.006,41.263 69.68,41.802 70.697,41.802 C71.375,41.802 71.893,41.637 72.109,41.072 L73.642,41.072 C73.365,42.231 72.349,43.027 70.674,43.027 C68.666,43.027 67.437,41.823 67.437,39.73 L67.436,39.73 Z" id="Shape" fill="#000000" fill-rule="nonzero" opacity="0.5"></path>
                <polygon id="Fill-1" fill="#FCC200" points="28.1179573 15.0088482 41.8892911 15.0088482 41.8892911 0.798428551 28.1179573 0.798428551"></polygon>
                <polygon id="Fill-2" fill="#FCC200" points="28.1179573 43.1089495 41.8892911 43.1089495 41.8892911 28.89853 28.1179573 28.89853"></polygon>
                <polygon id="Fill-3" fill="#FCC200" points="14.1253222 29.1163146 27.8966559 29.1163146 27.8966559 14.9058949 14.1253222 14.9058949"></polygon>
                <polygon id="Fill-4" fill="#FCC200" points="0.132687064 15.0088482 13.9040207 15.0088482 13.9040207 0.798428551 0.132687064 0.798428551"></polygon>
                <polygon id="Fill-5" fill="#FCC200" points="0.132687064 43.1089495 13.9040207 43.1089495 13.9040207 28.89853 0.132687064 28.89853"></polygon>
                <polygon id="Fill-6" fill="#000000" points="65.9278951 0.257503491 65.9278951 10.0593369 57.0177686 10.0593369 57.0177686 0.257503491 52.5629288 0.257503491 52.5629288 23.9992181 57.0177686 23.9992181 57.0177686 14.1295441 65.9278951 14.1295441 65.9278951 23.9992181 70.3825112 23.9992181 70.3825112 0.257503491"></polygon>
                <path d="M80.6743535,20.9469109 C83.6440975,20.9469109 85.2979539,19.1828325 85.2979539,16.8769284 L85.2979539,16.6055662 L80.1680708,17.2159064 C78.5817187,17.419428 77.8056422,17.9958478 77.8056422,18.9797602 C77.8056422,20.1330492 78.7842318,20.9469109 80.6743535,20.9469109 M82.0242168,6.70174735 C86.5803131,6.70174735 89.5500571,9.31315851 89.5500571,13.24746 L89.5500571,23.9992855 L85.3652347,23.9992855 L85.3652347,21.6250916 L84.8929279,21.6250916 C84.3528931,22.7446849 83.1715671,24.4743939 79.6278125,24.4743939 C75.8482397,24.4743939 73.3505789,22.4389534 73.3505789,19.217202 C73.3505789,16.5377257 75.6792553,14.6718865 78.8854882,14.3329085 L85.2979539,13.6210322 L85.2979539,13.2137644 C85.2979539,11.6197365 84.0826523,10.3649114 81.787728,10.3649114 C79.5607552,10.3649114 78.1766927,11.5179758 77.1305989,13.2816049 L73.6883241,11.043092 C75.6792553,8.53299241 77.9406508,6.70174735 82.0242168,6.70174735" id="Fill-7" fill="#000000" fill-rule="nonzero"></path>
                <path d="M95.2859371,7.176676 L95.2859371,1.95295516 L99.5382638,1.95295516 L99.5382638,7.176676 L104.128336,7.176676 L104.128336,10.8396154 L99.5382638,10.8396154 L99.5382638,19.3185585 C99.5382638,19.9971884 99.8757855,20.3361664 100.483325,20.3361664 L103.183051,20.3361664 L103.183051,23.9993305 L98.5934264,23.9993305 C96.7033047,23.9993305 95.2859371,22.6425198 95.2859371,20.7434343 L95.2859371,10.8396154 L91.0338339,10.8396154 L91.0338339,7.176676 L95.2859371,7.176676 Z" id="Fill-9" fill="#000000"></path>
                <path d="M114.488509,6.70172489 C119.146085,6.70172489 122.048325,9.31313605 122.925882,13.1459014 L118.740836,14.2313499 C118.43729,12.1963586 117.120955,10.5001207 114.556014,10.5001207 C111.991072,10.5001207 110.033893,12.5355612 110.033893,15.5881605 C110.033893,18.6403104 111.822311,20.6753017 114.556014,20.6753017 C117.120955,20.6753017 118.302281,19.1830347 118.740836,16.9784421 L122.925882,18.0301949 C122.11583,21.8622863 119.179838,24.4743713 114.488509,24.4743713 C109.628643,24.4743713 105.781343,20.8112074 105.781343,15.5881605 C105.781343,10.3648889 109.628643,6.70172489 114.488509,6.70172489" id="Fill-11" fill="#000000"></path>
                <path d="M129.809313,0.2574361 L129.809313,9.88989287 L130.214339,9.88989287 C130.889383,8.32956068 132.441536,6.90535881 135.512983,6.90535881 C139.225052,6.90535881 142.026258,9.58461049 142.026258,13.9596508 L142.026258,23.9991506 L137.774155,23.9991506 L137.774155,14.3671432 C137.774155,12.0268696 136.424068,10.6356894 133.994136,10.6356894 C131.260433,10.6356894 129.809313,12.3319273 129.809313,15.3164614 L129.809313,23.9991506 L125.556986,23.9991506 L125.556986,0.2574361 L129.809313,0.2574361 Z" id="Fill-13" fill="#000000"></path>
                <path d="M145.602044,23.9991506 L149.854594,23.9991506 L149.854594,7.1764963 L145.602044,7.1764963 L145.602044,23.9991506 Z M147.728431,0.258783925 C149.222468,0.258783925 150.387923,1.30986287 150.387923,2.84144148 C150.387923,4.37302007 149.222468,5.42409901 147.728431,5.42409901 C146.234171,5.42409901 145.068715,4.37302007 145.068715,2.84144148 C145.068715,1.30986287 146.234171,0.258783925 147.728431,0.258783925 Z" id="Fill-15" fill="#000000" fill-rule="nonzero"></path>
                <path d="M157.818609,7.176676 L157.818609,9.88984795 L158.290916,9.88984795 C158.966183,8.32951574 160.518336,6.90531389 163.58956,6.90531389 C167.301852,6.90531389 170.103059,9.58479019 170.103059,13.9596059 L170.103059,23.9993305 L165.850956,23.9993305 L165.850956,14.3670983 C165.850956,12.0268247 164.500869,10.6356445 162.070712,10.6356445 C159.337234,10.6356445 157.886114,12.3318824 157.886114,15.3164165 L157.886114,23.9993305 L153.63334,23.9993305 L153.63334,7.176676 L157.818609,7.176676 Z" id="Fill-17" fill="#000000"></path>
                <path d="M186.09837,15.3164839 C186.09837,12.2641093 184.140967,10.5002555 181.508522,10.5002555 C178.943804,10.5002555 176.91845,12.1962687 176.91845,15.3164839 C176.91845,18.4369236 178.943804,20.1329369 181.508522,20.1329369 C184.140967,20.1329369 186.09837,18.3690831 186.09837,15.3164839 Z M190.350697,7.17674339 L190.350697,23.4227533 C190.350697,28.0354601 187.009902,31.2574361 181.74434,31.2574361 C177.154491,31.2574361 174.555798,29.1546043 172.868636,26.5092728 L176.445696,24.2707599 C177.323476,26.0006936 178.943804,27.5947213 181.474322,27.5947213 C184.106992,27.5947213 186.09837,26.2379108 186.09837,23.2533766 L186.09837,21.0827043 L185.693344,21.0827043 C184.816011,22.5069063 183.330692,23.9315574 180.360948,23.9315574 C176.176126,23.9315574 172.666123,20.3362338 172.666123,15.3164839 C172.666123,10.2969585 176.176126,6.70163505 180.360948,6.70163505 C183.330692,6.70163505 184.816011,8.12628618 185.693344,9.55048805 L186.166098,9.55048805 L186.166098,7.17674339 L190.350697,7.17674339 Z" id="Fill-18" fill="#000000" fill-rule="nonzero"></path>
                <g id="Fill-20-Clipped" transform="translate(193.950131, 0.257436)">
                    <mask id="mask-2" fill="white">
                        <use xlink:href="#path-1"></use>
                    </mask>
                    <g id="path-3"></g>
                    <path d="M9.33341449,0.00658187927 L8.18494652,4.16349915 L8.09285452,4.16349915 L6.94438655,0.00658187927 L5.22168461,0.00658187927 L5.22168461,5.02206373 L6.18641558,5.02206373 L6.18641558,0.865146472 L6.27828407,0.865146472 L7.42697556,5.02206373 L8.85127252,5.02206373 L9.99951698,0.865146472 L10.091609,0.865146472 L10.091609,5.02206373 L11.05634,5.02206373 L11.05634,0.00658187927 L9.33341449,0.00658187927 Z M0.168023232,0.00658187927 L0.168023232,0.865146472 L1.86792569,0.865146472 L1.86792569,5.02206373 L2.83265666,5.02206373 L2.83265666,0.865146472 L4.53233561,0.865146472 L4.53233561,0.00658187927 L0.168023232,0.00658187927 Z" id="Fill-20" fill="#000000" fill-rule="nonzero" mask="url(#mask-2)"></path>
                </g>
                <path d="M53.058,27.5 L170.103059,27.5" id="Line" stroke="#000000" stroke-width="0.5" stroke-linecap="square"></path>
                <path d="M192.5,27.5 L203.834513,27.5" id="Line" stroke="#000000" stroke-width="0.5" stroke-linecap="square"></path>
            </g>
        </g>
    </g>
</svg>