<?xml version="1.0" encoding="UTF-8"?>
<svg width="209px" height="50px" viewBox="0 0 209 50" version="1.1" xmlns="http://www.w3.org/2000/svg" xmlns:xlink="http://www.w3.org/1999/xlink">
    <!-- Generator: Sketch 52.2 (67145) - http://www.bohemiancoding.com/sketch -->
    <title>rf-hatching-black</title>
    <desc>Created with Sketch.</desc>
    <defs>
        <polygon id="path-1" points="0.168090289 0.00658187927 11.05634 0.00658187927 11.05634 5.02199635 0.168090289 5.02199635"></polygon>
    </defs>
    <g id="Page-1" stroke="none" stroke-width="1" fill="none" fill-rule="evenodd">
        <g id="Artboard" transform="translate(-83.000000, -2576.000000)">
            <g id="rf-hatching-black" transform="translate(83.000000, 2576.000000)">
                <path d="M59.07,43.866 L57.555,39.609 L57.497,39.609 L55.982,43.866 L59.07,43.866 Z M54,47.141 L57.108,38.595 L57.943,38.595 L61.052,47.141 L60.233,47.141 L59.319,44.567 L55.731,44.567 L54.818,47.141 L54,47.141 Z M163.485,41.266 C163.247,40.097 162.225,39.213 160.885,39.213 C159.267,39.213 157.948,40.502 157.948,42.868 C157.948,45.243 159.267,46.524 160.885,46.524 C162.225,46.524 163.247,45.644 163.485,44.471 L164.27,44.471 C163.99,46.039 162.705,47.258 160.885,47.258 C158.728,47.258 157.192,45.543 157.192,42.868 C157.192,40.193 158.728,38.478 160.885,38.478 C162.705,38.478 163.99,39.693 164.27,41.266 L163.485,41.266 Z M170.526,43.966 C170.526,42.531 169.783,41.32 168.451,41.32 C167.121,41.32 166.378,42.53 166.378,43.966 C166.378,45.401 167.121,46.595 168.451,46.595 C169.783,46.595 170.526,45.401 170.526,43.965 L170.526,43.966 Z M165.631,43.965 C165.631,42 166.791,40.645 168.451,40.645 C170.112,40.645 171.273,42 171.273,43.965 C171.273,45.919 170.113,47.275 168.451,47.275 C166.791,47.275 165.631,45.919 165.631,43.965 Z M172.911,40.731 L173.633,40.731 L173.633,41.717 L173.7,41.717 C173.955,41.053 174.58,40.649 175.419,40.649 C176.303,40.649 176.866,41.087 177.151,41.813 L177.205,41.813 C177.493,41.103 178.169,40.649 179.105,40.649 C180.293,40.649 181.032,41.412 181.032,42.848 L181.032,47.142 L180.289,47.142 L180.289,42.848 C180.289,41.838 179.726,41.328 178.879,41.328 C177.902,41.328 177.351,42 177.351,42.923 L177.351,47.142 L176.591,47.142 L176.591,42.782 C176.591,41.912 176.082,41.328 175.206,41.328 C174.316,41.328 173.654,42.038 173.654,43.035 L173.654,47.142 L172.911,47.142 L172.911,40.732 L172.911,40.731 Z M185.682,46.595 C186.958,46.595 187.664,45.435 187.664,43.941 C187.664,42.463 186.972,41.32 185.682,41.32 C184.43,41.32 183.724,42.405 183.724,43.94 C183.724,45.488 184.442,46.595 185.682,46.595 Z M182.99,40.732 L183.712,40.732 L183.712,41.954 L183.804,41.954 C184.063,41.378 184.584,40.644 185.761,40.644 C187.347,40.644 188.411,41.976 188.411,43.954 C188.411,45.94 187.343,47.274 185.774,47.274 C184.61,47.274 184.059,46.541 183.804,45.952 L183.737,45.952 L183.737,49.545 L182.99,49.545 L182.99,40.732 Z M193.872,44.684 L193.872,43.757 C193.655,43.97 192.72,44.087 192.194,44.15 C191.109,44.283 190.475,44.609 190.475,45.384 C190.475,46.16 191.101,46.607 191.94,46.607 C193.126,46.607 193.872,45.735 193.872,44.684 Z M189.732,45.351 C189.732,44.083 190.747,43.677 192.194,43.498 C193.272,43.365 193.872,43.357 193.872,42.873 L193.872,42.723 C193.872,41.846 193.334,41.312 192.362,41.312 C191.436,41.312 190.855,41.784 190.622,42.334 L189.916,42.079 C190.35,41.032 191.36,40.644 192.341,40.644 C193.321,40.644 194.615,41.069 194.615,42.789 L194.615,47.141 L193.872,47.141 L193.872,46.128 L193.826,46.128 C193.559,46.695 192.908,47.288 191.839,47.288 C190.676,47.288 189.732,46.586 189.732,45.351 Z M197.338,47.141 L196.595,47.141 L196.595,40.731 L197.317,40.731 L197.317,41.737 L197.384,41.737 C197.684,41.082 198.331,40.648 199.271,40.648 C200.563,40.648 201.444,41.47 201.444,42.99 L201.444,47.142 L200.701,47.142 L200.701,43.036 C200.701,41.988 200.067,41.329 199.082,41.329 C198.072,41.329 197.338,42.017 197.338,43.136 L197.338,47.142 L197.338,47.141 Z M202.978,49.411 L203.178,48.757 C203.934,48.995 204.434,48.824 204.789,47.855 L205.023,47.205 L202.665,40.732 L203.47,40.732 L205.373,46.161 L205.432,46.161 L207.335,40.731 L208.141,40.731 L205.427,48.155 C205.086,49.085 204.497,49.545 203.696,49.545 C203.404,49.545 203.128,49.482 202.978,49.412 L202.978,49.411 Z M66.63,41.984 C67.827,41.984 68.358,41.649 68.358,40.733 C68.358,39.961 67.82,39.48 66.618,39.48 L65.143,39.48 L65.143,41.98 L66.629,41.984 L66.63,41.984 Z M63.534,38.13 L66.87,38.13 C68.911,38.13 70.007,39.277 70.007,40.976 C70.007,42.182 69.357,42.897 68.31,43.319 L70.332,47.027 L68.534,47.027 L66.54,43.319 L65.143,43.319 L65.143,47.027 L63.533,47.027 L63.533,38.131 L63.534,38.13 Z M77.068,43.586 C77.068,41.548 78.302,40.136 80.258,40.136 C81.886,40.136 83.016,41.088 83.125,42.529 L81.62,42.529 C81.5,41.886 81.035,41.399 80.278,41.399 C79.308,41.399 78.662,42.208 78.662,43.554 C78.662,44.901 79.296,45.739 80.278,45.739 C80.968,45.739 81.486,45.327 81.62,44.611 L83.124,44.611 C83.011,46.026 81.942,47.022 80.264,47.022 C78.271,47.027 77.068,45.606 77.068,43.586 Z M88.319,43.586 C88.319,42.364 87.788,41.388 86.724,41.388 C85.661,41.388 85.113,42.364 85.113,43.586 C85.113,44.808 85.643,45.773 86.726,45.773 C87.807,45.773 88.319,44.803 88.319,43.583 L88.319,43.586 Z M83.519,43.586 C83.519,41.518 84.761,40.136 86.716,40.136 C88.671,40.136 89.914,41.519 89.914,43.586 C89.914,45.653 88.671,47.027 86.716,47.027 C84.761,47.027 83.518,45.649 83.518,43.587 L83.519,43.586 Z M90.366,40.354 L91.891,40.354 L91.891,41.466 L91.96,41.466 C92.1689621,40.7355016 92.8454465,40.2387277 93.605,40.258 C93.795,40.258 93.984,40.272 94.171,40.302 L94.171,41.748 C93.9321422,41.6889106 93.6870572,41.6586946 93.441,41.658 C92.577,41.658 91.937,42.257 91.937,43.103 L91.937,47.027 L90.367,47.027 L90.367,40.354 L90.366,40.354 Z M99.079,43.69 C99.079,42.395 98.522,41.563 97.51,41.563 C96.463,41.563 95.925,42.455 95.925,43.69 C95.925,44.925 96.472,45.854 97.51,45.854 C98.514,45.854 99.079,44.984 99.079,43.69 Z M94.322,43.7 C94.322,41.474 95.534,40.267 97.076,40.267 C98.254,40.267 98.744,40.976 98.983,41.464 L99.055,41.464 L99.055,38.141 L100.632,38.141 L100.632,47.027 L99.079,47.027 L99.079,45.976 L98.983,45.976 C98.736,46.462 98.223,47.027 97.076,47.027 C95.503,47.027 94.322,45.897 94.322,43.699 L94.322,43.7 Z M112.818,43.69 C112.818,42.395 112.261,41.563 111.25,41.563 C110.202,41.563 109.664,42.455 109.664,43.69 C109.664,44.925 110.21,45.854 111.25,45.854 C112.254,45.854 112.818,44.984 112.818,43.69 Z M108.061,43.7 C108.061,41.474 109.272,40.267 110.815,40.267 C111.993,40.267 112.483,40.976 112.723,41.464 L112.788,41.464 L112.788,38.141 L114.365,38.141 L114.365,47.027 L112.818,47.027 L112.818,45.976 L112.723,45.976 C112.474,46.462 111.957,47.021 110.812,47.021 C109.238,47.021 108.062,45.898 108.062,43.699 L108.061,43.7 Z M117.929,38.13 L123.629,38.13 L123.629,39.48 L119.539,39.48 L119.539,41.969 L123.237,41.969 L123.237,43.319 L119.54,43.319 L119.54,47.028 L117.929,47.028 L117.929,38.13 Z M128.247,40.354 L129.82,40.354 L129.82,47.027 L128.296,47.027 L128.296,45.841 L128.228,45.841 C127.923,46.587 127.218,47.027 126.219,47.027 C124.908,47.027 123.995,46.206 123.995,44.603 L123.995,40.35 L125.568,40.35 L125.568,44.36 C125.568,45.207 126.072,45.74 126.828,45.74 C127.523,45.74 128.248,45.237 128.248,44.22 L128.248,40.354 L128.247,40.354 Z M134.157,41.57 L132.841,41.57 L132.841,45.026 C132.841,45.66 133.157,45.798 133.554,45.798 C133.708,45.794 133.862,45.772 134.012,45.733 L134.278,46.969 C133.978,47.066 133.664,47.119 133.348,47.124 C132.166,47.159 131.254,46.542 131.262,45.287 L131.262,41.571 L130.315,41.571 L130.315,40.355 L131.262,40.355 L131.262,38.76 L132.836,38.76 L132.836,40.355 L134.152,40.355 L134.157,41.571 L134.157,41.57 Z M139.115,40.354 L140.687,40.354 L140.687,47.027 L139.163,47.027 L139.163,45.841 L139.093,45.841 C138.789,46.587 138.086,47.027 137.086,47.027 C135.775,47.027 134.861,46.206 134.861,44.603 L134.861,40.35 L136.434,40.35 L136.434,44.36 C136.434,45.207 136.939,45.74 137.694,45.74 C138.389,45.74 139.114,45.237 139.114,44.22 L139.114,40.354 L139.115,40.354 Z M141.69,40.354 L143.216,40.354 L143.216,41.466 L143.286,41.466 C143.495055,40.7351334 144.172079,40.2382654 144.932,40.258 C145.122,40.258 145.31,40.272 145.497,40.302 L145.497,41.748 C145.258151,41.688863 145.01306,41.6586464 144.767,41.658 C143.902,41.658 143.264,42.257 143.264,43.103 L143.264,47.027 L141.69,47.027 L141.69,40.354 Z M153.309,39.468 C153.377447,39.4682811 153.442838,39.4396822 153.489099,39.3892337 C153.535359,39.3387853 153.558197,39.2711663 153.552,39.203 C153.557111,39.1382706 153.533756,39.0745283 153.488035,39.0284235 C153.442315,38.9823188 153.37877,38.958431 153.314,38.963 L152.97,38.963 L152.97,39.463 L153.309,39.468 Z M152.73,38.78 L153.386,38.78 C153.617032,38.7766595 153.807164,38.9609754 153.811,39.192 L153.811,39.208 C153.815216,39.3746884 153.723993,39.5291839 153.576,39.606 L153.866,40.149 L153.601,40.149 L153.344,39.659 L152.97,39.659 L152.97,40.149 L152.73,40.149 L152.73,38.779 L152.73,38.78 Z M154.436,39.48 C154.435448,38.8152446 153.896256,38.276724 153.2315,38.2770001 C152.566745,38.2772762 152.028,38.8162444 152.028,39.481 C152.028,40.1457556 152.566745,40.6847238 153.2315,40.6849999 C153.896256,40.685276 154.435448,40.1467554 154.436,39.482 L154.436,39.479 L154.436,39.48 Z M151.752,39.48 C151.752,38.6626186 152.414619,38 153.232,38 C154.049381,38 154.712,38.6626186 154.712,39.48 C154.712,40.2973814 154.049381,40.96 153.232,40.96 C152.414619,40.96 151.752,40.2973814 151.752,39.48 Z M150.201,43.065 C150.193,42.157 149.585,41.496 148.681,41.496 C147.742,41.496 147.111,42.214 147.064,43.065 L150.201,43.065 Z M145.5,43.73 C145.5,41.67 146.748,40.267 148.66,40.267 C150.301,40.267 151.708,41.297 151.708,43.637 L151.708,44.12 L147.056,44.12 C147.069,45.263 147.742,45.802 148.759,45.802 C149.437,45.802 149.955,45.637 150.17,45.072 L151.704,45.072 C151.427,46.231 150.411,47.027 148.737,47.027 C146.729,47.027 145.5,45.823 145.5,43.73 Z M106.003,43.065 C105.996,42.157 105.387,41.496 104.483,41.496 C103.545,41.496 102.915,42.214 102.867,43.065 L106.004,43.065 L106.003,43.065 Z M101.304,43.73 C101.304,41.67 102.551,40.267 104.462,40.267 C106.105,40.267 107.512,41.297 107.512,43.637 L107.512,44.12 L102.861,44.12 C102.874,45.263 103.548,45.802 104.563,45.802 C105.241,45.802 105.759,45.637 105.976,45.072 L107.51,45.072 C107.23,46.231 106.216,47.027 104.542,47.027 C102.533,47.027 101.304,45.823 101.304,43.73 Z M75.137,43.065 C75.127,42.157 74.519,41.496 73.617,41.496 C72.677,41.496 72.047,42.214 72,43.065 L75.137,43.065 Z M70.436,43.73 C70.436,41.67 71.682,40.267 73.594,40.267 C75.237,40.267 76.644,41.297 76.644,43.637 L76.644,44.12 L71.993,44.12 C72.006,45.263 72.68,45.802 73.697,45.802 C74.375,45.802 74.893,45.637 75.109,45.072 L76.642,45.072 C76.365,46.231 75.349,47.027 73.674,47.027 C71.666,47.027 70.437,45.823 70.437,43.73 L70.436,43.73 Z" id="Shape" fill="#000000" fill-rule="nonzero" opacity="0.5"></path>
                <polygon id="Fill-1" fill="#FCC200" points="30.270946 15.2805405 44.8892911 15.2805405 44.8892911 0.196103326 30.270946 0.196103326"></polygon>
                <polygon id="Fill-2" fill="#FCC200" points="30.270946 47.1089495 44.8892911 47.1089495 44.8892911 32.0245125 30.270946 32.0245125"></polygon>
                <polygon id="Fill-3" fill="#FCC200" points="15.4176884 32.2556921 30.0360333 32.2556921 30.0360333 17.1712549 15.4176884 17.1712549"></polygon>
                <polygon id="Fill-4" fill="#FCC200" points="0.564430717 15.2805405 15.1827757 15.2805405 15.1827757 0.196103326 0.564430717 0.196103326"></polygon>
                <polygon id="Fill-5" fill="#FCC200" points="0.564430717 47.1089495 15.1827757 47.1089495 15.1827757 32.0245125 0.564430717 32.0245125"></polygon>
                <polygon id="Fill-6" fill="#000000" points="68.9278951 4.25750349 68.9278951 14.0593369 60.0177686 14.0593369 60.0177686 4.25750349 55.5629288 4.25750349 55.5629288 27.9992181 60.0177686 27.9992181 60.0177686 18.1295441 68.9278951 18.1295441 68.9278951 27.9992181 73.3825112 27.9992181 73.3825112 4.25750349"></polygon>
                <path d="M83.6743535,24.9469109 C86.6440975,24.9469109 88.2979539,23.1828325 88.2979539,20.8769284 L88.2979539,20.6055662 L83.1680708,21.2159064 C81.5817187,21.419428 80.8056422,21.9958478 80.8056422,22.9797602 C80.8056422,24.1330492 81.7842318,24.9469109 83.6743535,24.9469109 M85.0242168,10.7017474 C89.5803131,10.7017474 92.5500571,13.3131585 92.5500571,17.24746 L92.5500571,27.9992855 L88.3652347,27.9992855 L88.3652347,25.6250916 L87.8929279,25.6250916 C87.3528931,26.7446849 86.1715671,28.4743939 82.6278125,28.4743939 C78.8482397,28.4743939 76.3505789,26.4389534 76.3505789,23.217202 C76.3505789,20.5377257 78.6792553,18.6718865 81.8854882,18.3329085 L88.2979539,17.6210322 L88.2979539,17.2137644 C88.2979539,15.6197365 87.0826523,14.3649114 84.787728,14.3649114 C82.5607552,14.3649114 81.1766927,15.5179758 80.1305989,17.2816049 L76.6883241,15.043092 C78.6792553,12.5329924 80.9406508,10.7017474 85.0242168,10.7017474" id="Fill-7" fill="#000000" fill-rule="nonzero"></path>
                <path d="M98.2859371,11.176676 L98.2859371,5.95295516 L102.538264,5.95295516 L102.538264,11.176676 L107.128336,11.176676 L107.128336,14.8396154 L102.538264,14.8396154 L102.538264,23.3185585 C102.538264,23.9971884 102.875786,24.3361664 103.483325,24.3361664 L106.183051,24.3361664 L106.183051,27.9993305 L101.593426,27.9993305 C99.7033047,27.9993305 98.2859371,26.6425198 98.2859371,24.7434343 L98.2859371,14.8396154 L94.0338339,14.8396154 L94.0338339,11.176676 L98.2859371,11.176676 Z" id="Fill-9" fill="#000000"></path>
                <path d="M117.488509,10.7017249 C122.146085,10.7017249 125.048325,13.313136 125.925882,17.1459014 L121.740836,18.2313499 C121.43729,16.1963586 120.120955,14.5001207 117.556014,14.5001207 C114.991072,14.5001207 113.033893,16.5355612 113.033893,19.5881605 C113.033893,22.6403104 114.822311,24.6753017 117.556014,24.6753017 C120.120955,24.6753017 121.302281,23.1830347 121.740836,20.9784421 L125.925882,22.0301949 C125.11583,25.8622863 122.179838,28.4743713 117.488509,28.4743713 C112.628643,28.4743713 108.781343,24.8112074 108.781343,19.5881605 C108.781343,14.3648889 112.628643,10.7017249 117.488509,10.7017249" id="Fill-11" fill="#000000"></path>
                <path d="M132.809313,4.2574361 L132.809313,13.8898929 L133.214339,13.8898929 C133.889383,12.3295607 135.441536,10.9053588 138.512983,10.9053588 C142.225052,10.9053588 145.026258,13.5846105 145.026258,17.9596508 L145.026258,27.9991506 L140.774155,27.9991506 L140.774155,18.3671432 C140.774155,16.0268696 139.424068,14.6356894 136.994136,14.6356894 C134.260433,14.6356894 132.809313,16.3319273 132.809313,19.3164614 L132.809313,27.9991506 L128.556986,27.9991506 L128.556986,4.2574361 L132.809313,4.2574361 Z" id="Fill-13" fill="#000000"></path>
                <path d="M148.602044,27.9991506 L152.854594,27.9991506 L152.854594,11.1764963 L148.602044,11.1764963 L148.602044,27.9991506 Z M150.728431,4.25878393 C152.222468,4.25878393 153.387923,5.30986287 153.387923,6.84144148 C153.387923,8.37302007 152.222468,9.42409901 150.728431,9.42409901 C149.234171,9.42409901 148.068715,8.37302007 148.068715,6.84144148 C148.068715,5.30986287 149.234171,4.25878393 150.728431,4.25878393 Z" id="Fill-15" fill="#000000" fill-rule="nonzero"></path>
                <path d="M160.818609,11.176676 L160.818609,13.889848 L161.290916,13.889848 C161.966183,12.3295157 163.518336,10.9053139 166.58956,10.9053139 C170.301852,10.9053139 173.103059,13.5847902 173.103059,17.9596059 L173.103059,27.9993305 L168.850956,27.9993305 L168.850956,18.3670983 C168.850956,16.0268247 167.500869,14.6356445 165.070712,14.6356445 C162.337234,14.6356445 160.886114,16.3318824 160.886114,19.3164165 L160.886114,27.9993305 L156.63334,27.9993305 L156.63334,11.176676 L160.818609,11.176676 Z" id="Fill-17" fill="#000000"></path>
                <path d="M189.09837,19.3164839 C189.09837,16.2641093 187.140967,14.5002555 184.508522,14.5002555 C181.943804,14.5002555 179.91845,16.1962687 179.91845,19.3164839 C179.91845,22.4369236 181.943804,24.1329369 184.508522,24.1329369 C187.140967,24.1329369 189.09837,22.3690831 189.09837,19.3164839 Z M193.350697,11.1767434 L193.350697,27.4227533 C193.350697,32.0354601 190.009902,35.2574361 184.74434,35.2574361 C180.154491,35.2574361 177.555798,33.1546043 175.868636,30.5092728 L179.445696,28.2707599 C180.323476,30.0006936 181.943804,31.5947213 184.474322,31.5947213 C187.106992,31.5947213 189.09837,30.2379108 189.09837,27.2533766 L189.09837,25.0827043 L188.693344,25.0827043 C187.816011,26.5069063 186.330692,27.9315574 183.360948,27.9315574 C179.176126,27.9315574 175.666123,24.3362338 175.666123,19.3164839 C175.666123,14.2969585 179.176126,10.701635 183.360948,10.701635 C186.330692,10.701635 187.816011,12.1262862 188.693344,13.550488 L189.166098,13.550488 L189.166098,11.1767434 L193.350697,11.1767434 Z" id="Fill-18" fill="#000000" fill-rule="nonzero"></path>
                <g id="Fill-20-Clipped" transform="translate(196.950131, 4.257436)">
                    <mask id="mask-2" fill="white">
                        <use xlink:href="#path-1"></use>
                    </mask>
                    <g id="path-3"></g>
                    <path d="M9.33341449,0.00658187927 L8.18494652,4.16349915 L8.09285452,4.16349915 L6.94438655,0.00658187927 L5.22168461,0.00658187927 L5.22168461,5.02206373 L6.18641558,5.02206373 L6.18641558,0.865146472 L6.27828407,0.865146472 L7.42697556,5.02206373 L8.85127252,5.02206373 L9.99951698,0.865146472 L10.091609,0.865146472 L10.091609,5.02206373 L11.05634,5.02206373 L11.05634,0.00658187927 L9.33341449,0.00658187927 Z M0.168023232,0.00658187927 L0.168023232,0.865146472 L1.86792569,0.865146472 L1.86792569,5.02206373 L2.83265666,5.02206373 L2.83265666,0.865146472 L4.53233561,0.865146472 L4.53233561,0.00658187927 L0.168023232,0.00658187927 Z" id="Fill-20" fill="#000000" fill-rule="nonzero" mask="url(#mask-2)"></path>
                </g>
                <path d="M56.058,31.5 L173.103059,31.5" id="Line" stroke="#000000" stroke-width="0.5" stroke-linecap="square"></path>
                <path d="M195.5,31.5 L206.834513,31.5" id="Line" stroke="#000000" stroke-width="0.5" stroke-linecap="square"></path>
            </g>
        </g>
    </g>
</svg>