<svg width="128" height="46" viewBox="0 0 128 46" fill="none" xmlns="http://www.w3.org/2000/svg">
<path d="M0.130859 2.88062H4.77317C7.61404 2.88062 9.13805 4.48448 9.13805 6.8596C9.13805 8.54709 8.23548 9.54695 6.77805 10.1361L9.59118 15.3212H7.08877L4.31449 10.1361H2.37248V15.3212H0.130859V2.88062ZM4.44025 8.27018C6.10483 8.27018 6.84464 7.80185 6.84464 6.5195C6.84464 5.44159 6.09558 4.76882 4.42176 4.76882H2.37248V8.2646L4.44025 8.27018Z" fill="#FFF"></path>
<path d="M18.9644 10.5095C18.9644 7.66046 20.6807 5.68677 23.4032 5.68677C25.6689 5.68677 27.241 7.01557 27.3926 9.03201H25.299C25.1307 8.13251 24.4833 7.45231 23.431 7.45231C22.0827 7.45231 21.1819 8.58226 21.1819 10.4649C21.1819 12.3475 22.0642 13.5202 23.431 13.5202C24.3927 13.5202 25.1122 12.9441 25.299 11.9424H27.3908C27.2336 13.9217 25.7466 15.3136 23.4125 15.3136C20.6382 15.3211 18.9644 13.3344 18.9644 10.5095Z" fill="#FFF"></path>
<path d="M27.94 10.5095C27.94 7.61772 29.6693 5.68677 32.3899 5.68677C35.1106 5.68677 36.8399 7.61958 36.8399 10.5095C36.8399 13.3994 35.1106 15.3211 32.3899 15.3211C29.6693 15.3211 27.94 13.3938 27.94 10.5095ZM34.6204 10.5095C34.6204 8.80156 33.8806 7.43559 32.401 7.43559C30.9214 7.43559 30.1575 8.80156 30.1575 10.5095C30.1575 12.2174 30.8973 13.5667 32.4029 13.5667C33.9084 13.5667 34.6204 12.21 34.6204 10.5039V10.5095Z" fill="#FFF"></path>
<path d="M37.4688 5.98981H39.5902V7.54535H39.6863C39.8276 7.04855 40.1292 6.61302 40.5437 6.30722C40.9582 6.00143 41.462 5.8427 41.9761 5.856C42.2392 5.85626 42.502 5.87676 42.7621 5.91733V7.93934C42.4299 7.85632 42.089 7.81389 41.7467 7.81297C40.5445 7.81297 39.6549 8.65114 39.6549 9.83498V15.3212H37.4688V5.98981Z" fill="#FFF"></path>
<path d="M42.9732 10.6676C42.9732 7.55655 44.6599 5.86906 46.8054 5.86906C48.444 5.86906 49.1265 6.85963 49.4594 7.54168H49.5593V2.89551H51.7528V15.3212H49.5926V13.8512H49.4594C49.1154 14.5314 48.4015 15.3212 46.8054 15.3212C44.6174 15.3212 42.9732 13.7415 42.9732 10.6676ZM49.5926 10.6546C49.5926 8.84447 48.8177 7.68107 47.4102 7.68107C45.9527 7.68107 45.2037 8.9281 45.2037 10.6546C45.2037 12.3811 45.9657 13.6802 47.4102 13.6802C48.8066 13.6802 49.5926 12.4648 49.5926 10.6546Z" fill="#FFF"></path>
<path d="M62.0913 10.6676C62.0913 7.55655 63.7762 5.86906 65.9235 5.86906C67.5622 5.86906 68.2447 6.85963 68.5776 7.54168H68.6682V2.89551H70.8618V15.3212H68.7108V13.8512H68.5776C68.2317 14.5314 67.5123 15.3119 65.918 15.3119C63.7282 15.3119 62.0913 13.7415 62.0913 10.6676ZM68.7108 10.6546C68.7108 8.84447 67.9358 7.68107 66.5283 7.68107C65.0709 7.68107 64.3218 8.9281 64.3218 10.6546C64.3218 12.3811 65.082 13.6802 66.5283 13.6802C67.9247 13.6802 68.7108 12.4648 68.7108 10.6546Z" fill="#FFF"></path>
<path d="M75.8223 2.88062H83.7549V4.76882H78.0639V8.24788H83.2074V10.1361H78.0639V15.3212H75.8223V2.88062Z" fill="#FFF"></path>
<path d="M90.1803 5.98971H92.3683V15.3211H90.2487V13.6615H90.1526C89.729 14.7059 88.7488 15.3211 87.3579 15.3211C85.5325 15.3211 84.2637 14.1726 84.2637 11.9312V5.98413H86.4517V11.5911C86.4517 12.775 87.1526 13.5221 88.205 13.5221C89.1723 13.5221 90.1822 12.8177 90.1822 11.396L90.1803 5.98971Z" fill="#FFF"></path>
<path d="M98.4032 7.69019H96.5722V12.5222C96.5722 13.4087 97.0124 13.602 97.5636 13.602C97.7791 13.5966 97.9932 13.5661 98.2016 13.5109L98.5716 15.2393C98.1531 15.3758 97.7168 15.4491 97.2769 15.4567C95.6327 15.5051 94.3639 14.6427 94.375 12.8883V7.69019H93.0581V5.98969H94.375V3.75952H96.5648V5.98969H98.3958L98.4032 7.69019Z" fill="#FFF"></path>
<path d="M105.302 5.98971H107.49V15.3211H105.368V13.6615H105.272C104.849 14.7059 103.87 15.3211 102.479 15.3211C100.654 15.3211 99.3838 14.1726 99.3838 11.9312V5.98413H101.571V11.5911C101.571 12.775 102.274 13.5221 103.325 13.5221C104.292 13.5221 105.302 12.8177 105.302 11.396V5.98971Z" fill="#FFF"></path>
<path d="M108.886 5.98985H111.009V7.54539H111.105C111.247 7.04828 111.548 6.61252 111.963 6.30669C112.378 6.00086 112.882 5.84233 113.397 5.85605C113.66 5.85631 113.923 5.87681 114.183 5.91737V7.93939C113.851 7.85649 113.51 7.81406 113.167 7.81301C111.963 7.81301 111.076 8.65118 111.076 9.83503V15.3212H108.886V5.98985Z" fill="#FFF"></path>
<path d="M122.887 4.76682C122.887 4.35779 123.008 3.95805 123.235 3.61814C123.461 3.27822 123.783 3.01339 124.159 2.85712C124.535 2.70084 124.949 2.66015 125.348 2.74017C125.747 2.82019 126.114 3.01734 126.401 3.3067C126.689 3.59605 126.885 3.96462 126.964 4.36582C127.044 4.76701 127.003 5.18282 126.847 5.56067C126.691 5.93853 126.427 6.26147 126.089 6.48868C125.75 6.71588 125.352 6.83715 124.945 6.83715C124.675 6.83715 124.407 6.78359 124.157 6.67952C123.907 6.57545 123.68 6.42292 123.489 6.23065C123.298 6.03838 123.146 5.81013 123.043 5.55896C122.94 5.30778 122.886 5.03861 122.887 4.76682ZM126.621 4.76682C126.621 4.4338 126.523 4.10826 126.339 3.83136C126.154 3.55447 125.893 3.33865 125.587 3.21121C125.28 3.08377 124.943 3.05043 124.618 3.11539C124.293 3.18036 123.995 3.34073 123.76 3.57621C123.526 3.81169 123.366 4.11171 123.302 4.43833C123.237 4.76495 123.27 5.1035 123.397 5.41117C123.524 5.71884 123.739 5.98181 124.014 6.16682C124.29 6.35184 124.614 6.45059 124.945 6.45059C125.165 6.45083 125.383 6.40745 125.587 6.32292C125.79 6.23839 125.975 6.11437 126.131 5.95797C126.286 5.80157 126.41 5.61585 126.494 5.41146C126.578 5.20706 126.621 4.988 126.621 4.76682ZM124.248 3.78926H125.16C125.238 3.78799 125.316 3.80263 125.389 3.8323C125.461 3.86197 125.527 3.90607 125.582 3.96194C125.638 4.01782 125.681 4.08432 125.71 4.15748C125.739 4.23063 125.753 4.30893 125.752 4.38769C125.754 4.50209 125.725 4.615 125.667 4.71356C125.61 4.81213 125.525 4.89239 125.424 4.94523L125.829 5.70348H125.459L125.102 5.01771H124.581V5.70348H124.248V3.78926ZM125.053 4.75195C125.1 4.75215 125.146 4.74243 125.19 4.72339C125.233 4.70436 125.272 4.67644 125.304 4.64144C125.336 4.60643 125.36 4.56511 125.375 4.52013C125.39 4.47514 125.395 4.4275 125.391 4.38025C125.395 4.33549 125.388 4.29048 125.373 4.24829C125.358 4.20611 125.334 4.16774 125.302 4.13581C125.271 4.10388 125.233 4.07914 125.191 4.06327C125.149 4.0474 125.104 4.04079 125.06 4.04387H124.581V4.74451L125.053 4.75195Z" fill="#FFF"></path>
<path d="M114.187 10.7102C114.187 7.82958 115.923 5.8689 118.583 5.8689C120.867 5.8689 122.826 7.30735 122.826 10.582V11.2566H116.352C116.371 12.8549 117.307 13.6076 118.722 13.6076C119.665 13.6076 120.386 13.3771 120.686 12.5873H122.82C122.434 14.2079 121.021 15.3211 118.692 15.3211C115.897 15.3211 114.187 13.6373 114.187 10.7102ZM120.728 9.78098C120.717 8.51164 119.87 7.58798 118.612 7.58798C117.307 7.58798 116.43 8.59156 116.363 9.78098H120.728Z" fill="#FFF"></path>
<path d="M52.6885 10.7102C52.6885 7.82958 54.4233 5.8689 57.083 5.8689C59.369 5.8689 61.3276 7.30735 61.3276 10.582V11.2566H54.8543C54.8728 12.8549 55.8105 13.6076 57.2235 13.6076C58.1668 13.6076 58.8881 13.3771 59.1896 12.5873H61.3239C60.9355 14.2079 59.5243 15.3211 57.1939 15.3211C54.3993 15.3211 52.6885 13.6373 52.6885 10.7102ZM59.2284 9.78098C59.2173 8.51164 58.3702 7.58798 57.1125 7.58798C55.8068 7.58798 54.9301 8.59156 54.8635 9.78098H59.2284Z" fill="#FFF"></path>
<path d="M9.73535 10.7102C9.73535 7.82958 11.4702 5.8689 14.1298 5.8689C16.4158 5.8689 18.3745 7.30735 18.3745 10.582V11.2566H11.9012C11.9197 12.8549 12.8574 13.6076 14.2723 13.6076C15.2155 13.6076 15.9368 13.3771 16.2364 12.5873H18.3708C17.9842 14.2079 16.5712 15.3211 14.2408 15.3211C11.4462 15.3211 9.73535 13.6373 9.73535 10.7102ZM16.2771 9.78098C16.2642 8.51164 15.4171 7.58798 14.1613 7.58798C12.8555 7.58798 11.9788 8.59156 11.9123 9.78098H16.2771Z" fill="#FFF"></path>
<path fill-rule="evenodd" clip-rule="evenodd" d="M102.824 22.3281V40.3071L112.009 31.2412L121.112 22.3281H102.824Z" fill="#FFF"></path>
<path fill-rule="evenodd" clip-rule="evenodd" d="M77.7979 22.3281L86.9008 31.2412L96.0864 40.3071V22.3281H77.7979Z" fill="#FFF"></path>
<path d="M0 24.9876V21.8182H14.9325V24.9876H9.36612V40.0001H5.56641V24.9876H0Z" fill="#FFF"></path>
<path d="M15.9043 40.0001V26.3637H19.5708V28.743H19.7128C19.9614 27.8966 20.3787 27.2574 20.9646 26.8254C21.5506 26.3874 22.2253 26.1684 22.9888 26.1684C23.1782 26.1684 23.3824 26.1802 23.6013 26.2039C23.8203 26.2276 24.0127 26.2601 24.1784 26.3016V29.6574C24.0008 29.6041 23.7552 29.5568 23.4415 29.5153C23.1279 29.4739 22.8408 29.4532 22.5804 29.4532C22.024 29.4532 21.5269 29.5745 21.0889 29.8172C20.6569 30.0539 20.3136 30.3854 20.0591 30.8115C19.8105 31.2376 19.6862 31.7289 19.6862 32.2852V40.0001H15.9043Z" fill="#FFF"></path>
<path d="M26.1342 40.0001V26.3637H29.9162V40.0001H26.1342ZM28.0341 24.6059C27.4718 24.6059 26.9895 24.4195 26.587 24.0466C26.1905 23.6678 25.9922 23.215 25.9922 22.6883C25.9922 22.1674 26.1905 21.7206 26.587 21.3477C26.9895 20.9689 27.4718 20.7795 28.0341 20.7795C28.5964 20.7795 29.0758 20.9689 29.4723 21.3477C29.8748 21.7206 30.076 22.1674 30.076 22.6883C30.076 23.215 29.8748 23.6678 29.4723 24.0466C29.0758 24.4195 28.5964 24.6059 28.0341 24.6059Z" fill="#FFF"></path>
<path d="M36.8343 40.2575C35.9642 40.2575 35.1889 40.1066 34.5083 39.8048C33.8276 39.497 33.289 39.0442 32.8925 38.4464C32.5019 37.8428 32.3066 37.0911 32.3066 36.1915C32.3066 35.4339 32.4457 34.7977 32.7238 34.2827C33.002 33.7678 33.3808 33.3535 33.8602 33.0398C34.3396 32.7262 34.8841 32.4894 35.4937 32.3296C36.1092 32.1698 36.7544 32.0574 37.4291 31.9923C38.2222 31.9094 38.8614 31.8325 39.3467 31.7614C39.832 31.6845 40.1842 31.572 40.4032 31.4241C40.6221 31.2761 40.7316 31.0571 40.7316 30.7671V30.7138C40.7316 30.1516 40.5541 29.7166 40.199 29.4088C39.8498 29.101 39.3526 28.9472 38.7075 28.9472C38.0269 28.9472 37.4853 29.0981 37.0828 29.3999C36.6804 29.6959 36.414 30.0687 36.2838 30.5185L32.786 30.2344C32.9635 29.4058 33.3127 28.6897 33.8336 28.086C34.3544 27.4764 35.0261 27.0088 35.8488 26.6833C36.6774 26.3519 37.6362 26.1861 38.7252 26.1861C39.4828 26.1861 40.2078 26.2749 40.9003 26.4525C41.5987 26.63 42.2172 26.9053 42.7558 27.2781C43.3003 27.651 43.7294 28.1304 44.0431 28.7163C44.3568 29.2964 44.5136 29.9918 44.5136 30.8026V40.0001H40.9269V38.1091H40.8204C40.6014 38.5352 40.3085 38.9111 39.9415 39.2366C39.5746 39.5562 39.1336 39.8077 38.6187 39.9912C38.1038 40.1687 37.509 40.2575 36.8343 40.2575ZM37.9174 37.6474C38.4737 37.6474 38.9649 37.5379 39.3911 37.319C39.8172 37.0941 40.1516 36.7922 40.3943 36.4134C40.6369 36.0346 40.7583 35.6055 40.7583 35.1261V33.679C40.6399 33.756 40.4771 33.827 40.27 33.8921C40.0688 33.9513 39.8409 34.0075 39.5864 34.0608C39.3319 34.1081 39.0774 34.1525 38.8229 34.194C38.5684 34.2295 38.3376 34.262 38.1304 34.2916C37.6865 34.3567 37.2989 34.4603 36.9674 34.6023C36.636 34.7444 36.3785 34.9367 36.1951 35.1794C36.0116 35.4161 35.9198 35.7121 35.9198 36.0672C35.9198 36.5821 36.1063 36.9757 36.4791 37.2479C36.8579 37.5143 37.3373 37.6474 37.9174 37.6474Z" fill="#FFF"></path>
<path d="M53.5909 45.3978C52.3657 45.3978 51.3152 45.2291 50.4393 44.8918C49.5692 44.5603 48.8768 44.1075 48.3618 43.5334C47.8469 42.9593 47.5125 42.3142 47.3586 41.5981L50.8565 41.1276C50.963 41.3998 51.1317 41.6543 51.3626 41.891C51.5934 42.1278 51.8982 42.3172 52.277 42.4592C52.6617 42.6072 53.1292 42.6812 53.6797 42.6812C54.5023 42.6812 55.18 42.4799 55.7127 42.0775C56.2513 41.6809 56.5206 41.0151 56.5206 40.08V37.5853H56.3608C56.1951 37.9641 55.9465 38.3222 55.615 38.6595C55.2836 38.9969 54.8575 39.2721 54.3366 39.4852C53.8158 39.6982 53.1943 39.8048 52.4723 39.8048C51.4484 39.8048 50.5162 39.568 49.6758 39.0945C48.8412 38.6151 48.1754 37.8842 47.6782 36.9017C47.187 35.9133 46.9414 34.6645 46.9414 33.1553C46.9414 31.6105 47.1929 30.3203 47.696 29.2845C48.1991 28.2488 48.8679 27.4734 49.7024 26.9585C50.5428 26.4436 51.4632 26.1861 52.4634 26.1861C53.2269 26.1861 53.8661 26.3164 54.381 26.5768C54.8959 26.8313 55.3102 27.1509 55.6239 27.5356C55.9435 27.9144 56.1891 28.2872 56.3608 28.6542H56.5028V26.3637H60.2581V40.1332C60.2581 41.2933 59.9741 42.2639 59.4059 43.0452C58.8377 43.8264 58.0505 44.4124 57.0444 44.803C56.0441 45.1995 54.893 45.3978 53.5909 45.3978ZM53.6708 36.9638C54.2804 36.9638 54.7953 36.8129 55.2155 36.5111C55.6417 36.2033 55.9672 35.7653 56.1921 35.1972C56.4229 34.6231 56.5383 33.9365 56.5383 33.1375C56.5383 32.3385 56.4259 31.646 56.201 31.0601C55.9761 30.4682 55.6505 30.0095 55.2244 29.684C54.7983 29.3585 54.2804 29.1957 53.6708 29.1957C53.0493 29.1957 52.5255 29.3644 52.0994 29.7018C51.6733 30.0332 51.3507 30.4949 51.1317 31.0867C50.9127 31.6786 50.8032 32.3622 50.8032 33.1375C50.8032 33.9247 50.9127 34.6053 51.1317 35.1794C51.3566 35.7476 51.6792 36.1885 52.0994 36.5022C52.5255 36.81 53.0493 36.9638 53.6708 36.9638Z" fill="#FFF"></path>
<path d="M69.4827 40.2664C68.08 40.2664 66.8726 39.9823 65.8606 39.4141C64.8544 38.84 64.0791 38.0292 63.5346 36.9816C62.9901 35.9281 62.7178 34.6822 62.7178 33.244C62.7178 31.8413 62.9901 30.6103 63.5346 29.5508C64.0791 28.4914 64.8455 27.6658 65.8339 27.0739C66.8282 26.4821 67.9942 26.1861 69.3318 26.1861C70.2314 26.1861 71.0689 26.3312 71.8442 26.6212C72.6255 26.9053 73.3061 27.3343 73.8861 27.9084C74.4721 28.4825 74.9278 29.2046 75.2533 30.0746C75.5788 30.9388 75.7416 31.9508 75.7416 33.1109V34.1496H64.227V31.8058H72.1816C72.1816 31.2613 72.0632 30.7789 71.8265 30.3587C71.5897 29.9385 71.2612 29.61 70.841 29.3733C70.4267 29.1306 69.9444 29.0093 69.3939 29.0093C68.8198 29.0093 68.3108 29.1425 67.867 29.4088C67.429 29.6692 67.0857 30.0214 66.8371 30.4653C66.5885 30.9032 66.4613 31.3915 66.4554 31.9301V34.1584C66.4554 34.8332 66.5797 35.4161 66.8282 35.9074C67.0827 36.3986 67.4408 36.7774 67.9025 37.0437C68.3641 37.3101 68.9116 37.4432 69.5449 37.4432C69.9651 37.4432 70.3498 37.3841 70.699 37.2657C71.0482 37.1473 71.3471 36.9698 71.5956 36.733C71.8442 36.4963 72.0336 36.2063 72.1638 35.863L75.6617 36.0938C75.4841 36.9343 75.1201 37.6682 74.5697 38.2955C74.0252 38.917 73.3209 39.4023 72.4568 39.7515C71.5986 40.0948 70.6072 40.2664 69.4827 40.2664Z" fill="#FFF"></path>
</svg>