<?xml version="1.0" encoding="UTF-8"?>
<svg width="149px" height="39px" viewBox="0 0 149 39" version="1.1" xmlns="http://www.w3.org/2000/svg" xmlns:xlink="http://www.w3.org/1999/xlink">
    <!-- Generator: Sketch 52.2 (67145) - http://www.bohemiancoding.com/sketch -->
    <title>Group 4</title>
    <desc>Created with Sketch.</desc>
    <g id="Page-1" stroke="none" stroke-width="1" fill="none" fill-rule="evenodd">
        <g id="Artboard" transform="translate(-435.000000, -2704.000000)">
            <g id="Group-4" transform="translate(435.000000, 2704.000000)">
                <path d="M5.07,34.866 L3.555,30.609 L3.497,30.609 L1.982,34.866 L5.07,34.866 Z M0,38.141 L3.108,29.595 L3.943,29.595 L7.052,38.141 L6.233,38.141 L5.319,35.567 L1.731,35.567 L0.818,38.141 L0,38.141 Z M12.63,32.984 C13.827,32.984 14.358,32.649 14.358,31.733 C14.358,30.961 13.82,30.48 12.618,30.48 L11.143,30.48 L11.143,32.98 L12.629,32.984 L12.63,32.984 Z M9.534,29.13 L12.87,29.13 C14.911,29.13 16.007,30.277 16.007,31.976 C16.007,33.182 15.357,33.897 14.31,34.319 L16.332,38.027 L14.534,38.027 L12.54,34.319 L11.143,34.319 L11.143,38.027 L9.533,38.027 L9.533,29.131 L9.534,29.13 Z M23.068,34.586 C23.068,32.548 24.302,31.136 26.258,31.136 C27.886,31.136 29.016,32.088 29.125,33.529 L27.62,33.529 C27.5,32.886 27.035,32.399 26.278,32.399 C25.308,32.399 24.662,33.208 24.662,34.554 C24.662,35.901 25.296,36.739 26.278,36.739 C26.968,36.739 27.486,36.327 27.62,35.611 L29.124,35.611 C29.011,37.026 27.942,38.022 26.264,38.022 C24.271,38.027 23.068,36.606 23.068,34.586 Z M34.319,34.586 C34.319,33.364 33.788,32.388 32.724,32.388 C31.661,32.388 31.113,33.364 31.113,34.586 C31.113,35.808 31.643,36.773 32.726,36.773 C33.807,36.773 34.319,35.803 34.319,34.583 L34.319,34.586 Z M29.519,34.586 C29.519,32.518 30.761,31.136 32.716,31.136 C34.671,31.136 35.914,32.519 35.914,34.586 C35.914,36.653 34.671,38.027 32.716,38.027 C30.761,38.027 29.518,36.649 29.518,34.587 L29.519,34.586 Z M36.366,31.354 L37.891,31.354 L37.891,32.466 L37.96,32.466 C38.1689621,31.7355016 38.8454465,31.2387277 39.605,31.258 C39.795,31.258 39.984,31.272 40.171,31.302 L40.171,32.748 C39.9321422,32.6889106 39.6870572,32.6586946 39.441,32.658 C38.577,32.658 37.937,33.257 37.937,34.103 L37.937,38.027 L36.367,38.027 L36.367,31.354 L36.366,31.354 Z M45.079,34.69 C45.079,33.395 44.522,32.563 43.51,32.563 C42.463,32.563 41.925,33.455 41.925,34.69 C41.925,35.925 42.472,36.854 43.51,36.854 C44.514,36.854 45.079,35.984 45.079,34.69 Z M40.322,34.7 C40.322,32.474 41.534,31.267 43.076,31.267 C44.254,31.267 44.744,31.976 44.983,32.464 L45.055,32.464 L45.055,29.141 L46.632,29.141 L46.632,38.027 L45.079,38.027 L45.079,36.976 L44.983,36.976 C44.736,37.462 44.223,38.027 43.076,38.027 C41.503,38.027 40.322,36.897 40.322,34.699 L40.322,34.7 Z M58.818,34.69 C58.818,33.395 58.261,32.563 57.25,32.563 C56.202,32.563 55.664,33.455 55.664,34.69 C55.664,35.925 56.21,36.854 57.25,36.854 C58.254,36.854 58.818,35.984 58.818,34.69 Z M54.061,34.7 C54.061,32.474 55.272,31.267 56.815,31.267 C57.993,31.267 58.483,31.976 58.723,32.464 L58.788,32.464 L58.788,29.141 L60.365,29.141 L60.365,38.027 L58.818,38.027 L58.818,36.976 L58.723,36.976 C58.474,37.462 57.957,38.021 56.812,38.021 C55.238,38.021 54.062,36.898 54.062,34.699 L54.061,34.7 Z M63.929,29.13 L69.629,29.13 L69.629,30.48 L65.539,30.48 L65.539,32.969 L69.237,32.969 L69.237,34.319 L65.54,34.319 L65.54,38.028 L63.929,38.028 L63.929,29.13 Z M74.247,31.354 L75.82,31.354 L75.82,38.027 L74.296,38.027 L74.296,36.841 L74.228,36.841 C73.923,37.587 73.218,38.027 72.219,38.027 C70.908,38.027 69.995,37.206 69.995,35.603 L69.995,31.35 L71.568,31.35 L71.568,35.36 C71.568,36.207 72.072,36.74 72.828,36.74 C73.523,36.74 74.248,36.237 74.248,35.22 L74.248,31.354 L74.247,31.354 Z M80.157,32.57 L78.841,32.57 L78.841,36.026 C78.841,36.66 79.157,36.798 79.554,36.798 C79.708,36.794 79.862,36.772 80.012,36.733 L80.278,37.969 C79.978,38.066 79.664,38.119 79.348,38.124 C78.166,38.159 77.254,37.542 77.262,36.287 L77.262,32.571 L76.315,32.571 L76.315,31.355 L77.262,31.355 L77.262,29.76 L78.836,29.76 L78.836,31.355 L80.152,31.355 L80.157,32.571 L80.157,32.57 Z M85.115,31.354 L86.687,31.354 L86.687,38.027 L85.163,38.027 L85.163,36.841 L85.093,36.841 C84.789,37.587 84.086,38.027 83.086,38.027 C81.775,38.027 80.861,37.206 80.861,35.603 L80.861,31.35 L82.434,31.35 L82.434,35.36 C82.434,36.207 82.939,36.74 83.694,36.74 C84.389,36.74 85.114,36.237 85.114,35.22 L85.114,31.354 L85.115,31.354 Z M87.69,31.354 L89.216,31.354 L89.216,32.466 L89.286,32.466 C89.4950548,31.7351334 90.1720786,31.2382654 90.932,31.258 C91.122,31.258 91.31,31.272 91.497,31.302 L91.497,32.748 C91.258151,32.688863 91.0130602,32.6586464 90.767,32.658 C89.902,32.658 89.264,33.257 89.264,34.103 L89.264,38.027 L87.69,38.027 L87.69,31.354 Z M99.309,30.468 C99.3774469,30.4682811 99.4428383,30.4396822 99.4890985,30.3892337 C99.5353588,30.3387853 99.5581975,30.2711663 99.552,30.203 C99.5571108,30.1382706 99.5337556,30.0745283 99.4880351,30.0284235 C99.4423146,29.9823188 99.3787699,29.958431 99.314,29.963 L98.97,29.963 L98.97,30.463 L99.309,30.468 Z M98.73,29.78 L99.386,29.78 C99.6170323,29.7766595 99.807164,29.9609754 99.811,30.192 L99.811,30.208 C99.8152157,30.3746884 99.7239935,30.5291839 99.576,30.606 L99.866,31.149 L99.601,31.149 L99.344,30.659 L98.97,30.659 L98.97,31.149 L98.73,31.149 L98.73,29.779 L98.73,29.78 Z M100.436,30.48 C100.435448,29.8152446 99.8962559,29.276724 99.2315004,29.2770001 C98.5667449,29.2772762 98.0280004,29.8162444 98.0280004,30.481 C98.0280004,31.1457556 98.5667449,31.6847238 99.2315004,31.6849999 C99.8962559,31.685276 100.435448,31.1467554 100.436,30.482 L100.436,30.479 L100.436,30.48 Z M97.752,30.48 C97.752,29.6626186 98.4146186,29 99.232,29 C100.049381,29 100.712,29.6626186 100.712,30.48 C100.712,31.2973814 100.049381,31.96 99.232,31.96 C98.4146186,31.96 97.752,31.2973814 97.752,30.48 Z M96.201,34.065 C96.193,33.157 95.585,32.496 94.681,32.496 C93.742,32.496 93.111,33.214 93.064,34.065 L96.201,34.065 Z M91.5,34.73 C91.5,32.67 92.748,31.267 94.66,31.267 C96.301,31.267 97.708,32.297 97.708,34.637 L97.708,35.12 L93.056,35.12 C93.069,36.263 93.742,36.802 94.759,36.802 C95.437,36.802 95.955,36.637 96.17,36.072 L97.704,36.072 C97.427,37.231 96.411,38.027 94.737,38.027 C92.729,38.027 91.5,36.823 91.5,34.73 Z M52.003,34.065 C51.996,33.157 51.387,32.496 50.483,32.496 C49.545,32.496 48.915,33.214 48.867,34.065 L52.004,34.065 L52.003,34.065 Z M47.304,34.73 C47.304,32.67 48.551,31.267 50.462,31.267 C52.105,31.267 53.512,32.297 53.512,34.637 L53.512,35.12 L48.861,35.12 C48.874,36.263 49.548,36.802 50.563,36.802 C51.241,36.802 51.759,36.637 51.976,36.072 L53.51,36.072 C53.23,37.231 52.216,38.027 50.542,38.027 C48.533,38.027 47.304,36.823 47.304,34.73 Z M21.137,34.065 C21.127,33.157 20.519,32.496 19.617,32.496 C18.677,32.496 18.047,33.214 18,34.065 L21.137,34.065 Z M16.436,34.73 C16.436,32.67 17.682,31.267 19.594,31.267 C21.237,31.267 22.644,32.297 22.644,34.637 L22.644,35.12 L17.993,35.12 C18.006,36.263 18.68,36.802 19.697,36.802 C20.375,36.802 20.893,36.637 21.109,36.072 L22.642,36.072 C22.365,37.231 21.349,38.027 19.674,38.027 C17.666,38.027 16.437,36.823 16.437,34.73 L16.436,34.73 Z" id="Shape" fill="#000000" fill-rule="nonzero" opacity="0.5"></path>
                <g id="Group" transform="translate(86.000000, 0.000000)" fill="#FC493E">
                    <polygon id="Path" points="34 0 34 22 46.5562936 10.9064529 59 0"></polygon>
                    <polygon id="Path" points="0 0 12.4435479 10.9064529 25 22 25 0"></polygon>
                </g>
                <polygon id="Path" fill="#000000" points="0 1 0 4.08562322 5.7194554 4.08562322 5.7194554 19 9.2805446 19 9.2805446 4.08562322 15 4.08562322 15 1"></polygon>
                <path d="M18.2001172,7.93174031 L18.561279,7.93174031 C19.0517362,6.4960096 20.135492,6 21.7613962,6 L23,6 L23,8.97591664 L21.0901778,8.97591664 C19.4388111,8.97591664 18.251583,9.86348061 18.251583,11.6908127 L18.251583,19 L15,19 L15,6.05234508 L18.2001172,6.05234508 L18.2001172,7.93174031 Z" id="Path" fill="#000000"></path>
                <path d="M24.7303123,19 L28.2696387,19 L28.2696387,6.01947036 L24.7303123,6.01947036 L24.7303123,19 Z M26.4999755,0 C27.9043354,0 29,0.916009431 29,2.25085352 C29,3.58555628 27.9043354,4.50156571 26.4999755,4.50156571 C25.0955175,4.50156571 24,3.58555628 24,2.25085352 C24,0.916009431 25.0955175,0 26.4999755,0 Z" id="Shape" fill="#000000"></path>
                <path d="M36.8771743,17.2213146 C39.2604989,17.2213146 40.5873587,15.8321161 40.5873587,14.0152797 L40.5873587,13.8014125 L36.4708962,14.2824813 C35.1979546,14.4426291 34.5750579,14.8969585 34.5750579,15.6716797 C34.5750579,16.580098 35.3603239,17.2213146 36.8771743,17.2213146 Z M37.9603618,6 C41.6166753,6 44,8.05715444 44,11.1564722 L44,19.6259369 L40.6416552,19.6259369 L40.6416552,17.7556698 L40.2624781,17.7556698 C39.8291464,18.6374929 38.8812272,20 36.0374226,20 C33.0041948,20 31,18.3968864 31,15.8588074 C31,13.7481261 32.8687846,12.2786133 35.4415796,12.0114117 L40.5873587,11.4503652 L40.5873587,11.1297328 C40.5873587,9.87399092 39.6124805,8.88554685 37.7709388,8.88554685 C35.9832679,8.88554685 34.8728375,9.79382081 34.0333696,11.1831635 L31.2708678,9.41990203 C32.8687846,7.44277342 34.6833672,6 37.9603618,6 Z" id="Shape" fill="#000000"></path>
                <path d="M56.633662,12.665702 C56.633662,10.303787 55.0841668,8.93926149 52.9999767,8.93926149 C50.9694427,8.93926149 49.3667579,10.251447 49.3667579,12.665702 C49.3667579,15.0800043 50.9694427,16.3921425 52.9999767,16.3921425 C55.0841668,16.3921425 56.633662,15.027617 56.633662,12.665702 Z M60,6.3674195 L60,18.9377673 C60,22.5069043 57.3549869,25 53.1870732,25 C49.5533878,25 47.4962591,23.372924 46.1605951,21.3259468 L48.9925648,19.59386 C49.6868283,20.9322628 50.9694427,22.1656075 52.9733819,22.1656075 C55.0571054,22.1656075 56.633662,21.1159725 56.633662,18.8065393 L56.633662,17.1269815 L56.3131251,17.1269815 C55.618395,18.2291928 54.4426263,19.3314513 52.0915553,19.3314513 C48.7788735,19.3314513 46,16.5497295 46,12.665702 C46,8.78167452 48.7788735,6 52.0915553,6 C54.4426263,6 55.618395,7.10221125 56.3131251,8.20446974 L56.6868516,8.20446974 L56.6868516,6.3674195 L60,6.3674195 Z" id="Shape" fill="#000000"></path>
                <path d="M72.6039417,11.6373967 C72.3653373,9.95416103 71.3038954,8.88540257 69.5794576,8.88540257 C67.6961046,8.88540257 66.7143519,10.0075917 66.4488756,11.6373967 L72.6039417,11.6373967 Z M69.6058662,6 C73.426316,6 76,8.69837104 76,12.6793677 L76,13.9885403 L66.4224669,13.9885403 C66.5549734,15.7518017 67.8022025,17.1144532 69.7124274,17.1144532 C71.5693717,17.1144532 72.5511244,16.0724341 73.0019245,15.1373245 L75.7345237,16.7403901 C74.8324602,18.1297328 73.2938095,20 69.7652447,20 C65.838697,20 63,17.0075436 63,12.8929943 C63,8.88540257 65.7325992,6 69.6058662,6 Z" id="Shape" fill="#000000"></path>
                <text id="Product" font-family="SFPro-Light, SF Pro" font-size="13" font-weight="300" fill="#747676">
                    <tspan x="102.336273" y="38">Product</tspan>
                </text>
                <path d="M0.5,22.5 L44.7477739,22.5" id="Line" stroke="#000000" stroke-width="0.5" stroke-linecap="square"></path>
                <path d="M60.5,22.5 L75,22.5" id="Line" stroke="#000000" stroke-width="0.5" stroke-linecap="square"></path>
            </g>
        </g>
    </g>
</svg>