<svg id="epiegn6xx0m1" xmlns="http://www.w3.org/2000/svg" xmlns:xlink="http://www.w3.org/1999/xlink" viewBox="0 0 310 310" shape-rendering="geometricPrecision" text-rendering="geometricPrecision"><style><![CDATA[#epiegn6xx0m2_to {animation: epiegn6xx0m2_to__to 1500ms linear 1 normal forwards}@keyframes epiegn6xx0m2_to__to { 0% {transform: translate(245.025873px,155.491904px)} 33.333333% {transform: translate(245.025873px,155.491904px)} 50% {transform: translate(265.024127px,155.491904px)} 66.666667% {transform: translate(245.024127px,155.491904px)} 100% {transform: translate(245.024127px,155.491904px)} }#epiegn6xx0m6_to {animation: epiegn6xx0m6_to__to 1500ms linear 1 normal forwards}@keyframes epiegn6xx0m6_to__to { 0% {transform: translate(64.974127px,155.500000px)} 33.333333% {transform: translate(64.974127px,155.500000px)} 50% {transform: translate(44.974364px,155.500000px)} 66.666667% {transform: translate(64.974364px,155.500000px)} 100% {transform: translate(64.974364px,155.500000px)} }#epiegn6xx0m10_to {animation: epiegn6xx0m10_to__to 1500ms linear 1 normal forwards}@keyframes epiegn6xx0m10_to__to { 0% {transform: translate(155.508096px,245.025873px)} 33.333333% {transform: translate(155.508096px,245.025873px)} 50% {transform: translate(155.508096px,265.024127px)} 66.666667% {transform: translate(155.508096px,245.024127px)} 100% {transform: translate(155.508096px,245.024127px)} }#epiegn6xx0m14_to {animation: epiegn6xx0m14_to__to 1500ms linear 1 normal forwards}@keyframes epiegn6xx0m14_to__to { 0% {transform: translate(155.500000px,64.974127px)} 33.333333% {transform: translate(155.500000px,64.974127px)} 50% {transform: translate(155.500000px,44.974127px)} 66.666667% {transform: translate(155.500000px,64.974127px)} 100% {transform: translate(155.500000px,64.974127px)} }]]></style><g id="epiegn6xx0m2_to" transform="translate(245.025873,155.491904)"><g id="epiegn6xx0m2" transform="rotate(225) translate(-80.236031,79.613777)"><polygon id="epiegn6xx0m3" points="63.591573,95.416940 95.397220,95.416940 95.397220,63.611293 63.591573,63.611293" transform="matrix(0 1 -1 0 143.84254584780507 -143.22092852814728)" fill="rgb(252,73,62)" fill-rule="evenodd" stroke="rgb(252,73,62)" stroke-width="1"/><polygon id="epiegn6xx0m4" points="63.591573,63.608749 95.397220,63.608749 95.397220,31.802466 63.591573,31.802466" transform="matrix(0 1 -1 0 143.84572665452316 -143.21520322596135)" fill="rgb(252,73,62)" fill-rule="evenodd" stroke="rgb(252,73,62)" stroke-width="1"/><polygon id="epiegn6xx0m5" points="31.805647,95.416940 63.611929,95.416940 63.611929,63.611293 31.805647,63.611293" transform="matrix(0 1 -1 0 143.84572665452316 -143.21520322596135)" fill="rgb(252,73,62)" fill-rule="evenodd" stroke="rgb(252,73,62)" stroke-width="1"/></g></g><g id="epiegn6xx0m6_to" transform="translate(64.974127,155.500000)"><g id="epiegn6xx0m6" transform="rotate(45) translate(-80.236031,79.613777)"><polygon id="epiegn6xx0m7" points="63.591573,95.416940 95.397220,95.416940 95.397220,63.611293 63.591573,63.611293" transform="matrix(0 1 -1 0 143.84970228461864 -143.21090955337780)" fill="rgb(252,73,62)" fill-rule="evenodd" stroke="rgb(252,73,62)" stroke-width="1"/><polygon id="epiegn6xx0m8" points="63.591573,63.608749 95.397220,63.608749 95.397220,31.802466 63.591573,31.802466" transform="matrix(0 1 -1 0 143.84572665452316 -143.21520322596135)" fill="rgb(252,73,62)" fill-rule="evenodd" stroke="rgb(252,73,62)" stroke-width="1"/><polygon id="epiegn6xx0m9" points="31.805647,95.416940 63.611929,95.416940 63.611929,63.611293 31.805647,63.611293" transform="matrix(0 1 -1 0 143.85574563282813 -143.22522220426632)" fill="rgb(252,73,62)" fill-rule="evenodd" stroke="rgb(252,73,62)" stroke-width="1"/></g></g><g id="epiegn6xx0m10_to" transform="translate(155.508096,245.025873)"><g id="epiegn6xx0m10" transform="rotate(1125) translate(-63.601431,-63.609701)"><polygon id="epiegn6xx0m11" points="31.805647,95.416940 63.611929,95.416940 63.611929,63.611293 31.805647,63.611293" fill="rgb(252,73,62)" fill-rule="evenodd" stroke="rgb(252,73,62)" stroke-width="1"/><polygon id="epiegn6xx0m12" points="63.591573,95.416940 95.397220,95.416940 95.397220,63.611293 63.591573,63.611293" fill="rgb(252,73,62)" fill-rule="evenodd" stroke="rgb(252,73,62)" stroke-width="1"/><polygon id="epiegn6xx0m13" points="63.591573,63.608749 95.397220,63.608749 95.397220,31.802466 63.591573,31.802466" fill="rgb(252,73,62)" fill-rule="evenodd" stroke="rgb(252,73,62)" stroke-width="1"/></g></g><g id="epiegn6xx0m14_to" transform="translate(155.500000,64.974127)"><g id="epiegn6xx0m14" transform="rotate(-135) translate(-63.601431,-63.609701)"><polygon id="epiegn6xx0m15" points="31.805647,95.416940 63.611929,95.416940 63.611929,63.611293 31.805647,63.611293" fill="rgb(252,73,62)" fill-rule="evenodd" stroke="rgb(252,73,62)" stroke-width="1"/><polygon id="epiegn6xx0m16" points="63.591573,95.416940 95.397220,95.416940 95.397220,63.611293 63.591573,63.611293" fill="rgb(252,73,62)" fill-rule="evenodd" stroke="rgb(252,73,62)" stroke-width="1"/><polygon id="epiegn6xx0m17" points="63.591573,63.608749 95.397220,63.608749 95.397220,31.802466 63.591573,31.802466" fill="rgb(252,73,62)" fill-rule="evenodd" stroke="rgb(252,73,62)" stroke-width="1"/></g></g><rect id="epiegn6xx0m18" width="35" height="35" rx="0" ry="0" transform="matrix(0.70710700000000 -0.70710700000000 0.70710700000000 0.70710700000000 130.75135200000005 155.50000000000003)" fill="rgb(252,194,0)" fill-rule="evenodd" stroke="none" stroke-width="1"/></svg>