<?xml version="1.0" encoding="UTF-8"?>
<svg width="271px" height="270px" viewBox="0 0 271 270" version="1.1" xmlns="http://www.w3.org/2000/svg" xmlns:xlink="http://www.w3.org/1999/xlink">
    <title>Group 25</title>
    <g id="Triage" stroke="none" stroke-width="1" fill="none" fill-rule="evenodd">
        <g id="Hatching-Triage" transform="translate(-272.000000, -3486.000000)">
            <g id="Group-42" transform="translate(-1.000000, 2877.000000)">
                <g id="Group-25" transform="translate(273.000000, 609.000000)">
                    <g id="Group-6" transform="translate(135.471315, 68.000000) rotate(45.000000) translate(-135.471315, -68.000000) translate(87.471315, 20.000000)">
                        <polygon id="Fill-1" fill="#FC493E" points="1.5063506e-12 31.8056466 31.8056466 31.8056466 31.8056466 -3.12638804e-13 1.5063506e-12 -3.12638804e-13" stroke="#FC493E"></polygon>
                        <polygon id="Fill-2" fill="#FC493E" points="31.8056466 31.8056466 63.6119293 31.8056466 63.6119293 -3.12638804e-13 31.8056466 -3.12638804e-13" stroke="#FC493E"></polygon>
                        <polygon id="Fill-6" fill="#FC493E" points="0 63.6125654 31.8062827 63.6125654 31.8062827 31.8062827 0 31.8062827" stroke="#FC493E"></polygon>
                    </g>
                    <g id="Group-6" transform="translate(202.942629, 135.471315) rotate(45.000000) translate(-202.942629, -135.471315) translate(154.942629, 87.471315)">
                        <polygon id="Fill-2" fill="#FC493E" points="31.8056466 31.8056466 63.6119293 31.8056466 63.6119293 -3.12638804e-13 31.8056466 -3.12638804e-13" stroke="#FC493E"></polygon>
                        <polygon id="Fill-3" fill="#FC493E" points="63.5915733 31.8056466 95.3972199 31.8056466 95.3972199 -3.12638804e-13 63.5915733 -3.12638804e-13" stroke="#FC493E"></polygon>
                        <polygon id="Fill-4" fill="#FC493E" points="63.5915733 63.6087487 95.3972199 63.6087487 95.3972199 31.802466 63.5915733 31.802466" stroke="#FC493E"></polygon>
                    </g>
                    <g id="Group-6" transform="translate(68.000000, 135.471315) rotate(45.000000) translate(-68.000000, -135.471315) translate(20.000000, 87.471315)">
                        <polygon id="Fill-8" fill="#FC493E" points="1.5063506e-12 95.4169398 31.8056466 95.4169398 31.8056466 63.6112932 1.5063506e-12 63.6112932" stroke="#FC493E"></polygon>
                        <polygon id="Fill-9" fill="#FC493E" points="31.8056466 95.4169398 63.6119293 95.4169398 63.6119293 63.6112932 31.8056466 63.6112932" stroke="#FC493E"></polygon>
                        <polygon id="Fill-6" fill="#FC493E" points="0 63.6125654 31.8062827 63.6125654 31.8062827 31.8062827 0 31.8062827" stroke="#FC493E"></polygon>
                    </g>
                    <g id="Group-6" transform="translate(135.471315, 202.942629) rotate(45.000000) translate(-135.471315, -202.942629) translate(87.471315, 154.942629)">
                        <polygon id="Fill-4" fill="#FC493E" points="63.5915733 63.6087487 95.3972199 63.6087487 95.3972199 31.802466 63.5915733 31.802466" stroke="#FC493E"></polygon>
                        <polygon id="Fill-5" fill="#FC493E" points="63.5915733 95.4169398 95.3972199 95.4169398 95.3972199 63.6112932 63.5915733 63.6112932" stroke="#FC493E"></polygon>
                        <polygon id="Fill-9" fill="#FC493E" points="31.8056466 95.4169398 63.6119293 95.4169398 63.6119293 63.6112932 31.8056466 63.6112932" stroke="#FC493E"></polygon>
                    </g>
                    <rect id="Rectangle" fill="#FCC200" transform="translate(135.500000, 135.500000) rotate(-45.000000) translate(-135.500000, -135.500000) " x="118" y="118" width="35" height="35"></rect>
                </g>
            </g>
        </g>
    </g>
</svg>