<svg id="e841jvolh19b1"
    xmlns="http://www.w3.org/2000/svg"
    xmlns:xlink="http://www.w3.org/1999/xlink" viewBox="0 0 310 310" shape-rendering="geometricPrecision" text-rendering="geometricPrecision">
    <style><![CDATA[#e841jvolh19b2_to {animation: e841jvolh19b2_to__to 1500ms linear 1 normal forwards}@keyframes e841jvolh19b2_to__to { 0% {transform: translate(153.284963px,20.351120px)} 33.333333% {transform: translate(153.284963px,20.351120px)} 50% {transform: translate(153.284963px,40.352912px)} 66.666667% {transform: translate(153.284963px,20.352912px)} 100% {transform: translate(153.284963px,20.352912px)} }#e841jvolh19b6_to {animation: e841jvolh19b6_to__to 1500ms linear 1 normal forwards}@keyframes e841jvolh19b6_to__to { 0% {transform: translate(36.234089px,19.017339px)} 33.333333% {transform: translate(36.234089px,19.017339px)} 50% {transform: translate(36.234089px,-0.982305px)} 66.666667% {transform: translate(36.234089px,19.017695px)} 100% {transform: translate(36.234089px,19.017695px)} }#e841jvolh19b10_to {animation: e841jvolh19b10_to__to 1500ms linear 1 normal forwards}@keyframes e841jvolh19b10_to__to { 0% {transform: translate(190.693762px,36.480080px)} 33.333333% {transform: translate(190.693762px,36.480080px)} 50% {transform: translate(170.692356px,36.480080px)} 66.666667% {transform: translate(190.692356px,36.480080px)} 100% {transform: translate(190.692356px,36.480080px)} }#e841jvolh19b14_to {animation: e841jvolh19b14_to__to 1500ms linear 1 normal forwards}@keyframes e841jvolh19b14_to__to { 0% {transform: translate(137.696266px,36.480078px)} 33.333333% {transform: translate(137.696266px,36.480078px)} 50% {transform: translate(159.892502px,36.480078px)} 66.666667% {transform: translate(137.692502px,36.480078px)} 100% {transform: translate(137.692502px,36.480078px)} }]]></style>
    <g id="e841jvolh19b2_to" transform="translate(153.284963,20.351120)">
        <g id="e841jvolh19b2" transform="rotate(45) translate(0,0)">
            <polygon id="e841jvolh19b3" points="32.591573,32.608749 64.397220,32.608749 64.397220,0.802466 32.591573,0.802466" transform="matrix(1 0 0 1 0.54753258319811 -2.63248443096036)" fill="rgb(252,73,62)" fill-rule="evenodd" stroke="rgb(252,73,62)" stroke-width="1"/>
            <polygon id="e841jvolh19b4" points="32.591573,64.416940 64.397220,64.416940 64.397220,32.611293 32.591573,32.611293" transform="matrix(1 0 0 1 0.54705549825287 -2.63550601137333)" fill="rgb(252,73,62)" fill-rule="evenodd" stroke="rgb(252,73,62)" stroke-width="1"/>
            <polygon id="e841jvolh19b5" points="0.805647,64.416940 32.611929,64.416940 32.611929,32.611293 0.805647,32.611293" transform="matrix(1 0 0 1 0.51113607304652 -2.61930649907172)" fill="rgb(252,73,62)" fill-rule="evenodd" stroke="rgb(252,73,62)" stroke-width="1"/>
        </g>
    </g>
    <g id="e841jvolh19b6_to" transform="translate(36.234089,19.017339)">
        <g id="e841jvolh19b6" transform="translate(0,0)">
            <polygon id="e841jvolh19b7" points="0.805647,64.416940 32.611929,64.416940 32.611929,32.611293 0.805647,32.611293" transform="matrix(-0.70710678118655 -0.70710678118655 0.70710678118655 -0.70710678118655 119.28734027499976 272.12221854500012)" fill="rgb(252,73,62)" fill-rule="evenodd" stroke="rgb(252,73,62)" stroke-width="1"/>
            <polygon id="e841jvolh19b8" points="32.591573,32.608749 64.397220,32.608749 64.397220,0.802466 32.591573,0.802466" transform="matrix(-0.70710678118655 -0.70710678118655 0.70710678118655 -0.70710678118655 118.75376574999959 271.55587275500000)" fill="rgb(252,73,62)" fill-rule="evenodd" stroke="rgb(252,73,62)" stroke-width="1"/>
            <polygon id="e841jvolh19b9" points="32.591573,64.416940 64.397220,64.416940 64.397220,32.611293 32.591573,32.611293" transform="matrix(-0.70710678118655 -0.70710678118655 0.70710678118655 -0.70710678118655 118.75196651999957 271.55767198500018)" fill="rgb(252,73,62)" fill-rule="evenodd" stroke="rgb(252,73,62)" stroke-width="1"/>
        </g>
    </g>
    <g id="e841jvolh19b10_to" transform="translate(190.693762,36.480080)">
        <g id="e841jvolh19b10" transform="translate(0,0)">
            <polygon id="e841jvolh19b11" points="32.591573,64.416940 64.397220,64.416940 64.397220,32.611293 32.591573,32.611293" transform="matrix(-0.70710678118655 0.70710678118655 -0.70710678118655 -0.70710678118655 100.89301025500001 118.52677992500013)" fill="rgb(252,73,62)" fill-rule="evenodd" stroke="rgb(252,73,62)" stroke-width="1"/>
            <polygon id="e841jvolh19b12" points="0.805647,64.416940 32.611929,64.416940 32.611929,32.611293 0.805647,32.611293" transform="matrix(-0.70710678118655 0.70710678118655 -0.70710678118655 -0.70710678118655 100.44579597500010 119.01844045500013)" fill="rgb(252,73,62)" fill-rule="evenodd" stroke="rgb(252,73,62)" stroke-width="1"/>
            <polygon id="e841jvolh19b13" points="32.591573,32.608749 64.397220,32.608749 64.397220,0.802466 32.591573,0.802466" transform="matrix(-0.70710678118655 0.70710678118655 -0.70710678118655 -0.70710678118655 100.42982776500014 118.04150914499969)" fill="rgb(252,73,62)" fill-rule="evenodd" stroke="rgb(252,73,62)" stroke-width="1"/>
        </g>
    </g>
    <g id="e841jvolh19b14_to" transform="translate(137.696266,36.480078)">
        <g id="e841jvolh19b14" transform="translate(0,0)">
            <polygon id="e841jvolh19b15" points="32.591573,64.416940 64.397220,64.416940 64.397220,32.611293 32.591573,32.611293" transform="matrix(0.70710678118655 -0.70710678118655 0.70710678118655 0.70710678118655 -120.50722652500002 119.00314899500023)" fill="rgb(252,73,62)" fill-rule="evenodd" stroke="rgb(252,73,62)" stroke-width="1"/>
            <polygon id="e841jvolh19b16" points="0.805647,64.416940 32.611929,64.416940 32.611929,32.611293 0.805647,32.611293" transform="matrix(0.70710678118655 -0.70710678118655 0.70710678118655 0.70710678118655 -120.52162039500000 118.52745666500020)" fill="rgb(252,73,62)" fill-rule="evenodd" stroke="rgb(252,73,62)" stroke-width="1"/>
            <polygon id="e841jvolh19b17" points="32.591573,32.608749 64.397220,32.608749 64.397220,0.802466 32.591573,0.802466" transform="matrix(0.70710678118655 -0.70710678118655 0.70710678118655 0.70710678118655 -120.50565218500002 119.00652254500002)" fill="rgb(252,73,62)" fill-rule="evenodd" stroke="rgb(252,73,62)" stroke-width="1"/>
        </g>
    </g>
    <rect id="e841jvolh19b18" width="35" height="35" rx="0" ry="0" transform="matrix(0.70710700000000 -0.70710700000000 0.70710700000000 0.70710700000000 130.75000000000028 155.49874499999999)" fill="rgb(252,194,0)" fill-rule="evenodd" stroke="none" stroke-width="1"/>
</svg>