<?xml version="1.0" encoding="UTF-8"?>
<svg width="384px" height="512px" viewBox="0 0 384 512" version="1.1" xmlns="http://www.w3.org/2000/svg" xmlns:xlink="http://www.w3.org/1999/xlink">
    <!-- Generator: Sketch 51.2 (57519) - http://www.bohemiancoding.com/sketch -->
    <title>clipboard-check</title>
    <desc>Created with Sketch.</desc>
    <defs></defs>
    <g id="Sketches" stroke="none" stroke-width="1" fill="none" fill-rule="evenodd">
        <g id="Artboard" transform="translate(-1214.000000, -354.000000)" fill-rule="nonzero">
            <g id="clipboard-check" transform="translate(1214.000000, 354.000000)">
                <path d="M336,64 C362.5,64 384,85.5 384,112 L384,464 C384,490.5 362.5,512 336,512 L48,512 C21.5,512 0,490.5 0,464 L0,112 C0,85.5 21.5,64 48,64 L128,64 C128,28.7 156.7,0 192,0 C227.3,0 256,28.7 256,64 L336,64 Z M192,40 C178.7,40 168,50.7 168,64 C168,77.3 178.7,88 192,88 C205.3,88 216,77.3 216,64 C216,50.7 205.3,40 192,40 Z M60,105 C48.954305,105 40,113.954305 40,125 L40,452 C40,463.045695 48.954305,472 60,472 L324,472 C335.045695,472 344,463.045695 344,452 L344,125 C344,113.954305 335.045695,105 324,105 L60,105 Z" id="Shape" fill="#FCC21C"></path>
                <path d="M282.995635,308.130589 C282.826655,314.292362 277.616185,319.124917 271.452284,319.124917 L251.890487,319.124917 L251.890487,324.781163 C251.890487,332.510423 250.164623,339.835261 247.082672,346.39686 L268.374222,367.688384 C272.791755,372.106265 272.791755,379.26884 268.374222,383.686721 C263.955981,388.104603 256.793397,388.104249 252.37551,383.686721 L233.025469,364.336704 C224.275953,371.432818 213.127833,375.687376 200.984211,375.687376 L200.984211,289.429626 C200.984211,287.08688 199.084771,285.187442 196.742022,285.187442 L188.257642,285.187442 C185.914893,285.187442 184.015453,287.08688 184.015453,289.429626 L184.015453,375.687376 C171.871831,375.687376 160.72371,371.432818 151.974194,364.336704 L132.624153,383.686721 C128.205913,388.104603 121.043329,388.104249 116.625442,383.686721 C112.207909,379.26884 112.207909,372.106265 116.625442,367.688384 L137.916992,346.39686 C134.835041,339.835261 133.109177,332.510423 133.109177,324.781163 L133.109177,319.124917 L113.547734,319.124917 C107.383832,319.124917 102.173363,314.292362 102.004382,308.130589 C101.828685,301.737617 106.958906,296.499934 113.312292,296.499934 L133.109177,296.499934 L133.109177,275.732674 L116.625442,259.248959 C112.207909,254.831078 112.207909,247.668503 116.625442,243.250621 C121.043683,238.83274 128.205913,238.83274 132.624153,243.250621 L151.935661,262.562459 L233.063649,262.562459 L252.375157,243.250975 C256.793397,238.833093 263.955628,238.833093 268.373868,243.250975 C272.791402,247.668856 272.791402,254.831431 268.373868,259.249313 L251.890487,275.732674 L251.890487,296.499934 L271.687372,296.499934 C278.040758,296.499934 283.170979,301.737617 282.995635,308.130589 Z M192.853348,206 C214.720421,206 232.447118,223.726675 232.447118,245.593721 L153.259578,245.593721 C153.259578,223.726675 170.986274,206 192.853348,206 Z" id="Shape-Copy" fill="#050505"></path>
            </g>
        </g>
    </g>
</svg>