<svg id="Layer_1" data-name="Layer 1" xmlns="http://www.w3.org/2000/svg" viewBox="0 0 253 43"><defs><style>.cls-1{fill:#6d3aec;}</style></defs><title>Artboard 1</title><g id="Site-Final"><g id="Team"><g id="Navigation"><g id="Logo"><g id="Group"><path id="Shape" class="cls-1" d="M96.28,12.17A9.71,9.71,0,1,0,106,21.91,9.64,9.64,0,0,0,96.28,12.17Zm0,16.54a6.6,6.6,0,0,1-6.56-6.8,6.55,6.55,0,1,1,13.09,0A6.56,6.56,0,0,1,96.28,28.71Z"/><path id="Shape-2" data-name="Shape" class="cls-1" d="M120.89,28.57H113V13.67a1.52,1.52,0,0,0-3,0V29.82a1.49,1.49,0,0,0,1.51,1.49h9.38a1.33,1.33,0,0,0,1.3-1.38A1.34,1.34,0,0,0,120.89,28.57Z"/><path id="Shape-3" data-name="Shape" class="cls-1" d="M137.25,12.17a1.51,1.51,0,0,0-1.52,1.5v2.92a5.69,5.69,0,0,1-1.14,3.78,5.38,5.38,0,0,1-7.45,0A5.69,5.69,0,0,1,126,16.59V13.67a1.52,1.52,0,0,0-3,0V17a7.9,7.9,0,0,0,1.7,5.3,7.23,7.23,0,0,0,4.68,2.33v5.42a1.52,1.52,0,0,0,3,0V24.67a7.25,7.25,0,0,0,4.68-2.33,7.91,7.91,0,0,0,1.71-5.3V13.67A1.51,1.51,0,0,0,137.25,12.17Z"/><path id="Shape-4" data-name="Shape" class="cls-1" d="M154.27,21.66A24.47,24.47,0,0,0,149,19.61c-1.49-.53-2.52-1.2-2.52-2.42,0-1.52,1.22-2.22,3.44-2.22s3.23,1.09,4.5,1.09a1.42,1.42,0,0,0,1.44-1.45c0-2.08-4.61-2.44-5.77-2.44-4.42,0-6.81,2.08-6.81,5.13a4.63,4.63,0,0,0,2.55,4.3,38.21,38.21,0,0,0,5.09,1.92c1.36.55,2.34,1.28,2.34,2.55,0,1.5-1,2.78-3.58,2.78-2.79,0-3.8-1.59-5-1.59a1.48,1.48,0,0,0-1.46,1.5c0,1.81,3.88,2.83,6.53,2.83,3.93,0,6.83-2.11,6.83-5.77A4.63,4.63,0,0,0,154.27,21.66Z"/><path id="Shape-5" data-name="Shape" class="cls-1" d="M183.61,12.17a1.5,1.5,0,0,0-1.51,1.5V24.43a4.52,4.52,0,0,1-1,3.14,4,4,0,0,1-3,1.14,3.62,3.62,0,0,1-2.68-1,5.32,5.32,0,0,1-1.25-3.78V13.67a1.52,1.52,0,0,0-3,0V23.93a5.32,5.32,0,0,1-1.27,3.78,3.59,3.59,0,0,1-2.68,1,3.92,3.92,0,0,1-3-1.14,4.43,4.43,0,0,1-1-3.14V13.67a1.52,1.52,0,0,0-3,0V24.46A7.13,7.13,0,0,0,162,29.62a7.67,7.67,0,0,0,8.41,1.19,5.93,5.93,0,0,0,2.3-2.46A5.65,5.65,0,0,0,175,30.81a7.66,7.66,0,0,0,8.4-1.19,7.13,7.13,0,0,0,1.76-5.16V13.67A1.51,1.51,0,0,0,183.61,12.17Z"/><path id="Shape-6" data-name="Shape" class="cls-1" d="M250.92,14.11a7,7,0,0,0-5.2-1.94,6.9,6.9,0,0,0-3.2.75,5.89,5.89,0,0,0-2.3,2.47,5.74,5.74,0,0,0-2.28-2.47,7.66,7.66,0,0,0-8.4,1.19,7.09,7.09,0,0,0-1.76,5.16v10.8a1.52,1.52,0,0,0,3,0V19.3a4.48,4.48,0,0,1,1-3.13,3.93,3.93,0,0,1,3-1.14,3.62,3.62,0,0,1,2.68,1,5.29,5.29,0,0,1,1.25,3.77V30.07a1.52,1.52,0,0,0,3,0V19.8A5.3,5.3,0,0,1,243,16a3.59,3.59,0,0,1,2.68-1,3.89,3.89,0,0,1,3,1.14,4.39,4.39,0,0,1,1,3.13V30.07a1.52,1.52,0,0,0,3,0V19.27A7.09,7.09,0,0,0,250.92,14.11Z"/><path id="Shape-7" data-name="Shape" class="cls-1" d="M223,18.85a6.32,6.32,0,0,0-2.22-5.05,6.54,6.54,0,0,0-4.33-1.36h-6.29A1.52,1.52,0,0,0,208.67,14V30.12a1.49,1.49,0,0,0,1.51,1.49,1.51,1.51,0,0,0,1.52-1.49v-15h4.37a4.28,4.28,0,0,1,2.52.7,3.42,3.42,0,0,1,1.35,3,3.52,3.52,0,0,1-1.46,3.06,4.08,4.08,0,0,1-2.27.61,2.56,2.56,0,0,0-2.76,2.74c0,1.22.65,2.22,2.26,3.16l5,3a1.53,1.53,0,0,0,2.08-.57,1.58,1.58,0,0,0-.56-2.13l-5.84-3.45A6.59,6.59,0,0,0,220.62,24,6.3,6.3,0,0,0,223,18.85Z"/><path id="Shape-8" data-name="Shape" class="cls-1" d="M201.77,14.06a7.52,7.52,0,0,0-10,0,8.23,8.23,0,0,0-2.5,6.1v9.93a1.49,1.49,0,0,0,1.52,1.5,1.53,1.53,0,0,0,1.52-1.5V25.67h8.89v4.42a1.52,1.52,0,0,0,3,0V20.16A8.11,8.11,0,0,0,201.77,14.06Zm-.54,8.51h-8.89V20.3a5.8,5.8,0,0,1,1.3-3.94,4.21,4.21,0,0,1,3.14-1.3,4.26,4.26,0,0,1,3.17,1.3,5.9,5.9,0,0,1,1.28,3.94Z"/><path id="Shape-9" data-name="Shape" class="cls-1" d="M77.84,12.48h-7A1.54,1.54,0,0,0,69.29,14V30a1.52,1.52,0,1,0,3,0V25.67h5.51a6.6,6.6,0,0,0,0-13.19Zm0,10.09H72.33v-7h5.51a3.49,3.49,0,0,1,0,7Z"/></g><g id="Group-2" data-name="Group"><path id="Shape-10" data-name="Shape" class="cls-1" d="M4.87,11.36H27.32a6,6,0,1,1,0,12.09H15.17a1.72,1.72,0,1,0,0,3.44H27.32a9.49,9.49,0,1,0,0-19H4.87a1.72,1.72,0,1,0,0,3.44Z"/><path id="Shape-11" data-name="Shape" class="cls-1" d="M27.32,0H18.61a1.72,1.72,0,1,0,0,3.44h8.71a14,14,0,1,1,0,27.93H5.2a1.72,1.72,0,1,0,0,3.44H27.32a17.49,17.49,0,0,0,17.55-17.4A17.5,17.5,0,0,0,27.32,0Z"/><path id="Shape-12" data-name="Shape" class="cls-1" d="M17.26,17.41a1.73,1.73,0,0,0-1.73-1.72H11.3a1.72,1.72,0,0,0-1.73,1.72A1.69,1.69,0,0,0,11,19.13h4.22A1.84,1.84,0,0,0,17.26,17.41Z"/><path id="Shape-13" data-name="Shape" class="cls-1" d="M11.77,39.3h-10a1.72,1.72,0,1,0,0,3.44h10a1.72,1.72,0,1,0,0-3.44Z"/></g></g></g></g></g></svg>