<?xml version="1.0" encoding="UTF-8"?>
<svg width="512px" height="448px" viewBox="0 0 512 448" version="1.1" xmlns="http://www.w3.org/2000/svg" xmlns:xlink="http://www.w3.org/1999/xlink">
    <!-- Generator: Sketch 51.2 (57519) - http://www.bohemiancoding.com/sketch -->
    <title>browser</title>
    <desc>Created with Sketch.</desc>
    <defs></defs>
    <g id="Sketches" stroke="none" stroke-width="1" fill="none" fill-rule="evenodd">
        <g id="Artboard" transform="translate(-1209.000000, -1009.000000)" fill-rule="nonzero">
            <g id="browser" transform="translate(1209.000000, 1009.000000)">
                <path d="M464,0 L48,0 C21.5,0 0,21.5 0,48 L0,400 C0,426.5 21.5,448 48,448 L464,448 C490.5,448 512,426.5 512,400 L512,48 C512,21.5 490.5,0 464,0 Z M32,48 C32,39.2 39.2,32 48,32 L96,32 L96,96 L32,96 L32,48 Z M480,400 C480,408.8 472.8,416 464,416 L48,416 C39.2,416 32,408.8 32,400 L32,128 L480,128 L480,400 Z M480,96 L128,96 L128,32 L464,32 C472.8,32 480,39.2 480,48 L480,96 Z" id="Shape" fill="#FCC21C"></path>
                <g id="shield-check" transform="translate(153.000000, 166.000000)" fill="#000000">
                    <path d="M207,55.2500629 C207,150.764255 148.378462,204.012677 111.461306,219.406259 C106.365931,221.531247 100.633637,221.531247 95.5382625,219.406259 C49.3759687,200.157267 0,140.925018 0,55.2500629 C-1.45088442e-05,46.8857908 5.02476649,39.3418859 12.7386937,36.1249519 L95.5386937,1.59374127 C100.634069,-0.531247089 106.366363,-0.531247089 111.461737,1.59374127 L194.261737,36.1249519 C201.975496,39.3420198 207.000087,46.8858955 207,55.2500629 Z M94.5787313,164.86119 L173.928731,85.4394055 C176.623181,82.742518 176.623181,78.3695718 173.928731,75.6726842 L164.170838,65.9059629 C161.476388,63.2090754 157.107394,63.2086437 154.412513,65.9059629 L89.7,130.677018 L59.4870563,100.436742 C56.7926063,97.7398544 52.4236125,97.7398544 49.7287313,100.436742 L39.9708375,110.203463 C37.2763875,112.900351 37.2763875,117.273297 39.9708375,119.970185 L84.8208375,164.860758 C87.5152875,167.558509 91.8842813,167.558509 94.5787313,164.86119 Z" id="Shape"></path>
                </g>
            </g>
        </g>
    </g>
</svg>