<?xml version="1.0" encoding="UTF-8"?>
<svg width="469px" height="536px" viewBox="0 0 469 536" version="1.1" xmlns="http://www.w3.org/2000/svg" xmlns:xlink="http://www.w3.org/1999/xlink">
    <!-- Generator: Sketch 51.2 (57519) - http://www.bohemiancoding.com/sketch -->
    <title>Group</title>
    <desc>Created with Sketch.</desc>
    <defs></defs>
    <g id="App" stroke="none" stroke-width="1" fill="none" fill-rule="evenodd">
        <g id="Artboard" transform="translate(-380.000000, -241.000000)" fill-rule="nonzero">
            <g id="Group" transform="translate(380.000000, 241.000000)">
                <g id="file-archive" fill="#FCC21C">
                    <path d="M369.941,97.941 L286.059,14.059 C277.057305,5.05723856 264.848366,6.65676412e-05 252.118,-5.32907052e-15 L48,-5.32907052e-15 C21.49,0 0,21.49 0,48 L0,464 C0,490.51 21.49,512 48,512 L336,512 C362.51,512 384,490.51 384,464 L384,131.882 C383.999933,119.151634 378.942761,106.942695 369.941,97.941 Z M256,32.491 C258.81335,33.1851527 261.383138,34.6358673 263.431,36.686 L347.313,120.568 C349.362724,122.616173 350.81337,125.18584 351.508,127.999 L256,127.999 L256,32.491 Z M352,464 C352,472.837 344.836,480 336,480 L48,480 C39.164,480 32,472.837 32,464 L32,48 C32,39.163 39.164,32 48,32 L127.714,32 L127.714,64 L159.714,64 L159.714,32 L224,32 L224,136 C224,149.255 234.745,160 248,160 L352,160 L352,464 Z M192,96 L160,96 L160,64 L192,64 L192,96 Z M160,96 L160,128 L128,128 L128,96 L160,96 Z M160,160 L160,192 L128,192 L128,160 L160,160 Z M192,160 L160,160 L160,128 L192,128 L192,160 Z M182.162,256 L160,256 L160,224 L128,224 L128,256 L108.551,353.243 C102.058,385.708 126.889,416 160,416 C193.109,416 217.942,385.709 211.449,353.243 L193.93,265.647 C192.807914,260.037586 187.882542,255.999936 182.162,256 Z M160.27,390.073 C142.352,390.073 127.826,377.968 127.826,363.037 C127.826,348.105 142.351,336.001 160.27,336.001 C178.189,336.001 192.714,348.105 192.714,363.037 C192.714,377.968 178.188,390.073 160.27,390.073 Z M192,224 L160,224 L160,192 L192,192 L192,224 Z" id="Shape"></path>
                </g>
                <g id="bomb" transform="translate(260.000000, 327.000000)" fill="#000000">
                    <path d="M179.813477,36.1330338 L158.586914,57.3637429 L169.404297,68.1832389 C173.241406,72.0210979 173.241406,78.2269975 169.404297,82.0240281 L162.301563,89.12815 C167.118359,99.7843329 169.8125,111.624536 169.8125,124.077164 C169.8125,170.988865 131.808789,209 84.90625,209 C38.0037109,209 0,171.029693 0,124.117992 C0,77.2062903 38.0037109,39.1951553 84.90625,39.1951553 C97.3564453,39.1951553 109.194336,41.8898222 119.848438,46.7075601 L126.951172,39.6034382 C130.788281,35.7655792 136.992969,35.7655792 140.789258,39.6034382 L151.606641,50.4229342 L172.833203,29.192225 L179.813477,36.1330338 Z M204.101562,24.4969721 L194.304688,24.4969721 C191.610547,24.4969721 189.40625,26.7016996 189.40625,29.3963665 C189.40625,32.0910334 191.610547,34.2957609 194.304688,34.2957609 L204.101562,34.2957609 C206.795703,34.2957609 209,32.0910334 209,29.3963665 C209,26.7016996 206.795703,24.4969721 204.101562,24.4969721 Z M179.609375,0 C176.915234,0 174.710938,2.20472749 174.710938,4.89939441 L174.710938,14.6981832 C174.710938,17.3928502 176.915234,19.5975777 179.609375,19.5975777 C182.303516,19.5975777 184.507813,17.3928502 184.507813,14.6981832 L184.507813,4.89939441 C184.507813,2.20472749 182.303516,0 179.609375,0 Z M193.447461,22.4555577 L200.386914,15.514749 C202.305469,13.5958195 202.305469,10.4928697 200.386914,8.57394022 C198.468359,6.65501074 195.366016,6.65501074 193.447461,8.57394022 L186.508008,15.514749 C184.589453,17.4336785 184.589453,20.5366282 186.508008,22.4555577 C188.467383,24.3744872 191.569727,24.3744872 193.447461,22.4555577 Z M165.771289,22.4555577 C167.689844,24.3744872 170.792188,24.3744872 172.710742,22.4555577 C174.629297,20.5366282 174.629297,17.4336785 172.710742,15.514749 L165.771289,8.57394022 C163.852734,6.65501074 160.750391,6.65501074 158.831836,8.57394022 C156.913281,10.4928697 156.913281,13.5958195 158.831836,15.514749 L165.771289,22.4555577 Z M193.447461,36.3371752 C191.528906,34.4182458 188.426563,34.4182458 186.508008,36.3371752 C184.589453,38.2561047 184.589453,41.3590545 186.508008,43.277984 L193.447461,50.2187927 C195.366016,52.1377222 198.468359,52.1377222 200.386914,50.2187927 C202.305469,48.2998633 202.305469,45.1969135 200.386914,43.277984 L193.447461,36.3371752 Z M45.71875,111.05294 C45.71875,96.6405548 57.4341797,84.9228365 71.84375,84.9228365 C75.4359375,84.9228365 78.375,81.9831998 78.375,78.3903106 C78.375,74.7974214 75.4359375,71.8577847 71.84375,71.8577847 C50.2498047,71.8577847 32.65625,89.4547763 32.65625,111.05294 C32.65625,114.645829 35.5953125,117.585466 39.1875,117.585466 C42.7796875,117.585466 45.71875,114.645829 45.71875,111.05294 Z" id="Shape"></path>
                </g>
            </g>
        </g>
    </g>
</svg>