<?xml version="1.0" standalone="no"?>
<svg xmlns:xlink="http://www.w3.org/1999/xlink" xmlns="http://www.w3.org/2000/svg" id="avatar" viewBox="0 0 210 259" width="210" height="259">
      <g id="avatar-heads" transform="translate(0, 60)" x="5px" y="29.5px">    <g id="Page-1" stroke="none" stroke-width="1" fill="none" fill-rule="evenodd">
        <g id="heads">
            <g id="turtle">
                <path d="M118.581368,116.698654 L97.8044066,116.698654 L95.3169695,116.698654 L81.2350213,116.698654 C84.1341322,141.012115 71.9532277,156.908269 37.9911094,170.506346 C4.03092385,184.106346 0.473521453,199.940962 0.473521453,199.940962 L91.3683804,199.940962 L97.8044066,199.940962 L199.344801,199.940962 C199.344801,199.940962 194.787399,185.106346 160.827213,171.506346 C126.865095,157.908269 115.682257,141.012115 118.581368,116.698654 Z" id="shirt" fill="#FCC21C"/>
                <path d="M65.7131813,154.507692 C73.4480093,164.315385 85.4599923,170.623077 98.9601855,170.623077 C112.460379,170.623077 124.474295,164.315385 132.209123,154.507692 C119.820255,143.844231 115.751836,131.180769 117.632393,115.384615 L96.855431,115.384615 L94.3699266,115.384615 L80.2879784,115.384615 C82.1724005,131.180769 78.1020487,143.844231 65.7131813,154.507692" id="tone" fill="#e2b2aa"/>
                <path d="M51.3170869,72.1047775 C57.5772338,84.018239 54.9545048,97.6797775 45.4589501,102.620162 C35.9633954,107.560547 23.1899126,101.906701 16.9316984,89.993239 C10.6715515,78.0797775 13.2942806,64.418239 22.7898353,59.4797775 C32.28539,54.5393928 45.0588728,60.1913159 51.3170869,72.1047775" id="tone" fill="#e2b2aa"/>
                <path d="M46.229223,94.0730769 C46.1905682,93.5884615 46.1016622,93.1692308 46.0475454,92.7 C46.1190568,93.0403846 46.1635099,93.3211538 46.1886355,93.5461538 C46.1287205,91.1211538 45.775029,89.1384615 45.1546193,87.5807692 C40.2106687,67.4134615 21.2601469,65.3846154 21.2601469,65.3846154 C30.8600696,71.15 36.8534983,77.5096154 40.5643603,82.7807692 C33.7514496,80.0192308 23.2199459,85.8673077 23.2199459,85.8673077 C35.7170468,82.5711538 41.3993042,85.3 44.0085041,88.4673077 C45.7286432,91.8788462 46.229223,94.0730769 46.229223,94.0730769" id="dark" fill="#b08078"/>
                <path d="M148.356617,72.1047775 C142.098403,84.018239 144.721132,97.6797775 154.216687,102.620162 C163.712241,107.560547 176.485724,101.906701 182.743938,89.993239 C189.002152,78.0797775 186.381356,64.418239 176.885801,59.4797775 C167.390247,54.5393928 154.616764,60.1913159 148.356617,72.1047775" id="tone" fill="#e2b2aa"/>
                <path d="M152.686509,94.0730769 C152.725164,93.5884615 152.816003,93.1692308 152.868187,92.7 C152.796676,93.0403846 152.752223,93.3211538 152.727097,93.5461538 C152.787012,91.1211538 153.140704,89.1384615 153.761113,87.5807692 C158.706997,67.4134615 177.657518,65.3846154 177.657518,65.3846154 C168.055663,71.15 162.064167,77.5096154 158.351372,82.7807692 C165.164283,80.0192308 175.695787,85.8673077 175.695787,85.8673077 C163.200618,82.5711538 157.516428,85.3 154.907228,88.4673077 C153.187089,91.8788462 152.686509,94.0730769 152.686509,94.0730769" id="dark" fill="#b08078"/>
                <path d="M81.1035949,0 C59.1109393,0 41.2156939,21.4653846 40.9876305,43.35 L40.5875532,81.4057692 C40.5875532,105.028846 52.5531504,125.615385 70.2589872,136.403846 C78.6374179,141.509615 91.7201392,146.346154 98.5929648,146.346154 C108.51179,146.346154 117.84886,141.717308 126.012756,136.95 C144.219173,126.321154 156.600309,105.432692 156.600309,81.4057692 L156.490143,41.0326923 C156.436026,20.4788462 139.6753,0 119.018168,0 L81.1035949,0 Z" id="color" fill="#ecbcb4"/>
                <path d="M65.3043706,93.7027245 C65.0821054,93.7027245 64.8559748,93.6546476 64.6414406,93.5527245 C63.8838063,93.1873399 63.5668368,92.2815707 63.9321248,91.5277245 L68.7388507,81.6258014 C69.1060714,80.8719553 70.0163923,80.5584938 70.7740266,80.9181091 C71.5335937,81.2834938 71.8505631,82.189263 71.4833424,82.9431091 L66.6785492,92.8450322 C66.4137637,93.3873399 65.8706636,93.7027245 65.3043706,93.7027245" id="tone" fill="#e2b2aa"/>
                <path d="M55.6386915,93.7027245 C55.4183591,93.7027245 55.1922285,93.6546476 54.979627,93.5527245 C54.2200599,93.1873399 53.9030905,92.2815707 54.2683784,91.5277245 L59.0751044,81.6258014 C59.4423251,80.8719553 60.3545787,80.5584938 61.1102803,80.9181091 C61.8698473,81.2834938 62.1868168,82.189263 61.8215288,82.9431091 L57.0128701,92.8450322 C56.7500174,93.3873399 56.2069173,93.7027245 55.6386915,93.7027245" id="tone" fill="#e2b2aa"/>
                <path d="M133.893887,93.7027245 C133.327594,93.7027245 132.784494,93.3873399 132.519709,92.8450322 L127.714916,82.9431091 C127.345762,82.189263 127.662732,81.2834938 128.424232,80.9181091 C129.183799,80.5584938 130.092187,80.8719553 130.459407,81.6258014 L135.266133,91.5277245 C135.631421,92.2815707 135.314452,93.1873399 134.556818,93.5527245 C134.342283,93.6546476 134.116153,93.7027245 133.893887,93.7027245" id="tone" fill="#e2b2aa"/>
                <path d="M143.558304,93.7027245 C142.992011,93.7027245 142.448911,93.3873399 142.184125,92.8450322 L137.377399,82.9431091 C137.010179,82.189263 137.327148,81.2834938 138.088648,80.9181091 C138.846282,80.5584938 139.756603,80.8719553 140.123824,81.6258014 L144.93055,91.5277245 C145.295838,92.2815707 144.978868,93.1873399 144.219301,93.5527245 C144.0067,93.6546476 143.780569,93.7027245 143.558304,93.7027245" id="tone" fill="#e2b2aa"/>
            </g>
        </g>
    </g>
</g>
      <g id="avatar-mouths" transform="translate(0, 60)"><g id="Page-1" stroke="none" stroke-width="1" fill="none" fill-rule="evenodd" transform="translate(85, 110)">
  <g id="mouths" fill="#FF6A68">
    <g id="line">
      <path d="M2.66445009,4.42825488 C1.90763062,3.93461039 1.22343524,3.43905994 0.627153239,2.96066315 C-0.093354183,2.3869682 -0.20993496,1.34250032 0.365324282,0.625858125 C0.940583524,-0.0888781077 1.97069891,-0.212765721 2.70840678,0.364741155 C3.27793254,0.814548491 16.6331205,11.2382617 26.154521,1.75800032 C26.8081378,1.10806684 27.8573648,1.11187876 28.5128928,1.75990628 C29.1626873,2.4079338 29.1626873,3.4619315 28.5109816,4.10995902 C20.1974344,12.3894635 8.94834506,8.52035806 2.66445009,4.42825488" id="tone" fill="#b08078"/>
    </g>
  </g>
</g>
</g>
      <g id="avatar-hairs" transform="translate(0, 60)"><g id="hairs" stroke="none" stroke-width="1" fill="#241c11" fill-rule="evenodd" transform="translate(32, -22)">
  <g id="trump">
    <path d="M18.7978151,116.953492 C18.7978151,116.953492 11.5079378,118.217167 8.59128005,107.570412 C11.5079378,102.516716 13.3300285,99.2685533 13.3300285,99.2685533 C13.3300285,99.2685533 4.03479117,104.86311 0.0245760822,93.313589 L13.512288,94.7577166 L0.0245760822,86.636311 C0.0245760822,86.636311 -1.06847637,64.8004422 11.3246685,54.8760017 C23.719328,44.9500615 27,57.2213968 27,57.2213968 L18.7978151,116.953492" id="light" fill="#423a2f"/>
    <path d="M41.3876404,44.2933041 C41.3876404,44.2933041 22.4919652,61.4198508 18.8004831,81 C8.88997776,78.230791 2,72.6733061 2,72.6733061 C2,72.6733061 4.41316837,27.5887369 25.5938355,17.7000666 C46.7745027,7.81089455 41.3876404,44.2933041 41.3876404,44.2933041" id="light" fill="#423a2f"/>
    <path d="M123.20132,116.953492 C123.20132,116.953492 130.492841,118.217167 133.408541,107.570412 C130.492841,102.516716 128.669204,99.2685533 128.669204,99.2685533 C128.669204,99.2685533 137.96511,104.86311 141.975396,93.313589 L128.487446,94.7577166 L141.975396,86.636311 C141.975396,86.636311 143.068973,64.8004422 130.674599,54.8760017 C118.280225,44.9500615 115,57.2213968 115,57.2213968 L123.20132,116.953492" id="light" fill="#423a2f"/>
    <path d="M21.4194899,12.6906364 C21.4194899,12.6906364 11.7154952,66.6569791 85.6533667,64.9608399 C130.439009,64.3256602 152.831582,50.5461497 156,29.1360071 C143.325334,31.89161 127.252704,20.6134311 112.270663,12.177108 C91.5683766,0.518020776 54.3746158,-8.29671786 21.4194899,12.6906364" id="color" fill="#241c11"/>
    <path d="M21,13 C21,13 21.080879,13.6006048 21.3235161,14.7082654 C21.5671516,15.8149307 21.9730445,17.4296471 22.6410452,19.4369709 C23.3095452,21.4428018 24.2406524,23.8422355 25.5476972,26.4800201 C26.8552413,29.1148192 28.5417186,31.9869741 30.6865103,34.9009275 C32.8337982,37.8109001 35.463864,40.7482408 38.6096583,43.447728 C41.7474645,46.1531865 45.3915135,48.6128299 49.4080054,50.685837 C53.4229995,52.7658106 57.8339014,54.4014262 62.4370157,55.5772582 C67.0411286,56.7545829 71.8279681,57.5069561 76.6457613,57.8955828 C77.8509585,57.9786822 79.0591512,58.0254567 80.2648476,58.0921353 C80.86495,58.1195034 81.4770344,58.1617995 82.0666524,58.1772251 L83.8814377,58.1931484 C85.0896304,58.1951388 86.2998201,58.2339517 87.4975285,58.2050908 C88.6947376,58.1717515 89.888452,58.1384122 91.0771738,58.1050729 C95.8330596,57.8871236 100.506069,57.4203735 104.967396,56.619733 C109.427225,55.81959 113.675869,54.6915278 117.558561,53.224599 C121.445746,51.7701103 124.949006,49.9493871 127.940531,47.916188 C130.932056,45.8809986 133.417339,43.6507494 135.367921,41.4513515 C137.311014,39.241504 138.707425,37.0679813 139.695947,35.2024739 C140.688462,33.3344785 141.249622,31.7600679 141.580627,30.6782826 C141.909136,29.5925165 142,28.9919117 142,28.9919117 C142,28.9919117 141.922117,29.5940093 141.615575,30.6882346 C141.306537,31.7784791 140.77683,33.3683154 139.819262,35.2651717 C138.865689,37.15954 137.506721,39.3758563 135.594082,41.6449184 C133.676451,43.9050237 131.211139,46.2138939 128.203638,48.296853 C125.203625,50.3867786 121.68389,52.2682093 117.774738,53.7834053 C113.871077,55.3105438 109.594474,56.5102607 105.096702,57.319858 C100.600428,58.1443834 95.8984618,58.6325303 91.109126,58.8703838 C89.9094206,58.9086991 88.7052219,58.9470144 87.4970292,58.9853297 C86.289835,59.018669 85.0866349,58.9843345 83.8764452,58.9873201 L82.0616598,58.9783633 C81.4410881,58.9644304 80.8424836,58.9246223 80.2318969,58.8992447 C79.0162154,58.8360493 77.7975384,58.7962412 76.5818569,58.7131418 C71.7221264,58.3026207 66.8913526,57.5248698 62.242307,56.3161961 C57.5942598,55.1105081 53.1369274,53.4385676 49.079996,51.3167955 C45.0125804,49.2154251 41.3575478,46.6667111 38.2157475,43.8960668 C35.0659592,41.1294034 32.4443807,38.1313554 30.3130689,35.1721202 C28.1732697,32.2138803 26.5382156,29.2835061 25.281096,26.6074061 C24.0224788,23.9298133 23.1383014,21.5035092 22.5097416,19.4787694 C21.8821804,17.4530343 21.5092382,15.8278684 21.2880691,14.7152318 C21.0683977,13.6020976 21,13 21,13" id="Fill-210" fill="#FFFFFE"/>
    <path d="M22,13 C22,13 22.0930511,13.5183316 22.3514166,14.4689377 C22.6102769,15.4190464 23.0359364,16.8014297 23.7120421,18.5091382 C25.0528695,21.9165962 27.455371,26.6517191 31.4580551,31.4868273 C33.4556851,33.8984122 35.8621461,36.3119867 38.6714988,38.5355396 C41.4773868,40.7625745 44.6876514,42.7841671 48.1899382,44.504809 C51.6946997,46.2234611 55.5008876,47.6108188 59.4634806,48.6504666 C63.4280534,49.6841451 67.5401221,50.4133908 71.6873325,50.8118395 C75.8434521,51.2058113 80.0035313,51.339125 84.0933272,51.081949 C88.1821332,50.8382038 92.1759082,50.1502455 95.9246815,49.0867207 C99.671475,48.0152368 103.174752,46.5642069 106.293945,44.8127238 C109.413633,43.0592509 112.135874,41.007812 114.436415,38.8892188 C116.734977,36.7651538 118.627676,34.5878628 120.150647,32.5438854 C121.673122,30.4974209 122.827352,28.585265 123.69055,26.9670955 C124.554243,25.3474337 125.128883,24.0202662 125.489704,23.1044808 C125.851019,22.1881979 126,21.6832972 126,21.6832972 C126,21.6832972 125.862898,22.19168 125.52336,23.1174142 C125.183823,24.0426509 124.639869,25.3852391 123.812803,27.0307677 C122.985242,28.674804 121.872588,30.6222781 120.389214,32.7184866 C118.90881,34.8137001 117.051746,37.0581454 114.749225,39.2279748 C112.453139,41.4002915 109.725948,43.5134128 106.588442,45.3330451 C103.45242,47.1501902 99.9184565,48.6813078 96.119198,49.7711969 C92.3229092,50.8665578 88.2801338,51.5808804 84.1448023,51.8465129 C80.0099657,52.1240839 75.7830679,52.0096729 71.6066552,51.6281371 C67.4228183,51.2068062 63.2721432,50.4526885 59.2684691,49.3891637 C55.2667749,48.320167 51.4200009,46.8994809 47.8786128,45.1430234 C44.3312853,43.3975095 41.1111217,41.2908549 38.301274,39.00164 C35.4884567,36.7129227 33.088925,34.2406503 31.1041638,31.7788241 C29.1119783,29.32048 27.549412,26.8636282 26.3288581,24.605752 C25.1063245,22.346881 24.2228335,20.2849959 23.5848392,18.5578872 C22.9468449,16.8297838 22.5538523,15.4349645 22.3167699,14.4778916 C22.0806773,13.5203213 22,13 22,13" id="Fill-211" fill="#FFFFFE"/>
    <path d="M22,12 C22,12 22.0893305,12.4284392 22.3429299,13.2062137 C22.5945442,13.9839881 23.0188642,15.1086411 23.6749472,16.4858374 C24.3350005,17.8600857 25.2357499,19.4868773 26.4704961,21.2163568 C27.7057387,22.943871 29.2670376,24.775547 31.172259,26.5664426 C33.078473,28.3548816 35.3425053,30.0853437 37.9211796,31.6182915 C40.498365,33.1546785 43.3887035,34.4822505 46.4785469,35.5754584 C49.5708716,36.665227 52.871138,37.4936084 56.2686753,38.0827123 C57.9644663,38.4001111 59.6945007,38.5882903 61.4275127,38.8015272 C63.1783908,38.9356601 64.8989959,39.1135214 66.6682364,39.1425098 C68.4359881,39.2466717 70.1709852,39.1950821 71.9134266,39.1631457 C72.7834066,39.1110647 73.652394,39.0589838 74.5184037,39.0069029 C75.3824284,38.9332035 76.2400013,38.8182324 77.0960854,38.7268452 C80.5109926,38.2807181 83.8281325,37.5211228 86.9229386,36.4510074 C90.0162559,35.377944 92.8926986,34.0233488 95.4520179,32.4609214 C98.0133224,30.9009505 100.257007,29.1444479 102.162725,27.3535523 C105.979619,23.7609518 108.468963,20.109883 109.949865,17.4483517 C111.443173,14.7799417 112,13.1118784 112,13.1118784 C112,13.1118784 111.875434,13.5309824 111.576176,14.2945083 C111.27543,15.0565602 110.806445,16.1664733 110.090312,17.5230337 C108.663505,20.2228888 106.293765,23.9933506 102.482826,27.6817603 C100.585545,29.5227716 98.3423565,31.3382337 95.7696375,32.9620774 C93.1998963,34.587395 90.301121,36.0206028 87.1591682,37.1143021 C84.0211857,38.2178279 80.6573954,39.0064116 77.1973267,39.4766138 C73.746191,39.9659779 70.1620522,40.0789837 66.6364744,39.9517293 C65.7645093,39.909475 64.8647525,39.8996484 63.9848469,39.8062958 C63.1034525,39.7306311 62.2230506,39.6549664 61.3446338,39.579793 C59.5947482,39.3552555 57.8483366,39.1557757 56.1351758,38.8260937 C52.7033951,38.2124233 49.366404,37.3570188 46.2383471,36.2358051 C43.1063199,35.1249094 40.1996041,33.717742 37.6110042,32.1204301 C35.0209155,30.5250835 32.7544017,28.7346792 30.8536468,26.893668 C28.9469366,25.0565874 27.4183922,23.1610386 26.2203707,21.3858655 C25.0208603,19.6092184 24.1578283,17.9490163 23.5305295,16.5511842 C22.9022382,15.1518781 22.5285389,14.0051153 22.3002498,13.2189882 C22.0744421,12.4308959 22,12 22,12" id="Fill-212" fill="#FFFFFE"/>
    <path d="M23,11.6954804 C23,11.6954804 23.0882776,12.0740836 23.3361532,12.7561702 C23.5830314,13.4382569 23.9969886,14.4208222 24.6353805,15.6117195 C25.2752686,16.8006135 26.1545537,18.1933323 27.3500423,19.640638 C28.5420397,21.0884445 30.0422606,22.5928412 31.849209,24.0191134 C33.6576535,25.4428816 35.7857927,26.7694951 38.17278,27.8847719 C40.5592684,29.0035542 43.2011137,29.9024863 45.9915845,30.5905825 C48.7840503,31.2741716 51.7316254,31.7198816 54.7425409,31.969279 C57.7514615,32.2372058 60.8381861,32.2387082 63.8984773,32.1200191 L66.2111517,32.0108452 C66.9727332,31.9407335 67.7328186,31.8706218 68.4919065,31.8010109 C69.2519918,31.7479263 70.0055935,31.6167173 70.7591952,31.5175593 L71.8873534,31.359808 C72.2619099,31.3042194 72.6314789,31.2225894 73.0025442,31.1554825 C75.9725628,30.619128 78.8562987,29.8504033 81.5340535,28.8087439 C84.2118082,27.7710908 86.7035316,26.5155906 88.9064824,25.0692865 C91.1099319,23.6254863 93.0281001,22.0064069 94.6096163,20.3302366 C97.7861147,16.9768943 99.6808419,13.5394181 100.70576,11.0469473 C101.744144,8.5449613 102,7 102,7 C102,7 101.950624,7.38511353 101.785041,8.09424326 C101.617962,8.80136979 101.341658,9.83601811 100.854885,11.107043 C100.370604,12.3770663 99.6883231,13.8884741 98.7282415,15.5255822 C97.7706537,17.1626903 96.5302782,18.9249979 94.9472657,20.648744 C93.3737295,22.3784997 91.4545638,24.0606796 89.2396432,25.5710859 C87.0267175,27.0824937 84.5145456,28.4186223 81.7914052,29.477309 C79.0737509,30.5530227 76.1506143,31.3512944 73.1431899,31.9131896 C72.7671372,31.9838021 72.392082,32.0684369 72.0130368,32.1280319 L70.8714125,32.2947975 C70.1083347,32.3994643 69.3477506,32.5366829 68.5727029,32.595777 C67.800149,32.6713975 67.0265976,32.747018 66.2520486,32.8226385 L63.9393742,32.9443323 C60.8302062,33.0464951 57.7265243,33.0249608 54.678203,32.7360004 C51.6328742,32.4650688 48.6493895,31.9958212 45.8190192,31.2846883 C42.9871526,30.5835714 40.320869,29.6055132 37.915927,28.4261343 C35.5099875,27.2482578 33.3713746,25.860547 31.5619326,24.3811903 C29.7455082,22.9068414 28.2717206,21.3318323 27.1121416,19.831442 C25.9465776,18.3320533 25.1027033,16.9012739 24.494236,15.6858375 C23.8822776,14.4699004 23.5171972,13.4622952 23.2942588,12.7706934 C23.0733153,12.0770884 23,11.6954804 23,11.6954804" id="Fill-213" fill="#FFFFFE"/>
    <path d="M25,11.2874553 C25,11.2874553 25.0701356,11.6060058 25.2949673,12.1710654 C25.519799,12.7346547 25.9008192,13.5457333 26.5255728,14.4925634 C27.1493317,15.4384133 28.0193111,16.5180545 29.1782888,17.593285 C30.3342821,18.6709658 31.7946935,19.7182618 33.4943617,20.6690126 C35.1980093,21.6158427 37.1573283,22.4401533 39.2987013,23.0973475 C41.4400744,23.756502 43.7600195,24.2475599 46.1824322,24.6097273 C48.6093217,24.9518015 51.1396735,25.138031 53.7157875,25.213503 C55.0045907,25.2203641 56.3033421,25.2531993 57.6080626,25.200761 C58.912783,25.1840983 60.2209853,25.1032355 61.5291877,25.0248231 C62.8214727,24.9620931 64.147582,24.8214408 65.4468309,24.7155841 C66.735634,24.5445469 68.0259294,24.431339 69.2928463,24.1975719 C71.8376232,23.8079602 74.3097774,23.2360395 76.636189,22.495042 C78.959616,21.7496339 81.1482435,20.8474008 83.0772202,19.7334542 C85.0071917,18.6239183 86.6680615,17.3041391 87.9648233,15.8726222 C89.2690463,14.446006 90.1952337,12.9125529 90.7911373,11.4638833 C91.3935072,10.0157037 91.6889719,8.6640694 91.8043723,7.54277164 C91.9217623,6.42000365 91.9013683,5.52708209 91.8511293,4.92330637 C91.8013878,4.31806042 91.72976,4 91.72976,4 C91.72976,4 91.8168077,4.3141398 91.8953993,4.9184056 C91.9710064,5.52169124 92.047111,6.41804333 91.9635452,7.55698389 C91.8869433,8.69396414 91.6377382,10.074513 91.0761562,11.5731706 C90.8070546,12.3274001 90.4225525,13.0909412 89.9838322,13.878006 C89.511785,14.6449776 88.9705971,15.4291019 88.313014,16.1715696 C87.0132678,17.6702272 85.3364807,19.0615577 83.3856177,20.2392144 C81.436247,21.4207917 79.2222513,22.3994769 76.8575388,23.1615477 C74.4953133,23.9324399 71.9913245,24.5293545 69.4196872,24.942 C68.140335,25.1870388 66.8271585,25.3120086 65.5194535,25.4938274 C64.8663472,25.5545971 64.2127434,25.6153667 63.5581449,25.6766264 C62.9100127,25.7354357 62.2404916,25.8035565 61.5809189,25.8305108 C60.261276,25.9005919 58.9416331,25.9731234 57.6244773,25.9804746 C56.3083163,26.0245816 54.9956372,25.9824349 53.6943987,25.9662623 C51.092419,25.8716773 48.5337145,25.6658447 46.0764828,25.3022071 C41.1674908,24.5582691 36.6912501,23.0694131 33.2640584,21.0610747 C31.5479755,20.0647468 30.0999995,18.9439391 28.9668873,17.807939 C27.8283036,16.6753694 26.9866769,15.5521114 26.3907733,14.5753865 C25.7884033,13.5996418 25.455135,12.7601388 25.2531844,12.1862578 C25.0547157,11.6084562 25,11.2874553 25,11.2874553" id="Fill-214" fill="#FFFFFE"/>
    <path d="M25,10.5706299 C25,10.5706299 25.0821622,10.8375867 25.3113256,11.3025917 C25.539994,11.7675967 25.921603,12.4265664 26.5041631,13.1881333 C27.0901878,13.9451064 27.8905272,14.7939574 28.9274544,15.6121825 C29.9633916,16.4298971 31.2334418,17.2139231 32.7004833,17.8831015 C34.1695047,18.5476861 35.8370024,19.0877248 37.6386324,19.4715709 C39.4422422,19.8528648 41.3780045,20.0682678 43.3845451,20.169844 C44.3878155,20.2351795 45.4118738,20.2183352 46.4468212,20.2193561 C47.4817685,20.1795423 48.5295846,20.1555519 49.5838351,20.0646947 C51.6948109,19.9268777 53.8300395,19.6395035 55.9548739,19.2964922 C57.0210033,19.1035483 58.0707993,18.9504182 59.1280195,18.7181709 C59.6561347,18.609959 60.182765,18.5022575 60.7089003,18.394556 C61.2271164,18.2725624 61.7448376,18.1510792 62.260084,18.029596 C63.2920616,17.7993904 64.3022612,17.5012972 65.3070164,17.2368926 C65.8069193,17.0955025 66.296923,16.9331846 66.7874217,16.784138 C67.2794053,16.6386644 67.7619848,16.476857 68.2351601,16.3012678 C70.1407303,15.6377042 71.945825,14.881752 73.5682819,13.9915558 C75.1917287,13.1074848 76.6374872,12.0937637 77.7941931,10.9595803 C78.949909,9.82590727 79.7809356,8.55645892 80.2724242,7.32325136 C80.7396601,6.07881426 80.8688429,4.88848312 80.7926201,3.92784709 C80.7262964,2.96363803 80.5253454,2.21993629 80.3501319,1.73298264 C80.1764033,1.24296639 80.0397962,1 80.0397962,1 C80.0397962,1 80.189767,1.23428902 80.391708,1.7156279 C80.5906792,2.19594591 80.8480549,2.93097028 80.9505102,3.91355495 C81.0688041,4.88950398 80.9891166,6.11964894 80.5575173,7.43248415 C80.10513,8.73408981 79.2899419,10.1000101 78.1164077,11.2969769 C76.9502977,12.5021106 75.4906805,13.5826985 73.8538699,14.5310841 C72.2175543,15.485595 70.4005808,16.3114765 68.4717478,17.0015827 C66.5458845,17.7054707 64.5254852,18.3241162 62.4367823,18.8222994 C61.9151015,18.9473556 61.390946,19.0729222 60.8653056,19.1989993 C60.3401601,19.3087426 59.8135298,19.4189962 59.2859096,19.5297603 C58.2371036,19.7650702 57.1457316,19.9324924 56.0825719,20.1279885 C53.9349696,20.4643642 51.7759833,20.7445923 49.6367952,20.8752633 C47.5005767,21.035029 45.3856413,21.0360499 43.3459388,20.9084415 C39.2665337,20.6767046 35.4786562,19.7614972 32.5109162,18.3128866 C31.0235816,17.5982796 29.757986,16.7361573 28.7388772,15.8556593 C27.7163037,14.9756718 26.939722,14.0783295 26.37795,13.286647 C25.8151881,12.4929228 25.4781249,11.799754 25.2717294,11.3219881 C25.0673136,10.8416701 25,10.5706299 25,10.5706299" id="Fill-215" fill="#FFFFFE"/>
    <path d="M26,9.65477239 C26,9.65477239 26.0157312,9.69909127 26.0609585,9.7780945 C26.1027446,9.85902463 26.1686191,9.97560256 26.2703805,10.1186755 C26.3603434,10.2689743 26.5097901,10.4284259 26.6675939,10.625934 C26.8489946,10.804173 27.0402273,11.0252857 27.2929102,11.23291 C27.5441182,11.442943 27.8194146,11.6756171 28.1586192,11.8813145 C28.4776681,12.1130252 28.8611168,12.3042708 29.2661958,12.5128586 C29.4638194,12.6260645 29.6820901,12.715184 29.9092097,12.8023766 C30.1343629,12.8924595 30.3659069,12.9854328 30.6028585,13.080333 C31.0880685,13.2446019 31.6067074,13.3968277 32.1430438,13.5610966 C32.6956032,13.6757476 33.2668433,13.8106312 33.8631551,13.9233553 C34.4668409,14.0023585 35.0901908,14.0837704 35.7317298,14.1675909 C36.3781849,14.2051656 37.0423376,14.2441854 37.7212384,14.2841688 C38.4011223,14.2991023 39.0977207,14.2875409 39.804151,14.2923581 C40.511073,14.3140359 41.230285,14.2340692 41.9578542,14.2017935 C42.6854234,14.1618101 43.4213499,14.1223085 44.1607175,14.0288535 C44.9005767,13.9493685 45.6468268,13.8698836 46.3955348,13.7899169 C47.1368689,13.662741 47.8811525,13.535565 48.6254361,13.4083891 C48.9985612,13.3414291 49.3790602,13.2918112 49.7467776,13.212808 L50.8297742,12.9377418 C51.1906092,12.8462137 51.550461,12.7551673 51.9093296,12.6641209 L52.4471409,12.5282739 L52.9702042,12.3466628 C53.6668026,12.1033907 54.3579933,11.8620455 55.0403352,11.6240723 C55.6985887,11.328292 56.3489766,11.0363654 56.9885493,10.7497378 C57.6168151,10.4409508 58.1973957,10.0709845 58.7927243,9.75448988 C59.0955504,9.60226415 59.3615065,9.40234744 59.6333617,9.21784601 C59.9042338,9.03189939 60.1721562,8.8483614 60.4366375,8.66675033 C61.4699824,7.9114024 62.3769859,7.10450969 63.1463412,6.29617179 C63.9097972,5.48301663 64.5449455,4.67901428 65.064076,3.93426435 C65.3241328,3.56237111 65.5301135,3.1909596 65.7415019,2.8590497 C65.9361758,2.51846872 66.0934881,2.193303 66.2473591,1.90571198 C66.3820578,1.60848643 66.5020084,1.34353658 66.6062277,1.11278935 C66.6981571,0.8762614 66.77583,0.675381244 66.8392465,0.512075793 C66.9513315,0.180647622 67,0 67,0 C67,0 66.9665711,0.183537984 66.8815242,0.524600695 C66.8313809,0.693205142 66.7699308,0.900829476 66.6976655,1.14506506 C66.6111438,1.38448338 66.5142984,1.66195812 66.3923814,1.96785477 C66.2547332,2.2665255 66.1161017,2.60421612 65.939617,2.9606941 C65.7474011,3.30801926 65.5605928,3.6977364 65.3202,4.09082562 C65.0650592,4.47428031 64.8246664,4.90590769 64.5120082,5.31971118 C64.3532212,5.52492688 64.1905013,5.7359233 64.023357,5.95173699 C63.8567044,6.16755069 63.6885769,6.39107201 63.4870205,6.59387908 C62.7304469,7.44990794 61.831309,8.31075408 60.7984557,9.12535442 C60.5339744,9.32141731 60.266052,9.52037056 59.9946883,9.72125071 C59.7218499,9.92116741 59.454419,10.1369811 59.1506097,10.3041404 C58.5552811,10.6567645 57.9555281,11.0378106 57.3174302,11.3706839 C56.6655676,11.6780258 56.0023981,11.9901848 55.3313629,12.3066795 C54.6396806,12.574038 53.9293174,12.8197187 53.2164962,13.0755158 L52.6796681,13.2643527 L52.1241592,13.4093526 C51.7534922,13.5052162 51.3813503,13.6020434 51.0087169,13.6988705 L49.8878671,13.9888701 C49.5137588,14.0707637 49.139159,14.123272 48.7640676,14.1911955 C48.0079855,14.3149993 47.2519035,14.4397666 46.498771,14.5635704 C45.7397393,14.640165 44.9836573,14.7162779 44.233966,14.791909 C43.858383,14.8246665 43.4862412,14.8791016 43.1126245,14.8930717 C42.7390079,14.908487 42.3668661,14.9234205 41.9971823,14.938354 C41.2568315,14.9581049 40.5287706,15.0245832 39.8080838,14.9903806 C39.0878886,14.970148 38.3799835,14.9778557 37.6887927,14.9320916 C36.9980935,14.8670584 36.322634,14.8029888 35.6648721,14.740846 C35.0130094,14.6319757 34.3788444,14.525514 33.7658182,14.4233879 C33.1586911,14.2860957 32.577619,14.1276075 32.0186688,13.9893519 C31.4734835,13.798588 30.9450126,13.6323922 30.4588194,13.4339206 C30.2213762,13.3216783 29.9893407,13.212808 29.7636959,13.106828 C29.5375595,13.0037384 29.3202719,12.8996854 29.12314,12.771546 C28.7200273,12.5330912 28.3419863,12.3148688 28.028345,12.0581084 C27.6955312,11.8288063 27.4276088,11.573491 27.184758,11.3446707 C26.706922,10.8793224 26.4050791,10.4486585 26.2330188,10.1408349 C26.1425642,9.98909092 26.0860301,9.86625054 26.0506349,9.78243004 C26.01229,9.70005473 26,9.65477239 26,9.65477239" id="Fill-216" fill="#FFFFFE"/>
    <path d="M27,10.1560485 C27,10.1560485 27.4742571,10.3378408 28.3248165,10.5628925 C29.1724663,10.797729 30.4051469,11.0423503 31.8904737,11.198908 C32.6333796,11.2828517 33.4417504,11.3122063 34.2937645,11.332806 C35.1472334,11.330231 36.0458004,11.2983015 36.9700684,11.2050879 C37.4331722,11.1659485 37.9001555,11.0917896 38.3734428,11.0269006 C38.8428507,10.9336869 39.3229269,10.8698279 39.797669,10.7544696 C40.0357674,10.7014254 40.2748357,10.6483812 40.5148738,10.595337 L41.2286842,10.4001549 C41.7082755,10.2801617 42.1767135,10.1096992 42.6495159,9.95623151 C43.1232881,9.80533876 43.5834824,9.61067166 44.0494958,9.44072419 C44.5053258,9.24039218 44.9587312,9.04109015 45.408742,8.8433331 C45.8495393,8.62137141 46.2864572,8.40095469 46.7185258,8.18362793 C47.1408959,7.94518648 47.5579319,7.70983499 47.9686638,7.47808845 C48.3692122,7.2262572 48.7629718,6.97854589 49.1484875,6.73598451 C49.5247897,6.47642838 49.8928482,6.22253716 50.2512081,5.97534084 C50.6158721,5.73638441 50.9383476,5.4551986 51.2695517,5.21160723 C51.5978463,4.96286594 51.918382,4.72648446 52.2064278,4.47310823 C52.7917329,3.97768562 53.3396987,3.53479222 53.7955287,3.10425864 C54.2596024,2.68350991 54.6693644,2.32044032 54.9821414,1.99342019 C55.6236978,1.35688968 56,1 56,1 C56,1 55.6765547,1.40735893 55.0927044,2.10980846 C54.8070833,2.46772812 54.4283564,2.86890714 53.9982275,3.33652018 C53.5777971,3.81494804 53.0652308,4.31243063 52.4988379,4.84905263 C52.2224303,5.1261185 51.9130478,5.38721961 51.5959066,5.66222551 C51.2748859,5.9315665 50.9558049,6.22974705 50.59696,6.49239314 C50.2424795,6.76224912 49.8787853,7.03982998 49.5068475,7.32359075 C49.1203619,7.58520685 48.7251476,7.85300286 48.3236292,8.12440381 C47.9090179,8.37469008 47.4876177,8.6285813 47.0608832,8.88607746 C46.6273598,9.13069882 46.1778339,9.35678045 45.7273381,9.59110195 C45.265689,9.79915885 44.8001605,10.0087607 44.3336622,10.2193926 C43.8550407,10.3996399 43.3827233,10.6056368 42.8948882,10.7647695 C42.4055984,10.9182372 41.9211578,11.0886996 41.4255639,11.2076629 L40.6875073,11.401815 C40.4397104,11.4543442 40.1923984,11.5063584 39.9465411,11.5583726 C38.9616574,11.7690045 37.9772587,11.8797278 37.024865,11.9492518 C36.0719864,12.0244407 35.1477183,12.004356 34.2753374,11.9641866 C33.4034413,11.9070224 32.5814926,11.8184438 31.8313128,11.6804258 C30.3280437,11.4249896 29.1133054,11.0269006 28.2802033,10.7199651 C27.4466164,10.4068498 27,10.1560485 27,10.1560485" id="Fill-217" fill="#FFFFFE"/>
  </g>
</g>
</g>
      <g id="avatar-facials" transform="translate(0, 60)"><g id="Page-1" stroke="none" stroke-width="1" fill="none" fill-rule="evenodd" transform="translate(60, 94)">
  <g id="facials">
    <g id="stache">
      <path d="M7.7945394,2.84541923 C5.47869265,26.6245447 27.8629475,-8.34475748 41.8531068,3.54480527 C56.6921835,-7.64537143 78.4570682,26.6245447 76.1289971,2.84541923 C99.2626537,19.6306843 64.8825389,25.2257726 41.8531068,19.6306843 C18.6606825,25.2257726 -15.5065463,21.0294564 7.7945394,2.84541923 Z" id="color" fill="#241c11"/>
      <path d="M42.7908775,4 C54,3 70,11 75.2091225,12 C68.5608813,10 68.5608813,9 57.7908775,3 C47.0208736,-3 40.5232497,2.81407958 42.7908775,4 Z" id="tone" fill="#1a1207"/>
    </g>
  </g>
</g>
</g>
      <g id="avatar-eyes" transform="translate(0, 60)"><g id="Page-1" stroke="none" stroke-width="1" fill="none" fill-rule="evenodd" transform="translate(41, 39)">
  <g id="eyes">
    <g id="glasses">
      <path d="M14.0037425,10.9970747 C13.6808859,10.6269561 34.3272916,5.32998142 44.7590254,9.25621508 C44.8338113,9.47754232 47.6410221,-0.428246622 31.9852133,0.0144078597 C16.5774751,1.17870074 14.0748804,11.1960832 14.0037425,10.9970747" id="left-brow" fill="#230E0A"/>
      <path d="M99.9968023,9.89008622 C100.296298,9.5011816 79.4822379,5.44838616 69.3447541,9.99615111 C69.284855,10.2213064 65.925055,0.494969508 81.5042893,0 C96.8784143,0.238180816 99.9387182,10.0947729 99.9968023,9.89008622" id="right-brow" fill="#230E0A"/>
      <path d="M49,28.5 C49,40.3751755 39.1513424,50 27,50 C14.8486576,50 5,40.3751755 5,28.5 C5,16.6248245 14.8486576,7 27,7 C39.1513424,7 49,16.6248245 49,28.5" id="Fill-479" fill="#A7B9EB"/>
      <path d="M47.3169104,20 L14,45.4839094 C17.6715422,48.3051251 22.26097,50 27.2581473,50 C39.2661021,50 49,40.3098927 49,28.3581645 C49,25.3957092 48.4000513,22.5709178 47.3169104,20" id="Fill-481" fill="#FFFFFF"/>
      <path d="M28.6171341,7 L6.30780108,21.2344214 C5.47672637,23.5008902 5,25.9329377 5,28.4771513 C5,29.3335312 5.06575536,30.1721068 5.1643884,31 L36,8.75192878 C33.7168277,7.7727003 31.2290832,7.1727003 28.6171341,7" id="Fill-483" fill="#FFFFFF"/>
      <path d="M27.4991064,5 C14.54234,5 4,15.54234 4,28.4991064 C4,41.45766 14.54234,52 27.4991064,52 C40.45766,52 51,41.45766 51,28.4991064 C51,15.54234 40.45766,5 27.4991064,5 M27.4991064,6.86577436 C39.4479258,6.86577436 49.1324385,16.5520742 49.1324385,28.4991064 C49.1324385,40.4479258 39.4479258,50.1342256 27.4991064,50.1342256 C15.5502871,50.1342256 5.86577436,40.4479258 5.86577436,28.4991064 C5.86577436,16.5520742 15.5502871,6.86577436 27.4991064,6.86577436" id="Fill-485" fill="#230E0A"/>
      <path d="M110,28.5 C110,40.3751755 100.149932,50 88.0009087,50 C75.8500682,50 66,40.3751755 66,28.5 C66,16.6248245 75.8500682,7 88.0009087,7 C100.149932,7 110,16.6248245 110,28.5" id="Fill-487" fill="#A7B9EB"/>
      <path d="M100.710599,10 L71,40.6167779 C73.561818,43.9819803 77.0989657,46.57551 81.2076098,48 L109,20.5869941 C107.433343,16.2496615 104.512762,12.5456328 100.710599,10" id="Fill-489" fill="#FFFFFF"/>
      <path d="M88.5,5 C75.5409537,5 65,15.54234 65,28.4991064 C65,41.45766 75.5409537,52 88.5,52 C101.459046,52 112,41.45766 112,28.4991064 C112,15.54234 101.459046,5 88.5,5 M88.5,6.86577436 C100.449274,6.86577436 110.134155,16.5520742 110.134155,28.4991064 C110.134155,40.4479258 100.449274,50.1342256 88.5,50.1342256 C76.5507263,50.1342256 66.8658453,40.4479258 66.8658453,28.4991064 C66.8658453,16.5520742 76.5507263,6.86577436 88.5,6.86577436" id="Fill-491" fill="#230E0A"/>
      <path d="M49.5638157,24 L48,22.4340996 C48.0810734,22.3634452 56.3091219,15.690705 67,21.1376722 L65.8667741,22.9861904 C56.6298123,18.2802737 49.6340793,23.9441337 49.5638157,24" id="Fill-493" fill="#230E0A"/>
      <path d="M11,13.0957251 C10.7145146,13.0331356 10.4202179,13 10.1188722,13 L4.30871516,13 C1.92966998,13 0,15.0139088 0,17.5009204 C0,19.9860912 1.92966998,22 4.30871516,22 L5.97404678,22 C6.96443448,18.616486 8.71259212,15.5845776 11,13.0957251" id="Fill-495" fill="#230E0A"/>
      <path d="M105,13.0957251 C105.283723,13.0331356 105.579782,13 105.881128,13 L111.691285,13 C114.07033,13 116,15.0139088 116,17.5009204 C116,19.9860912 114.07033,22 111.691285,22 L110.027715,22 C109.035566,18.616486 107.28917,15.5845776 105,13.0957251" id="Fill-497" fill="#230E0A"/>
    </g>
  </g>
</g>
</g>
      <g id="avatar-noses" transform="translate(0, 60)"><g id="Page-1" stroke="none" stroke-width="1" fill="none" fill-rule="evenodd" transform="translate(85, 65)">
  <g id="noses" fill="#b08078">
    <g id="penis">
      <path d="M23.1163906,17.5631587 C22.6243566,11.8412686 18.8822073,-0.0210929037 14.405851,2.81672649e-05 C9.94871487,0.0230693356 6.34302816,11.8067068 5.88174628,17.5631587 C2.07617077,18.4195221 -0.566590011,22.1310703 0.104190725,26.1613547 L0.373271822,27.7723163 C0.682715084,29.6348108 2.29527966,31 4.18461336,31 L24.8135235,31 C26.7047792,31 28.3173438,29.6348108 28.628709,27.7703962 L28.8958681,26.1613547 C29.5666489,22.1310703 26.9219661,18.4195221 23.1163906,17.5631587" id="Fill-542"/>
    </g>
  </g>
</g>
</g>
      <g id="avatar-accessoires" transform="translate(0, 60)"><!--?xml version="1.0" encoding="UTF-8"?-->
<svg width="137px" height="128px" viewBox="0 0 137 128" version="1.1" xmlns="http://www.w3.org/2000/svg" xmlns:xlink="http://www.w3.org/1999/xlink">
    <!-- Generator: Sketch 52.6 (67491) - http://www.bohemiancoding.com/sketch -->
    <title>bearded</title>
    <desc>Created with Sketch.</desc>
</svg>
</g>
    </svg>