<!DOCTYPE svg PUBLIC "-//W3C//DTD SVG 1.0//EN" "http://www.w3.org/TR/2001/REC-SVG-20010904/DTD/svg10.dtd">
<svg xmlns:xlink="http://www.w3.org/1999/xlink" xmlns="http://www.w3.org/2000/svg" viewBox="0 0 210 250" width="210" height="250">
  <g transform="translate(0,52)">
    <g id="head">
      <path
        d="M161.099029,175.607843 C126.978641,161.743137 115.743689,144.515686 118.656311,119.72549 L97.7825243,119.72549 L95.2834951,119.72549 L81.1378641,119.72549 C84.0504854,144.515686 72.815534,161.743137 38.6951456,175.607843 C4.57669903,189.47451 0,204.6 0,204.6 L91.3184466,204.6 L97.7825243,204.6 L199.796117,204.6 C199.796117,204.6 195.217476,189.47451 161.099029,175.607843"
        id="shirt"
        fill="#FCC21C"/>
      <path
        d="M99.584466,187.931373 C121.518447,187.931373 141.163107,182.1 154.51068,172.9 C125.287379,159.503922 115.617476,142.927451 118.343689,119.72549 L97.4699029,119.72549 L94.9728155,119.72549 L80.8252427,119.72549 C83.5514563,142.927451 73.8815534,159.503922 44.6601942,172.9 C58.0058252,182.1 77.6504854,187.931373 99.584466,187.931373"
        id="shirt-tone"
        fill="#E3AF18"/>
      <path
        d="M98.9961165,181.745098 C117.706796,181.745098 134.866019,176.666667 146,168.686275 C124,154.8396 115.308738,140.554902 117.75534,119.72549 L96.8815534,119.72549 L94.3825243,119.72549 L80.2368932,119.72549 C82.6834951,140.554902 75.7106796,156.043137 53,168.686275 C64.1320388,176.666667 80.2873786,181.745098 98.9961165,181.745098 Z"
        id="tone"
        fill="#e2b2aa"/>
      <path
        d="M49.4067897,77.4772942 C55.6611586,89.5576864 53.0397994,103.412588 43.5524208,108.420431 C34.0650421,113.428275 21.3038771,107.696902 15.0495081,95.6165099 C8.79513921,83.5361177 11.4164984,69.6831766 20.9038771,64.6753334 C30.3931975,59.6655295 43.1524208,65.396902 49.4067897,77.4772942"
        id="tone"
        fill="#e2b2aa"/>
      <path
        d="M44.3669903,99.7980392 C44.3300971,99.3078431 44.238835,98.8803922 44.1864078,98.4058824 C44.2563107,98.7490196 44.3009709,99.0352941 44.3262136,99.2647059 C44.2660194,96.8058824 43.9126214,94.7921569 43.2932039,93.2137255 C38.3514563,72.7647059 19.4174757,70.7058824 19.4174757,70.7058824 C29.0097087,76.5529412 34.9980583,83.0019608 38.7067961,88.3470588 C31.9009709,85.5470588 21.376699,91.4764706 21.376699,91.4764706 C33.8621359,88.1352941 39.5417476,90.9019608 42.1475728,94.1137255 C43.8679612,97.572549 44.3669903,99.7980392 44.3669903,99.7980392"
        id="dark"
        fill="#b08078"/>
      <path
        d="M145.146596,77.4772942 C138.892227,89.5576864 141.513586,103.412588 151.000964,108.420431 C160.488343,113.428275 173.249508,107.696902 179.503877,95.6165099 C185.758246,83.5361177 183.136887,69.6831766 173.649508,64.6753334 C164.162129,59.6655295 151.400964,65.396902 145.146596,77.4772942"
        id="tone"
        fill="#e2b2aa"/>
      <path
        d="M151.456311,99.7980392 C151.493204,99.3078431 151.584466,98.8803922 151.636893,98.4058824 C151.565049,98.7490196 151.52233,99.0352941 151.497087,99.2647059 C151.557282,96.8058824 151.91068,94.7921569 152.530097,93.2137255 C157.471845,72.7647059 176.403883,70.7058824 176.403883,70.7058824 C166.81165,76.5529412 160.825243,83.0019608 157.116505,88.3470588 C163.92233,85.5470588 174.446602,91.4764706 174.446602,91.4764706 C161.961165,88.1352941 156.281553,90.9019608 153.675728,94.1137255 C151.95534,97.572549 151.456311,99.7980392 151.456311,99.7980392"
        id="dark"
        fill="#b08078"/>
      <path
        d="M154.295146,86.8411765 C152.098382,38.2803922 149.308738,11.3333333 145.926214,6 C140.852427,-2 54,-1 47.776699,7 C41.5533981,15 39.6640777,80.5764706 38.8349515,91.8313725 C39.6601942,119.788235 47.184466,145.733333 84.2854369,150.617647 C86.5184466,155.156863 92.5631068,158.417647 99.6912621,158.417647 C107.126214,158.417647 113.38835,154.872549 115.368932,150.02549 C148.8,144.14902 155.526214,120.723529 156.438835,95.3254902 L154.295146,86.8411765 Z"
        id="color"
        fill="#ecbcb4"/>
      <path
        d="M69.5560979,99.5384935 C69.3230881,99.5384935 69.0861949,99.4894739 68.8648357,99.3855523 C68.0687192,99.0149641 67.7366804,98.0933954 68.1211464,97.3267288 L73.1560979,87.2620229 C73.5386221,86.4953562 74.4920202,86.1777092 75.2861949,86.5443758 C76.0803697,86.9149641 76.4124085,87.8365327 76.0279425,88.6012386 L70.9949328,98.6659444 C70.7192046,99.2169248 70.1502726,99.5384935 69.5560979,99.5384935"
        id="tone"
        fill="#e2b2aa"/>
      <path
        d="M59.8480789,99.5376387 C59.6150692,99.5376387 59.378176,99.4886191 59.1568167,99.3846975 C58.3607002,99.0141093 58.0286614,98.0925406 58.4111857,97.325874 L63.4461371,87.2611681 C63.8306032,86.4945014 64.785943,86.1788151 65.578176,86.543521 C66.3723507,86.9141093 66.7063313,87.8356779 66.3218653,88.6003838 L61.2869138,98.6670504 C61.0111857,99.2180308 60.4422536,99.5376387 59.8480789,99.5376387"
        id="tone"
        fill="#e2b2aa"/>
      <path
        d="M130.904433,99.5376387 C130.310258,99.5376387 129.741326,99.21607 129.465598,98.6670504 L124.430647,88.6003838 C124.048122,87.8356779 124.380161,86.9141093 125.174336,86.543521 C125.972394,86.1788151 126.92385,86.4945014 127.306375,87.2611681 L132.339384,97.3278347 C132.72385,98.0945014 132.391812,99.0141093 131.595695,99.3846975 C131.374336,99.4886191 131.137443,99.5376387 130.904433,99.5376387"
        id="tone"
        fill="#e2b2aa"/>
      <path
        d="M138.671423,99.5376387 C138.077248,99.5376387 137.508316,99.21607 137.232588,98.6650896 L132.197637,88.6003838 C131.815113,87.8356779 132.147151,86.9141093 132.941326,86.543521 C133.737443,86.1788151 134.690841,86.4945014 135.073365,87.2611681 L140.106375,97.325874 C140.490841,98.0925406 140.158802,99.0141093 139.362685,99.3846975 C139.141326,99.4886191 138.904433,99.5376387 138.671423,99.5376387"
        id="tone"
        fill="#e2b2aa"/>
    </g>
  </g>
  <g id="mouth" transform="translate(79,170)">
    <path d="M4,9 C4,9 13.2526996,16.1571286 23.9998926,9.87193445 C23.9998926,9.87193445 24.148402,17.0036317 13.4030889,16.9999986 C5.34034434,16.9963656 4,9 4,9" id="tone" fill="#b08078"/>
    <path
      d="M2.57085816,4.42784723 C1.84013967,3.93606485 1.18138589,3.43856407 0.603823048,2.96012463 C-0.0899904605,2.38637852 -0.202550631,1.34181751 0.352869226,0.625111409 C0.906443834,-0.0896885566 1.90103288,-0.211681084 2.61514412,0.363971155 C3.16502823,0.8138186 16.0577809,11.2403674 25.2526551,1.75544842 C25.8818849,1.10736312 26.8949264,1.11117539 27.529692,1.75926069 C28.1570765,2.40925212 28.1570765,3.46334381 27.5278467,4.10952297 C19.4991697,12.3897658 8.63803586,8.52031529 2.57085816,4.42784723"
      id="tone"
      fill="#b08078"/>
  </g>
  <g id="hair" transform="translate(17,0)">
    <path
      d="M149.997446,52.3500386 C149.819834,52.0582817 149.625571,51.7757577 149.442409,51.487694 C149.399856,51.4156781 149.362854,51.3344293 149.318451,51.26426 C149.022431,50.7841538 148.719011,50.3317461 148.413741,49.884878 C144.082602,43.4200637 138.66174,37.6975674 132.387972,32.9648285 C135.768147,30.604922 137.953143,24.8177961 134.848636,11.5982572 L127.26313,24.6276001 C125.483311,8.54404333 115.475994,0 115.475994,0 L115.475994,23.4790385 C107.122686,20.1810784 97.9830767,18.3492886 88.3938871,18.3492886 C40.5274942,19.6086441 22.5905478,34.2389564 16.2871773,48.1860408 C13.3843337,52.9464781 11.5841636,58.6320432 11.6896206,65.440318 C11.6896206,65.440318 -11.1335017,86.9620006 7.00140792,121.20465 L7.43063655,122.004212 C12.9514048,132.324648 15.6988381,143.843503 15.8190961,155.541474 C15.893101,162.600882 35.4170904,173.17358 29.229223,157.803922 C19.6029766,133.893888 22.2223791,98.9588335 28.229223,75.1316 C36.5496797,42.1270026 90.3604269,38.2456921 91.9579777,36.6582 C95.4990316,33.1394416 115.459452,60.2743928 124.26313,62 C127.260744,62.587383 134.518748,83.0178 131.848636,110.745098 C130.656463,123.124998 135.374864,140.184087 130.686509,152.407341 C123.310049,171.638897 147.250013,145.701144 149.512714,140.490146 C161.333152,113.268126 162.805851,74.521711 149.958594,52.423901 C149.971545,52.3980492 149.997446,52.3500386 149.997446,52.3500386 Z"
      id="color"
      fill="#4f1a00"/>
    <path
      d="M132.372981,32.9036545 C135.756523,30.5481274 137.943695,24.7717408 134.836096,11.5767339 L127.243035,24.5818979 C125.461444,8.52818785 115.44416,0 115.44416,0 L115.44416,23.4354676 C107.082534,20.1436276 97.9338214,18.3152372 88.3350816,18.3152372 C-3.57243549,20.7279016 14.7268406,72.241695 14.0768006,73.8489091 C18.6956038,82.989018 22.4310192,90.9587358 22.4254633,89.9063054 C22.4254633,89.9063054 22.2569344,75.8229072 43.5638034,74.6156535 C63.4594742,73.4894977 84.2681643,62.1855478 91.8871524,57.426572 L77.5010805,75.0008688 C77.5010805,75.0008688 100.867336,81.5034508 107.297362,58.7610021 L108.03074,75.8689856 C108.03074,75.8689856 123.81875,73.3217724 116.968328,58.2172772 C124.705842,60.2576281 132.012989,87.3388177 136.600309,89.9063054 C137.955948,90.6656772 137.804798,67.0071903 138.888198,68.0356599 C143.362548,64.4138986 150.007402,52.2639496 149.999994,52.2528908 C145.43675,44.7826627 139.441936,38.2211004 132.372981,32.9036545 Z"
      id="color"
      fill="#4f1a00"/>
    <path
      d="M149.827527,52.6055814 C149.840667,52.5795349 149.866948,52.5311628 149.866948,52.5311628 C149.686739,52.2372093 149.489635,51.9525581 149.303795,51.6623256 C149.26062,51.5897674 149.223077,51.507907 149.178024,51.4372093 C148.877677,50.9534884 148.56982,50.4976744 148.260086,50.0474419 C143.86562,43.5339535 138.365499,37.7683721 132,33 C132,33 156.590987,63.7572093 158.751615,101 C159.889183,82.9293023 157.154139,65.1190698 149.827527,52.6055814"
      id="light"
      fill="#6d381e"/>
    <path d="M116,24.1359616 C107.607042,20.8321591 98.4221902,19 88.7874834,19 C32.3529733,20.4808874 17.3200051,40.3924449 14,56 C35.189663,17.4433118 116,24.1359616 116,24.1359616" id="light" fill="#6d381e"/>
  </g>
  <g id="eyes" transform="translate(50,90)">
    <path d="M76,28 C76,32.4165103 74.4317799,36 72.5,36 C70.5662549,36 69,32.4165103 69,28 C69,23.5834897 70.5662549,20 72.5,20 C74.4317799,20 76,23.5834897 76,28" id="Fill-33" fill="#25110D"/>
    <path
      d="M87.9922875,18.9978421 C88.4432398,18.7305971 69.0148726,6.29572485 57.018358,6.74246284 C56.8686969,6.94189945 57.2586033,-4.10888277 73.1719051,1.67876748 C88.5929009,8.11658104 87.8544418,19.1773351 87.9922875,18.9978421"
      id="right-brow"
      fill="#080603"
      transform="translate(0, 0) rotate(5.689398210456552) translate(0, 0) "/>
    <path d="M15,28 C15,32.4165103 16.5662549,36 18.4980348,36 C20.4337451,36 22,32.4165103 22,28 C22,23.5834897 20.4337451,20 18.4980348,20 C16.5662549,20 15,23.5834897 15,28" id="Fill-37" fill="#25110D"/>
    <path
      d="M0.00771254488,18.9978421 C-0.443239827,18.7305971 18.9851274,6.29572485 30.981642,6.74246284 C31.1313031,6.94189945 30.7413967,-4.10888277 14.8280949,1.67876748 C-0.5948701,8.11658104 0.145558248,19.1773351 0.00771254488,18.9978421"
      id="left-brow"
      fill="#080603"
      transform="translate(0, 0) rotate(-0.3343646646369045) translate(0, 0) "/>
  </g>
  <g id="nose" transform="translate(80,140)">
          <path
            d="M0.12315031,10.5514804 C0.12315031,10.5514804 15.4621303,18.3106495 30.799224,10.5514804 C30.799224,10.5514804 33.930398,-0.0540264721 15.4621303,0.000207296047 C-2.40631011,0.0507008043 0.12315031,10.5514804 0.12315031,10.5514804"
            fill="#b08078"
            id="Fill-495"/>
        </g>
</svg>
