<?xml version="1.0" standalone="no"?>
<svg xmlns:xlink="http://www.w3.org/1999/xlink" xmlns="http://www.w3.org/2000/svg" id="avatar" viewBox="0 0 210 259" width="210" height="259">
      <!-- Created with: Simpletar BY VINCENT.WTF -->
      <g id="avatar-heads" transform="translate(0, 60)" x="5px" y="29.5px">    <g id="Page-1" stroke="none" stroke-width="1" fill="none" fill-rule="evenodd">
        <g id="heads">
            <g id="turtle">
                <path d="M118.581368,116.698654 L97.8044066,116.698654 L95.3169695,116.698654 L81.2350213,116.698654 C84.1341322,141.012115 71.9532277,156.908269 37.9911094,170.506346 C4.03092385,184.106346 0.473521453,199.940962 0.473521453,199.940962 L91.3683804,199.940962 L97.8044066,199.940962 L199.344801,199.940962 C199.344801,199.940962 194.787399,185.106346 160.827213,171.506346 C126.865095,157.908269 115.682257,141.012115 118.581368,116.698654 Z" id="shirt" fill="#FCC21C"/>
                <path d="M65.7131813,154.507692 C73.4480093,164.315385 85.4599923,170.623077 98.9601855,170.623077 C112.460379,170.623077 124.474295,164.315385 132.209123,154.507692 C119.820255,143.844231 115.751836,131.180769 117.632393,115.384615 L96.855431,115.384615 L94.3699266,115.384615 L80.2879784,115.384615 C82.1724005,131.180769 78.1020487,143.844231 65.7131813,154.507692" id="tone" fill="#c7999a"/>
                <path d="M51.3170869,72.1047775 C57.5772338,84.018239 54.9545048,97.6797775 45.4589501,102.620162 C35.9633954,107.560547 23.1899126,101.906701 16.9316984,89.993239 C10.6715515,78.0797775 13.2942806,64.418239 22.7898353,59.4797775 C32.28539,54.5393928 45.0588728,60.1913159 51.3170869,72.1047775" id="tone" fill="#c7999a"/>
                <path d="M46.229223,94.0730769 C46.1905682,93.5884615 46.1016622,93.1692308 46.0475454,92.7 C46.1190568,93.0403846 46.1635099,93.3211538 46.1886355,93.5461538 C46.1287205,91.1211538 45.775029,89.1384615 45.1546193,87.5807692 C40.2106687,67.4134615 21.2601469,65.3846154 21.2601469,65.3846154 C30.8600696,71.15 36.8534983,77.5096154 40.5643603,82.7807692 C33.7514496,80.0192308 23.2199459,85.8673077 23.2199459,85.8673077 C35.7170468,82.5711538 41.3993042,85.3 44.0085041,88.4673077 C45.7286432,91.8788462 46.229223,94.0730769 46.229223,94.0730769" id="dark" fill="#956768"/>
                <path d="M148.356617,72.1047775 C142.098403,84.018239 144.721132,97.6797775 154.216687,102.620162 C163.712241,107.560547 176.485724,101.906701 182.743938,89.993239 C189.002152,78.0797775 186.381356,64.418239 176.885801,59.4797775 C167.390247,54.5393928 154.616764,60.1913159 148.356617,72.1047775" id="tone" fill="#c7999a"/>
                <path d="M152.686509,94.0730769 C152.725164,93.5884615 152.816003,93.1692308 152.868187,92.7 C152.796676,93.0403846 152.752223,93.3211538 152.727097,93.5461538 C152.787012,91.1211538 153.140704,89.1384615 153.761113,87.5807692 C158.706997,67.4134615 177.657518,65.3846154 177.657518,65.3846154 C168.055663,71.15 162.064167,77.5096154 158.351372,82.7807692 C165.164283,80.0192308 175.695787,85.8673077 175.695787,85.8673077 C163.200618,82.5711538 157.516428,85.3 154.907228,88.4673077 C153.187089,91.8788462 152.686509,94.0730769 152.686509,94.0730769" id="dark" fill="#956768"/>
                <path d="M81.1035949,0 C59.1109393,0 41.2156939,21.4653846 40.9876305,43.35 L40.5875532,81.4057692 C40.5875532,105.028846 52.5531504,125.615385 70.2589872,136.403846 C78.6374179,141.509615 91.7201392,146.346154 98.5929648,146.346154 C108.51179,146.346154 117.84886,141.717308 126.012756,136.95 C144.219173,126.321154 156.600309,105.432692 156.600309,81.4057692 L156.490143,41.0326923 C156.436026,20.4788462 139.6753,0 119.018168,0 L81.1035949,0 Z" id="color" fill="#d1a3a4"/>
                <path d="M65.3043706,93.7027245 C65.0821054,93.7027245 64.8559748,93.6546476 64.6414406,93.5527245 C63.8838063,93.1873399 63.5668368,92.2815707 63.9321248,91.5277245 L68.7388507,81.6258014 C69.1060714,80.8719553 70.0163923,80.5584938 70.7740266,80.9181091 C71.5335937,81.2834938 71.8505631,82.189263 71.4833424,82.9431091 L66.6785492,92.8450322 C66.4137637,93.3873399 65.8706636,93.7027245 65.3043706,93.7027245" id="tone" fill="#c7999a"/>
                <path d="M55.6386915,93.7027245 C55.4183591,93.7027245 55.1922285,93.6546476 54.979627,93.5527245 C54.2200599,93.1873399 53.9030905,92.2815707 54.2683784,91.5277245 L59.0751044,81.6258014 C59.4423251,80.8719553 60.3545787,80.5584938 61.1102803,80.9181091 C61.8698473,81.2834938 62.1868168,82.189263 61.8215288,82.9431091 L57.0128701,92.8450322 C56.7500174,93.3873399 56.2069173,93.7027245 55.6386915,93.7027245" id="tone" fill="#c7999a"/>
                <path d="M133.893887,93.7027245 C133.327594,93.7027245 132.784494,93.3873399 132.519709,92.8450322 L127.714916,82.9431091 C127.345762,82.189263 127.662732,81.2834938 128.424232,80.9181091 C129.183799,80.5584938 130.092187,80.8719553 130.459407,81.6258014 L135.266133,91.5277245 C135.631421,92.2815707 135.314452,93.1873399 134.556818,93.5527245 C134.342283,93.6546476 134.116153,93.7027245 133.893887,93.7027245" id="tone" fill="#c7999a"/>
                <path d="M143.558304,93.7027245 C142.992011,93.7027245 142.448911,93.3873399 142.184125,92.8450322 L137.377399,82.9431091 C137.010179,82.189263 137.327148,81.2834938 138.088648,80.9181091 C138.846282,80.5584938 139.756603,80.8719553 140.123824,81.6258014 L144.93055,91.5277245 C145.295838,92.2815707 144.978868,93.1873399 144.219301,93.5527245 C144.0067,93.6546476 143.780569,93.7027245 143.558304,93.7027245" id="tone" fill="#c7999a"/>
            </g>
        </g>
    </g>
</g>
      <g id="avatar-mouths" transform="translate(0, 60)"><g id="Page-1" stroke="none" stroke-width="1" fill="none" fill-rule="evenodd" transform="translate(85, 110)">
  <g id="mouths" fill="#FF6A68">
    <g id="line">
      <path d="M2.66445009,4.42825488 C1.90763062,3.93461039 1.22343524,3.43905994 0.627153239,2.96066315 C-0.093354183,2.3869682 -0.20993496,1.34250032 0.365324282,0.625858125 C0.940583524,-0.0888781077 1.97069891,-0.212765721 2.70840678,0.364741155 C3.27793254,0.814548491 16.6331205,11.2382617 26.154521,1.75800032 C26.8081378,1.10806684 27.8573648,1.11187876 28.5128928,1.75990628 C29.1626873,2.4079338 29.1626873,3.4619315 28.5109816,4.10995902 C20.1974344,12.3894635 8.94834506,8.52035806 2.66445009,4.42825488" id="tone" fill="#956768"/>
    </g>
  </g>
</g>
</g>
      <g id="avatar-hairs" transform="translate(0, 60)"><g id="Page-1" stroke="none" stroke-width="1" fill="none" fill-rule="evenodd" transform="translate(5, -95)">
  <g id="hairs" fill="#241c11">
    <g id="witch-hat">
      <polygon id="color" fill="#241c11" points="29 132.721 52 134 40.229223 192 29 165.769231"/>
      <ellipse id="Oval" fill="#000000" cx="95" cy="121" rx="95" ry="28"/>
      <polygon id="color" fill="#241c11" transform="translate(146.500000, 158.703670) scale(-1, 1) translate(-146.500000, -158.703670) " points="131 128 162 128 146.5 189.407341 138 165.769231"/>
      <path d="M190,121.5 C190,105.760987 147.468018,93 95,93 C42.5335286,93 0,105.760987 0,121.5 C0,137.24056 42.5335286,150 95,150 C147.468018,150 190,137.24056 190,121.5 Z" id="accent" fill="#555555"/>
      <path d="M157.814649,117.560759 L124.758208,65.6759054 C121.872205,57.6902246 120.919455,49.1288318 121.980122,40.700534 L126.589709,3.55318933 C126.742334,2.28414702 126.1195,1.04605696 125.011041,0.416178548 C123.896415,-0.229175795 122.501206,-0.116200177 121.505289,0.700939261 C116.993736,4.32494621 113.610072,7.04295142 111.354295,8.8549549 C105.920232,13.2199891 97.7691381,19.7675405 86.9010124,28.4976089 C78.0996308,35.5531744 71.4581258,44.9564683 67.7365398,55.6288046 L32.1856793,117.591711 C31.8835128,118.43516 31.9528877,119.36837 32.3737629,120.159201 C32.8023464,120.951578 33.5500556,121.518005 34.4272645,121.711456 C54.3348211,126.080366 74.66942,128.186667 95.0471852,127.987025 C115.394117,128.186667 135.697883,126.081914 155.573064,121.711456 C156.44719,121.504076 157.190274,120.931459 157.618858,120.139082 C158.045899,119.346704 158.118358,118.408851 157.814649,117.560759 Z" id="accent" fill="#555555"/>
      <path d="M151.714493,122.113789 C133.103264,126.204631 114.090708,128.174724 95.0377291,127.987855 C75.9558783,128.174724 56.9144486,126.203182 38.2729037,122.113789 C37.4514805,121.932714 36.7513216,121.402527 36.3499937,120.660844 C35.9558838,119.920611 35.8909207,119.047106 36.1738711,118.25762 L41.8502096,102 C43.7124872,102.415747 45.6642698,102.830047 47.6737975,103.216823 C63.3053819,106.008271 79.1607284,107.348225 95.0377291,107.220748 C110.825225,107.340982 126.589623,106.00972 142.136033,103.245794 C144.175878,102.889439 146.12766,102.47514 147.989938,102.028972 L150.000909,107.666917 L153.813526,118.228648 C154.1138,119.015237 154.048837,119.895984 153.637403,120.630424 C153.247625,121.388041 152.543135,121.931265 151.714493,122.113789 Z" id="accent-tone" fill="#2d2d2d"/>
      <path d="M102.768405,68.9630205 L106.625767,74 L123,61.0704555 C122.113497,57.1405217 121.662577,53.1218375 121.654908,49.0891397 L98.8297545,46 L98,52.3199689 L120.062883,55.3079021 L102.768405,68.9630205 Z" id="accent-tone" fill="#2d2d2d"/>
    </g>
  </g>
</g>
</g>
      <g id="avatar-facials" transform="translate(0, 60)"><g id="Page-1" stroke="none" stroke-width="1" fill="none" fill-rule="evenodd" transform="translate(39, 90)">
  <g id="facials">
    <g id="ring">
      <path d="M58,61 C102.747573,61 119,20 119,0.5 C100.135208,21.5671115 84.0673986,41.9804514 70.0336993,39.9902257 C56,38 62,34 58,34 C54,34 61,35.75 45.7800715,39.9855671 C30.5601429,44.2211342 12.7367448,19.5722104 1,0.5 C-0.165048544,19 13.2524272,61 58,61 Z" id="color" fill="#241c11"/>
      <path d="M119,0.5 C98,23.3846154 86,38.9855671 72.0336993,38.9902257 C58.0673986,38.9948843 62,34 58,34 C54,34 60,36 45.7800715,39.9855671 C89,54 111.456311,16 119,0.5 Z" id="tone" fill="#1a1207"/>
      <g id="Group" transform="translate(59.500000, 31.500000) scale(1, -1) translate(-59.500000, -31.500000) translate(29.000000, 1.000000)">
        <path d="M9.2400628,23.5590406 C12.4935865,22.3907791 53.9434964,7.46016304 45.0176216,51.295068 C52.41914,34.6805865 58.3413297,13.9035085 38.4659856,10.0168659 C38.6219565,10.0637247 27.7384395,7.57847519 9.2400628,23.5590406 Z" id="tone" fill="#1a1207" transform="translate(30.606028, 30.598943) rotate(140.000000) translate(-30.606028, -30.598943) "/>
        <path d="M9.14503126,18.2216016 C12.398555,17.0533401 53.5502425,3.08784327 44.6243676,46.9227482 C52.025886,30.3082667 54.3704983,13.2903549 34.4951541,9.40371226 C34.651125,9.45057109 28.4859223,7.25400411 9.14503126,18.2216016 Z" id="color" fill="#241c11" transform="translate(29.574296, 28.088197) rotate(140.000000) translate(-29.574296, -28.088197) "/>
      </g>
    </g>
  </g>
</g>
</g>
      <g id="avatar-eyes" transform="translate(0, 60)"><g id="Page-1" stroke="none" stroke-width="1" fill="none" fill-rule="evenodd" transform="translate(40, 39)">
  <g id="eyes">
    <g id="prada">
      <g id="Group-2">
        <path d="M58,16.8411896 C82.2468518,12.2009041 92.8578003,11.1696351 116.820669,12.5941074 C116.820669,16.8411896 117.537994,19.6725776 116.103343,20.3804247 C109.647416,23.9196598 111.799392,37.3687532 106.778116,40.2001413 C97.963954,45.6765686 88.4283644,47.6785223 78.0851064,44.4476593 C62.3039514,40.2001413 66.2492401,23.2118127 58,23.9196598 C58,22.5039657 58,18.9647306 58,16.8411896 Z M69.4772036,18.2568836 C63.0212766,22.5039657 67.325228,32.9470393 73.0638298,39.4922942 C81.258267,44.6536742 95.8305062,44.9804386 103.191489,39.4922942 C111.970324,32.9470393 110.364742,17.5490366 105.343465,15.4254955 C96.7355623,13.3019545 78.0534577,11.862667 69.4772036,18.2568836 Z" id="Combined-Shape" fill="#000000"/>
        <path d="M59,16.8411896 C59,18.9647306 59,22.5039657 59,23.9196598 C50.7507599,23.2118127 54.6960486,40.2001413 38.9148936,44.4476593 C28.5716356,47.6785223 19.036046,45.6765686 10.2218845,40.2001413 C5.2006079,37.3687532 7.35258359,23.9196598 0.896656535,20.3804247 C-0.537993921,19.6725776 0.179331307,16.8411896 0.179331307,12.5941074 C24.1421997,11.1696351 34.7531482,12.2009041 59,16.8411896 Z M47.5227964,18.2568836 C38.9465423,11.862667 20.2644377,13.3019545 11.656535,15.4254955 C6.63525836,17.5490366 5.02967613,32.9470393 13.8085106,39.4922942 C21.1694938,44.9804386 35.741733,44.6536742 43.9361702,39.4922942 C49.674772,32.9470393 53.9787234,22.5039657 47.5227964,18.2568836 Z" id="Combined-Shape" fill="#000000"/>
        <path d="M90,28 C90,32.4165103 88.4317799,36 86.5,36 C84.5662549,36 83,32.4165103 83,28 C83,23.5834897 84.5662549,20 86.5,20 C88.4317799,20 90,23.5834897 90,28" id="Fill-33" fill="#25110D"/>
        <path d="M101.992287,18.9978421 C102.44324,18.7305971 83.0148726,6.29572485 71.018358,6.74246284 C70.8686969,6.94189945 71.2586033,-4.10888277 87.1719051,1.67876748 C102.592901,8.11658104 101.854442,19.1773351 101.992287,18.9978421" id="right-brow" fill="#080603"/>
        <path d="M29,28 C29,32.4165103 30.5662549,36 32.4980348,36 C34.4337451,36 36,32.4165103 36,28 C36,23.5834897 34.4337451,20 32.4980348,20 C30.5662549,20 29,23.5834897 29,28" id="Fill-37" fill="#25110D"/>
        <path d="M14.0077125,18.9978421 C13.5567602,18.7305971 32.9851274,6.29572485 44.981642,6.74246284 C45.1313031,6.94189945 44.7413967,-4.10888277 28.8280949,1.67876748 C13.4051299,8.11658104 14.1455582,19.1773351 14.0077125,18.9978421" id="left-brow" fill="#080603"/>
      </g>
    </g>
  </g>
</g>
</g>
      <g id="avatar-noses" transform="translate(0, 60)"><g id="Page-1" stroke="none" stroke-width="1" fill="none" fill-rule="evenodd" transform="translate(91, 67)">
  <g id="noses" fill="#956768">
    <g id="long">
      <path d="M17,20.0691977 C17,25.5545166 13.195549,30 8.5,30 C3.80445097,30 0,25.5545166 0,20.0691977 C0,14.5838788 3.80445097,0 8.5,0 C13.195549,0 17,14.5838788 17,20.0691977" id="Fill-160"/>
    </g>
  </g>
</g>
</g>
      <g id="avatar-accessoires" transform="translate(0, 60)"><!--?xml version="1.0" encoding="UTF-8"?-->
<svg width="137px" height="128px" viewBox="0 0 137 128" version="1.1" xmlns="http://www.w3.org/2000/svg" xmlns:xlink="http://www.w3.org/1999/xlink">
    <!-- Generator: Sketch 52.6 (67491) - http://www.bohemiancoding.com/sketch -->
    <title>bearded</title>
    <desc>Created with Sketch.</desc>
</svg>
</g>
    </svg>