<!DOCTYPE svg PUBLIC "-//W3C//DTD SVG 1.0//EN" "http://www.w3.org/TR/2001/REC-SVG-20010904/DTD/svg10.dtd">
<svg xmlns:xlink="http://www.w3.org/1999/xlink" xmlns="http://www.w3.org/2000/svg" viewBox="0 0 210 250" width="210" height="250">
  <g transform="translate(0,52)">
    <g id="head">
      <path d="M159.977115,169.461373 C126.184808,155.596667 115.057885,138.369216 117.9425,113.57902 L97.2694231,113.57902 L94.7963462,113.57902 L80.7848077,113.57902 C83.6694231,138.369216 72.5425,155.596667 38.7501923,169.461373 C4.95980769,183.328039 0.427115385,198.453529 0.427115385,198.453529 L90.8675,198.453529 L97.2694231,198.453529 L198.302115,198.453529 C198.302115,198.453529 193.7675,183.328039 159.977115,169.461373"  fill="#FCC21C"/>
      <path d="M63.4615385,156.207843 C71.5076923,177.160784 84.7307692,190.847059 99.6942308,190.847059 C114.657692,190.847059 127.882692,177.160784 135.926923,156.207843 C121.144231,144.805882 116.248077,131.131373 118.273077,113.72549 L97.5980769,113.72549 L95.1269231,113.72549 L81.1153846,113.72549 C83.1403846,131.131373 78.2442308,144.805882 63.4615385,156.207843"  fill="#e2b2aa"/>
      <path d="M51.0618359,69.597028 C57.2906821,81.7440868 54.6791436,95.6734986 45.2310667,100.710753 C35.7829898,105.748008 23.0752975,99.9833025 16.8464513,87.8362437 C10.6176051,75.6891849 13.2291436,61.7597731 22.6772205,56.724479 C32.1252975,51.6872241 44.8329898,57.4499692 51.0618359,69.597028"  fill="#e2b2aa"/>
      <path d="M45.9980769,91.9960784 C45.9615385,91.5019608 45.8692308,91.0745098 45.8192308,90.5960784 C45.8884615,90.9431373 45.9326923,91.2294118 45.9576923,91.4588235 C45.8980769,88.9862745 45.5461538,86.9647059 44.9288462,85.3764706 C40.0096154,64.8137255 21.1538462,62.745098 21.1538462,62.745098 C30.7057692,68.6235294 36.6692308,75.1078431 40.3634615,80.4823529 C33.5826923,77.6666667 23.1038462,83.6294118 23.1038462,83.6294118 C35.5365385,80.2686275 41.1923077,83.0509804 43.7884615,86.2803922 C45.5019231,89.7588235 45.9980769,91.9960784 45.9980769,91.9960784"  fill="#b08078"/>
      <path d="M147.614834,69.597028 C141.387911,81.7440868 143.997526,95.6734986 153.445603,100.710753 C162.89368,105.748008 175.601372,99.9833025 181.830219,87.8362437 C188.057142,75.6891849 185.447526,61.7597731 175.999449,56.724479 C166.551372,51.6872241 153.84368,57.4499692 147.614834,69.597028"  fill="#e2b2aa"/>
      <path d="M151.923077,91.9960784 C151.961538,91.5019608 152.051923,91.0745098 152.101923,90.5960784 C152.032692,90.9431373 151.988462,91.2294118 151.963462,91.4588235 C152.023077,88.9862745 152.376923,86.9647059 152.992308,85.3764706 C157.913462,64.8137255 176.767308,62.745098 176.767308,62.745098 C167.215385,68.6235294 161.251923,75.1078431 157.559615,80.4823529 C164.338462,77.6666667 174.817308,83.6294118 174.817308,83.6294118 C162.384615,80.2686275 156.730769,83.0509804 154.132692,86.2803922 C152.421154,89.7588235 151.923077,91.9960784 151.923077,91.9960784"  fill="#b08078"/>
      <path d="M80.6980769,0 C58.8134615,0 41.0096154,17.9647059 40.7807692,40.2784314 L40.3846154,79.0803922 C40.3846154,105.968627 68.6269231,129.001961 82.3076923,138.582353 C86.7423077,141.686275 91.9884615,143.333333 97.3653846,143.333333 L100.738462,143.333333 C107.375,143.333333 113.769231,140.82549 118.671154,136.264706 C131.626923,124.203922 155.815385,99.0196078 155.815385,79.0803922 L155.707692,37.9156863 C155.653846,16.9588235 138.975,0 118.421154,0 L80.6980769,0 Z"  fill="#ecbcb4"/>
      <path d="M64.9770941,91.6184642 C64.7559402,91.6184642 64.5328633,91.5694446 64.3194018,91.465523 C63.5636325,91.092974 63.2482479,90.1694446 63.6136325,89.4008172 L68.3963249,79.3047387 C68.7617095,78.5361113 69.6674787,78.2165034 70.4213249,78.5831701 C71.1770941,78.9557191 71.4905556,79.8792485 71.1270941,80.647876 L66.3444018,90.7439544 C66.0828633,91.2968956 65.5405556,91.6184642 64.9770941,91.6184642"  fill="#e2b2aa"/>
      <path d="M55.3605411,91.6184642 C55.1393872,91.6184642 54.9143872,91.5694446 54.7028488,91.465523 C53.9490026,91.092974 53.633618,90.1694446 53.9970795,89.4008172 L58.7797718,79.3047387 C59.1432334,78.5361113 60.0509257,78.2165034 60.8047718,78.5831701 C61.5605411,78.9557191 61.8759257,79.8792485 61.5105411,80.647876 L56.7278488,90.7439544 C56.4663103,91.2968956 55.9259257,91.6184642 55.3605411,91.6184642"  fill="#e2b2aa"/>
      <path d="M133.225171,91.6184642 C132.661709,91.6184642 132.119402,91.2968956 131.857863,90.7439544 L127.075171,80.647876 C126.709786,79.8792485 127.025171,78.9557191 127.78094,78.5831701 C128.538633,78.2165034 129.442479,78.5361113 129.80594,79.3047387 L134.588633,89.4008172 C134.954017,90.1694446 134.638633,91.092974 133.882863,91.465523 C133.671325,91.5694446 133.446325,91.6184642 133.225171,91.6184642"  fill="#e2b2aa"/>
      <path d="M142.840556,91.6184642 C142.275171,91.6184642 141.734786,91.2968956 141.473248,90.7439544 L136.690556,80.647876 C136.325171,79.8792485 136.640556,78.9557191 137.396325,78.5831701 C138.152094,78.2165034 139.057863,78.5361113 139.421325,79.3047387 L144.204017,89.4008172 C144.567479,90.1694446 144.254017,91.092974 143.498248,91.465523 C143.284786,91.5694446 143.061709,91.6184642 142.840556,91.6184642"  fill="#e2b2aa"/>
    </g>
    <g id="mouth" transform="translate(79,110)">
      <path d="M2.66445009,4.42825488 C1.90763062,3.93461039 1.22343524,3.43905994 0.627153239,2.96066315 C-0.093354183,2.3869682 -0.20993496,1.34250032 0.365324282,0.625858125 C0.940583524,-0.0888781077 1.97069891,-0.212765721 2.70840678,0.364741155 C3.27793254,0.814548491 16.6331205,11.2382617 26.154521,1.75800032 C26.8081378,1.10806684 27.8573648,1.11187876 28.5128928,1.75990628 C29.1626873,2.4079338 29.1626873,3.4619315 28.5109816,4.10995902 C20.1974344,12.3894635 8.94834506,8.52035806 2.66445009,4.42825488"  fill="#b08078"/>
    </g>
    <g id="hair" transform="translate(17,-40)">
      <path d="M108.973992,0 L113.347139,16.5006005 C97.6305963,6.92420231 60.7742653,-8.24346972 22.768843,28.3896198 C22.768843,28.3896198 -17.7929196,60.940006 9.36018833,112.010877 L22.8251329,138.454772 C23.1881061,123.640336 26.9808842,113.99173 29.4304676,109.243538 C33.9414278,100.892731 41.464871,92.7546469 54.009766,87.9303436 C68.7208537,82.2707645 80.7669033,77.1947075 89.8334675,71.16628 C84.7537847,79.0233371 79.0005634,84.085733 79.0005634,84.085733 C111.250824,66.9372083 109.29038,39.0081611 109.29038,39.0081611 C109.29038,39.0081611 119.919476,61.5723176 109.29038,76.8375686 C109.29038,76.8375686 122.046848,77.5011054 124.172279,68.8731747 C124.172279,68.8731747 129.133559,83.0943309 127.008128,87.9303436 C127.008128,87.9303436 132.386362,87.4561099 133.094839,78.1646423 L133.618549,95.7639818 L133.618549,95.7659333 L136.347642,127.276128 L136.687322,128.616863 L138.030517,143 C138.030517,143 138.50607,141.24553 139.133024,138.261566 L139.181549,138.454772 L151.573839,103.693247 C151.573839,103.693247 178.761886,39.0081611 121.291786,22.0957775 C121.066626,9.1002129 108.973992,0 108.973992,0 Z"  fill="#aa8866"/>
    </g>
    <g id="nose" transform="translate(85,76)">
      <path d="M17,12.1922593 C17,17.6077575 13.195549,22 8.5,22 C3.80637144,22 0,17.6077575 0,12.1922593 C0,6.77306691 3.80637144,0 8.5,0 C13.195549,0 17,6.77306691 17,12.1922593" fill="#b08078"/>
    </g>
    <g id="eyes" transform="translate(47,36)">
      <path d="M77,34.0009382 C77,38.4179665 75.4317799,42 73.5,42 C71.5662549,42 70,38.4179665 70,34.0009382 C70,29.5820335 71.5662549,26 73.5,26 C75.4317799,26 77,29.5820335 77,34.0009382" id="Fill-315" fill="#1F110B"/>
      <path d="M92.9924723,27.9979557 C93.4307826,27.7447762 74.6272708,15.9643709 63.0177651,16.3875964 C62.8729321,16.5765363 63.2502601,6.10737422 78.6521028,11.5904113 C93.5756155,17.6893926 92.8590735,28.1680017 92.9924723,27.9979557" id="right-brow" fill="#000000" transform="translate(78.000000, 19.000000) rotate(-44.000000) translate(-78.000000, -19.000000) "/>
      <path d="M16,34.0009382 C16,38.4179665 17.5662549,42 19.5,42 C21.4337451,42 23,38.4179665 23,34.0009382 C23,29.5820335 21.4337451,26 19.5,26 C17.5662549,26 16,29.5820335 16,34.0009382" id="Fill-319" fill="#1F110B"/>
      <path d="M3.00746375,24.9979557 C2.57105823,24.7447762 21.372704,12.9643709 32.9822342,13.3875964 C33.1270675,13.5765363 32.7497387,3.10737422 17.3497692,8.59041129 C2.42622496,14.6893926 3.14086282,25.1680017 3.00746375,24.9979557" id="left-brow" fill="#000000" transform="translate(18.000000, 16.000000) rotate(35.000000) translate(-18.000000, -16.000000) "/>
    </g>
  </g>
</svg>
