<!DOCTYPE svg PUBLIC "-//W3C//DTD SVG 1.0//EN" "http://www.w3.org/TR/2001/REC-SVG-20010904/DTD/svg10.dtd">
<svg xmlns:xlink="http://www.w3.org/1999/xlink" xmlns="http://www.w3.org/2000/svg" viewBox="0 0 210 252" width="210" height="252">
  <g transform="translate(0,59)">
    <g id="head">
      <path d="M118.658252,113.72549 L97.7825243,113.72549 L95.2854369,113.72549 L81.1378641,113.72549 C84.0504854,138.515686 72.8174757,154.743137 38.6970874,168.607843 C4.57669903,182.47451 -7.10542736e-15,198.6 -7.10542736e-15,198.6 L91.3184466,198.6 L97.7825243,198.6 L199.796117,198.6 C199.796117,198.6 195.219417,183.47451 161.099029,169.607843 C126.980583,155.743137 115.745631,138.515686 118.658252,113.72549 Z" id="shirt-tone" fill="#E3AF18"/>
      <path d="M145.995785,163.42549 C122.232679,150.647059 114.327824,134.962745 116.824912,113.72549 L95.9491834,113.72549 L93.4520961,113.72549 L79.3045232,113.72549 C81.5394747,132.735294 75.4385038,147.292157 57.0967563,159.301961 C56.1550087,169.196078 54.129766,178.772549 65.0385038,183.717647 C78.083164,189.631373 93.3006398,188.588235 107.042387,184.592157 C121.325882,180.439216 134.626853,173.086275 145.995785,163.42549"  fill="#FCC21C"/>
      <path d="M141.49581,160.770588 C121.342412,148.482353 114.635616,133.515686 116.959888,113.72549 L96.0841596,113.72549 L93.589014,113.72549 L79.4414412,113.72549 C81.4220237,130.578431 76.8511499,143.933333 63.0103732,155.115686 C62.9909557,155.437255 63.004548,155.735294 62.981247,156.060784 C62.3132858,165.354902 59.5424121,174.643137 69.7695965,179.278431 C81.1793053,184.45098 94.4880431,183.537255 106.505519,180.043137 C119.379305,176.3 131.354063,169.605882 141.49581,160.770588"  fill="#b08078"/>
      <path d="M49.6158343,69.597028 C55.9051547,81.7440868 53.2682615,95.6734986 43.7284557,100.710753 C34.1886499,105.748008 21.3575819,99.9833025 15.0682615,87.8362437 C8.77894112,75.6891849 11.4158343,61.7597731 20.9556401,56.724479 C30.495446,51.6872241 43.3265139,57.4499692 49.6158343,69.597028"  fill="#e2b2aa"/>
      <path d="M44.5029126,91.9960784 C44.4660194,91.5019608 44.3728155,91.0745098 44.3223301,90.5960784 C44.392233,90.9431373 44.4368932,91.2294118 44.4621359,91.4588235 C44.4019417,88.9862745 44.0466019,86.9647059 43.423301,85.3764706 C38.4563107,64.8137255 19.4174757,62.745098 19.4174757,62.745098 C29.0621359,68.6235294 35.0834951,75.1078431 38.8135922,80.4823529 C31.9669903,77.6666667 21.3864078,83.6294118 21.3864078,83.6294118 C33.9398058,80.2686275 39.6504854,83.0509804 42.2718447,86.2803922 C44.0019417,89.7588235 44.5029126,91.9960784 44.5029126,91.9960784"  fill="#b08078"/>
      <path d="M147.10624,69.597028 C140.818861,81.7440868 143.453813,95.6734986 152.993619,100.710753 C162.531483,105.748008 175.364492,99.9833025 181.653813,87.8362437 C187.941192,75.6891849 185.308182,61.7597731 175.768376,56.724479 C166.22857,51.6872241 153.39556,57.4499692 147.10624,69.597028"  fill="#e2b2aa"/>
      <path d="M153.398058,91.9960784 C153.434951,91.5019608 153.526214,91.0745098 153.578641,90.5960784 C153.508738,90.9431373 153.462136,91.2294118 153.438835,91.4588235 C153.499029,88.9862745 153.854369,86.9647059 154.47767,85.3764706 C159.44466,64.8137255 178.483495,62.745098 178.483495,62.745098 C168.836893,68.6235294 162.817476,75.1078431 159.08932,80.4823529 C165.932039,77.6666667 176.514563,83.6294118 176.514563,83.6294118 C163.959223,80.2686275 158.250485,83.0509804 155.627184,86.2803922 C153.900971,89.7588235 153.398058,91.9960784 153.398058,91.9960784"  fill="#b08078"/>
      <path d="M81.4815534,0 C59.384466,0 41.407767,17.9647059 41.176699,40.2784314 L40.776699,79.0803922 C40.776699,114.564706 62.6951456,143.333333 99.0524272,143.333333 C136.254369,143.333333 157.328155,114.564706 157.328155,79.0803922 L157.219417,37.9156863 C157.165049,16.9588235 140.326214,0 119.570874,0 L81.4815534,0 Z"  fill="#ecbcb4"/>
      <path d="M63.6661921,91.6184642 C63.4428911,91.6184642 63.2176484,91.5694446 63.0021144,91.465523 C62.2390076,91.092974 61.920561,90.1694446 62.2894931,89.4008172 L67.1186193,79.3047387 C67.4875513,78.5361113 68.4021144,78.2165034 69.1632795,78.5831701 C69.9263863,78.9557191 70.2428911,79.8792485 69.8759008,80.647876 L65.0467746,90.7439544 C64.7826969,91.2968956 64.2351241,91.6184642 63.6661921,91.6184642"  fill="#e2b2aa"/>
      <path d="M53.9562745,91.6184642 C53.7329735,91.6184642 53.505789,91.5694446 53.2921968,91.465523 C52.5310318,91.092974 52.2125852,90.1694446 52.5795755,89.4008172 L57.4087017,79.3047387 C57.775692,78.5361113 58.6921968,78.2165034 59.4533619,78.5831701 C60.2164687,78.9557191 60.5349153,79.8792485 60.1659832,80.647876 L55.336857,90.7439544 C55.0727793,91.2968956 54.5271483,91.6184642 53.9562745,91.6184642"  fill="#e2b2aa"/>
      <path d="M132.576872,91.6184642 C132.005998,91.6184642 131.460367,91.2968956 131.196289,90.7439544 L126.367163,80.647876 C125.998231,79.8792485 126.316678,78.9557191 127.079784,78.5831701 C127.842891,78.2165034 128.757454,78.5361113 129.124445,79.3047387 L133.953571,89.4008172 C134.322503,90.1694446 134.002114,91.092974 133.240949,91.465523 C133.025415,91.5694446 132.798231,91.6184642 132.576872,91.6184642"  fill="#e2b2aa"/>
      <path d="M142.28561,91.6184642 C141.714736,91.6184642 141.171046,91.2968956 140.905027,90.7439544 L136.075901,80.647876 C135.706969,79.8792485 136.025415,78.9557191 136.788522,78.5831701 C137.551629,78.2165034 138.46425,78.5361113 138.833182,79.3047387 L143.662309,89.4008172 C144.029299,90.1694446 143.710852,91.092974 142.949687,91.465523 C142.734153,91.5694446 142.506969,91.6184642 142.28561,91.6184642"  fill="#e2b2aa"/>
    </g>
    <g id="mouth" transform="translate(80,110)">
      <path d="M2,19 C2,19 11.0106312,27.4358719 22,22.7748592 C22,22.7748592 19.090317,30.9882253 9.57207164,28.5464661 C2.03831051,26.6155027 2,19 2,19"  fill="#b08078"/>
      <path d="M0.993530773,0 C0.353255386,1.77843753 0,3.70056833 0,5.71227415 C0,14.7070998 7.01175144,22 15.6628287,22 C23.2228619,22 29.5299424,16.429553 31,9.01721944 L0.993530773,0 Z" id="Fill-174" fill="#230F0B"/>
      <path d="M15.5115413,21 C18.2237791,21 20.7683648,20.2572134 23,18.9704965 C21.5470155,11.5835716 14.9024054,6 6.91471613,6 C4.44091682,6 2.10310197,6.54977905 0,7.50896803 C1.51445695,15.213673 7.88150968,21 15.5115413,21" id="Fill-176" fill="#E8132C"/>
    </g>
    <g id="hair" transform="translate(30, -30)">
      <path d="M23,64.4164841 C49,76.0425499 91,105.107714 116,60.9286643 C117.333333,73.3298012 118,93.8691842 118,122.546813 C121.267035,120.765425 123.267035,119.249821 124,118 C124,84.2844091 126,98 136,94 C139.739444,92.5042224 137.719704,61.309262 129,37.031 C121.828539,17.0635088 107.759158,9.75409787 87,4.00068311 C41,-8.74824798 10,17.1509562 5,35.0098722 C-3.1197267e-13,52.8687881 1,73.0730815 1,94 C5,102 8,84.221 7,120.2216 C16,131.847666 17,79.5303696 23,64.4164841 Z"  fill="#5A3825"/>
      <path d="M35.961165,6 C66,-4.9575 113.565049,13 124.438835,26.6543 C115,11.8393 97.6469927,6.41920601 83,3 C68.3530073,-0.419206014 52,-0.419206014 35.961165,6 Z"  fill="#502e1b"/>
      <path d="M30,11.2765429 C60.038835,0.319042935 107.603883,18.2765429 118.47767,31.9308429 C109.038835,17.1158429 91.6858276,11.6957489 77.038835,8.27654294 C62.3918423,4.85733692 46.038835,4.85733692 30,11.2765429 Z"  fill="#502e1b"/>
      <path d="M27,19.2765429 C57.038835,8.31904294 104.603883,26.2765429 115.47767,39.9308429 C106.038835,25.1158429 88.6858276,19.6957489 74.038835,16.2765429 C59.3918423,12.8573369 43.038835,12.8573369 27,19.2765429 Z"  fill="#502e1b"/>
      <path d="M22,26.2765429 C52.038835,15.3190429 99.6038835,33.2765429 110.47767,46.9308429 C101.038835,32.1158429 83.6858276,26.6957489 69.038835,23.2765429 C54.3918423,19.8573369 38.038835,19.8573369 22,26.2765429 Z"  fill="#502e1b"/>
      <path d="M18,34.2765429 C48.038835,23.3190429 95.6038835,41.2765429 106.47767,54.9308429 C97.038835,40.1158429 79.6858276,34.6957489 65.038835,31.2765429 C50.3918423,27.8573369 34.038835,27.8573369 18,34.2765429 Z"  fill="#502e1b"/>
    </g>
    <g id="eyes" transform="translate(50,38)">
      <path d="M76,28 C76,32.4165103 74.4317799,36 72.5,36 C70.5662549,36 69,32.4165103 69,28 C69,23.5834897 70.5662549,20 72.5,20 C74.4317799,20 76,23.5834897 76,28" id="Fill-33" fill="#25110D"/>
      <path d="M87.9922875,18.9978421 C88.4432398,18.7305971 69.0148726,6.29572485 57.018358,6.74246284 C56.8686969,6.94189945 57.2586033,-4.10888277 73.1719051,1.67876748 C88.5929009,8.11658104 87.8544418,19.1773351 87.9922875,18.9978421" id="right-brow" fill="#080603" style=""/>
      <path d="M15,28 C15,32.4165103 16.5662549,36 18.4980348,36 C20.4337451,36 22,32.4165103 22,28 C22,23.5834897 20.4337451,20 18.4980348,20 C16.5662549,20 15,23.5834897 15,28" id="Fill-37" fill="#25110D"/>
      <path d="M0.00771254488,18.9978421 C-0.443239827,18.7305971 18.9851274,6.29572485 30.981642,6.74246284 C31.1313031,6.94189945 30.7413967,-4.10888277 14.8280949,1.67876748 C-0.5948701,8.11658104 0.145558248,19.1773351 0.00771254488,18.9978421" id="left-brow" fill="#080603" style=""/>
    </g>
    <g id="nose" transform="translate(88,65)">
      <path d="M17,20.0691977 C17,25.5545166 13.195549,30 8.5,30 C3.80445097,30 0,25.5545166 0,20.0691977 C0,14.5838788 3.80445097,0 8.5,0 C13.195549,0 17,14.5838788 17,20.0691977" fill="#b08078" />
    </g>
  </g>
</svg>
