<?xml version="1.0" standalone="no"?>
<svg xmlns:xlink="http://www.w3.org/1999/xlink" xmlns="http://www.w3.org/2000/svg" id="avatar" viewBox="0 0 210 259" width="210" height="259">
      <!-- Created with: Simpletar BY VINCENT.WTF -->
      <g id="avatar-heads" transform="translate(0, 60)" x="5px" y="29.5px"><g id="Page-1" stroke="none" stroke-width="1" fill="none" fill-rule="evenodd">
  <g id="heads">
    <g id="pointy">
      <path d="M159.977115,169.461373 C126.184808,155.596667 115.057885,138.369216 117.9425,113.57902 L97.2694231,113.57902 L94.7963462,113.57902 L80.7848077,113.57902 C83.6694231,138.369216 72.5425,155.596667 38.7501923,169.461373 C4.95980769,183.328039 0.427115385,198.453529 0.427115385,198.453529 L90.8675,198.453529 L97.2694231,198.453529 L198.302115,198.453529 C198.302115,198.453529 193.7675,183.328039 159.977115,169.461373" id="shirt" fill="#FCC21C"/>
      <path d="M63.4615385,156.207843 C71.5076923,177.160784 84.7307692,190.847059 99.6942308,190.847059 C114.657692,190.847059 127.882692,177.160784 135.926923,156.207843 C121.144231,144.805882 116.248077,131.131373 118.273077,113.72549 L97.5980769,113.72549 L95.1269231,113.72549 L81.1153846,113.72549 C83.1403846,131.131373 78.2442308,144.805882 63.4615385,156.207843" id="tone" fill="#c7999a"/>
      <path d="M51.0618359,69.597028 C57.2906821,81.7440868 54.6791436,95.6734986 45.2310667,100.710753 C35.7829898,105.748008 23.0752975,99.9833025 16.8464513,87.8362437 C10.6176051,75.6891849 13.2291436,61.7597731 22.6772205,56.724479 C32.1252975,51.6872241 44.8329898,57.4499692 51.0618359,69.597028" id="tone" fill="#c7999a"/>
      <path d="M45.9980769,91.9960784 C45.9615385,91.5019608 45.8692308,91.0745098 45.8192308,90.5960784 C45.8884615,90.9431373 45.9326923,91.2294118 45.9576923,91.4588235 C45.8980769,88.9862745 45.5461538,86.9647059 44.9288462,85.3764706 C40.0096154,64.8137255 21.1538462,62.745098 21.1538462,62.745098 C30.7057692,68.6235294 36.6692308,75.1078431 40.3634615,80.4823529 C33.5826923,77.6666667 23.1038462,83.6294118 23.1038462,83.6294118 C35.5365385,80.2686275 41.1923077,83.0509804 43.7884615,86.2803922 C45.5019231,89.7588235 45.9980769,91.9960784 45.9980769,91.9960784" id="dark" fill="#956768"/>
      <path d="M147.614834,69.597028 C141.387911,81.7440868 143.997526,95.6734986 153.445603,100.710753 C162.89368,105.748008 175.601372,99.9833025 181.830219,87.8362437 C188.057142,75.6891849 185.447526,61.7597731 175.999449,56.724479 C166.551372,51.6872241 153.84368,57.4499692 147.614834,69.597028" id="tone" fill="#c7999a"/>
      <path d="M151.923077,91.9960784 C151.961538,91.5019608 152.051923,91.0745098 152.101923,90.5960784 C152.032692,90.9431373 151.988462,91.2294118 151.963462,91.4588235 C152.023077,88.9862745 152.376923,86.9647059 152.992308,85.3764706 C157.913462,64.8137255 176.767308,62.745098 176.767308,62.745098 C167.215385,68.6235294 161.251923,75.1078431 157.559615,80.4823529 C164.338462,77.6666667 174.817308,83.6294118 174.817308,83.6294118 C162.384615,80.2686275 156.730769,83.0509804 154.132692,86.2803922 C152.421154,89.7588235 151.923077,91.9960784 151.923077,91.9960784" id="dark" fill="#956768"/>
      <path d="M80.6980769,0 C58.8134615,0 41.0096154,17.9647059 40.7807692,40.2784314 L40.3846154,79.0803922 C40.3846154,105.968627 68.6269231,129.001961 82.3076923,138.582353 C86.7423077,141.686275 91.9884615,143.333333 97.3653846,143.333333 L100.738462,143.333333 C107.375,143.333333 113.769231,140.82549 118.671154,136.264706 C131.626923,124.203922 155.815385,99.0196078 155.815385,79.0803922 L155.707692,37.9156863 C155.653846,16.9588235 138.975,0 118.421154,0 L80.6980769,0 Z" id="color" fill="#d1a3a4"/>
      <path d="M64.9770941,91.6184642 C64.7559402,91.6184642 64.5328633,91.5694446 64.3194018,91.465523 C63.5636325,91.092974 63.2482479,90.1694446 63.6136325,89.4008172 L68.3963249,79.3047387 C68.7617095,78.5361113 69.6674787,78.2165034 70.4213249,78.5831701 C71.1770941,78.9557191 71.4905556,79.8792485 71.1270941,80.647876 L66.3444018,90.7439544 C66.0828633,91.2968956 65.5405556,91.6184642 64.9770941,91.6184642" id="tone" fill="#c7999a"/>
      <path d="M55.3605411,91.6184642 C55.1393872,91.6184642 54.9143872,91.5694446 54.7028488,91.465523 C53.9490026,91.092974 53.633618,90.1694446 53.9970795,89.4008172 L58.7797718,79.3047387 C59.1432334,78.5361113 60.0509257,78.2165034 60.8047718,78.5831701 C61.5605411,78.9557191 61.8759257,79.8792485 61.5105411,80.647876 L56.7278488,90.7439544 C56.4663103,91.2968956 55.9259257,91.6184642 55.3605411,91.6184642" id="tone" fill="#c7999a"/>
      <path d="M133.225171,91.6184642 C132.661709,91.6184642 132.119402,91.2968956 131.857863,90.7439544 L127.075171,80.647876 C126.709786,79.8792485 127.025171,78.9557191 127.78094,78.5831701 C128.538633,78.2165034 129.442479,78.5361113 129.80594,79.3047387 L134.588633,89.4008172 C134.954017,90.1694446 134.638633,91.092974 133.882863,91.465523 C133.671325,91.5694446 133.446325,91.6184642 133.225171,91.6184642" id="tone" fill="#c7999a"/>
      <path d="M142.840556,91.6184642 C142.275171,91.6184642 141.734786,91.2968956 141.473248,90.7439544 L136.690556,80.647876 C136.325171,79.8792485 136.640556,78.9557191 137.396325,78.5831701 C138.152094,78.2165034 139.057863,78.5361113 139.421325,79.3047387 L144.204017,89.4008172 C144.567479,90.1694446 144.254017,91.092974 143.498248,91.465523 C143.284786,91.5694446 143.061709,91.6184642 142.840556,91.6184642" id="tone" fill="#c7999a"/>
    </g>
  </g>
</g>
</g>
      <g id="avatar-mouths" transform="translate(0, 60)"><g id="Page-1" stroke="none" stroke-width="1" fill="none" fill-rule="evenodd" transform="translate(85, 110)">
  <g id="mouths" fill="#B62900">
    <g id="smart">
      <path d="M4,9 C4,9 13.2526996,16.1571286 23.9998926,9.87193445 C23.9998926,9.87193445 24.148402,17.0036317 13.4030889,16.9999986 C5.34034434,16.9963656 4,9 4,9" id="tone" fill="#956768"/>
      <path d="M2.57085816,4.42784723 C1.84013967,3.93606485 1.18138589,3.43856407 0.603823048,2.96012463 C-0.0899904605,2.38637852 -0.202550631,1.34181751 0.352869226,0.625111409 C0.906443834,-0.0896885566 1.90103288,-0.211681084 2.61514412,0.363971155 C3.16502823,0.8138186 16.0577809,11.2403674 25.2526551,1.75544842 C25.8818849,1.10736312 26.8949264,1.11117539 27.529692,1.75926069 C28.1570765,2.40925212 28.1570765,3.46334381 27.5278467,4.10952297 C19.4991697,12.3897658 8.63803586,8.52031529 2.57085816,4.42784723" id="tone" fill="#956768"/>
    </g>
  </g>
</g>
</g>
      <g id="avatar-hairs" transform="translate(0, 60)"><g id="Page-1" stroke="none" stroke-width="1" fill="none" fill-rule="evenodd" transform="translate(32, -22)">
  <g id="hairs" fill="#5A3825">
    <g id="jordan">
      <path d="M27,15.1557718 C61,-5.90945647 75.3008584,2.29796764 105,17.0341829 C134.699142,31.7703983 128.823558,73.440159 128,78 C127.176442,82.559841 128.952877,101.312942 119.815385,86 C110.677892,70.687058 119.589134,40.7107021 110,34 C100.410866,27.2892979 83.5077259,39.6201259 65,38.3776 C46.4922741,37.1350741 41.483916,22.5162269 22,38.0293 C2.51608404,53.5423731 12.1889559,87.8343639 9.99807692,91.4313725 C7.8071979,95.0283812 8,104 4,78 C5.80424597e-13,52 -7,36.221 27,15.1557718 Z" id="color" fill="#5A3825"/>
      <path d="M27,15.1557718 C61,-5.90945647 81,-1.9316341 105,16.0341829 C129,34 103.589134,19.8636161 94,13.152914 C84.4108663,6.4422119 84.5077259,6.89682592 66,5.6543 C47.4922741,4.41177408 46.483916,9.48692687 27,25 C7.51608404,40.5130731 -7,36.221 27,15.1557718 Z" id="tone" fill="#502e1b"/>
    </g>
  </g>
</g>
</g>
      <g id="avatar-facials" transform="translate(0, 60)"/>
      <g id="avatar-eyes" transform="translate(0, 60)"><g id="Page-1" stroke="none" stroke-width="1" fill="none" fill-rule="evenodd" transform="translate(40, 39)">
  <g id="eyes">
    <g id="sunglasses">
      <g id="Group-2">
        <path d="M58,16.8411896 C82.2468518,12.2009041 92.8578003,11.1696351 116.820669,12.5941074 C116.820669,16.8411896 117.537994,19.6725776 116.103343,20.3804247 C109.647416,23.9196598 111.799392,37.3687532 106.778116,40.2001413 C97.963954,45.6765686 88.4283644,47.6785223 78.0851064,44.4476593 C62.3039514,40.2001413 66.2492401,23.2118127 58,23.9196598 C58,22.5039657 58,18.9647306 58,16.8411896 Z M69.4772036,18.2568836 C63.0212766,22.5039657 67.325228,32.9470393 73.0638298,39.4922942 C81.258267,44.6536742 95.8305062,44.9804386 103.191489,39.4922942 C111.970324,32.9470393 110.364742,17.5490366 105.343465,15.4254955 C96.7355623,13.3019545 78.0534577,11.862667 69.4772036,18.2568836 Z" id="Combined-Shape" fill="#000000"/>
        <path d="M59,16.8411896 C59,18.9647306 59,22.5039657 59,23.9196598 C50.7507599,23.2118127 54.6960486,40.2001413 38.9148936,44.4476593 C28.5716356,47.6785223 19.036046,45.6765686 10.2218845,40.2001413 C5.2006079,37.3687532 7.35258359,23.9196598 0.896656535,20.3804247 C-0.537993921,19.6725776 0.179331307,16.8411896 0.179331307,12.5941074 C24.1421997,11.1696351 34.7531482,12.2009041 59,16.8411896 Z M47.5227964,18.2568836 C38.9465423,11.862667 20.2644377,13.3019545 11.656535,15.4254955 C6.63525836,17.5490366 5.02967613,32.9470393 13.8085106,39.4922942 C21.1694938,44.9804386 35.741733,44.6536742 43.9361702,39.4922942 C49.674772,32.9470393 53.9787234,22.5039657 47.5227964,18.2568836 Z" id="Combined-Shape" fill="#000000"/>
        <path d="M69.4772036,18.2568836 C78.0534577,11.862667 96.7355623,13.3019545 105.343465,15.4254955 C110.364742,17.5490366 111.970324,32.9470393 103.191489,39.4922942 C95.8305062,44.9804386 81.258267,44.6536742 73.0638298,39.4922942 C67.325228,32.9470393 63.0212766,22.5039657 69.4772036,18.2568836 Z" id="Path-3" fill-opacity="0.7" fill="#000000"/>
        <path d="M47.5227964,18.2568836 C53.9787234,22.5039657 49.674772,32.9470393 43.9361702,39.4922942 C35.741733,44.6536742 21.1694938,44.9804386 13.8085106,39.4922942 C5.02967613,32.9470393 6.63525836,17.5490366 11.656535,15.4254955 C20.2644377,13.3019545 38.9465423,11.862667 47.5227964,18.2568836 Z" id="Path-3" fill-opacity="0.7" fill="#000000"/>
        <path d="M90,28 C90,32.4165103 88.4317799,36 86.5,36 C84.5662549,36 83,32.4165103 83,28 C83,23.5834897 84.5662549,20 86.5,20 C88.4317799,20 90,23.5834897 90,28" id="Fill-33" fill="#25110D"/>
        <path d="M101.992287,18.9978421 C102.44324,18.7305971 83.0148726,6.29572485 71.018358,6.74246284 C70.8686969,6.94189945 71.2586033,-4.10888277 87.1719051,1.67876748 C102.592901,8.11658104 101.854442,19.1773351 101.992287,18.9978421" id="right-brow" fill="#080603"/>
        <path d="M29,28 C29,32.4165103 30.5662549,36 32.4980348,36 C34.4337451,36 36,32.4165103 36,28 C36,23.5834897 34.4337451,20 32.4980348,20 C30.5662549,20 29,23.5834897 29,28" id="Fill-37" fill="#25110D"/>
        <path d="M14.0077125,18.9978421 C13.5567602,18.7305971 32.9851274,6.29572485 44.981642,6.74246284 C45.1313031,6.94189945 44.7413967,-4.10888277 28.8280949,1.67876748 C13.4051299,8.11658104 14.1455582,19.1773351 14.0077125,18.9978421" id="left-brow" fill="#080603"/>
      </g>
    </g>
  </g>
</g>
</g>
      <g id="avatar-noses" transform="translate(0, 60)"><g id="Page-1" stroke="none" stroke-width="1" fill="none" fill-rule="evenodd" transform="translate(90, 75)">
  <g id="noses" fill="#956768">
    <g id="round">
      <path d="M17,12.1922593 C17,17.6077575 13.195549,22 8.5,22 C3.80637144,22 0,17.6077575 0,12.1922593 C0,6.77306691 3.80637144,0 8.5,0 C13.195549,0 17,6.77306691 17,12.1922593" id="Fill-111"/>
    </g>
  </g>
</g>
</g>
      <g id="avatar-accessoires" transform="translate(0, 60)"><!--?xml version="1.0" encoding="UTF-8"?-->
<svg width="137px" height="128px" viewBox="0 0 137 128" version="1.1" xmlns="http://www.w3.org/2000/svg" xmlns:xlink="http://www.w3.org/1999/xlink">
    <!-- Generator: Sketch 52.6 (67491) - http://www.bohemiancoding.com/sketch -->
    <title>bearded</title>
    <desc>Created with Sketch.</desc>
</svg>
</g>
    </svg>