<!DOCTYPE svg PUBLIC "-//W3C//DTD SVG 1.0//EN" "http://www.w3.org/TR/2001/REC-SVG-20010904/DTD/svg10.dtd">
<svg xmlns:xlink="http://www.w3.org/1999/xlink" xmlns="http://www.w3.org/2000/svg" viewBox="0 0 210 250" width="210" height="250">
  <g transform="translate(0,58)">
    <g id="head">
      <path d="M118.581368,116.698654 L97.8044066,116.698654 L95.3169695,116.698654 L81.2350213,116.698654 C84.1341322,141.012115 71.9532277,156.908269 37.9911094,170.506346 C4.03092385,184.106346 0.473521453,199.940962 0.473521453,199.940962 L91.3683804,199.940962 L97.8044066,199.940962 L199.344801,199.940962 C199.344801,199.940962 194.787399,185.106346 160.827213,171.506346 C126.865095,157.908269 115.682257,141.012115 118.581368,116.698654 Z" fill="#FCC21C"/>
      <path d="M65.7131813,154.507692 C73.4480093,164.315385 85.4599923,170.623077 98.9601855,170.623077 C112.460379,170.623077 124.474295,164.315385 132.209123,154.507692 C119.820255,143.844231 115.751836,131.180769 117.632393,115.384615 L96.855431,115.384615 L94.3699266,115.384615 L80.2879784,115.384615 C82.1724005,131.180769 78.1020487,143.844231 65.7131813,154.507692" fill="#e2b2aa"/>
      <path d="M51.3170869,72.1047775 C57.5772338,84.018239 54.9545048,97.6797775 45.4589501,102.620162 C35.9633954,107.560547 23.1899126,101.906701 16.9316984,89.993239 C10.6715515,78.0797775 13.2942806,64.418239 22.7898353,59.4797775 C32.28539,54.5393928 45.0588728,60.1913159 51.3170869,72.1047775" fill="#e2b2aa"/>
      <path d="M46.229223,94.0730769 C46.1905682,93.5884615 46.1016622,93.1692308 46.0475454,92.7 C46.1190568,93.0403846 46.1635099,93.3211538 46.1886355,93.5461538 C46.1287205,91.1211538 45.775029,89.1384615 45.1546193,87.5807692 C40.2106687,67.4134615 21.2601469,65.3846154 21.2601469,65.3846154 C30.8600696,71.15 36.8534983,77.5096154 40.5643603,82.7807692 C33.7514496,80.0192308 23.2199459,85.8673077 23.2199459,85.8673077 C35.7170468,82.5711538 41.3993042,85.3 44.0085041,88.4673077 C45.7286432,91.8788462 46.229223,94.0730769 46.229223,94.0730769" fill="#b08078"/>
      <path d="M148.356617,72.1047775 C142.098403,84.018239 144.721132,97.6797775 154.216687,102.620162 C163.712241,107.560547 176.485724,101.906701 182.743938,89.993239 C189.002152,78.0797775 186.381356,64.418239 176.885801,59.4797775 C167.390247,54.5393928 154.616764,60.1913159 148.356617,72.1047775" fill="#e2b2aa"/>
      <path d="M152.686509,94.0730769 C152.725164,93.5884615 152.816003,93.1692308 152.868187,92.7 C152.796676,93.0403846 152.752223,93.3211538 152.727097,93.5461538 C152.787012,91.1211538 153.140704,89.1384615 153.761113,87.5807692 C158.706997,67.4134615 177.657518,65.3846154 177.657518,65.3846154 C168.055663,71.15 162.064167,77.5096154 158.351372,82.7807692 C165.164283,80.0192308 175.695787,85.8673077 175.695787,85.8673077 C163.200618,82.5711538 157.516428,85.3 154.907228,88.4673077 C153.187089,91.8788462 152.686509,94.0730769 152.686509,94.0730769" fill="#b08078"/>
      <path d="M81.1035949,0 C59.1109393,0 41.2156939,21.4653846 40.9876305,43.35 L40.5875532,81.4057692 C40.5875532,105.028846 52.5531504,125.615385 70.2589872,136.403846 C78.6374179,141.509615 91.7201392,146.346154 98.5929648,146.346154 C108.51179,146.346154 117.84886,141.717308 126.012756,136.95 C144.219173,126.321154 156.600309,105.432692 156.600309,81.4057692 L156.490143,41.0326923 C156.436026,20.4788462 139.6753,0 119.018168,0 L81.1035949,0 Z" fill="#ecbcb4"/>
      <path d="M65.3043706,93.7027245 C65.0821054,93.7027245 64.8559748,93.6546476 64.6414406,93.5527245 C63.8838063,93.1873399 63.5668368,92.2815707 63.9321248,91.5277245 L68.7388507,81.6258014 C69.1060714,80.8719553 70.0163923,80.5584938 70.7740266,80.9181091 C71.5335937,81.2834938 71.8505631,82.189263 71.4833424,82.9431091 L66.6785492,92.8450322 C66.4137637,93.3873399 65.8706636,93.7027245 65.3043706,93.7027245" fill="#e2b2aa"/>
      <path d="M55.6386915,93.7027245 C55.4183591,93.7027245 55.1922285,93.6546476 54.979627,93.5527245 C54.2200599,93.1873399 53.9030905,92.2815707 54.2683784,91.5277245 L59.0751044,81.6258014 C59.4423251,80.8719553 60.3545787,80.5584938 61.1102803,80.9181091 C61.8698473,81.2834938 62.1868168,82.189263 61.8215288,82.9431091 L57.0128701,92.8450322 C56.7500174,93.3873399 56.2069173,93.7027245 55.6386915,93.7027245" fill="#e2b2aa"/>
      <path d="M133.893887,93.7027245 C133.327594,93.7027245 132.784494,93.3873399 132.519709,92.8450322 L127.714916,82.9431091 C127.345762,82.189263 127.662732,81.2834938 128.424232,80.9181091 C129.183799,80.5584938 130.092187,80.8719553 130.459407,81.6258014 L135.266133,91.5277245 C135.631421,92.2815707 135.314452,93.1873399 134.556818,93.5527245 C134.342283,93.6546476 134.116153,93.7027245 133.893887,93.7027245" fill="#e2b2aa"/>
      <path d="M143.558304,93.7027245 C142.992011,93.7027245 142.448911,93.3873399 142.184125,92.8450322 L137.377399,82.9431091 C137.010179,82.189263 137.327148,81.2834938 138.088648,80.9181091 C138.846282,80.5584938 139.756603,80.8719553 140.123824,81.6258014 L144.93055,91.5277245 C145.295838,92.2815707 144.978868,93.1873399 144.219301,93.5527245 C144.0067,93.6546476 143.780569,93.7027245 143.558304,93.7027245" fill="#e2b2aa"/>
    </g>
    <g id="mouth" transform="translate(80,115)">
      <path d="M2.66445009,4.42825488 C1.90763062,3.93461039 1.22343524,3.43905994 0.627153239,2.96066315 C-0.093354183,2.3869682 -0.20993496,1.34250032 0.365324282,0.625858125 C0.940583524,-0.0888781077 1.97069891,-0.212765721 2.70840678,0.364741155 C3.27793254,0.814548491 16.6331205,11.2382617 26.154521,1.75800032 C26.8081378,1.10806684 27.8573648,1.11187876 28.5128928,1.75990628 C29.1626873,2.4079338 29.1626873,3.4619315 28.5109816,4.10995902 C20.1974344,12.3894635 8.94834506,8.52035806 2.66445009,4.42825488" fill="#b08078"/>
    </g>
    <g id="hair" transform="translate(32,-24)">
      <path d="M27,15.1557718 C61,-5.90945647 75.3008584,2.29796764 105,17.0341829 C134.699142,31.7703983 128.823558,73.440159 128,78 C127.176442,82.559841 128.952877,101.312942 119.815385,86 C110.677892,70.687058 119.589134,40.7107021 110,34 C100.410866,27.2892979 83.5077259,39.6201259 65,38.3776 C46.4922741,37.1350741 41.483916,22.5162269 22,38.0293 C2.51608404,53.5423731 12.1889559,87.8343639 9.99807692,91.4313725 C7.8071979,95.0283812 8,104 4,78 C5.80424597e-13,52 -7,36.221 27,15.1557718 Z" fill="#aa8866"/>
      <path d="M27,15.1557718 C61,-5.90945647 81,-1.9316341 105,16.0341829 C129,34 103.589134,19.8636161 94,13.152914 C84.4108663,6.4422119 84.5077259,6.89682592 66,5.6543 C47.4922741,4.41177408 46.483916,9.48692687 27,25 C7.51608404,40.5130731 -7,36.221 27,15.1557718 Z" fill="#a07e5c"/>
    </g>
    <g id="eyes" transform="translate(50,40)">
      <path d="M76,28 C76,32.4165103 74.4317799,36 72.5,36 C70.5662549,36 69,32.4165103 69,28 C69,23.5834897 70.5662549,20 72.5,20 C74.4317799,20 76,23.5834897 76,28" fill="#25110D"/>
      <path d="M87.9922875,18.9978421 C88.4432398,18.7305971 69.0148726,6.29572485 57.018358,6.74246284 C56.8686969,6.94189945 57.2586033,-4.10888277 73.1719051,1.67876748 C88.5929009,8.11658104 87.8544418,19.1773351 87.9922875,18.9978421" fill="#080603" style="transform: rotate(4deg);"/>
      <path d="M15,28 C15,32.4165103 16.5662549,36 18.4980348,36 C20.4337451,36 22,32.4165103 22,28 C22,23.5834897 20.4337451,20 18.4980348,20 C16.5662549,20 15,23.5834897 15,28" fill="#25110D"/>
      <path d="M0.00771254488,18.9978421 C-0.443239827,18.7305971 18.9851274,6.29572485 30.981642,6.74246284 C31.1313031,6.94189945 30.7413967,-4.10888277 14.8280949,1.67876748 C-0.5948701,8.11658104 0.145558248,19.1773351 0.00771254488,18.9978421" fill="#080603" style="transform: rotate(-5deg);"/>
    </g>
    <g id="nose" transform="translate(80,72)">
      <path d="M23.1163906,17.5631587 C22.6243566,11.8412686 18.8822073,-0.0210929037 14.405851,2.81672649e-05 C9.94871487,0.0230693356 6.34302816,11.8067068 5.88174628,17.5631587 C2.07617077,18.4195221 -0.566590011,22.1310703 0.104190725,26.1613547 L0.373271822,27.7723163 C0.682715084,29.6348108 2.29527966,31 4.18461336,31 L24.8135235,31 C26.7047792,31 28.3173438,29.6348108 28.628709,27.7703962 L28.8958681,26.1613547 C29.5666489,22.1310703 26.9219661,18.4195221 23.1163906,17.5631587"
        fill="#b08078" />
    </g>
  </g>
</svg>
