<?xml version="1.0" standalone="no"?>
<svg xmlns:xlink="http://www.w3.org/1999/xlink" xmlns="http://www.w3.org/2000/svg" id="avatar" viewBox="0 0 210 259" width="210" height="259">
      <!-- Created with: Simpletar BY VINCENT.WTF -->
      <g id="avatar-heads" transform="translate(0, 60)" x="5px" y="29.5px"><g id="Page-1" stroke="none" stroke-width="1" fill="none" fill-rule="evenodd">
  <g id="heads">
    <g id="pointy">
      <path d="M159.977115,169.461373 C126.184808,155.596667 115.057885,138.369216 117.9425,113.57902 L97.2694231,113.57902 L94.7963462,113.57902 L80.7848077,113.57902 C83.6694231,138.369216 72.5425,155.596667 38.7501923,169.461373 C4.95980769,183.328039 0.427115385,198.453529 0.427115385,198.453529 L90.8675,198.453529 L97.2694231,198.453529 L198.302115,198.453529 C198.302115,198.453529 193.7675,183.328039 159.977115,169.461373" id="shirt" fill="#FCC21C"/>
      <path d="M63.4615385,156.207843 C71.5076923,177.160784 84.7307692,190.847059 99.6942308,190.847059 C114.657692,190.847059 127.882692,177.160784 135.926923,156.207843 C121.144231,144.805882 116.248077,131.131373 118.273077,113.72549 L97.5980769,113.72549 L95.1269231,113.72549 L81.1153846,113.72549 C83.1403846,131.131373 78.2442308,144.805882 63.4615385,156.207843" id="tone" fill="#c7999a"/>
      <path d="M51.0618359,69.597028 C57.2906821,81.7440868 54.6791436,95.6734986 45.2310667,100.710753 C35.7829898,105.748008 23.0752975,99.9833025 16.8464513,87.8362437 C10.6176051,75.6891849 13.2291436,61.7597731 22.6772205,56.724479 C32.1252975,51.6872241 44.8329898,57.4499692 51.0618359,69.597028" id="tone" fill="#c7999a"/>
      <path d="M45.9980769,91.9960784 C45.9615385,91.5019608 45.8692308,91.0745098 45.8192308,90.5960784 C45.8884615,90.9431373 45.9326923,91.2294118 45.9576923,91.4588235 C45.8980769,88.9862745 45.5461538,86.9647059 44.9288462,85.3764706 C40.0096154,64.8137255 21.1538462,62.745098 21.1538462,62.745098 C30.7057692,68.6235294 36.6692308,75.1078431 40.3634615,80.4823529 C33.5826923,77.6666667 23.1038462,83.6294118 23.1038462,83.6294118 C35.5365385,80.2686275 41.1923077,83.0509804 43.7884615,86.2803922 C45.5019231,89.7588235 45.9980769,91.9960784 45.9980769,91.9960784" id="dark" fill="#956768"/>
      <path d="M147.614834,69.597028 C141.387911,81.7440868 143.997526,95.6734986 153.445603,100.710753 C162.89368,105.748008 175.601372,99.9833025 181.830219,87.8362437 C188.057142,75.6891849 185.447526,61.7597731 175.999449,56.724479 C166.551372,51.6872241 153.84368,57.4499692 147.614834,69.597028" id="tone" fill="#c7999a"/>
      <path d="M151.923077,91.9960784 C151.961538,91.5019608 152.051923,91.0745098 152.101923,90.5960784 C152.032692,90.9431373 151.988462,91.2294118 151.963462,91.4588235 C152.023077,88.9862745 152.376923,86.9647059 152.992308,85.3764706 C157.913462,64.8137255 176.767308,62.745098 176.767308,62.745098 C167.215385,68.6235294 161.251923,75.1078431 157.559615,80.4823529 C164.338462,77.6666667 174.817308,83.6294118 174.817308,83.6294118 C162.384615,80.2686275 156.730769,83.0509804 154.132692,86.2803922 C152.421154,89.7588235 151.923077,91.9960784 151.923077,91.9960784" id="dark" fill="#956768"/>
      <path d="M80.6980769,0 C58.8134615,0 41.0096154,17.9647059 40.7807692,40.2784314 L40.3846154,79.0803922 C40.3846154,105.968627 68.6269231,129.001961 82.3076923,138.582353 C86.7423077,141.686275 91.9884615,143.333333 97.3653846,143.333333 L100.738462,143.333333 C107.375,143.333333 113.769231,140.82549 118.671154,136.264706 C131.626923,124.203922 155.815385,99.0196078 155.815385,79.0803922 L155.707692,37.9156863 C155.653846,16.9588235 138.975,0 118.421154,0 L80.6980769,0 Z" id="color" fill="#d1a3a4"/>
      <path d="M64.9770941,91.6184642 C64.7559402,91.6184642 64.5328633,91.5694446 64.3194018,91.465523 C63.5636325,91.092974 63.2482479,90.1694446 63.6136325,89.4008172 L68.3963249,79.3047387 C68.7617095,78.5361113 69.6674787,78.2165034 70.4213249,78.5831701 C71.1770941,78.9557191 71.4905556,79.8792485 71.1270941,80.647876 L66.3444018,90.7439544 C66.0828633,91.2968956 65.5405556,91.6184642 64.9770941,91.6184642" id="tone" fill="#c7999a"/>
      <path d="M55.3605411,91.6184642 C55.1393872,91.6184642 54.9143872,91.5694446 54.7028488,91.465523 C53.9490026,91.092974 53.633618,90.1694446 53.9970795,89.4008172 L58.7797718,79.3047387 C59.1432334,78.5361113 60.0509257,78.2165034 60.8047718,78.5831701 C61.5605411,78.9557191 61.8759257,79.8792485 61.5105411,80.647876 L56.7278488,90.7439544 C56.4663103,91.2968956 55.9259257,91.6184642 55.3605411,91.6184642" id="tone" fill="#c7999a"/>
      <path d="M133.225171,91.6184642 C132.661709,91.6184642 132.119402,91.2968956 131.857863,90.7439544 L127.075171,80.647876 C126.709786,79.8792485 127.025171,78.9557191 127.78094,78.5831701 C128.538633,78.2165034 129.442479,78.5361113 129.80594,79.3047387 L134.588633,89.4008172 C134.954017,90.1694446 134.638633,91.092974 133.882863,91.465523 C133.671325,91.5694446 133.446325,91.6184642 133.225171,91.6184642" id="tone" fill="#c7999a"/>
      <path d="M142.840556,91.6184642 C142.275171,91.6184642 141.734786,91.2968956 141.473248,90.7439544 L136.690556,80.647876 C136.325171,79.8792485 136.640556,78.9557191 137.396325,78.5831701 C138.152094,78.2165034 139.057863,78.5361113 139.421325,79.3047387 L144.204017,89.4008172 C144.567479,90.1694446 144.254017,91.092974 143.498248,91.465523 C143.284786,91.5694446 143.061709,91.6184642 142.840556,91.6184642" id="tone" fill="#c7999a"/>
    </g>
  </g>
</g>
</g>
      <g id="avatar-mouths" transform="translate(0, 60)"><g id="Page-1" stroke="none" stroke-width="1" fill="none" fill-rule="evenodd" transform="translate(85, 110)">
  <g id="mouths" fill="#FF6A68">
    <g id="line">
      <path d="M2.66445009,4.42825488 C1.90763062,3.93461039 1.22343524,3.43905994 0.627153239,2.96066315 C-0.093354183,2.3869682 -0.20993496,1.34250032 0.365324282,0.625858125 C0.940583524,-0.0888781077 1.97069891,-0.212765721 2.70840678,0.364741155 C3.27793254,0.814548491 16.6331205,11.2382617 26.154521,1.75800032 C26.8081378,1.10806684 27.8573648,1.11187876 28.5128928,1.75990628 C29.1626873,2.4079338 29.1626873,3.4619315 28.5109816,4.10995902 C20.1974344,12.3894635 8.94834506,8.52035806 2.66445009,4.42825488" id="tone" fill="#956768"/>
    </g>
  </g>
</g>
</g>
      <g id="avatar-hairs" transform="translate(0, 60)"><g id="Page-1" stroke="none" stroke-width="1" fill="none" fill-rule="evenodd" transform="translate(8, -40)">
  <g id="hairs" fill="#241c11">
    <g id="naruto">
      <path d="M163.396558,97.5237625 C164.507334,80.8372354 168.097802,53.7551485 164.09666,43.9272244 C167.221697,42.7293177 169.82068,40.0907912 170.714386,36.8454819 C170.994035,35.8256953 171.119193,34.737401 170.853233,33.7117423 C170.638117,32.88182 170.178553,32.134107 169.658365,31.4490296 C168.398964,29.7872277 166.71911,28.4914528 164.853474,27.5754065 C167.843575,24.2185274 168.398964,18.8807961 166.069853,15.0228318 C165.524242,14.1165724 164.820229,13.2749059 163.895234,12.7640339 C163.144286,12.3471154 162.285781,12.1689953 161.431187,12.0750418 C155.474452,11.4193249 149.304557,15.1246148 147.081048,20.693315 C146.660595,21.7463768 146.208853,22.9325393 145.786445,24.1774228 C141.666012,22.6076169 137.201393,22.0654271 132.55295,22.5782565 C132.066007,22.6037022 131.79418,22.6311053 131.79418,22.6311053 L131.749201,22.6389347 C128.475539,23.1595935 125.250766,22.865989 122.256754,21.9244969 L144.398058,82 L163.396558,97.5237625 Z" id="color" fill="#241c11"/>
      <path d="M32.0462404,129 C32.0462404,129 16.6707375,99.3319474 23.9625082,62.8323586 L47,44 L32.0462404,129 Z" id="color" fill="#241c11"/>
      <path d="M146.953331,129 C146.953331,129 162.330301,99.3319474 155.036831,62.8323586 L132,44 L146.953331,129 Z" id="color" fill="#241c11"/>
      <path d="M149,83 L148.982388,77.0190357 C148.927594,56.0070155 131.957232,39 111.043688,39 L72.6529404,39 C50.3832542,39 32.2680973,57.0136735 32.0352245,79.386255 L32,82.8702355 C50.1719074,74.2448277 93.6486753,55.9264042 121.810631,63.1106394 C131.963103,65.7000313 141.092109,73.3522052 149,83" id="tone" fill="#1a1207"/>
      <path d="M118.74615,4.32191409 C96.6842047,-1.8623171 6.99815429,-11.567072 0,57.4969764 C7.80608399,51.2369724 18.2564789,48.1263993 25.8244773,48.1283422 C9.78297476,62.0977491 10.5596801,84.0155349 10.4308797,83.9999917 C71.1387949,42.437606 134.988659,40.6754013 147.425702,69.0902242 C147.093944,69.6653208 159.685157,15.3206363 118.74615,4.32191409" id="color" fill="#241c11"/>
    </g>
  </g>
</g>
</g>
      <g id="avatar-facials" transform="translate(0, 60)"/>
      <g id="avatar-eyes" transform="translate(0, 60)"><g id="Page-1" stroke="none" stroke-width="1" fill="none" fill-rule="evenodd" transform="translate(40, 39)">
  <g id="eyes">
    <g id="sunglasses">
      <g id="Group-2">
        <path d="M58,16.8411896 C82.2468518,12.2009041 92.8578003,11.1696351 116.820669,12.5941074 C116.820669,16.8411896 117.537994,19.6725776 116.103343,20.3804247 C109.647416,23.9196598 111.799392,37.3687532 106.778116,40.2001413 C97.963954,45.6765686 88.4283644,47.6785223 78.0851064,44.4476593 C62.3039514,40.2001413 66.2492401,23.2118127 58,23.9196598 C58,22.5039657 58,18.9647306 58,16.8411896 Z M69.4772036,18.2568836 C63.0212766,22.5039657 67.325228,32.9470393 73.0638298,39.4922942 C81.258267,44.6536742 95.8305062,44.9804386 103.191489,39.4922942 C111.970324,32.9470393 110.364742,17.5490366 105.343465,15.4254955 C96.7355623,13.3019545 78.0534577,11.862667 69.4772036,18.2568836 Z" id="Combined-Shape" fill="#000000"/>
        <path d="M59,16.8411896 C59,18.9647306 59,22.5039657 59,23.9196598 C50.7507599,23.2118127 54.6960486,40.2001413 38.9148936,44.4476593 C28.5716356,47.6785223 19.036046,45.6765686 10.2218845,40.2001413 C5.2006079,37.3687532 7.35258359,23.9196598 0.896656535,20.3804247 C-0.537993921,19.6725776 0.179331307,16.8411896 0.179331307,12.5941074 C24.1421997,11.1696351 34.7531482,12.2009041 59,16.8411896 Z M47.5227964,18.2568836 C38.9465423,11.862667 20.2644377,13.3019545 11.656535,15.4254955 C6.63525836,17.5490366 5.02967613,32.9470393 13.8085106,39.4922942 C21.1694938,44.9804386 35.741733,44.6536742 43.9361702,39.4922942 C49.674772,32.9470393 53.9787234,22.5039657 47.5227964,18.2568836 Z" id="Combined-Shape" fill="#000000"/>
        <path d="M69.4772036,18.2568836 C78.0534577,11.862667 96.7355623,13.3019545 105.343465,15.4254955 C110.364742,17.5490366 111.970324,32.9470393 103.191489,39.4922942 C95.8305062,44.9804386 81.258267,44.6536742 73.0638298,39.4922942 C67.325228,32.9470393 63.0212766,22.5039657 69.4772036,18.2568836 Z" id="Path-3" fill-opacity="0.7" fill="#000000"/>
        <path d="M47.5227964,18.2568836 C53.9787234,22.5039657 49.674772,32.9470393 43.9361702,39.4922942 C35.741733,44.6536742 21.1694938,44.9804386 13.8085106,39.4922942 C5.02967613,32.9470393 6.63525836,17.5490366 11.656535,15.4254955 C20.2644377,13.3019545 38.9465423,11.862667 47.5227964,18.2568836 Z" id="Path-3" fill-opacity="0.7" fill="#000000"/>
        <path d="M90,28 C90,32.4165103 88.4317799,36 86.5,36 C84.5662549,36 83,32.4165103 83,28 C83,23.5834897 84.5662549,20 86.5,20 C88.4317799,20 90,23.5834897 90,28" id="Fill-33" fill="#25110D"/>
        <path d="M101.992287,18.9978421 C102.44324,18.7305971 83.0148726,6.29572485 71.018358,6.74246284 C70.8686969,6.94189945 71.2586033,-4.10888277 87.1719051,1.67876748 C102.592901,8.11658104 101.854442,19.1773351 101.992287,18.9978421" id="right-brow" fill="#080603"/>
        <path d="M29,28 C29,32.4165103 30.5662549,36 32.4980348,36 C34.4337451,36 36,32.4165103 36,28 C36,23.5834897 34.4337451,20 32.4980348,20 C30.5662549,20 29,23.5834897 29,28" id="Fill-37" fill="#25110D"/>
        <path d="M14.0077125,18.9978421 C13.5567602,18.7305971 32.9851274,6.29572485 44.981642,6.74246284 C45.1313031,6.94189945 44.7413967,-4.10888277 28.8280949,1.67876748 C13.4051299,8.11658104 14.1455582,19.1773351 14.0077125,18.9978421" id="left-brow" fill="#080603"/>
      </g>
    </g>
  </g>
</g>
</g>
      <g id="avatar-noses" transform="translate(0, 60)"><g id="Page-1" stroke="none" stroke-width="1" fill="none" fill-rule="evenodd" transform="translate(85, 80)">
  <g id="noses" fill="#956768">
    <g id="flat">
      <path d="M0.12315031,10.5514804 C0.12315031,10.5514804 15.4621303,18.3106495 30.799224,10.5514804 C30.799224,10.5514804 33.930398,-0.0540264721 15.4621303,0.000207296047 C-2.40631011,0.0507008043 0.12315031,10.5514804 0.12315031,10.5514804" id="Fill-495"/>
    </g>
  </g>
</g>
</g>
      <g id="avatar-accessoires" transform="translate(0, 60)"><!--?xml version="1.0" encoding="UTF-8"?-->
<svg style="margin-top: 80px;margin-left: -50px;" width="8px" height="13px" viewBox="0 0 8 13" version="1.1" xmlns="http://www.w3.org/2000/svg" xmlns:xlink="http://www.w3.org/1999/xlink">
    <!-- Generator: Sketch 52.6 (67491) - http://www.bohemiancoding.com/sketch -->
    <title>Oval</title>
    <desc>Created with Sketch.</desc>
    <g id="Page-1" stroke="none" stroke-width="1" fill="none" fill-rule="evenodd" transform="translate(70, 90)">
        <g id="accessoires" transform="translate(-109.000000, -152.000000)" fill="#000000">
            <path d="M113.097801,165 C115.859225,165 116.980055,163.865993 116.980055,160 C116.980055,157.422671 115.220605,154.756005 111.701706,152 C111.701706,154 111.035039,156.333333 109.701706,159 C107.701706,163 110.336377,165 113.097801,165 Z" id="Oval"/>
        </g>
    </g>
</svg>
</g>
    </svg>