<!DOCTYPE svg PUBLIC "-//W3C//DTD SVG 1.0//EN" "http://www.w3.org/TR/2001/REC-SVG-20010904/DTD/svg10.dtd">
<svg xmlns:xlink="http://www.w3.org/1999/xlink" xmlns="http://www.w3.org/2000/svg" viewBox="0 0 210 252" width="210" height="252">
  <g transform="translate(0, 10)">
    <g id="head" transform="translate(0,50)">
      <path fill="#FCC21C" d="M161.099029,169.607843 C126.978641,155.743137 115.743689,138.515686 118.656311,113.72549 L97.7825243,113.72549 L95.2834951,113.72549 L81.1378641,113.72549 C84.0504854,138.515686 72.815534,155.743137 38.6951456,169.607843 C4.57669903,183.47451 0,198.6 0,198.6 L91.3184466,198.6 L97.7825243,198.6 L199.796117,198.6 C199.796117,198.6 195.217476,183.47451 161.099029,169.607843" />
      <path fill="#E3AF18" d="M99.584466,181.931373 C121.518447,181.931373 141.163107,176.1 154.51068,166.9 C125.287379,153.503922 115.617476,136.927451 118.343689,113.72549 L97.4699029,113.72549 L94.9728155,113.72549 L80.8252427,113.72549 C83.5514563,136.927451 73.8815534,153.503922 44.6601942,166.9 C58.0058252,176.1 77.6504854,181.931373 99.584466,181.931373" />
      <path fill="#e2b2aa" d="M52.4271845,162.686275 C63.5592233,170.666667 80.2873786,175.745098 98.9961165,175.745098 C117.706796,175.745098 134.431068,170.666667 145.565049,162.686275 C122.856311,150.043137 115.308738,134.554902 117.75534,113.72549 L96.8815534,113.72549 L94.3825243,113.72549 L80.2368932,113.72549 C82.6834951,134.554902 75.1378641,150.043137 52.4271845,162.686275" />
      <path fill="#e2b2aa" d="M49.4067897,71.4772942 C55.6611586,83.5576864 53.0397994,97.4125883 43.5524208,102.420431 C34.0650421,107.428275 21.3038771,101.696902 15.0495081,89.6165099 C8.79513921,77.5361177 11.4164984,63.6831766 20.9038771,58.6753334 C30.3931975,53.6655295 43.1524208,59.396902 49.4067897,71.4772942" />
      <path fill="#b08078" d="M44.3669903,93.7980392 C44.3300971,93.3078431 44.238835,92.8803922 44.1864078,92.4058824 C44.2563107,92.7490196 44.3009709,93.0352941 44.3262136,93.2647059 C44.2660194,90.8058824 43.9126214,88.7921569 43.2932039,87.2137255 C38.3514563,66.7647059 19.4174757,64.7058824 19.4174757,64.7058824 C29.0097087,70.5529412 34.9980583,77.0019608 38.7067961,82.3470588 C31.9009709,79.5470588 21.376699,85.4764706 21.376699,85.4764706 C33.8621359,82.1352941 39.5417476,84.9019608 42.1475728,88.1137255 C43.8679612,91.572549 44.3669903,93.7980392 44.3669903,93.7980392" />
      <path fill="#e2b2aa" d="M145.146596,71.4772942 C138.892227,83.5576864 141.513586,97.4125883 151.000964,102.420431 C160.488343,107.428275 173.249508,101.696902 179.503877,89.6165099 C185.758246,77.5361177 183.136887,63.6831766 173.649508,58.6753334 C164.162129,53.6655295 151.400964,59.396902 145.146596,71.4772942" />
      <path fill="#b08078" d="M151.456311,93.7980392 C151.493204,93.3078431 151.584466,92.8803922 151.636893,92.4058824 C151.565049,92.7490196 151.52233,93.0352941 151.497087,93.2647059 C151.557282,90.8058824 151.91068,88.7921569 152.530097,87.2137255 C157.471845,66.7647059 176.403883,64.7058824 176.403883,64.7058824 C166.81165,70.5529412 160.825243,77.0019608 157.116505,82.3470588 C163.92233,79.5470588 174.446602,85.4764706 174.446602,85.4764706 C161.961165,82.1352941 156.281553,84.9019608 153.675728,88.1137255 C151.95534,91.572549 151.456311,93.7980392 151.456311,93.7980392" />
      <path fill="#ecbcb4" d="M154.295146,80.8411765 L153.926214,0 L40.776699,0 C40.0349515,49.7176471 39.3877023,78.3281046 38.8349515,85.8313725 C39.6601942,113.788235 47.184466,139.733333 84.2854369,144.617647 C86.5184466,149.156863 92.5631068,152.417647 99.6912621,152.417647 C107.126214,152.417647 113.38835,148.872549 115.368932,144.02549 C148.8,138.14902 155.526214,114.723529 156.438835,89.3254902 L154.295146,80.8411765 Z" />
      <path fill="#e2b2aa" d="M69.5560979,93.5384935 C69.3230881,93.5384935 69.0861949,93.4894739 68.8648357,93.3855523 C68.0687192,93.0149641 67.7366804,92.0933954 68.1211464,91.3267288 L73.1560979,81.2620229 C73.5386221,80.4953562 74.4920202,80.1777092 75.2861949,80.5443758 C76.0803697,80.9149641 76.4124085,81.8365327 76.0279425,82.6012386 L70.9949328,92.6659444 C70.7192046,93.2169248 70.1502726,93.5384935 69.5560979,93.5384935" />
      <path fill="#e2b2aa" d="M59.8480789,93.5376387 C59.6150692,93.5376387 59.378176,93.4886191 59.1568167,93.3846975 C58.3607002,93.0141093 58.0286614,92.0925406 58.4111857,91.325874 L63.4461371,81.2611681 C63.8306032,80.4945014 64.785943,80.1788151 65.578176,80.543521 C66.3723507,80.9141093 66.7063313,81.8356779 66.3218653,82.6003838 L61.2869138,92.6670504 C61.0111857,93.2180308 60.4422536,93.5376387 59.8480789,93.5376387" />
      <path fill="#e2b2aa" d="M130.904433,93.5376387 C130.310258,93.5376387 129.741326,93.21607 129.465598,92.6670504 L124.430647,82.6003838 C124.048122,81.8356779 124.380161,80.9141093 125.174336,80.543521 C125.972394,80.1788151 126.92385,80.4945014 127.306375,81.2611681 L132.339384,91.3278347 C132.72385,92.0945014 132.391812,93.0141093 131.595695,93.3846975 C131.374336,93.4886191 131.137443,93.5376387 130.904433,93.5376387" />
      <path fill="#e2b2aa" d="M138.671423,93.5376387 C138.077248,93.5376387 137.508316,93.21607 137.232588,92.6650896 L132.197637,82.6003838 C131.815113,81.8356779 132.147151,80.9141093 132.941326,80.543521 C133.737443,80.1788151 134.690841,80.4945014 135.073365,81.2611681 L140.106375,91.325874 C140.490841,92.0925406 140.158802,93.0141093 139.362685,93.3846975 C139.141326,93.4886191 138.904433,93.5376387 138.671423,93.5376387" />
    </g>
    <g id="mouth" transform="translate(85,170)" fill="#b08078">
      <path d="M4,9 C4,9 13.2526996,16.1571286 23.9998926,9.87193445 C23.9998926,9.87193445 24.148402,17.0036317 13.4030889,16.9999986 C5.34034434,16.9963656 4,9 4,9" />
      <path d="M2.57085816,4.42784723 C1.84013967,3.93606485 1.18138589,3.43856407 0.603823048,2.96012463 C-0.0899904605,2.38637852 -0.202550631,1.34181751 0.352869226,0.625111409 C0.906443834,-0.0896885566 1.90103288,-0.211681084 2.61514412,0.363971155 C3.16502823,0.8138186 16.0577809,11.2403674 25.2526551,1.75544842 C25.8818849,1.10736312 26.8949264,1.11117539 27.529692,1.75926069 C28.1570765,2.40925212 28.1570765,3.46334381 27.5278467,4.10952297 C19.4991697,12.3897658 8.63803586,8.52031529 2.57085816,4.42784723" />
    </g>
    <g id="hair" transform="translate(10,0)" fill="#5A3825">
      <path d="M31.665582,130 C35.1699525,98.1119333 38.625962,82.1679 42.0336104,82.1679 C61.7132741,82.1679 102.793971,67.9520882 139.582524,68.0023878 C142.223176,68.0059983 143.673127,130.431373 146.328155,130.431373 C149.947641,130.431373 152.809514,130.287582 154.913773,130 C155.568912,127.155636 156.088439,124.726036 156.273711,123.477941 C158.286878,118.049868 161.871995,112.313576 168.33934,108.44372 C181.600645,100.506138 183.951885,85.6754934 177.685093,74.5663037 C176.262124,72.0415743 174.361649,69.8269662 172.15366,68.0023878 C170.852933,66.9293303 168.929538,64.5149508 170.272286,60.2132077 C172.207141,54.0221983 170.843383,47.954857 168.018456,44.897404 C164.878375,41.5050962 162.078278,37.5001562 152.016265,38.9232893 C139.878056,40.6413229 143.342841,26.8723203 143.516654,16.6611503 C143.768777,1.85714183 118.571725,-9.19877557 92.7902062,15.8944088 C92.7902062,15.8944088 88.6015211,22.0873208 75.065173,18.1756074 C61.5307349,14.2657967 33.9518821,5.46634426 14.2939035,22.4107601 C-5.36407512,39.3570785 13.9730193,57.2813252 7.20389022,70.9666142 C0.43667119,84.6538057 -5.68686937,97.3630688 9.13874567,109.094404 C17.07108,115.372932 25.5114811,123.645368 31.665582,130 Z" />
      <path fill="#785643" d="M63,14.7758987 C48.6897946,11.224341 28.9866833,8.87637733 13.9689648,22.0681502 C3.77212016,31.0282393 4.22936932,40.2596146 5.96992685,49 C5.96992685,49 13.413868,9.96725385 63,14.7758987" />
      <path fill="#785643" d="M142.636131,22 L142.689195,21.8878172 C142.825644,19.8569214 142.96778,17.8240914 142.998102,15.9150494 C143.202776,3.72193798 126.828804,-5.96253361 107,4.36408788 C107,4.36408788 138.675297,-0.616442246 142.636131,22" />
      <path fill="#785643" d="M153,38.0706835 C153.077915,38.0915798 168.322714,42.2689286 169.510448,58 C170.781798,52.3732118 169.461038,47.0503689 166.886032,44.252172 C163.986061,41.1082374 161.369246,37.4437963 153,38.0706835" />
      <path d="M28.0586225,140 C28.0586225,140 17.7400495,101.30569 24.0351456,90.7513094 C27.2677625,85.3320078 47,81 47,81 L28.0586225,140 Z" />
      <path d="M145.894362,143 C145.894362,143 154.827203,106.614451 151.083178,84 L136,93.7135822 L141.35609,141.991664 L145.894362,143 Z"/>
      <path d="M166.174195,90.3076312 C169.598809,77.1385524 161.764576,61.3166274 153.840624,50.8993533 C147.455266,42.5050171 132.342297,37.4809755 122.394883,34.8604811 C118.355595,33.7966783 116.148877,31.0905468 115.417758,28 C113.42293,28.0970553 111.430011,28.2340747 109.446637,28.4567311 C101.56659,29.3397444 61,55.1488551 61,55.1488551 C61,55.1488551 75.8972597,50.9773782 87.0453885,59.398357 C95.2423174,65.5908689 102.192718,69.3379666 112.644088,71.4655721 C119.327239,72.824347 127.025938,69.8289525 132.691631,73.6141111 C142.492058,80.1586865 127.035482,101.706877 145.75823,104.934443 C148.896505,105.476811 151.967967,106.519681 155.043247,105.691856 C159.81938,104.411106 163.822398,101.206376 166.756418,97.1909488 C165.807682,95.2745814 165.488891,92.9528652 166.174195,90.3076312" />
    </g>
    <g id="eyes" transform="translate(55,90)" fill="##25110D">
      <path d="M76,28 C76,32.4165103 74.4317799,36 72.5,36 C70.5662549,36 69,32.4165103 69,28 C69,23.5834897 70.5662549,20 72.5,20 C74.4317799,20 76,23.5834897 76,28" id="Fill-33" />
      <path fill="#080603" d="M87.9922875,18.9978421 C88.4432398,18.7305971 69.0148726,6.29572485 57.018358,6.74246284 C56.8686969,6.94189945 57.2586033,-4.10888277 73.1719051,1.67876748 C88.5929009,8.11658104 87.8544418,19.1773351 87.9922875,18.9978421"  />
      <path d="M15,28 C15,32.4165103 16.5662549,36 18.4980348,36 C20.4337451,36 22,32.4165103 22,28 C22,23.5834897 20.4337451,20 18.4980348,20 C16.5662549,20 15,23.5834897 15,28" id="Fill-37" />
      <path fill="#080603" d="M0.00771254488,18.9978421 C-0.443239827,18.7305971 18.9851274,6.29572485 30.981642,6.74246284 C31.1313031,6.94189945 30.7413967,-4.10888277 14.8280949,1.67876748 C-0.5948701,8.11658104 0.145558248,19.1773351 0.00771254488,18.9978421" id="left-brow" />
    </g>
    <g id="nose" transform="translate(83,140)" fill="#b08078">
      <path d="M0.12315031,10.5514804 C0.12315031,10.5514804 15.4621303,18.3106495 30.799224,10.5514804 C30.799224,10.5514804 33.930398,-0.0540264721 15.4621303,0.000207296047 C-2.40631011,0.0507008043 0.12315031,10.5514804 0.12315031,10.5514804" />
    </g>
  </g>
</svg>
