<!DOCTYPE svg PUBLIC "-//W3C//DTD SVG 1.0//EN" "http://www.w3.org/TR/2001/REC-SVG-20010904/DTD/svg10.dtd">
<svg xmlns:xlink="http://www.w3.org/1999/xlink" xmlns="http://www.w3.org/2000/svg" viewBox="0 0 210 259" width="210" height="259">
  <g transform="translate(0,60)">
    <g id="head" transform="translate(0,0)">
      <path d="M159.977115,169.461373 C126.184808,155.596667 115.057885,138.369216 117.9425,113.57902 L97.2694231,113.57902 L94.7963462,113.57902 L80.7848077,113.57902 C83.6694231,138.369216 72.5425,155.596667 38.7501923,169.461373 C4.95980769,183.328039 0.427115385,198.453529 0.427115385,198.453529 L90.8675,198.453529 L97.2694231,198.453529 L198.302115,198.453529 C198.302115,198.453529 193.7675,183.328039 159.977115,169.461373"  fill="#FCC21C"/>
      <path d="M63.4615385,156.207843 C71.5076923,177.160784 84.7307692,190.847059 99.6942308,190.847059 C114.657692,190.847059 127.882692,177.160784 135.926923,156.207843 C121.144231,144.805882 116.248077,131.131373 118.273077,113.72549 L97.5980769,113.72549 L95.1269231,113.72549 L81.1153846,113.72549 C83.1403846,131.131373 78.2442308,144.805882 63.4615385,156.207843"  fill="#e2b2aa"/>
      <path d="M51.0618359,69.597028 C57.2906821,81.7440868 54.6791436,95.6734986 45.2310667,100.710753 C35.7829898,105.748008 23.0752975,99.9833025 16.8464513,87.8362437 C10.6176051,75.6891849 13.2291436,61.7597731 22.6772205,56.724479 C32.1252975,51.6872241 44.8329898,57.4499692 51.0618359,69.597028"  fill="#e2b2aa"/>
      <path d="M45.9980769,91.9960784 C45.9615385,91.5019608 45.8692308,91.0745098 45.8192308,90.5960784 C45.8884615,90.9431373 45.9326923,91.2294118 45.9576923,91.4588235 C45.8980769,88.9862745 45.5461538,86.9647059 44.9288462,85.3764706 C40.0096154,64.8137255 21.1538462,62.745098 21.1538462,62.745098 C30.7057692,68.6235294 36.6692308,75.1078431 40.3634615,80.4823529 C33.5826923,77.6666667 23.1038462,83.6294118 23.1038462,83.6294118 C35.5365385,80.2686275 41.1923077,83.0509804 43.7884615,86.2803922 C45.5019231,89.7588235 45.9980769,91.9960784 45.9980769,91.9960784"  fill="#b08078"/>
      <path d="M147.614834,69.597028 C141.387911,81.7440868 143.997526,95.6734986 153.445603,100.710753 C162.89368,105.748008 175.601372,99.9833025 181.830219,87.8362437 C188.057142,75.6891849 185.447526,61.7597731 175.999449,56.724479 C166.551372,51.6872241 153.84368,57.4499692 147.614834,69.597028"  fill="#e2b2aa"/>
      <path d="M151.923077,91.9960784 C151.961538,91.5019608 152.051923,91.0745098 152.101923,90.5960784 C152.032692,90.9431373 151.988462,91.2294118 151.963462,91.4588235 C152.023077,88.9862745 152.376923,86.9647059 152.992308,85.3764706 C157.913462,64.8137255 176.767308,62.745098 176.767308,62.745098 C167.215385,68.6235294 161.251923,75.1078431 157.559615,80.4823529 C164.338462,77.6666667 174.817308,83.6294118 174.817308,83.6294118 C162.384615,80.2686275 156.730769,83.0509804 154.132692,86.2803922 C152.421154,89.7588235 151.923077,91.9960784 151.923077,91.9960784"  fill="#b08078"/>
      <path d="M80.6980769,0 C58.8134615,0 41.0096154,17.9647059 40.7807692,40.2784314 L40.3846154,79.0803922 C40.3846154,105.968627 68.6269231,129.001961 82.3076923,138.582353 C86.7423077,141.686275 91.9884615,143.333333 97.3653846,143.333333 L100.738462,143.333333 C107.375,143.333333 113.769231,140.82549 118.671154,136.264706 C131.626923,124.203922 155.815385,99.0196078 155.815385,79.0803922 L155.707692,37.9156863 C155.653846,16.9588235 138.975,0 118.421154,0 L80.6980769,0 Z"  fill="#ecbcb4"/>
      <path d="M64.9770941,91.6184642 C64.7559402,91.6184642 64.5328633,91.5694446 64.3194018,91.465523 C63.5636325,91.092974 63.2482479,90.1694446 63.6136325,89.4008172 L68.3963249,79.3047387 C68.7617095,78.5361113 69.6674787,78.2165034 70.4213249,78.5831701 C71.1770941,78.9557191 71.4905556,79.8792485 71.1270941,80.647876 L66.3444018,90.7439544 C66.0828633,91.2968956 65.5405556,91.6184642 64.9770941,91.6184642"  fill="#e2b2aa"/>
      <path d="M55.3605411,91.6184642 C55.1393872,91.6184642 54.9143872,91.5694446 54.7028488,91.465523 C53.9490026,91.092974 53.633618,90.1694446 53.9970795,89.4008172 L58.7797718,79.3047387 C59.1432334,78.5361113 60.0509257,78.2165034 60.8047718,78.5831701 C61.5605411,78.9557191 61.8759257,79.8792485 61.5105411,80.647876 L56.7278488,90.7439544 C56.4663103,91.2968956 55.9259257,91.6184642 55.3605411,91.6184642"  fill="#e2b2aa"/>
      <path d="M133.225171,91.6184642 C132.661709,91.6184642 132.119402,91.2968956 131.857863,90.7439544 L127.075171,80.647876 C126.709786,79.8792485 127.025171,78.9557191 127.78094,78.5831701 C128.538633,78.2165034 129.442479,78.5361113 129.80594,79.3047387 L134.588633,89.4008172 C134.954017,90.1694446 134.638633,91.092974 133.882863,91.465523 C133.671325,91.5694446 133.446325,91.6184642 133.225171,91.6184642"  fill="#e2b2aa"/>
      <path d="M142.840556,91.6184642 C142.275171,91.6184642 141.734786,91.2968956 141.473248,90.7439544 L136.690556,80.647876 C136.325171,79.8792485 136.640556,78.9557191 137.396325,78.5831701 C138.152094,78.2165034 139.057863,78.5361113 139.421325,79.3047387 L144.204017,89.4008172 C144.567479,90.1694446 144.254017,91.092974 143.498248,91.465523 C143.284786,91.5694446 143.061709,91.6184642 142.840556,91.6184642"  fill="#e2b2aa"/>
    </g>
    <g id="mouth" transform="translate(76, 100)">
      <path d="M40.4689793,0 C41.0101082,2.38968765 41.1537873,4.919725 40.825378,7.50215957 C39.358732,19.0651039 29.056757,27.2708834 17.8143372,25.8374451 C7.99004839,24.5836544 0.701601633,16.3760036 0,6.60953545 L40.4689793,0 Z" id="Fill-352" fill="#230D09"/>
      <path d="M18.2015375,25.8409219 C14.7581193,25.4073913 11.6361361,24.1067994 9,22.2025572 C11.9871283,13.5520661 21.2939634,7.90153381 31.4450271,9.18017481 C34.5891782,9.57712059 37.4747035,10.6124722 40,12.1033055 C36.8835588,21.1269622 27.8981586,27.0628564 18.2015375,25.8409219" id="Fill-354" fill="#E81A49"/>
      <path d="M21,28.2644808 C21,28.2644808 35.7881747,29.3245498 40.5958918,18 C40.5958918,18 42.9884024,25.1761342 36.1305023,29.5762473 C33.3181202,31.3803855 27.0087007,31.9829897 21,28.2644808"  fill="#b08078"/>
    </g>
    <g id="hair" transform="translate(33,-40)">
      <path d="M126,114.431373 L123.923077,78.4529796 C123.923077,78.4529796 138.076923,89.5965052 159.605534,85.7087411 C171.358799,83.5859045 172,100.705882 172,100.705882 C173.851637,124.95909 158.518304,129.534254 126,114.431373 Z"  fill="#5A3825"/>
      <path d="M130.391714,81.6484505 C135.673912,115.000549 129.941338,133.784399 113.193992,138 C121.899071,125.960479 125.106202,109.785179 122.815385,89.4741 C122.638597,87.9066451 117.972677,76.7486118 108.817626,56 L130.391714,81.6484505 Z"  fill="#5A3825"/>
      <path d="M2.21094852,75.2099344 C2.21094852,75.2099344 -6.87910311,116.463599 12,129.537639 L12,70.6052258 L2.21094852,75.2099344 Z"  fill="#5A3825"/>
      <path d="M121.969757,79.1731347 C121.916831,58.6286195 107.525008,42 87.3225386,42 L34.2424643,42 C12.7338664,42 12.2343849,59.61288 12.009451,81.4896071 L12,82.4219632 C33.9924894,77.3718611 70.9646549,73.7404782 123,90 L121.969757,79.1731347 Z" id="Fill-78" fill="#FD7058"/>
      <path d="M131.487994,83 C131.487994,83 47.6069687,57.9493843 0.226401822,78.260187 C0.226401822,78.260187 -2.26161881,40.4205234 9.25804957,27.967486 C20.3696902,15.9518253 44.36552,4.24589507 68.0178473,5.03805391 C96.8322007,5.99915659 125.139841,21.5926721 129.024645,28.3504253 C143.123428,52.8848237 131.487994,83 131.487994,83" id="accent" fill="#241c11"/>
      <path d="M38,61.7728566 L38,68.9439621 C57.8160638,67.6577162 78.8004259,70.006348 95.9573454,73 L97,63.6699745 L65.8760092,47 L38,61.7728566 Z"  fill="#0"/>
      <path d="M60,4 C60,6.20821394 64.7014925,8 70.5018881,8 C76.3003956,8 81,6.20821394 81,4 C81,1.79178606 76.3003956,0 70.5018881,0 C64.7014925,0 60,1.79178606 60,4"  fill="#5A3825"/>
      <path d="M97,65 C97,65 64.863359,55.5593764 38,63.1223899 C38,63.1223899 41.803064,35.5834824 65.0902676,32.2206827 C88.3774712,28.8597606 97,65 97,65"  fill="#5A3825"/>
    </g>
    <g id="eyes" transform="translate(50,35)">
      <path d="M77,34.0009382 C77,38.4179665 75.4317799,42 73.5,42 C71.5662549,42 70,38.4179665 70,34.0009382 C70,29.5820335 71.5662549,26 73.5,26 C75.4317799,26 77,29.5820335 77,34.0009382" id="Fill-315" fill="#1F110B"/>
      <path d="M92.9924723,27.9979557 C93.4307826,27.7447762 74.6272708,15.9643709 63.0177651,16.3875964 C62.8729321,16.5765363 63.2502601,6.10737422 78.6521028,11.5904113 C93.5756155,17.6893926 92.8590735,28.1680017 92.9924723,27.9979557" id="right-brow" fill="#000000" transform="translate(78.000000, 19.000000) rotate(-44.000000) translate(-78.000000, -19.000000) "/>
      <path d="M16,34.0009382 C16,38.4179665 17.5662549,42 19.5,42 C21.4337451,42 23,38.4179665 23,34.0009382 C23,29.5820335 21.4337451,26 19.5,26 C17.5662549,26 16,29.5820335 16,34.0009382" id="Fill-319" fill="#1F110B"/>
      <path d="M3.00746375,24.9979557 C2.57105823,24.7447762 21.372704,12.9643709 32.9822342,13.3875964 C33.1270675,13.5765363 32.7497387,3.10737422 17.3497692,8.59041129 C2.42622496,14.6893926 3.14086282,25.1680017 3.00746375,24.9979557" id="left-brow" fill="#000000" transform="translate(18.000000, 16.000000) rotate(35.000000) translate(-18.000000, -16.000000) "/>
    </g>
    <g id="nose" transform="translate(90,70)">
      <path d="M17,12.1922593 C17,17.6077575 13.195549,22 8.5,22 C3.80637144,22 0,17.6077575 0,12.1922593 C0,6.77306691 3.80637144,0 8.5,0 C13.195549,0 17,6.77306691 17,12.1922593" fill="#b08078" />
    </g>
  </g>
</svg>
