<?xml version="1.0" standalone="no"?>
<svg xmlns:xlink="http://www.w3.org/1999/xlink" xmlns="http://www.w3.org/2000/svg" id="avatar" viewBox="0 0 210 259" width="210" height="259">
      <g id="avatar-heads" transform="translate(0, 60)" x="5px" y="29.5px">    <g id="Page-1" stroke="none" stroke-width="1" fill="none" fill-rule="evenodd">
        <g id="heads">
            <g id="turtle">
                <path d="M118.581368,116.698654 L97.8044066,116.698654 L95.3169695,116.698654 L81.2350213,116.698654 C84.1341322,141.012115 71.9532277,156.908269 37.9911094,170.506346 C4.03092385,184.106346 0.473521453,199.940962 0.473521453,199.940962 L91.3683804,199.940962 L97.8044066,199.940962 L199.344801,199.940962 C199.344801,199.940962 194.787399,185.106346 160.827213,171.506346 C126.865095,157.908269 115.682257,141.012115 118.581368,116.698654 Z" id="shirt" fill="#FCC21C"/>
                <path d="M65.7131813,154.507692 C73.4480093,164.315385 85.4599923,170.623077 98.9601855,170.623077 C112.460379,170.623077 124.474295,164.315385 132.209123,154.507692 C119.820255,143.844231 115.751836,131.180769 117.632393,115.384615 L96.855431,115.384615 L94.3699266,115.384615 L80.2879784,115.384615 C82.1724005,131.180769 78.1020487,143.844231 65.7131813,154.507692" id="tone" fill="#e2b2aa"/>
                <path d="M51.3170869,72.1047775 C57.5772338,84.018239 54.9545048,97.6797775 45.4589501,102.620162 C35.9633954,107.560547 23.1899126,101.906701 16.9316984,89.993239 C10.6715515,78.0797775 13.2942806,64.418239 22.7898353,59.4797775 C32.28539,54.5393928 45.0588728,60.1913159 51.3170869,72.1047775" id="tone" fill="#e2b2aa"/>
                <path d="M46.229223,94.0730769 C46.1905682,93.5884615 46.1016622,93.1692308 46.0475454,92.7 C46.1190568,93.0403846 46.1635099,93.3211538 46.1886355,93.5461538 C46.1287205,91.1211538 45.775029,89.1384615 45.1546193,87.5807692 C40.2106687,67.4134615 21.2601469,65.3846154 21.2601469,65.3846154 C30.8600696,71.15 36.8534983,77.5096154 40.5643603,82.7807692 C33.7514496,80.0192308 23.2199459,85.8673077 23.2199459,85.8673077 C35.7170468,82.5711538 41.3993042,85.3 44.0085041,88.4673077 C45.7286432,91.8788462 46.229223,94.0730769 46.229223,94.0730769" id="dark" fill="#b08078"/>
                <path d="M148.356617,72.1047775 C142.098403,84.018239 144.721132,97.6797775 154.216687,102.620162 C163.712241,107.560547 176.485724,101.906701 182.743938,89.993239 C189.002152,78.0797775 186.381356,64.418239 176.885801,59.4797775 C167.390247,54.5393928 154.616764,60.1913159 148.356617,72.1047775" id="tone" fill="#e2b2aa"/>
                <path d="M152.686509,94.0730769 C152.725164,93.5884615 152.816003,93.1692308 152.868187,92.7 C152.796676,93.0403846 152.752223,93.3211538 152.727097,93.5461538 C152.787012,91.1211538 153.140704,89.1384615 153.761113,87.5807692 C158.706997,67.4134615 177.657518,65.3846154 177.657518,65.3846154 C168.055663,71.15 162.064167,77.5096154 158.351372,82.7807692 C165.164283,80.0192308 175.695787,85.8673077 175.695787,85.8673077 C163.200618,82.5711538 157.516428,85.3 154.907228,88.4673077 C153.187089,91.8788462 152.686509,94.0730769 152.686509,94.0730769" id="dark" fill="#b08078"/>
                <path d="M81.1035949,0 C59.1109393,0 41.2156939,21.4653846 40.9876305,43.35 L40.5875532,81.4057692 C40.5875532,105.028846 52.5531504,125.615385 70.2589872,136.403846 C78.6374179,141.509615 91.7201392,146.346154 98.5929648,146.346154 C108.51179,146.346154 117.84886,141.717308 126.012756,136.95 C144.219173,126.321154 156.600309,105.432692 156.600309,81.4057692 L156.490143,41.0326923 C156.436026,20.4788462 139.6753,0 119.018168,0 L81.1035949,0 Z" id="color" fill="#ecbcb4"/>
                <path d="M65.3043706,93.7027245 C65.0821054,93.7027245 64.8559748,93.6546476 64.6414406,93.5527245 C63.8838063,93.1873399 63.5668368,92.2815707 63.9321248,91.5277245 L68.7388507,81.6258014 C69.1060714,80.8719553 70.0163923,80.5584938 70.7740266,80.9181091 C71.5335937,81.2834938 71.8505631,82.189263 71.4833424,82.9431091 L66.6785492,92.8450322 C66.4137637,93.3873399 65.8706636,93.7027245 65.3043706,93.7027245" id="tone" fill="#e2b2aa"/>
                <path d="M55.6386915,93.7027245 C55.4183591,93.7027245 55.1922285,93.6546476 54.979627,93.5527245 C54.2200599,93.1873399 53.9030905,92.2815707 54.2683784,91.5277245 L59.0751044,81.6258014 C59.4423251,80.8719553 60.3545787,80.5584938 61.1102803,80.9181091 C61.8698473,81.2834938 62.1868168,82.189263 61.8215288,82.9431091 L57.0128701,92.8450322 C56.7500174,93.3873399 56.2069173,93.7027245 55.6386915,93.7027245" id="tone" fill="#e2b2aa"/>
                <path d="M133.893887,93.7027245 C133.327594,93.7027245 132.784494,93.3873399 132.519709,92.8450322 L127.714916,82.9431091 C127.345762,82.189263 127.662732,81.2834938 128.424232,80.9181091 C129.183799,80.5584938 130.092187,80.8719553 130.459407,81.6258014 L135.266133,91.5277245 C135.631421,92.2815707 135.314452,93.1873399 134.556818,93.5527245 C134.342283,93.6546476 134.116153,93.7027245 133.893887,93.7027245" id="tone" fill="#e2b2aa"/>
                <path d="M143.558304,93.7027245 C142.992011,93.7027245 142.448911,93.3873399 142.184125,92.8450322 L137.377399,82.9431091 C137.010179,82.189263 137.327148,81.2834938 138.088648,80.9181091 C138.846282,80.5584938 139.756603,80.8719553 140.123824,81.6258014 L144.93055,91.5277245 C145.295838,92.2815707 144.978868,93.1873399 144.219301,93.5527245 C144.0067,93.6546476 143.780569,93.7027245 143.558304,93.7027245" id="tone" fill="#e2b2aa"/>
            </g>
        </g>
    </g>
</g>
      <g id="avatar-mouths" transform="translate(0, 60)"><g id="Page-1" stroke="none" stroke-width="1" fill="none" fill-rule="evenodd" transform="translate(85, 110)">
  <g id="mouths" fill="#FF6A68">
    <g id="line">
      <path d="M2.66445009,4.42825488 C1.90763062,3.93461039 1.22343524,3.43905994 0.627153239,2.96066315 C-0.093354183,2.3869682 -0.20993496,1.34250032 0.365324282,0.625858125 C0.940583524,-0.0888781077 1.97069891,-0.212765721 2.70840678,0.364741155 C3.27793254,0.814548491 16.6331205,11.2382617 26.154521,1.75800032 C26.8081378,1.10806684 27.8573648,1.11187876 28.5128928,1.75990628 C29.1626873,2.4079338 29.1626873,3.4619315 28.5109816,4.10995902 C20.1974344,12.3894635 8.94834506,8.52035806 2.66445009,4.42825488" id="tone" fill="#b08078"/>
    </g>
  </g>
</g>
</g>
      <g id="avatar-hairs" transform="translate(0, 60)"><g id="Page-1" stroke="none" stroke-width="1" fill="none" fill-rule="evenodd" transform="translate(2, -47)">
  <g id="hairs" fill="#5A3825">
    <g id="girl">
      <path d="M38.8039814,123 C38.8039814,123 21.3300661,105.648781 30.8272878,75.7882357 L51,72 L49.193321,119.569932 L38.8039814,123 Z" id="light" fill="#785643"/>
      <path d="M155.196019,123 C155.196019,123 172.669934,105.648781 163.172712,75.7882357 L143,72 L144.806679,119.569932 L155.196019,123 Z" id="light" fill="#785643"/>
      <path d="M31.2892542,49.5555199 C25.8106343,61.2506778 39.5655472,100.559613 39.5655472,100.559613 C43.9503257,100.55584 46.9927483,98.0753347 51.8896178,94.3800421 C62.1257882,86.6574652 62.777198,69.6825094 63.5942842,53.5469641 C67.4462623,67.3679999 77.217409,84.46368 106.690877,84.8145347 C151.606147,85.3464757 155.964567,105 155.964567,105 C155.964567,105 178.515395,65.7155873 156.007869,30.7998819 C138.901773,4.26319136 65.2152779,-22.8733476 31.2892542,49.5555199 Z" id="tone" fill="#502e1b"/>
      <path d="M115.106004,178.529202 C135.977484,168.823413 155,144.502143 155,117.376245 L154.890513,76.5780641 C154.83577,55.8082181 137.931365,39 117.098645,39 C107.032882,42.3333333 107.666667,48.3333333 119,57 C114.414735,57 107.143705,47.7013897 95.1808416,42.4707649 C93.6321523,41.7936182 95.5718717,44.9700299 101,52 C95,47.536957 87.6204259,43.2036236 78.8612778,39 C65.7225557,32.6945645 38.6342691,56.8056826 38.4020813,78.9174007 L38,117.376245 C38,143.406096 55.4522155,166.853388 75.3242083,177.281882 C69.8606633,197.208174 68.7341791,225.883712 55.519547,229.309692 C45.6234272,231.875326 27.9488553,231.710696 26.9922685,218.068837 C18.2379929,226.879636 2.61000336,198.455854 1,181 C0.921056938,180.146154 0.830846969,178.637738 0.739796342,176.674988 C0.224901073,165.575547 -0.316878041,139.946692 1,136 C1.5121882,134.461218 9.52511721,60.1838565 17,48 C24.4748828,35.8161435 49.0102329,-5.55171275 119,1.4883422 C188.989767,8.52839715 196.616099,168.931799 188.989767,172.681757 C187.270547,173.529311 185.453409,174.3957 184.250143,176.184982 C182.09594,179.390621 182.687216,184.116208 182.809614,188.297476 C183.180574,201.12945 160.693323,214.927042 151.852427,221.12549 C141.619272,229.19959 129.248874,199.89319 115.106014,178.529198 Z" id="color" fill="#5A3825"/>
    </g>
  </g>
</g>
</g>
      <g id="avatar-facials" transform="translate(0, 60)"><g id="Page-1" stroke="none" stroke-width="1" fill="none" fill-rule="evenodd" transform="translate(39, 90)">
  <g id="facials">
    <g id="ring">
      <path d="M58,61 C102.747573,61 119,20 119,0.5 C100.135208,21.5671115 84.0673986,41.9804514 70.0336993,39.9902257 C56,38 62,34 58,34 C54,34 61,35.75 45.7800715,39.9855671 C30.5601429,44.2211342 12.7367448,19.5722104 1,0.5 C-0.165048544,19 13.2524272,61 58,61 Z" id="color" fill="#241c11"/>
      <path d="M119,0.5 C98,23.3846154 86,38.9855671 72.0336993,38.9902257 C58.0673986,38.9948843 62,34 58,34 C54,34 60,36 45.7800715,39.9855671 C89,54 111.456311,16 119,0.5 Z" id="tone" fill="#1a1207"/>
      <g id="Group" transform="translate(59.500000, 31.500000) scale(1, -1) translate(-59.500000, -31.500000) translate(29.000000, 1.000000)">
        <path d="M9.2400628,23.5590406 C12.4935865,22.3907791 53.9434964,7.46016304 45.0176216,51.295068 C52.41914,34.6805865 58.3413297,13.9035085 38.4659856,10.0168659 C38.6219565,10.0637247 27.7384395,7.57847519 9.2400628,23.5590406 Z" id="tone" fill="#1a1207" transform="translate(30.606028, 30.598943) rotate(140.000000) translate(-30.606028, -30.598943) "/>
        <path d="M9.14503126,18.2216016 C12.398555,17.0533401 53.5502425,3.08784327 44.6243676,46.9227482 C52.025886,30.3082667 54.3704983,13.2903549 34.4951541,9.40371226 C34.651125,9.45057109 28.4859223,7.25400411 9.14503126,18.2216016 Z" id="color" fill="#241c11" transform="translate(29.574296, 28.088197) rotate(140.000000) translate(-29.574296, -28.088197) "/>
      </g>
    </g>
  </g>
</g>
</g>
      <g id="avatar-eyes" transform="translate(0, 60)"><g id="Page-1" stroke="none" stroke-width="1" fill="none" fill-rule="evenodd" transform="translate(54, 39)">
  <g id="eyes">
    <g id="normal">
      <path d="M76,28 C76,32.4165103 74.4317799,36 72.5,36 C70.5662549,36 69,32.4165103 69,28 C69,23.5834897 70.5662549,20 72.5,20 C74.4317799,20 76,23.5834897 76,28" id="Fill-33" fill="#25110D"/>
      <path d="M87.9922875,18.9978421 C88.4432398,18.7305971 69.0148726,6.29572485 57.018358,6.74246284 C56.8686969,6.94189945 57.2586033,-4.10888277 73.1719051,1.67876748 C88.5929009,8.11658104 87.8544418,19.1773351 87.9922875,18.9978421" id="right-brow" fill="#080603"/>
      <path d="M15,28 C15,32.4165103 16.5662549,36 18.4980348,36 C20.4337451,36 22,32.4165103 22,28 C22,23.5834897 20.4337451,20 18.4980348,20 C16.5662549,20 15,23.5834897 15,28" id="Fill-37" fill="#25110D"/>
      <path d="M0.00771254488,18.9978421 C-0.443239827,18.7305971 18.9851274,6.29572485 30.981642,6.74246284 C31.1313031,6.94189945 30.7413967,-4.10888277 14.8280949,1.67876748 C-0.5948701,8.11658104 0.145558248,19.1773351 0.00771254488,18.9978421" id="left-brow" fill="#080603"/>
    </g>
  </g>
</g>
</g>
      <g id="avatar-noses" transform="translate(0, 60)"><g id="Page-1" stroke="none" stroke-width="1" fill="none" fill-rule="evenodd" transform="translate(85, 65)">
  <g id="noses" fill="#b08078">
    <g id="penis">
      <path d="M23.1163906,17.5631587 C22.6243566,11.8412686 18.8822073,-0.0210929037 14.405851,2.81672649e-05 C9.94871487,0.0230693356 6.34302816,11.8067068 5.88174628,17.5631587 C2.07617077,18.4195221 -0.566590011,22.1310703 0.104190725,26.1613547 L0.373271822,27.7723163 C0.682715084,29.6348108 2.29527966,31 4.18461336,31 L24.8135235,31 C26.7047792,31 28.3173438,29.6348108 28.628709,27.7703962 L28.8958681,26.1613547 C29.5666489,22.1310703 26.9219661,18.4195221 23.1163906,17.5631587" id="Fill-542"/>
    </g>
  </g>
</g>
</g>
      <g id="avatar-accessoires" transform="translate(0, 60)"><!--?xml version="1.0" encoding="UTF-8"?-->
<svg width="137px" height="128px" viewBox="0 0 137 128" version="1.1" xmlns="http://www.w3.org/2000/svg" xmlns:xlink="http://www.w3.org/1999/xlink">
    <!-- Generator: Sketch 52.6 (67491) - http://www.bohemiancoding.com/sketch -->
    <title>bearded</title>
    <desc>Created with Sketch.</desc>
</svg>
</g>
    </svg>