<!DOCTYPE svg PUBLIC "-//W3C//DTD SVG 1.0//EN" "http://www.w3.org/TR/2001/REC-SVG-20010904/DTD/svg10.dtd">
<svg xmlns:xlink="http://www.w3.org/1999/xlink" xmlns="http://www.w3.org/2000/svg" viewBox="0 0 210 250" width="210" height="250">
  <g transform="translate(0, 58)">
    <g id="head">
      <path d="M118.581368,116.698654 L97.8044066,116.698654 L95.3169695,116.698654 L81.2350213,116.698654 C84.1341322,141.012115 71.9532277,156.908269 37.9911094,170.506346 C4.03092385,184.106346 0.473521453,199.940962 0.473521453,199.940962 L91.3683804,199.940962 L97.8044066,199.940962 L199.344801,199.940962 C199.344801,199.940962 194.787399,185.106346 160.827213,171.506346 C126.865095,157.908269 115.682257,141.012115 118.581368,116.698654 Z"  fill="#FCC21C"/>
      <path d="M65.7131813,154.507692 C73.4480093,164.315385 85.4599923,170.623077 98.9601855,170.623077 C112.460379,170.623077 124.474295,164.315385 132.209123,154.507692 C119.820255,143.844231 115.751836,131.180769 117.632393,115.384615 L96.855431,115.384615 L94.3699266,115.384615 L80.2879784,115.384615 C82.1724005,131.180769 78.1020487,143.844231 65.7131813,154.507692"  fill="#e2b2aa"/>
      <path d="M51.3170869,72.1047775 C57.5772338,84.018239 54.9545048,97.6797775 45.4589501,102.620162 C35.9633954,107.560547 23.1899126,101.906701 16.9316984,89.993239 C10.6715515,78.0797775 13.2942806,64.418239 22.7898353,59.4797775 C32.28539,54.5393928 45.0588728,60.1913159 51.3170869,72.1047775"  fill="#e2b2aa"/>
      <path d="M46.229223,94.0730769 C46.1905682,93.5884615 46.1016622,93.1692308 46.0475454,92.7 C46.1190568,93.0403846 46.1635099,93.3211538 46.1886355,93.5461538 C46.1287205,91.1211538 45.775029,89.1384615 45.1546193,87.5807692 C40.2106687,67.4134615 21.2601469,65.3846154 21.2601469,65.3846154 C30.8600696,71.15 36.8534983,77.5096154 40.5643603,82.7807692 C33.7514496,80.0192308 23.2199459,85.8673077 23.2199459,85.8673077 C35.7170468,82.5711538 41.3993042,85.3 44.0085041,88.4673077 C45.7286432,91.8788462 46.229223,94.0730769 46.229223,94.0730769"  fill="#b08078"/>
      <path d="M148.356617,72.1047775 C142.098403,84.018239 144.721132,97.6797775 154.216687,102.620162 C163.712241,107.560547 176.485724,101.906701 182.743938,89.993239 C189.002152,78.0797775 186.381356,64.418239 176.885801,59.4797775 C167.390247,54.5393928 154.616764,60.1913159 148.356617,72.1047775"  fill="#e2b2aa"/>
      <path d="M152.686509,94.0730769 C152.725164,93.5884615 152.816003,93.1692308 152.868187,92.7 C152.796676,93.0403846 152.752223,93.3211538 152.727097,93.5461538 C152.787012,91.1211538 153.140704,89.1384615 153.761113,87.5807692 C158.706997,67.4134615 177.657518,65.3846154 177.657518,65.3846154 C168.055663,71.15 162.064167,77.5096154 158.351372,82.7807692 C165.164283,80.0192308 175.695787,85.8673077 175.695787,85.8673077 C163.200618,82.5711538 157.516428,85.3 154.907228,88.4673077 C153.187089,91.8788462 152.686509,94.0730769 152.686509,94.0730769"  fill="#b08078"/>
      <path d="M81.1035949,0 C59.1109393,0 41.2156939,21.4653846 40.9876305,43.35 L40.5875532,81.4057692 C40.5875532,105.028846 52.5531504,125.615385 70.2589872,136.403846 C78.6374179,141.509615 91.7201392,146.346154 98.5929648,146.346154 C108.51179,146.346154 117.84886,141.717308 126.012756,136.95 C144.219173,126.321154 156.600309,105.432692 156.600309,81.4057692 L156.490143,41.0326923 C156.436026,20.4788462 139.6753,0 119.018168,0 L81.1035949,0 Z"  fill="#ecbcb4"/>
      <path d="M65.3043706,93.7027245 C65.0821054,93.7027245 64.8559748,93.6546476 64.6414406,93.5527245 C63.8838063,93.1873399 63.5668368,92.2815707 63.9321248,91.5277245 L68.7388507,81.6258014 C69.1060714,80.8719553 70.0163923,80.5584938 70.7740266,80.9181091 C71.5335937,81.2834938 71.8505631,82.189263 71.4833424,82.9431091 L66.6785492,92.8450322 C66.4137637,93.3873399 65.8706636,93.7027245 65.3043706,93.7027245"  fill="#e2b2aa"/>
      <path d="M55.6386915,93.7027245 C55.4183591,93.7027245 55.1922285,93.6546476 54.979627,93.5527245 C54.2200599,93.1873399 53.9030905,92.2815707 54.2683784,91.5277245 L59.0751044,81.6258014 C59.4423251,80.8719553 60.3545787,80.5584938 61.1102803,80.9181091 C61.8698473,81.2834938 62.1868168,82.189263 61.8215288,82.9431091 L57.0128701,92.8450322 C56.7500174,93.3873399 56.2069173,93.7027245 55.6386915,93.7027245"  fill="#e2b2aa"/>
      <path d="M133.893887,93.7027245 C133.327594,93.7027245 132.784494,93.3873399 132.519709,92.8450322 L127.714916,82.9431091 C127.345762,82.189263 127.662732,81.2834938 128.424232,80.9181091 C129.183799,80.5584938 130.092187,80.8719553 130.459407,81.6258014 L135.266133,91.5277245 C135.631421,92.2815707 135.314452,93.1873399 134.556818,93.5527245 C134.342283,93.6546476 134.116153,93.7027245 133.893887,93.7027245"  fill="#e2b2aa"/>
      <path d="M143.558304,93.7027245 C142.992011,93.7027245 142.448911,93.3873399 142.184125,92.8450322 L137.377399,82.9431091 C137.010179,82.189263 137.327148,81.2834938 138.088648,80.9181091 C138.846282,80.5584938 139.756603,80.8719553 140.123824,81.6258014 L144.93055,91.5277245 C145.295838,92.2815707 144.978868,93.1873399 144.219301,93.5527245 C144.0067,93.6546476 143.780569,93.7027245 143.558304,93.7027245"  fill="#e2b2aa"/>
    </g>
    <g id="mouth" transform="translate(82,110)">
      <path d="M2.66445009,4.42825488 C1.90763062,3.93461039 1.22343524,3.43905994 0.627153239,2.96066315 C-0.093354183,2.3869682 -0.20993496,1.34250032 0.365324282,0.625858125 C0.940583524,-0.0888781077 1.97069891,-0.212765721 2.70840678,0.364741155 C3.27793254,0.814548491 16.6331205,11.2382617 26.154521,1.75800032 C26.8081378,1.10806684 27.8573648,1.11187876 28.5128928,1.75990628 C29.1626873,2.4079338 29.1626873,3.4619315 28.5109816,4.10995902 C20.1974344,12.3894635 8.94834506,8.52035806 2.66445009,4.42825488"  fill="#b08078"/>
    </g>
    <g id="hair" transform="translate(31,-24)">
      <path d="M23,52.4164841 C49,64.0425499 91,93.1077145 116,48.9286643 C117.333333,61.3298012 118,81.8691842 118,110.546813 C121.267035,108.765425 123.267035,107.249821 124,106 C124,72.2844091 126,86 136,82 C139.739444,80.5042224 136,37.969 129,12 C110.8147,-2.93058211 20.0336104,-4.78207773 5,12 C-5.26800825e-13,29.858916 1,61.0730815 1,82 C5,90 8,72.221 7,108.2216 C16,119.847666 17,67.5303696 23,52.4164841 Z"  fill="#241c11"/>
      <path d="M116,48.9286643 C117.333333,61.3298012 118,81.8691842 118,110.546813 C121.267035,108.765425 123.267035,107.249821 124,106 C124,72.2844091 126,86 136,82 C139.739444,80.5042224 136,37.969 129,12 C110.8147,3.0132 127,48.9286643 116,48.9286643 Z"  fill="#423a2f"/>
      <path d="M23,52.4164841 C-5.68767256e-13,40 20.0336104,-4.78207773 5,12 C-5.39013278e-13,29.858916 1,61.0730815 1,82 C5,90 8,72.221 7,108.2216 C16,119.847666 17,67.5303696 23,52.4164841 Z"  fill="#423a2f"/>
    </g>
    <g id="eyes" transform="translate(49,35)">
      <path d="M77,34.0009382 C77,38.4179665 75.4317799,42 73.5,42 C71.5662549,42 70,38.4179665 70,34.0009382 C70,29.5820335 71.5662549,26 73.5,26 C75.4317799,26 77,29.5820335 77,34.0009382" id="Fill-315" fill="#1F110B"/>
      <path d="M92.9924723,27.9979557 C93.4307826,27.7447762 74.6272708,15.9643709 63.0177651,16.3875964 C62.8729321,16.5765363 63.2502601,6.10737422 78.6521028,11.5904113 C93.5756155,17.6893926 92.8590735,28.1680017 92.9924723,27.9979557" id="right-brow" fill="#000000" transform="translate(78.000000, 19.000000) rotate(-44.000000) translate(-78.000000, -19.000000) "/>
      <path d="M16,34.0009382 C16,38.4179665 17.5662549,42 19.5,42 C21.4337451,42 23,38.4179665 23,34.0009382 C23,29.5820335 21.4337451,26 19.5,26 C17.5662549,26 16,29.5820335 16,34.0009382" id="Fill-319" fill="#1F110B"/>
      <path d="M3.00746375,24.9979557 C2.57105823,24.7447762 21.372704,12.9643709 32.9822342,13.3875964 C33.1270675,13.5765363 32.7497387,3.10737422 17.3497692,8.59041129 C2.42622496,14.6893926 3.14086282,25.1680017 3.00746375,24.9979557" id="left-brow" fill="#000000" transform="translate(18.000000, 16.000000) rotate(35.000000) translate(-18.000000, -16.000000) "/>
    </g>
    <g id="nose" transform="translate(88,72)">
      <path d="M17,12.1922593 C17,17.6077575 13.195549,22 8.5,22 C3.80637144,22 0,17.6077575 0,12.1922593 C0,6.77306691 3.80637144,0 8.5,0 C13.195549,0 17,6.77306691 17,12.1922593" fill="#b08078" />
    </g>
  </g>
</svg>
