<?xml version="1.0" standalone="no"?>
<svg xmlns:xlink="http://www.w3.org/1999/xlink" xmlns="http://www.w3.org/2000/svg" id="avatar" viewBox="0 0 210 259" width="210" height="259">
      <g id="avatar-heads" transform="translate(0, 60)" x="5px" y="29.5px"><g id="heads">
  <g id="round">
    <path d="M118.658252,113.72549 L97.7825243,113.72549 L95.2854369,113.72549 L81.1378641,113.72549 C84.0504854,138.515686 72.8174757,154.743137 38.6970874,168.607843 C4.57669903,182.47451 -7.10542736e-15,198.6 -7.10542736e-15,198.6 L91.3184466,198.6 L97.7825243,198.6 L199.796117,198.6 C199.796117,198.6 195.219417,183.47451 161.099029,169.607843 C126.980583,155.743137 115.745631,138.515686 118.658252,113.72549 Z" id="shirt-tone" fill="#E3AF18"/>
    <path d="M145.995785,163.42549 C122.232679,150.647059 114.327824,134.962745 116.824912,113.72549 L95.9491834,113.72549 L93.4520961,113.72549 L79.3045232,113.72549 C81.5394747,132.735294 75.4385038,147.292157 57.0967563,159.301961 C56.1550087,169.196078 54.129766,178.772549 65.0385038,183.717647 C78.083164,189.631373 93.3006398,188.588235 107.042387,184.592157 C121.325882,180.439216 134.626853,173.086275 145.995785,163.42549" id="shirt" fill="#FCC21C"/>
    <path d="M141.49581,160.770588 C121.342412,148.482353 114.635616,133.515686 116.959888,113.72549 L96.0841596,113.72549 L93.589014,113.72549 L79.4414412,113.72549 C81.4220237,130.578431 76.8511499,143.933333 63.0103732,155.115686 C62.9909557,155.437255 63.004548,155.735294 62.981247,156.060784 C62.3132858,165.354902 59.5424121,174.643137 69.7695965,179.278431 C81.1793053,184.45098 94.4880431,183.537255 106.505519,180.043137 C119.379305,176.3 131.354063,169.605882 141.49581,160.770588" id="dark" fill="#b08078"/>
    <path d="M49.6158343,69.597028 C55.9051547,81.7440868 53.2682615,95.6734986 43.7284557,100.710753 C34.1886499,105.748008 21.3575819,99.9833025 15.0682615,87.8362437 C8.77894112,75.6891849 11.4158343,61.7597731 20.9556401,56.724479 C30.495446,51.6872241 43.3265139,57.4499692 49.6158343,69.597028" id="tone" fill="#e2b2aa"/>
    <path d="M44.5029126,91.9960784 C44.4660194,91.5019608 44.3728155,91.0745098 44.3223301,90.5960784 C44.392233,90.9431373 44.4368932,91.2294118 44.4621359,91.4588235 C44.4019417,88.9862745 44.0466019,86.9647059 43.423301,85.3764706 C38.4563107,64.8137255 19.4174757,62.745098 19.4174757,62.745098 C29.0621359,68.6235294 35.0834951,75.1078431 38.8135922,80.4823529 C31.9669903,77.6666667 21.3864078,83.6294118 21.3864078,83.6294118 C33.9398058,80.2686275 39.6504854,83.0509804 42.2718447,86.2803922 C44.0019417,89.7588235 44.5029126,91.9960784 44.5029126,91.9960784" id="dark" fill="#b08078"/>
    <path d="M147.10624,69.597028 C140.818861,81.7440868 143.453813,95.6734986 152.993619,100.710753 C162.531483,105.748008 175.364492,99.9833025 181.653813,87.8362437 C187.941192,75.6891849 185.308182,61.7597731 175.768376,56.724479 C166.22857,51.6872241 153.39556,57.4499692 147.10624,69.597028" id="tone" fill="#e2b2aa"/>
    <path d="M153.398058,91.9960784 C153.434951,91.5019608 153.526214,91.0745098 153.578641,90.5960784 C153.508738,90.9431373 153.462136,91.2294118 153.438835,91.4588235 C153.499029,88.9862745 153.854369,86.9647059 154.47767,85.3764706 C159.44466,64.8137255 178.483495,62.745098 178.483495,62.745098 C168.836893,68.6235294 162.817476,75.1078431 159.08932,80.4823529 C165.932039,77.6666667 176.514563,83.6294118 176.514563,83.6294118 C163.959223,80.2686275 158.250485,83.0509804 155.627184,86.2803922 C153.900971,89.7588235 153.398058,91.9960784 153.398058,91.9960784" id="dark" fill="#b08078"/>
    <path d="M81.4815534,0 C59.384466,0 41.407767,17.9647059 41.176699,40.2784314 L40.776699,79.0803922 C40.776699,114.564706 62.6951456,143.333333 99.0524272,143.333333 C136.254369,143.333333 157.328155,114.564706 157.328155,79.0803922 L157.219417,37.9156863 C157.165049,16.9588235 140.326214,0 119.570874,0 L81.4815534,0 Z" id="color" fill="#ecbcb4"/>
    <path d="M63.6661921,91.6184642 C63.4428911,91.6184642 63.2176484,91.5694446 63.0021144,91.465523 C62.2390076,91.092974 61.920561,90.1694446 62.2894931,89.4008172 L67.1186193,79.3047387 C67.4875513,78.5361113 68.4021144,78.2165034 69.1632795,78.5831701 C69.9263863,78.9557191 70.2428911,79.8792485 69.8759008,80.647876 L65.0467746,90.7439544 C64.7826969,91.2968956 64.2351241,91.6184642 63.6661921,91.6184642" id="tone" fill="#e2b2aa"/>
    <path d="M53.9562745,91.6184642 C53.7329735,91.6184642 53.505789,91.5694446 53.2921968,91.465523 C52.5310318,91.092974 52.2125852,90.1694446 52.5795755,89.4008172 L57.4087017,79.3047387 C57.775692,78.5361113 58.6921968,78.2165034 59.4533619,78.5831701 C60.2164687,78.9557191 60.5349153,79.8792485 60.1659832,80.647876 L55.336857,90.7439544 C55.0727793,91.2968956 54.5271483,91.6184642 53.9562745,91.6184642" id="tone" fill="#e2b2aa"/>
    <path d="M132.576872,91.6184642 C132.005998,91.6184642 131.460367,91.2968956 131.196289,90.7439544 L126.367163,80.647876 C125.998231,79.8792485 126.316678,78.9557191 127.079784,78.5831701 C127.842891,78.2165034 128.757454,78.5361113 129.124445,79.3047387 L133.953571,89.4008172 C134.322503,90.1694446 134.002114,91.092974 133.240949,91.465523 C133.025415,91.5694446 132.798231,91.6184642 132.576872,91.6184642" id="tone" fill="#e2b2aa"/>
    <path d="M142.28561,91.6184642 C141.714736,91.6184642 141.171046,91.2968956 140.905027,90.7439544 L136.075901,80.647876 C135.706969,79.8792485 136.025415,78.9557191 136.788522,78.5831701 C137.551629,78.2165034 138.46425,78.5361113 138.833182,79.3047387 L143.662309,89.4008172 C144.029299,90.1694446 143.710852,91.092974 142.949687,91.465523 C142.734153,91.5694446 142.506969,91.6184642 142.28561,91.6184642" id="tone" fill="#e2b2aa"/>
  </g>
</g>
</g>
      <g id="avatar-mouths" transform="translate(0, 60)"><g id="Page-1" stroke="none" stroke-width="1" fill="none" fill-rule="evenodd" transform="translate(85, 110)">
  <g id="mouths" fill="#B62900">
    <g id="smart">
      <path d="M4,9 C4,9 13.2526996,16.1571286 23.9998926,9.87193445 C23.9998926,9.87193445 24.148402,17.0036317 13.4030889,16.9999986 C5.34034434,16.9963656 4,9 4,9" id="tone" fill="#b08078"/>
      <path d="M2.57085816,4.42784723 C1.84013967,3.93606485 1.18138589,3.43856407 0.603823048,2.96012463 C-0.0899904605,2.38637852 -0.202550631,1.34181751 0.352869226,0.625111409 C0.906443834,-0.0896885566 1.90103288,-0.211681084 2.61514412,0.363971155 C3.16502823,0.8138186 16.0577809,11.2403674 25.2526551,1.75544842 C25.8818849,1.10736312 26.8949264,1.11117539 27.529692,1.75926069 C28.1570765,2.40925212 28.1570765,3.46334381 27.5278467,4.10952297 C19.4991697,12.3897658 8.63803586,8.52031529 2.57085816,4.42784723" id="tone" fill="#b08078"/>
    </g>
  </g>
</g>
</g>
      <g id="avatar-hairs" transform="translate(0, 60)">    <g id="Page-1" stroke="none" stroke-width="1" fill="none" fill-rule="evenodd" transform="translate(19, -40)">
        <g id="hairs" fill="#241c11">
            <g id="elvis">
                <path d="M131.675223,3.76141816 C131.953037,3.906543 115.166808,-10.2725456 85.3350566,15.5047629 C75.8248165,23.8749359 63.0649346,27.546202 50.9780669,23.5356575 C38.9283716,19.523152 23.0342776,19.9879437 14.130533,41.9017938 C11.7475927,47.7891554 10.9806695,53.0666004 11.3719568,57.722362 C8.58207772,54.2021042 4.76506918,51.8997183 1.19457171,57.5144805 C-1.67943421,61.968244 0.693723842,81.6895324 7.65277016,99.5143923 C7.65277016,99.5143923 11.7143333,142.349752 31.1945763,149 L19.3846154,99.5143923 C26.3968234,99.3456527 28.5775267,60.9907368 50.2783492,59 C66.2885468,57.5312958 95.5639128,31.3601494 113.740727,40.6201 C126.763726,47.2545041 131.015304,90.0864486 134.815385,90 L122.470187,149 C136.378497,144.250103 142.423888,121.06543 144.746178,108.186582 C145.503319,107.343289 146.248722,106.492151 147.009776,105.652781 C155.983952,95.7234963 159.372501,81.9523261 153.884695,70.5757157 C153.59123,69.9657991 153.276243,69.3656883 152.939736,68.7734221 C160.742007,51.6526138 170.273768,21.4058525 131.675223,3.76141816 Z" id="color" fill="#241c11"/>
                <path d="M51,23.9343919 C38.9264248,19.9485747 23.0053774,20.410275 14.0854357,42.1783695 C13.1465976,44.4790782 12.466479,46.6804338 12,48.7902285 L12.497839,50 C12.497839,50 24.3009348,22.5687723 51,23.9343919" id="light" fill="#423a2f"/>
                <path d="M131.593681,3.773032 C131.809512,3.88730401 121.643872,-4.7225008 103,3.69816413 C106.655392,3.66664082 153.210134,4.18086486 159.216122,50 C162.023887,34.2186415 158.274314,15.9883157 131.593681,3.773032" id="light" fill="#423a2f"/>
                <path d="M139.45687,72.4772394 L111.773188,25 L44.8789785,45.3138801 L9,88.9416136 C16.7395661,94.6951762 19.3541251,99 19.3541251,99 C19.3541251,99 23.2278369,76.6105799 66.5144053,76.0527662 C94.9190059,75.6881176 102.210442,68.4762361 105.923077,54.0341829 C106.710784,70.8947428 117.002306,77.6197693 126.867306,85.6893429 C134.180607,91.67155 141.238541,91.7740458 147,89.8640759 L139.45687,72.4772394 Z" id="color" fill="#241c11"/>
            </g>
        </g>
    </g>
</g>
      <g id="avatar-facials" transform="translate(0, 60)">
    <g id="Page-1" stroke="none" stroke-width="1" fill="none" fill-rule="evenodd" transform="translate(43, 90)">
        <g id="facials" fill="#D8D8D8">
            <g id="trash">
                <circle id="color" cx="0.5" cy="3.5" r="1" fill="#241c11"/>
                <circle id="tone" cx="2.5" cy="13.5" r="1" fill="#1a1207"/>
                <circle id="color" cx="13.5" cy="13.5" r="1" fill="#241c11"/>
                <circle id="tone" cx="15.5" cy="28.5" r="1" fill="#1a1207"/>
                <circle id="color" cx="26.5" cy="25.5" r="1" fill="#241c11"/>
                <circle id="color" cx="28.5" cy="41.5" r="1" fill="#241c11"/>
                <circle id="tone" cx="52.5" cy="45.5" r="1" fill="#1a1207"/>
                <circle id="tone" cx="77.5" cy="35.5" r="1" fill="#1a1207"/>
                <circle id="color" cx="85.5" cy="19.5" r="1" fill="#241c11"/>
                <circle id="tone" cx="88.5" cy="31.5" r="1" fill="#1a1207"/>
                <circle id="color" cx="99.5" cy="15.5" r="1" fill="#241c11"/>
                <circle id="tone" cx="106.5" cy="0.5" r="1" fill="#1a1207"/>
                <circle id="color" cx="66.5" cy="44.5" r="1" fill="#241c11"/>
                <circle id="color" cx="42.5" cy="43.5" r="1" fill="#241c11"/>
            </g>
        </g>
    </g>
</g>
      <g id="avatar-eyes" transform="translate(0, 60)"><g id="Page-1" stroke="none" stroke-width="1" fill="none" fill-rule="evenodd" transform="translate(40, 39)">
  <g id="eyes">
    <g id="prada">
      <g id="Group-2">
        <path d="M58,16.8411896 C82.2468518,12.2009041 92.8578003,11.1696351 116.820669,12.5941074 C116.820669,16.8411896 117.537994,19.6725776 116.103343,20.3804247 C109.647416,23.9196598 111.799392,37.3687532 106.778116,40.2001413 C97.963954,45.6765686 88.4283644,47.6785223 78.0851064,44.4476593 C62.3039514,40.2001413 66.2492401,23.2118127 58,23.9196598 C58,22.5039657 58,18.9647306 58,16.8411896 Z M69.4772036,18.2568836 C63.0212766,22.5039657 67.325228,32.9470393 73.0638298,39.4922942 C81.258267,44.6536742 95.8305062,44.9804386 103.191489,39.4922942 C111.970324,32.9470393 110.364742,17.5490366 105.343465,15.4254955 C96.7355623,13.3019545 78.0534577,11.862667 69.4772036,18.2568836 Z" id="Combined-Shape" fill="#000000"/>
        <path d="M59,16.8411896 C59,18.9647306 59,22.5039657 59,23.9196598 C50.7507599,23.2118127 54.6960486,40.2001413 38.9148936,44.4476593 C28.5716356,47.6785223 19.036046,45.6765686 10.2218845,40.2001413 C5.2006079,37.3687532 7.35258359,23.9196598 0.896656535,20.3804247 C-0.537993921,19.6725776 0.179331307,16.8411896 0.179331307,12.5941074 C24.1421997,11.1696351 34.7531482,12.2009041 59,16.8411896 Z M47.5227964,18.2568836 C38.9465423,11.862667 20.2644377,13.3019545 11.656535,15.4254955 C6.63525836,17.5490366 5.02967613,32.9470393 13.8085106,39.4922942 C21.1694938,44.9804386 35.741733,44.6536742 43.9361702,39.4922942 C49.674772,32.9470393 53.9787234,22.5039657 47.5227964,18.2568836 Z" id="Combined-Shape" fill="#000000"/>
        <path d="M90,28 C90,32.4165103 88.4317799,36 86.5,36 C84.5662549,36 83,32.4165103 83,28 C83,23.5834897 84.5662549,20 86.5,20 C88.4317799,20 90,23.5834897 90,28" id="Fill-33" fill="#25110D"/>
        <path d="M101.992287,18.9978421 C102.44324,18.7305971 83.0148726,6.29572485 71.018358,6.74246284 C70.8686969,6.94189945 71.2586033,-4.10888277 87.1719051,1.67876748 C102.592901,8.11658104 101.854442,19.1773351 101.992287,18.9978421" id="right-brow" fill="#080603"/>
        <path d="M29,28 C29,32.4165103 30.5662549,36 32.4980348,36 C34.4337451,36 36,32.4165103 36,28 C36,23.5834897 34.4337451,20 32.4980348,20 C30.5662549,20 29,23.5834897 29,28" id="Fill-37" fill="#25110D"/>
        <path d="M14.0077125,18.9978421 C13.5567602,18.7305971 32.9851274,6.29572485 44.981642,6.74246284 C45.1313031,6.94189945 44.7413967,-4.10888277 28.8280949,1.67876748 C13.4051299,8.11658104 14.1455582,19.1773351 14.0077125,18.9978421" id="left-brow" fill="#080603"/>
      </g>
    </g>
  </g>
</g>
</g>
      <g id="avatar-noses" transform="translate(0, 60)"><g id="Page-1" stroke="none" stroke-width="1" fill="none" fill-rule="evenodd" transform="translate(85, 65)">
  <g id="noses" fill="#b08078">
    <g id="penis">
      <path d="M23.1163906,17.5631587 C22.6243566,11.8412686 18.8822073,-0.0210929037 14.405851,2.81672649e-05 C9.94871487,0.0230693356 6.34302816,11.8067068 5.88174628,17.5631587 C2.07617077,18.4195221 -0.566590011,22.1310703 0.104190725,26.1613547 L0.373271822,27.7723163 C0.682715084,29.6348108 2.29527966,31 4.18461336,31 L24.8135235,31 C26.7047792,31 28.3173438,29.6348108 28.628709,27.7703962 L28.8958681,26.1613547 C29.5666489,22.1310703 26.9219661,18.4195221 23.1163906,17.5631587" id="Fill-542"/>
    </g>
  </g>
</g>
</g>
      <g id="avatar-accessoires" transform="translate(0, 60)"><!--?xml version="1.0" encoding="UTF-8"?-->
<svg width="137px" height="128px" viewBox="0 0 137 128" version="1.1" xmlns="http://www.w3.org/2000/svg" xmlns:xlink="http://www.w3.org/1999/xlink">
    <!-- Generator: Sketch 52.6 (67491) - http://www.bohemiancoding.com/sketch -->
    <title>bearded</title>
    <desc>Created with Sketch.</desc>
</svg>
</g>
    </svg>