<!DOCTYPE svg PUBLIC "-//W3C//DTD SVG 1.0//EN" "http://www.w3.org/TR/2001/REC-SVG-20010904/DTD/svg10.dtd">
<svg xmlns:xlink="http://www.w3.org/1999/xlink" xmlns="http://www.w3.org/2000/svg" viewBox="0 0 230 260" width="230" height="260">
  <g transform="translate(20,62)">
    <g id="head">
      <path d="M161.099029,169.607843 C126.980583,155.743137 115.745631,138.515686 118.658252,113.72549 L97.7825243,113.72549 L95.2854369,113.72549 L81.1378641,113.72549 C84.0504854,138.515686 72.8174757,155.743137 38.6970874,169.607843 C4.57669903,183.47451 -7.10542736e-15,198.6 -7.10542736e-15,198.6 L91.3184466,198.6 L97.7825243,198.6 L199.796117,198.6 C199.796117,198.6 195.219417,183.47451 161.099029,169.607843" id="shirt-tone" fill="#E3AF18"/>
      <path d="M145.995785,163.42549 C122.232679,150.647059 114.327824,134.962745 116.824912,113.72549 L95.9491834,113.72549 L93.4520961,113.72549 L79.3045232,113.72549 C81.5394747,132.735294 75.4385038,147.292157 57.0967563,159.301961 C56.1550087,169.196078 54.129766,178.772549 65.0385038,183.717647 C78.083164,189.631373 93.3006398,188.588235 107.042387,184.592157 C121.325882,180.439216 134.626853,173.086275 145.995785,163.42549"  fill="#FCC21C"/>
      <path d="M141.49581,160.770588 C121.342412,148.482353 114.635616,133.515686 116.959888,113.72549 L96.0841596,113.72549 L93.589014,113.72549 L79.4414412,113.72549 C81.4220237,130.578431 76.8511499,143.933333 63.0103732,155.115686 C62.9909557,155.437255 63.004548,155.735294 62.981247,156.060784 C62.3132858,165.354902 59.5424121,174.643137 69.7695965,179.278431 C81.1793053,184.45098 94.4880431,183.537255 106.505519,180.043137 C119.379305,176.3 131.354063,169.605882 141.49581,160.770588"  fill="#b08078"/>
      <path d="M49.6158343,69.597028 C55.9051547,81.7440868 53.2682615,95.6734986 43.7284557,100.710753 C34.1886499,105.748008 21.3575819,99.9833025 15.0682615,87.8362437 C8.77894112,75.6891849 11.4158343,61.7597731 20.9556401,56.724479 C30.495446,51.6872241 43.3265139,57.4499692 49.6158343,69.597028"  fill="#e2b2aa"/>
      <path d="M44.5029126,91.9960784 C44.4660194,91.5019608 44.3728155,91.0745098 44.3223301,90.5960784 C44.392233,90.9431373 44.4368932,91.2294118 44.4621359,91.4588235 C44.4019417,88.9862745 44.0466019,86.9647059 43.423301,85.3764706 C38.4563107,64.8137255 19.4174757,62.745098 19.4174757,62.745098 C29.0621359,68.6235294 35.0834951,75.1078431 38.8135922,80.4823529 C31.9669903,77.6666667 21.3864078,83.6294118 21.3864078,83.6294118 C33.9398058,80.2686275 39.6504854,83.0509804 42.2718447,86.2803922 C44.0019417,89.7588235 44.5029126,91.9960784 44.5029126,91.9960784"  fill="#b08078"/>
      <path d="M147.10624,69.597028 C140.818861,81.7440868 143.453813,95.6734986 152.993619,100.710753 C162.531483,105.748008 175.364492,99.9833025 181.653813,87.8362437 C187.941192,75.6891849 185.308182,61.7597731 175.768376,56.724479 C166.22857,51.6872241 153.39556,57.4499692 147.10624,69.597028"  fill="#e2b2aa"/>
      <path d="M153.398058,91.9960784 C153.434951,91.5019608 153.526214,91.0745098 153.578641,90.5960784 C153.508738,90.9431373 153.462136,91.2294118 153.438835,91.4588235 C153.499029,88.9862745 153.854369,86.9647059 154.47767,85.3764706 C159.44466,64.8137255 178.483495,62.745098 178.483495,62.745098 C168.836893,68.6235294 162.817476,75.1078431 159.08932,80.4823529 C165.932039,77.6666667 176.514563,83.6294118 176.514563,83.6294118 C163.959223,80.2686275 158.250485,83.0509804 155.627184,86.2803922 C153.900971,89.7588235 153.398058,91.9960784 153.398058,91.9960784"  fill="#b08078"/>
      <path d="M81.4815534,0 C59.384466,0 41.407767,17.9647059 41.176699,40.2784314 L40.776699,79.0803922 C40.776699,114.564706 62.6951456,143.333333 99.0524272,143.333333 C136.254369,143.333333 157.328155,114.564706 157.328155,79.0803922 L157.219417,37.9156863 C157.165049,16.9588235 140.326214,0 119.570874,0 L81.4815534,0 Z"  fill="#ecbcb4"/>
      <path d="M63.6661921,91.6184642 C63.4428911,91.6184642 63.2176484,91.5694446 63.0021144,91.465523 C62.2390076,91.092974 61.920561,90.1694446 62.2894931,89.4008172 L67.1186193,79.3047387 C67.4875513,78.5361113 68.4021144,78.2165034 69.1632795,78.5831701 C69.9263863,78.9557191 70.2428911,79.8792485 69.8759008,80.647876 L65.0467746,90.7439544 C64.7826969,91.2968956 64.2351241,91.6184642 63.6661921,91.6184642"  fill="#e2b2aa"/>
      <path d="M53.9562745,91.6184642 C53.7329735,91.6184642 53.505789,91.5694446 53.2921968,91.465523 C52.5310318,91.092974 52.2125852,90.1694446 52.5795755,89.4008172 L57.4087017,79.3047387 C57.775692,78.5361113 58.6921968,78.2165034 59.4533619,78.5831701 C60.2164687,78.9557191 60.5349153,79.8792485 60.1659832,80.647876 L55.336857,90.7439544 C55.0727793,91.2968956 54.5271483,91.6184642 53.9562745,91.6184642"  fill="#e2b2aa"/>
      <path d="M132.576872,91.6184642 C132.005998,91.6184642 131.460367,91.2968956 131.196289,90.7439544 L126.367163,80.647876 C125.998231,79.8792485 126.316678,78.9557191 127.079784,78.5831701 C127.842891,78.2165034 128.757454,78.5361113 129.124445,79.3047387 L133.953571,89.4008172 C134.322503,90.1694446 134.002114,91.092974 133.240949,91.465523 C133.025415,91.5694446 132.798231,91.6184642 132.576872,91.6184642"  fill="#e2b2aa"/>
      <path d="M142.28561,91.6184642 C141.714736,91.6184642 141.171046,91.2968956 140.905027,90.7439544 L136.075901,80.647876 C135.706969,79.8792485 136.025415,78.9557191 136.788522,78.5831701 C137.551629,78.2165034 138.46425,78.5361113 138.833182,79.3047387 L143.662309,89.4008172 C144.029299,90.1694446 143.710852,91.092974 142.949687,91.465523 C142.734153,91.5694446 142.506969,91.6184642 142.28561,91.6184642"  fill="#e2b2aa"/>
    </g>
    <g id="mouth" transform="translate(76,100)">
      <path d="M40.4689793,0 C41.0101082,2.38968765 41.1537873,4.919725 40.825378,7.50215957 C39.358732,19.0651039 29.056757,27.2708834 17.8143372,25.8374451 C7.99004839,24.5836544 0.701601633,16.3760036 0,6.60953545 L40.4689793,0 Z" id="Fill-352" fill="#230D09"/>
      <path d="M18.2015375,25.8409219 C14.7581193,25.4073913 11.6361361,24.1067994 9,22.2025572 C11.9871283,13.5520661 21.2939634,7.90153381 31.4450271,9.18017481 C34.5891782,9.57712059 37.4747035,10.6124722 40,12.1033055 C36.8835588,21.1269622 27.8981586,27.0628564 18.2015375,25.8409219" id="Fill-354" fill="#E81A49"/>
      <path d="M21,28.2644808 C21,28.2644808 35.7881747,29.3245498 40.5958918,18 C40.5958918,18 42.9884024,25.1761342 36.1305023,29.5762473 C33.3181202,31.3803855 27.0087007,31.9829897 21,28.2644808"  fill="#b08078"/>
    </g>
    <g id="hair" transform="translate(-23,-40)">
      <path d="M63.809948,24.5651059 C58.9636229,13.0634176 50.0786934,7.55122466 37.1551596,8.02852715 C17.7698589,8.74448089 15.4428937,19.2350632 10.5003712,41.784194 C5.55784868,64.3333248 12.1158129,93.4970496 16.1544172,103.839621 C20.1930215,114.182192 23.423905,146.071786 0,159 C31.904974,149.51931 39.5783222,135.729215 42.0014848,106.425263 C44.4246474,77.121312 41.1937639,57.8440482 53.3095768,47.6259367 C61.3867854,40.8138624 64.8869092,33.1269188 63.809948,24.5651059 Z"  fill="#785643"/>
      <path d="M170.914376,127.398492 C186.971459,110.282881 195,91.2620982 195,70.3361447 C195,38.9472144 167.702959,8.11799322 150.843022,2.93227626 C133.983086,-2.2534407 106.686045,3.74560052 92.2346704,12.0764101 C75.3747335,15.0718758 66.543338,20.5528174 63.3319215,24.223979 C60.1205049,27.8951406 44.0634222,66.6966348 56.9090884,97.0475633 C65.4728658,117.281516 71.6280809,128.265661 75.3747335,130 L68.9519004,111.789443 C66.8109561,97.3366198 66.0081019,86.3524742 66.543338,78.8370062 C75.3747335,76.235498 93.8403787,62.2090332 90.6289621,52.3124626 C102.671774,63.2432194 128.363107,70.3361447 153.251585,70.3361447 C178.140063,70.3361447 176.534355,70.3361447 179.745771,78.8370062 C181.886716,84.5042472 178.942917,100.691409 170.914376,127.398492 Z"  fill="#5A3825"/>
      <path d="M96.2783492,10.0132 C108,3.6175 122.259273,-1 141,1 C159.740727,3 161.538462,8.6165 169.230769,14.8587 C160.926923,5.76341116 130,3.32609077 96.2783492,10.0132 Z"  fill="#502e1b"/>
    </g>
    <g id="facials" transform="scale(1, -1) translate(33,-200)">
      <path d="M112.74691,3.2312854 C112.984788,3.3559564 98.611579,-8.8247372 73.0681423,13.3195279 C64.9249991,20.510012 53.9993502,23.6638514 43.6499698,20.2185515 C33.3324182,16.7715668 19.7231002,17.1708509 12.0992689,35.9961719 C10.0588763,41.0537711 9.40219822,45.5874151 9.73723805,49.5869955 C7.34840405,46.5628814 4.08009049,44.5849929 1.02285202,49.4084128 C-1.43801554,53.2344647 0.594001039,70.1762426 6.55268445,85.4888739 C6.55268445,85.4888739 -2.9696021,122.287036 13.7103559,128 L16.5980769,85.4888739 C22.6022801,85.3439164 24.4695072,52.3947269 43.0508365,50.6845638 C56.7595682,49.4228581 81.8266003,26.9402625 97.3904972,34.8951195 C108.54144,40.5944733 112.181854,77.3897008 115.435673,77.3154362 L118.865097,128 C130.774088,123.919552 121.950454,104.002517 123.938915,92.9388085 C124.587217,92.2143689 125.225468,91.4831904 125.877121,90.7621202 C133.561259,82.2322652 136.462704,70.4019982 131.76377,60.6288027 C131.512491,60.1048476 131.242783,59.5893161 130.954649,59.0805237 C137.635343,44.3727152 145.796914,18.3889203 112.74691,3.2312854 Z"  fill="#5A3825"/>
      <path d="M43,20.6580502 C32.7838979,17.2416355 19.3122424,17.6373785 11.7645995,36.2957453 C10.970198,38.2677813 10.394713,40.1546575 10,41.963053 L10.4212484,43 C10.4212484,43 20.4084833,19.4875191 43,20.6580502"  fill="#785643"/>
      <path d="M112.580532,3.24480752 C112.766071,3.34308145 104.027189,-4.06135069 88,3.18042115 C91.1423545,3.1533111 131.163098,3.59554378 136.32614,43 C138.739832,29.4280317 135.516515,13.7499515 112.580532,3.24480752"  fill="#785643"/>
      <path d="M119.550077,62.0613963 L95.878523,21 L38.6791266,38.5687612 L8,76.300855 C14.6178899,81.2769091 14.8535273,65 14.8535273,85 C14.8535273,105 20.1658316,65.6361772 57.1789842,65.1537437 C81.466976,64.838372 74.7493386,61.038274 90.8762542,69.1106447 C107.00317,77.1830154 105.349798,86.5089897 113.785088,93.4880803 C120.03849,98.661881 121.073535,78.7505261 126,77.0986602 L119.550077,62.0613963 Z"  fill="#5A3825"/>
    </g>
    <g id="eyes" transform="translate(54,37)">
      <path d="M72.4985319,34.539172 C68.1589686,36.3718239 63.9704661,36.4971489 63.1425747,34.818883 C62.3166452,33.140617 65.1632574,30.2944668 69.5028207,28.461815 C73.8443458,26.6291631 78.0308865,26.5020217 78.856816,28.1802877 C79.6847074,29.8585536 76.8380951,32.7047038 72.4985319,34.539172" id="Fill-162" fill="#25110D"/>
      <path d="M15.6566726,34.8621306 C20.0106394,36.4052443 24.1441031,36.3749872 24.8849158,34.7948925 C25.6276626,33.2147979 22.6972941,30.6816036 18.3433274,29.1384899 C13.9874264,27.5953762 9.85589688,27.6239523 9.11508423,29.2057279 C8.37233735,30.7858226 11.3027059,33.3190169 15.6566726,34.8621306" id="Fill-164" fill="#25110D"/>
      <path d="M86.9925005,21.9982478 C87.4300374,21.7248296 68.6214917,9.0610428 57.0092271,9.51542844 C56.8633815,9.72000033 58.2756839,-4.45840529 73.6817807,1.43483878 C88.6115715,7.99294149 86.8577318,22.1811823 86.9925005,21.9982478" id="right-brow" fill="#221124"/>
      <path d="M0.0075591212,21.9982698 C-0.431680598,21.7339541 18.3725778,9.49176379 29.9829017,9.93102225 C30.1268542,10.1287836 29.7134521,-3.28666417 14.3123787,2.41038496 C-0.610698467,8.75015859 0.142283909,22.1751142 0.0075591212,21.9982698" id="left-brow" fill="#221124"/>
    </g>
    <g id="nose" transform="translate(81,67)">
      <path d="M23.1163906,17.5631587 C22.6243566,11.8412686 18.8822073,-0.0210929037 14.405851,2.81672649e-05 C9.94871487,0.0230693356 6.34302816,11.8067068 5.88174628,17.5631587 C2.07617077,18.4195221 -0.566590011,22.1310703 0.104190725,26.1613547 L0.373271822,27.7723163 C0.682715084,29.6348108 2.29527966,31 4.18461336,31 L24.8135235,31 C26.7047792,31 28.3173438,29.6348108 28.628709,27.7703962 L28.8958681,26.1613547 C29.5666489,22.1310703 26.9219661,18.4195221 23.1163906,17.5631587" fill="#b08078"/>
    </g>
  </g>
</svg>
