<!DOCTYPE svg PUBLIC "-//W3C//DTD SVG 1.0//EN" "http://www.w3.org/TR/2001/REC-SVG-20010904/DTD/svg10.dtd">
<svg xmlns:xlink="http://www.w3.org/1999/xlink" xmlns="http://www.w3.org/2000/svg" viewBox="0 0 210 250" width="210" height="250">
  <g transform="translate(0,62)">
    <g id="head">
      <path d="M118.581368,116.698654 L97.8044066,116.698654 L95.3169695,116.698654 L81.2350213,116.698654 C84.1341322,141.012115 71.9532277,156.908269 37.9911094,170.506346 C4.03092385,184.106346 0.473521453,199.940962 0.473521453,199.940962 L91.3683804,199.940962 L97.8044066,199.940962 L199.344801,199.940962 C199.344801,199.940962 194.787399,185.106346 160.827213,171.506346 C126.865095,157.908269 115.682257,141.012115 118.581368,116.698654 Z"  fill="#FCC21C"/>
      <path d="M65.7131813,154.507692 C73.4480093,164.315385 85.4599923,170.623077 98.9601855,170.623077 C112.460379,170.623077 124.474295,164.315385 132.209123,154.507692 C119.820255,143.844231 115.751836,131.180769 117.632393,115.384615 L96.855431,115.384615 L94.3699266,115.384615 L80.2879784,115.384615 C82.1724005,131.180769 78.1020487,143.844231 65.7131813,154.507692"  fill="#e2b2aa"/>
      <path d="M51.3170869,72.1047775 C57.5772338,84.018239 54.9545048,97.6797775 45.4589501,102.620162 C35.9633954,107.560547 23.1899126,101.906701 16.9316984,89.993239 C10.6715515,78.0797775 13.2942806,64.418239 22.7898353,59.4797775 C32.28539,54.5393928 45.0588728,60.1913159 51.3170869,72.1047775"  fill="#e2b2aa"/>
      <path d="M46.229223,94.0730769 C46.1905682,93.5884615 46.1016622,93.1692308 46.0475454,92.7 C46.1190568,93.0403846 46.1635099,93.3211538 46.1886355,93.5461538 C46.1287205,91.1211538 45.775029,89.1384615 45.1546193,87.5807692 C40.2106687,67.4134615 21.2601469,65.3846154 21.2601469,65.3846154 C30.8600696,71.15 36.8534983,77.5096154 40.5643603,82.7807692 C33.7514496,80.0192308 23.2199459,85.8673077 23.2199459,85.8673077 C35.7170468,82.5711538 41.3993042,85.3 44.0085041,88.4673077 C45.7286432,91.8788462 46.229223,94.0730769 46.229223,94.0730769"  fill="#b08078"/>
      <path d="M148.356617,72.1047775 C142.098403,84.018239 144.721132,97.6797775 154.216687,102.620162 C163.712241,107.560547 176.485724,101.906701 182.743938,89.993239 C189.002152,78.0797775 186.381356,64.418239 176.885801,59.4797775 C167.390247,54.5393928 154.616764,60.1913159 148.356617,72.1047775"  fill="#e2b2aa"/>
      <path d="M152.686509,94.0730769 C152.725164,93.5884615 152.816003,93.1692308 152.868187,92.7 C152.796676,93.0403846 152.752223,93.3211538 152.727097,93.5461538 C152.787012,91.1211538 153.140704,89.1384615 153.761113,87.5807692 C158.706997,67.4134615 177.657518,65.3846154 177.657518,65.3846154 C168.055663,71.15 162.064167,77.5096154 158.351372,82.7807692 C165.164283,80.0192308 175.695787,85.8673077 175.695787,85.8673077 C163.200618,82.5711538 157.516428,85.3 154.907228,88.4673077 C153.187089,91.8788462 152.686509,94.0730769 152.686509,94.0730769"  fill="#b08078"/>
      <path d="M81.1035949,0 C59.1109393,0 41.2156939,21.4653846 40.9876305,43.35 L40.5875532,81.4057692 C40.5875532,105.028846 52.5531504,125.615385 70.2589872,136.403846 C78.6374179,141.509615 91.7201392,146.346154 98.5929648,146.346154 C108.51179,146.346154 117.84886,141.717308 126.012756,136.95 C144.219173,126.321154 156.600309,105.432692 156.600309,81.4057692 L156.490143,41.0326923 C156.436026,20.4788462 139.6753,0 119.018168,0 L81.1035949,0 Z"  fill="#ECBCB4"/>
      <path d="M65.3043706,93.7027245 C65.0821054,93.7027245 64.8559748,93.6546476 64.6414406,93.5527245 C63.8838063,93.1873399 63.5668368,92.2815707 63.9321248,91.5277245 L68.7388507,81.6258014 C69.1060714,80.8719553 70.0163923,80.5584938 70.7740266,80.9181091 C71.5335937,81.2834938 71.8505631,82.189263 71.4833424,82.9431091 L66.6785492,92.8450322 C66.4137637,93.3873399 65.8706636,93.7027245 65.3043706,93.7027245"  fill="#e2b2aa"/>
      <path d="M55.6386915,93.7027245 C55.4183591,93.7027245 55.1922285,93.6546476 54.979627,93.5527245 C54.2200599,93.1873399 53.9030905,92.2815707 54.2683784,91.5277245 L59.0751044,81.6258014 C59.4423251,80.8719553 60.3545787,80.5584938 61.1102803,80.9181091 C61.8698473,81.2834938 62.1868168,82.189263 61.8215288,82.9431091 L57.0128701,92.8450322 C56.7500174,93.3873399 56.2069173,93.7027245 55.6386915,93.7027245"  fill="#e2b2aa"/>
      <path d="M133.893887,93.7027245 C133.327594,93.7027245 132.784494,93.3873399 132.519709,92.8450322 L127.714916,82.9431091 C127.345762,82.189263 127.662732,81.2834938 128.424232,80.9181091 C129.183799,80.5584938 130.092187,80.8719553 130.459407,81.6258014 L135.266133,91.5277245 C135.631421,92.2815707 135.314452,93.1873399 134.556818,93.5527245 C134.342283,93.6546476 134.116153,93.7027245 133.893887,93.7027245"  fill="#e2b2aa"/>
      <path d="M143.558304,93.7027245 C142.992011,93.7027245 142.448911,93.3873399 142.184125,92.8450322 L137.377399,82.9431091 C137.010179,82.189263 137.327148,81.2834938 138.088648,80.9181091 C138.846282,80.5584938 139.756603,80.8719553 140.123824,81.6258014 L144.93055,91.5277245 C145.295838,92.2815707 144.978868,93.1873399 144.219301,93.5527245 C144.0067,93.6546476 143.780569,93.7027245 143.558304,93.7027245"  fill="#e2b2aa"/>
    </g>
    <g id="mouth" transform="translate(82,109)">
      <path d="M2,19 C2,19 11.0106312,27.4358719 22,22.7748592 C22,22.7748592 19.090317,30.9882253 9.57207164,28.5464661 C2.03831051,26.6155027 2,19 2,19"  fill="#b08078"/>
      <path d="M0.993530773,0 C0.353255386,1.77843753 0,3.70056833 0,5.71227415 C0,14.7070998 7.01175144,22 15.6628287,22 C23.2228619,22 29.5299424,16.429553 31,9.01721944 L0.993530773,0 Z" id="Fill-174" fill="#230F0B"/>
      <path d="M15.5115413,21 C18.2237791,21 20.7683648,20.2572134 23,18.9704965 C21.5470155,11.5835716 14.9024054,6 6.91471613,6 C4.44091682,6 2.10310197,6.54977905 0,7.50896803 C1.51445695,15.213673 7.88150968,21 15.5115413,21" id="Fill-176" fill="#E8132C"/>
    </g>
    <g id="hair" transform="translate(10,-40)">
      <path d="M163.396558,97.5237625 C164.507334,80.8372354 168.097802,53.7551485 164.09666,43.9272244 C167.221697,42.7293177 169.82068,40.0907912 170.714386,36.8454819 C170.994035,35.8256953 171.119193,34.737401 170.853233,33.7117423 C170.638117,32.88182 170.178553,32.134107 169.658365,31.4490296 C168.398964,29.7872277 166.71911,28.4914528 164.853474,27.5754065 C167.843575,24.2185274 168.398964,18.8807961 166.069853,15.0228318 C165.524242,14.1165724 164.820229,13.2749059 163.895234,12.7640339 C163.144286,12.3471154 162.285781,12.1689953 161.431187,12.0750418 C155.474452,11.4193249 149.304557,15.1246148 147.081048,20.693315 C146.660595,21.7463768 146.208853,22.9325393 145.786445,24.1774228 C141.666012,22.6076169 137.201393,22.0654271 132.55295,22.5782565 C132.066007,22.6037022 131.79418,22.6311053 131.79418,22.6311053 L131.749201,22.6389347 C128.475539,23.1595935 125.250766,22.865989 122.256754,21.9244969 L144.398058,82 L163.396558,97.5237625 Z"  fill="#241C11"/>
      <path d="M32.0462404,129 C32.0462404,129 16.6707375,99.3319474 23.9625082,62.8323586 L47,44 L32.0462404,129 Z"  fill="#241C11"/>
      <path d="M146.953331,129 C146.953331,129 162.330301,99.3319474 155.036831,62.8323586 L132,44 L146.953331,129 Z"  fill="#241C11"/>
      <path d="M149,83 L148.982388,77.0190357 C148.927594,56.0070155 131.957232,39 111.043688,39 L72.6529404,39 C50.3832542,39 32.2680973,57.0136735 32.0352245,79.386255 L32,82.8702355 C50.1719074,74.2448277 93.6486753,55.9264042 121.810631,63.1106394 C131.963103,65.7000313 141.092109,73.3522052 149,83"  fill="#1a1207"/>
      <path d="M118.74615,4.32191409 C96.6842047,-1.8623171 6.99815429,-11.567072 0,57.4969764 C7.80608399,51.2369724 18.2564789,48.1263993 25.8244773,48.1283422 C9.78297476,62.0977491 10.5596801,84.0155349 10.4308797,83.9999917 C71.1387949,42.437606 134.988659,40.6754013 147.425702,69.0902242 C147.093944,69.6653208 159.685157,15.3206363 118.74615,4.32191409"  fill="#241C11"/>
    </g>
    <g id="eyes" transform="translate(53,40)">
      <path d="M76,28 C76,32.4165103 74.4317799,36 72.5,36 C70.5662549,36 69,32.4165103 69,28 C69,23.5834897 70.5662549,20 72.5,20 C74.4317799,20 76,23.5834897 76,28" id="Fill-33" fill="#25110D"/>
      <path d="M87.9922875,18.9978421 C88.4432398,18.7305971 69.0148726,6.29572485 57.018358,6.74246284 C56.8686969,6.94189945 57.2586033,-4.10888277 73.1719051,1.67876748 C88.5929009,8.11658104 87.8544418,19.1773351 87.9922875,18.9978421" id="right-brow" fill="#080603" style="transform: rotate(4deg);"/>
      <path d="M15,28 C15,32.4165103 16.5662549,36 18.4980348,36 C20.4337451,36 22,32.4165103 22,28 C22,23.5834897 20.4337451,20 18.4980348,20 C16.5662549,20 15,23.5834897 15,28" id="Fill-37" fill="#25110D"/>
      <path d="M0.00771254488,18.9978421 C-0.443239827,18.7305971 18.9851274,6.29572485 30.981642,6.74246284 C31.1313031,6.94189945 30.7413967,-4.10888277 14.8280949,1.67876748 C-0.5948701,8.11658104 0.145558248,19.1773351 0.00771254488,18.9978421" id="left-brow" fill="#080603" style="transform: rotate(0deg);"/>
    </g>
    <g id="nose" transform="translate(83,80)">
      <path d="M0.12315031,10.5514804 C0.12315031,10.5514804 15.4621303,18.3106495 30.799224,10.5514804 C30.799224,10.5514804 33.930398,-0.0540264721 15.4621303,0.000207296047 C-2.40631011,0.0507008043 0.12315031,10.5514804 0.12315031,10.5514804" fill="#b08078"/>
    </g>
  </g>
</svg>
