<!DOCTYPE svg PUBLIC "-//W3C//DTD SVG 1.0//EN" "http://www.w3.org/TR/2001/REC-SVG-20010904/DTD/svg10.dtd">
<svg xmlns:xlink="http://www.w3.org/1999/xlink" xmlns="http://www.w3.org/2000/svg" viewBox="0 0 210 250" width="210" height="250">
  <g transform="translate(0,62)">
    <g id="head">
      <path d="M118.658252,113.72549 L97.7825243,113.72549 L95.2854369,113.72549 L81.1378641,113.72549 C84.0504854,138.515686 72.8174757,154.743137 38.6970874,168.607843 C4.57669903,182.47451 -7.10542736e-15,198.6 -7.10542736e-15,198.6 L91.3184466,198.6 L97.7825243,198.6 L199.796117,198.6 C199.796117,198.6 195.219417,183.47451 161.099029,169.607843 C126.980583,155.743137 115.745631,138.515686 118.658252,113.72549 Z" fill="#E3AF18"/>
      <path d="M145.995785,163.42549 C122.232679,150.647059 114.327824,134.962745 116.824912,113.72549 L95.9491834,113.72549 L93.4520961,113.72549 L79.3045232,113.72549 C81.5394747,132.735294 75.4385038,147.292157 57.0967563,159.301961 C56.1550087,169.196078 54.129766,178.772549 65.0385038,183.717647 C78.083164,189.631373 93.3006398,188.588235 107.042387,184.592157 C121.325882,180.439216 134.626853,173.086275 145.995785,163.42549" fill="#FCC21C"/>
      <path d="M141.49581,160.770588 C121.342412,148.482353 114.635616,133.515686 116.959888,113.72549 L96.0841596,113.72549 L93.589014,113.72549 L79.4414412,113.72549 C81.4220237,130.578431 76.8511499,143.933333 63.0103732,155.115686 C62.9909557,155.437255 63.004548,155.735294 62.981247,156.060784 C62.3132858,165.354902 59.5424121,174.643137 69.7695965,179.278431 C81.1793053,184.45098 94.4880431,183.537255 106.505519,180.043137 C119.379305,176.3 131.354063,169.605882 141.49581,160.770588" fill="#b08078"/>
      <path d="M49.6158343,69.597028 C55.9051547,81.7440868 53.2682615,95.6734986 43.7284557,100.710753 C34.1886499,105.748008 21.3575819,99.9833025 15.0682615,87.8362437 C8.77894112,75.6891849 11.4158343,61.7597731 20.9556401,56.724479 C30.495446,51.6872241 43.3265139,57.4499692 49.6158343,69.597028"  fill="#e2b2aa"/>
      <path d="M44.5029126,91.9960784 C44.4660194,91.5019608 44.3728155,91.0745098 44.3223301,90.5960784 C44.392233,90.9431373 44.4368932,91.2294118 44.4621359,91.4588235 C44.4019417,88.9862745 44.0466019,86.9647059 43.423301,85.3764706 C38.4563107,64.8137255 19.4174757,62.745098 19.4174757,62.745098 C29.0621359,68.6235294 35.0834951,75.1078431 38.8135922,80.4823529 C31.9669903,77.6666667 21.3864078,83.6294118 21.3864078,83.6294118 C33.9398058,80.2686275 39.6504854,83.0509804 42.2718447,86.2803922 C44.0019417,89.7588235 44.5029126,91.9960784 44.5029126,91.9960784" fill="#b08078"/>
      <path d="M147.10624,69.597028 C140.818861,81.7440868 143.453813,95.6734986 152.993619,100.710753 C162.531483,105.748008 175.364492,99.9833025 181.653813,87.8362437 C187.941192,75.6891849 185.308182,61.7597731 175.768376,56.724479 C166.22857,51.6872241 153.39556,57.4499692 147.10624,69.597028"  fill="#e2b2aa"/>
      <path d="M153.398058,91.9960784 C153.434951,91.5019608 153.526214,91.0745098 153.578641,90.5960784 C153.508738,90.9431373 153.462136,91.2294118 153.438835,91.4588235 C153.499029,88.9862745 153.854369,86.9647059 154.47767,85.3764706 C159.44466,64.8137255 178.483495,62.745098 178.483495,62.745098 C168.836893,68.6235294 162.817476,75.1078431 159.08932,80.4823529 C165.932039,77.6666667 176.514563,83.6294118 176.514563,83.6294118 C163.959223,80.2686275 158.250485,83.0509804 155.627184,86.2803922 C153.900971,89.7588235 153.398058,91.9960784 153.398058,91.9960784" fill="#b08078"/>
      <path d="M81.4815534,0 C59.384466,0 41.407767,17.9647059 41.176699,40.2784314 L40.776699,79.0803922 C40.776699,114.564706 62.6951456,143.333333 99.0524272,143.333333 C136.254369,143.333333 157.328155,114.564706 157.328155,79.0803922 L157.219417,37.9156863 C157.165049,16.9588235 140.326214,0 119.570874,0 L81.4815534,0 Z"  fill="#ecbcb4"/>
      <path d="M63.6661921,91.6184642 C63.4428911,91.6184642 63.2176484,91.5694446 63.0021144,91.465523 C62.2390076,91.092974 61.920561,90.1694446 62.2894931,89.4008172 L67.1186193,79.3047387 C67.4875513,78.5361113 68.4021144,78.2165034 69.1632795,78.5831701 C69.9263863,78.9557191 70.2428911,79.8792485 69.8759008,80.647876 L65.0467746,90.7439544 C64.7826969,91.2968956 64.2351241,91.6184642 63.6661921,91.6184642"  fill="#e2b2aa"/>
      <path d="M53.9562745,91.6184642 C53.7329735,91.6184642 53.505789,91.5694446 53.2921968,91.465523 C52.5310318,91.092974 52.2125852,90.1694446 52.5795755,89.4008172 L57.4087017,79.3047387 C57.775692,78.5361113 58.6921968,78.2165034 59.4533619,78.5831701 C60.2164687,78.9557191 60.5349153,79.8792485 60.1659832,80.647876 L55.336857,90.7439544 C55.0727793,91.2968956 54.5271483,91.6184642 53.9562745,91.6184642"  fill="#e2b2aa"/>
      <path d="M132.576872,91.6184642 C132.005998,91.6184642 131.460367,91.2968956 131.196289,90.7439544 L126.367163,80.647876 C125.998231,79.8792485 126.316678,78.9557191 127.079784,78.5831701 C127.842891,78.2165034 128.757454,78.5361113 129.124445,79.3047387 L133.953571,89.4008172 C134.322503,90.1694446 134.002114,91.092974 133.240949,91.465523 C133.025415,91.5694446 132.798231,91.6184642 132.576872,91.6184642"  fill="#e2b2aa"/>
      <path d="M142.28561,91.6184642 C141.714736,91.6184642 141.171046,91.2968956 140.905027,90.7439544 L136.075901,80.647876 C135.706969,79.8792485 136.025415,78.9557191 136.788522,78.5831701 C137.551629,78.2165034 138.46425,78.5361113 138.833182,79.3047387 L143.662309,89.4008172 C144.029299,90.1694446 143.710852,91.092974 142.949687,91.465523 C142.734153,91.5694446 142.506969,91.6184642 142.28561,91.6184642"  fill="#e2b2aa"/>
    </g>
    <g id="mouth" transform="translate(82,114)">
      <path d="M2.66445009,4.42825488 C1.90763062,3.93461039 1.22343524,3.43905994 0.627153239,2.96066315 C-0.093354183,2.3869682 -0.20993496,1.34250032 0.365324282,0.625858125 C0.940583524,-0.0888781077 1.97069891,-0.212765721 2.70840678,0.364741155 C3.27793254,0.814548491 16.6331205,11.2382617 26.154521,1.75800032 C26.8081378,1.10806684 27.8573648,1.11187876 28.5128928,1.75990628 C29.1626873,2.4079338 29.1626873,3.4619315 28.5109816,4.10995902 C20.1974344,12.3894635 8.94834506,8.52035806 2.66445009,4.42825488" fill="#b08078"/>
    </g>
    <g id="hair" transform="translate(32,-23)">
      <path d="M27,15.1557718 C61,-5.90945647 75.3008584,2.29796764 105,17.0341829 C134.699142,31.7703983 128.823558,73.440159 128,78 C127.176442,82.559841 128.952877,101.312942 119.815385,86 C110.677892,70.687058 119.589134,40.7107021 110,34 C100.410866,27.2892979 83.5077259,39.6201259 65,38.3776 C46.4922741,37.1350741 41.483916,22.5162269 22,38.0293 C2.51608404,53.5423731 12.1889559,87.8343639 9.99807692,91.4313725 C7.8071979,95.0283812 8,104 4,78 C5.80424597e-13,52 -7,36.221 27,15.1557718 Z" fill="#aa8866"/>
      <path d="M27,15.1557718 C61,-5.90945647 81,-1.9316341 105,16.0341829 C129,34 103.589134,19.8636161 94,13.152914 C84.4108663,6.4422119 84.5077259,6.89682592 66,5.6543 C47.4922741,4.41177408 46.483916,9.48692687 27,25 C7.51608404,40.5130731 -7,36.221 27,15.1557718 Z"  fill="#a07e5c"/>
    </g>
    <g id="facial" transform="translate(46,92)">
      <circle cx="0.5" cy="3.5" r="1" fill="#9a3300"/>
      <circle cx="2.5" cy="13.5" r="1" fill="#902900"/>
      <circle cx="13.5" cy="13.5" r="1" fill="#9a3300"/>
      <circle cx="15.5" cy="28.5" r="1" fill="#902900"/>
      <circle cx="26.5" cy="25.5" r="1" fill="#9a3300"/>
      <circle cx="28.5" cy="41.5" r="1" fill="#9a3300"/>
      <circle cx="52.5" cy="45.5" r="1" fill="#902900"/>
      <circle cx="77.5" cy="35.5" r="1" fill="#902900"/>
      <circle cx="85.5" cy="19.5" r="1" fill="#9a3300"/>
      <circle cx="88.5" cy="31.5" r="1" fill="#902900"/>
      <circle cx="99.5" cy="15.5" r="1" fill="#9a3300"/>
      <circle cx="106.5" cy="0.5" r="1" fill="#902900"/>
      <circle cx="66.5" cy="44.5" r="1" fill="#9a3300"/>
      <circle cx="42.5" cy="43.5" r="1" fill="#9a3300"/>
    </g>
    <g id="eyes" transform="translate(40,37)">
      <path d="M58,16.8411896 C82.2468518,12.2009041 92.8578003,11.1696351 116.820669,12.5941074 C116.820669,16.8411896 117.537994,19.6725776 116.103343,20.3804247 C109.647416,23.9196598 111.799392,37.3687532 106.778116,40.2001413 C97.963954,45.6765686 88.4283644,47.6785223 78.0851064,44.4476593 C62.3039514,40.2001413 66.2492401,23.2118127 58,23.9196598 C58,22.5039657 58,18.9647306 58,16.8411896 Z M69.4772036,18.2568836 C63.0212766,22.5039657 67.325228,32.9470393 73.0638298,39.4922942 C81.258267,44.6536742 95.8305062,44.9804386 103.191489,39.4922942 C111.970324,32.9470393 110.364742,17.5490366 105.343465,15.4254955 C96.7355623,13.3019545 78.0534577,11.862667 69.4772036,18.2568836 Z" id="Combined-Shape" fill="#000000"/>
      <path d="M59,16.8411896 C59,18.9647306 59,22.5039657 59,23.9196598 C50.7507599,23.2118127 54.6960486,40.2001413 38.9148936,44.4476593 C28.5716356,47.6785223 19.036046,45.6765686 10.2218845,40.2001413 C5.2006079,37.3687532 7.35258359,23.9196598 0.896656535,20.3804247 C-0.537993921,19.6725776 0.179331307,16.8411896 0.179331307,12.5941074 C24.1421997,11.1696351 34.7531482,12.2009041 59,16.8411896 Z M47.5227964,18.2568836 C38.9465423,11.862667 20.2644377,13.3019545 11.656535,15.4254955 C6.63525836,17.5490366 5.02967613,32.9470393 13.8085106,39.4922942 C21.1694938,44.9804386 35.741733,44.6536742 43.9361702,39.4922942 C49.674772,32.9470393 53.9787234,22.5039657 47.5227964,18.2568836 Z" id="Combined-Shape" fill="#000000"/>
      <path d="M69.4772036,18.2568836 C78.0534577,11.862667 96.7355623,13.3019545 105.343465,15.4254955 C110.364742,17.5490366 111.970324,32.9470393 103.191489,39.4922942 C95.8305062,44.9804386 81.258267,44.6536742 73.0638298,39.4922942 C67.325228,32.9470393 63.0212766,22.5039657 69.4772036,18.2568836 Z" id="Path-3" fill-opacity="0.7" fill="#000000"/>
      <path d="M47.5227964,18.2568836 C53.9787234,22.5039657 49.674772,32.9470393 43.9361702,39.4922942 C35.741733,44.6536742 21.1694938,44.9804386 13.8085106,39.4922942 C5.02967613,32.9470393 6.63525836,17.5490366 11.656535,15.4254955 C20.2644377,13.3019545 38.9465423,11.862667 47.5227964,18.2568836 Z" id="Path-3" fill-opacity="0.7" fill="#000000"/>
      <path d="M90,28 C90,32.4165103 88.4317799,36 86.5,36 C84.5662549,36 83,32.4165103 83,28 C83,23.5834897 84.5662549,20 86.5,20 C88.4317799,20 90,23.5834897 90,28" id="Fill-33" fill="#25110D"/>
      <path d="M101.992287,18.9978421 C102.44324,18.7305971 83.0148726,6.29572485 71.018358,6.74246284 C70.8686969,6.94189945 71.2586033,-4.10888277 87.1719051,1.67876748 C102.592901,8.11658104 101.854442,19.1773351 101.992287,18.9978421" id="right-brow" fill="#080603" transform="translate(0, 0) rotate(1.6829761011069797) translate(0, 0) "/>
      <path d="M29,28 C29,32.4165103 30.5662549,36 32.4980348,36 C34.4337451,36 36,32.4165103 36,28 C36,23.5834897 34.4337451,20 32.4980348,20 C30.5662549,20 29,23.5834897 29,28" id="Fill-37" fill="#25110D"/>
      <path d="M14.0077125,18.9978421 C13.5567602,18.7305971 32.9851274,6.29572485 44.981642,6.74246284 C45.1313031,6.94189945 44.7413967,-4.10888277 28.8280949,1.67876748 C13.4051299,8.11658104 14.1455582,19.1773351 14.0077125,18.9978421" id="left-brow" fill="#080603" transform="translate(0, 0) rotate(-0.49802982979898935) translate(0, 0) "/>
    </g>
    <g id="nose" transform="translate(90,65)" fill="#b08078">
      <path d="M17,12.1922593 C17,17.6077575 13.195549,22 8.5,22 C3.80637144,22 0,17.6077575 0,12.1922593 C0,6.77306691 3.80637144,0 8.5,0 C13.195549,0 17,6.77306691 17,12.1922593" id="Fill-111"/>
    </g>
  </g>
</svg>
