<!DOCTYPE svg PUBLIC "-//W3C//DTD SVG 1.0//EN" "http://www.w3.org/TR/2001/REC-SVG-20010904/DTD/svg10.dtd">
<svg xmlns:xlink="http://www.w3.org/1999/xlink" xmlns="http://www.w3.org/2000/svg" viewBox="0 0 210 257" width="210" height="257">
  <g transform="translate(0,59)">
    <g id="head">
      <path d="M161.099029,169.607843 C126.978641,155.743137 115.743689,138.515686 118.656311,113.72549 L97.7825243,113.72549 L95.2834951,113.72549 L81.1378641,113.72549 C84.0504854,138.515686 72.815534,155.743137 38.6951456,169.607843 C4.57669903,183.47451 0,198.6 0,198.6 L91.3184466,198.6 L97.7825243,198.6 L199.796117,198.6 C199.796117,198.6 195.217476,183.47451 161.099029,169.607843"  fill="#FCC21C"/>
      <path d="M99.584466,181.931373 C121.518447,181.931373 141.163107,176.1 154.51068,166.9 C125.287379,153.503922 115.617476,136.927451 118.343689,113.72549 L97.4699029,113.72549 L94.9728155,113.72549 L80.8252427,113.72549 C83.5514563,136.927451 73.8815534,153.503922 44.6601942,166.9 C58.0058252,176.1 77.6504854,181.931373 99.584466,181.931373" id="shirt-tone" fill="#E3AF18"/>
      <path d="M52.4271845,162.686275 C63.5592233,170.666667 80.2873786,175.745098 98.9961165,175.745098 C117.706796,175.745098 134.431068,170.666667 145.565049,162.686275 C122.856311,150.043137 115.308738,134.554902 117.75534,113.72549 L96.8815534,113.72549 L94.3825243,113.72549 L80.2368932,113.72549 C82.6834951,134.554902 75.1378641,150.043137 52.4271845,162.686275"  fill="#e2b2aa"/>
      <path d="M49.4067897,71.4772942 C55.6611586,83.5576864 53.0397994,97.4125883 43.5524208,102.420431 C34.0650421,107.428275 21.3038771,101.696902 15.0495081,89.6165099 C8.79513921,77.5361177 11.4164984,63.6831766 20.9038771,58.6753334 C30.3931975,53.6655295 43.1524208,59.396902 49.4067897,71.4772942"  fill="#e2b2aa"/>
      <path d="M44.3669903,93.7980392 C44.3300971,93.3078431 44.238835,92.8803922 44.1864078,92.4058824 C44.2563107,92.7490196 44.3009709,93.0352941 44.3262136,93.2647059 C44.2660194,90.8058824 43.9126214,88.7921569 43.2932039,87.2137255 C38.3514563,66.7647059 19.4174757,64.7058824 19.4174757,64.7058824 C29.0097087,70.5529412 34.9980583,77.0019608 38.7067961,82.3470588 C31.9009709,79.5470588 21.376699,85.4764706 21.376699,85.4764706 C33.8621359,82.1352941 39.5417476,84.9019608 42.1475728,88.1137255 C43.8679612,91.572549 44.3669903,93.7980392 44.3669903,93.7980392"  fill="#b08078"/>
      <path d="M145.146596,71.4772942 C138.892227,83.5576864 141.513586,97.4125883 151.000964,102.420431 C160.488343,107.428275 173.249508,101.696902 179.503877,89.6165099 C185.758246,77.5361177 183.136887,63.6831766 173.649508,58.6753334 C164.162129,53.6655295 151.400964,59.396902 145.146596,71.4772942"  fill="#e2b2aa"/>
      <path d="M151.456311,93.7980392 C151.493204,93.3078431 151.584466,92.8803922 151.636893,92.4058824 C151.565049,92.7490196 151.52233,93.0352941 151.497087,93.2647059 C151.557282,90.8058824 151.91068,88.7921569 152.530097,87.2137255 C157.471845,66.7647059 176.403883,64.7058824 176.403883,64.7058824 C166.81165,70.5529412 160.825243,77.0019608 157.116505,82.3470588 C163.92233,79.5470588 174.446602,85.4764706 174.446602,85.4764706 C161.961165,82.1352941 156.281553,84.9019608 153.675728,88.1137255 C151.95534,91.572549 151.456311,93.7980392 151.456311,93.7980392"  fill="#b08078"/>
      <path d="M154.295146,80.8411765 L153.926214,0 L40.776699,0 C40.0349515,49.7176471 39.3877023,78.3281046 38.8349515,85.8313725 C39.6601942,113.788235 47.184466,139.733333 84.2854369,144.617647 C86.5184466,149.156863 92.5631068,152.417647 99.6912621,152.417647 C107.126214,152.417647 113.38835,148.872549 115.368932,144.02549 C148.8,138.14902 155.526214,114.723529 156.438835,89.3254902 L154.295146,80.8411765 Z"  fill="#ecbcb4"/>
      <path d="M69.5560979,93.5384935 C69.3230881,93.5384935 69.0861949,93.4894739 68.8648357,93.3855523 C68.0687192,93.0149641 67.7366804,92.0933954 68.1211464,91.3267288 L73.1560979,81.2620229 C73.5386221,80.4953562 74.4920202,80.1777092 75.2861949,80.5443758 C76.0803697,80.9149641 76.4124085,81.8365327 76.0279425,82.6012386 L70.9949328,92.6659444 C70.7192046,93.2169248 70.1502726,93.5384935 69.5560979,93.5384935"  fill="#e2b2aa"/>
      <path d="M59.8480789,93.5376387 C59.6150692,93.5376387 59.378176,93.4886191 59.1568167,93.3846975 C58.3607002,93.0141093 58.0286614,92.0925406 58.4111857,91.325874 L63.4461371,81.2611681 C63.8306032,80.4945014 64.785943,80.1788151 65.578176,80.543521 C66.3723507,80.9141093 66.7063313,81.8356779 66.3218653,82.6003838 L61.2869138,92.6670504 C61.0111857,93.2180308 60.4422536,93.5376387 59.8480789,93.5376387"  fill="#e2b2aa"/>
      <path d="M130.904433,93.5376387 C130.310258,93.5376387 129.741326,93.21607 129.465598,92.6670504 L124.430647,82.6003838 C124.048122,81.8356779 124.380161,80.9141093 125.174336,80.543521 C125.972394,80.1788151 126.92385,80.4945014 127.306375,81.2611681 L132.339384,91.3278347 C132.72385,92.0945014 132.391812,93.0141093 131.595695,93.3846975 C131.374336,93.4886191 131.137443,93.5376387 130.904433,93.5376387"  fill="#e2b2aa"/>
      <path d="M138.671423,93.5376387 C138.077248,93.5376387 137.508316,93.21607 137.232588,92.6650896 L132.197637,82.6003838 C131.815113,81.8356779 132.147151,80.9141093 132.941326,80.543521 C133.737443,80.1788151 134.690841,80.4945014 135.073365,81.2611681 L140.106375,91.325874 C140.490841,92.0925406 140.158802,93.0141093 139.362685,93.3846975 C139.141326,93.4886191 138.904433,93.5376387 138.671423,93.5376387"  fill="#e2b2aa"/>
    </g>
    <g id="mouth" transform="translate(81,105)">
      <path d="M2.66445009,4.42825488 C1.90763062,3.93461039 1.22343524,3.43905994 0.627153239,2.96066315 C-0.093354183,2.3869682 -0.20993496,1.34250032 0.365324282,0.625858125 C0.940583524,-0.0888781077 1.97069891,-0.212765721 2.70840678,0.364741155 C3.27793254,0.814548491 16.6331205,11.2382617 26.154521,1.75800032 C26.8081378,1.10806684 27.8573648,1.11187876 28.5128928,1.75990628 C29.1626873,2.4079338 29.1626873,3.4619315 28.5109816,4.10995902 C20.1974344,12.3894635 8.94834506,8.52035806 2.66445009,4.42825488"  fill="#b08078"/>
    </g>
    <g id="hair" transform="translate(18,-60)">
      <path d="M149.997446,52.3500386 C149.819834,52.0582817 149.625571,51.7757577 149.442409,51.487694 C149.399856,51.4156781 149.362854,51.3344293 149.318451,51.26426 C149.022431,50.7841538 148.719011,50.3317461 148.413741,49.884878 C144.082602,43.4200637 138.66174,37.6975674 132.387972,32.9648285 C135.768147,30.604922 137.953143,24.8177961 134.848636,11.5982572 L127.26313,24.6276001 C125.483311,8.54404333 115.475994,0 115.475994,0 L115.475994,23.4790385 C107.122686,20.1810784 97.9830767,18.3492886 88.3938871,18.3492886 C40.5274942,19.6086441 22.5905478,34.2389564 16.2871773,48.1860408 C13.3843337,52.9464781 11.5841636,58.6320432 11.6896206,65.440318 C11.6896206,65.440318 -11.1335017,86.9620006 7.00140792,121.20465 L7.43063655,122.004212 C12.9514048,132.324648 15.6988381,143.843503 15.8190961,155.541474 C15.893101,162.600882 35.4170904,173.17358 29.229223,157.803922 C19.6029766,133.893888 22.2223791,98.9588335 28.229223,75.1316 C36.5496797,42.1270026 90.3604269,38.2456921 91.9579777,36.6582 C95.4990316,33.1394416 115.459452,60.2743928 124.26313,62 C127.260744,62.587383 134.518748,83.0178 131.848636,110.745098 C130.656463,123.124998 135.374864,140.184087 130.686509,152.407341 C123.310049,171.638897 147.250013,145.701144 149.512714,140.490146 C161.333152,113.268126 162.805851,74.521711 149.958594,52.423901 C149.971545,52.3980492 149.997446,52.3500386 149.997446,52.3500386 Z"  fill="#4f1a00"/>
      <path d="M132.372981,32.9036545 C135.756523,30.5481274 137.943695,24.7717408 134.836096,11.5767339 L127.243035,24.5818979 C125.461444,8.52818785 115.44416,0 115.44416,0 L115.44416,23.4354676 C107.082534,20.1436276 97.9338214,18.3152372 88.3350816,18.3152372 C-3.57243549,20.7279016 14.7268406,72.241695 14.0768006,73.8489091 C18.6956038,82.989018 22.4310192,90.9587358 22.4254633,89.9063054 C22.4254633,89.9063054 22.2569344,75.8229072 43.5638034,74.6156535 C63.4594742,73.4894977 84.2681643,62.1855478 91.8871524,57.426572 L77.5010805,75.0008688 C77.5010805,75.0008688 100.867336,81.5034508 107.297362,58.7610021 L108.03074,75.8689856 C108.03074,75.8689856 123.81875,73.3217724 116.968328,58.2172772 C124.705842,60.2576281 132.012989,87.3388177 136.600309,89.9063054 C137.955948,90.6656772 137.804798,67.0071903 138.888198,68.0356599 C143.362548,64.4138986 150.007402,52.2639496 149.999994,52.2528908 C145.43675,44.7826627 139.441936,38.2211004 132.372981,32.9036545 Z"  fill="#4f1a00"/>
      <path d="M149.827527,52.6055814 C149.840667,52.5795349 149.866948,52.5311628 149.866948,52.5311628 C149.686739,52.2372093 149.489635,51.9525581 149.303795,51.6623256 C149.26062,51.5897674 149.223077,51.507907 149.178024,51.4372093 C148.877677,50.9534884 148.56982,50.4976744 148.260086,50.0474419 C143.86562,43.5339535 138.365499,37.7683721 132,33 C132,33 156.590987,63.7572093 158.751615,101 C159.889183,82.9293023 157.154139,65.1190698 149.827527,52.6055814"  fill="#6d381e"/>
      <path d="M116,24.1359616 C107.607042,20.8321591 98.4221902,19 88.7874834,19 C32.3529733,20.4808874 17.3200051,40.3924449 14,56 C35.189663,17.4433118 116,24.1359616 116,24.1359616"  fill="#6d381e"/>
    </g>
    <g id="facial" transform="scale(1, -1) translate(30,-196)">
      <path d="M112.74691,3.2312854 C112.984788,3.3559564 98.611579,-8.8247372 73.0681423,13.3195279 C64.9249991,20.510012 53.9993502,23.6638514 43.6499698,20.2185515 C33.3324182,16.7715668 19.7231002,17.1708509 12.0992689,35.9961719 C10.0588763,41.0537711 9.40219822,45.5874151 9.73723805,49.5869955 C7.34840405,46.5628814 4.08009049,44.5849929 1.02285202,49.4084128 C-1.43801554,53.2344647 0.594001039,70.1762426 6.55268445,85.4888739 C6.55268445,85.4888739 -2.9696021,122.287036 13.7103559,128 L16.5980769,85.4888739 C22.6022801,85.3439164 24.4695072,52.3947269 43.0508365,50.6845638 C56.7595682,49.4228581 81.8266003,26.9402625 97.3904972,34.8951195 C108.54144,40.5944733 112.181854,77.3897008 115.435673,77.3154362 L118.865097,128 C130.774088,123.919552 121.950454,104.002517 123.938915,92.9388085 C124.587217,92.2143689 125.225468,91.4831904 125.877121,90.7621202 C133.561259,82.2322652 136.462704,70.4019982 131.76377,60.6288027 C131.512491,60.1048476 131.242783,59.5893161 130.954649,59.0805237 C137.635343,44.3727152 145.796914,18.3889203 112.74691,3.2312854 Z"  fill="#4f1a00"/>
      <path d="M43,20.6580502 C32.7838979,17.2416355 19.3122424,17.6373785 11.7645995,36.2957453 C10.970198,38.2677813 10.394713,40.1546575 10,41.963053 L10.4212484,43 C10.4212484,43 20.4084833,19.4875191 43,20.6580502"  fill="#6d381e"/>
      <path d="M112.580532,3.24480752 C112.766071,3.34308145 104.027189,-4.06135069 88,3.18042115 C91.1423545,3.1533111 131.163098,3.59554378 136.32614,43 C138.739832,29.4280317 135.516515,13.7499515 112.580532,3.24480752"  fill="#6d381e"/>
      <path d="M44.3764968,69.1960853 C47.5188513,69.1689752 87.5365334,68.7781369 92.6995753,108.182593 C95.1132679,94.6106248 94.5057817,76.5073508 71.5697987,66.0022068 C71.7553376,66.1004808 60.4036854,61.9543134 44.3764968,69.1960853 Z"  fill="#4f1a00" transform="translate(69.013574, 86.545775) rotate(140.000000) translate(-69.013574, -86.545775) "/>
      <path d="M44.0880225,67.5705375 C47.2303769,67.5434275 87.2511203,67.9856601 92.4141622,107.390116 C94.8278547,93.8181481 91.6045378,78.1400679 68.6685549,67.6349239 C68.8540938,67.7331978 60.115211,60.3287657 44.0880225,67.5705375 Z"  fill="#6d381e" transform="translate(68.588022, 85.890116) rotate(140.000000) translate(-68.588022, -85.890116) "/>
      <path d="M119.550077,62.0613963 L95.878523,21 L38.6791266,38.5687612 L8,76.300855 C14.6178899,81.2769091 14.8535273,65 14.8535273,85 C14.8535273,105 20.1658316,65.6361772 57.1789842,65.1537437 C81.466976,64.838372 74.7493386,61.038274 90.8762542,69.1106447 C107.00317,77.1830154 105.349798,86.5089897 113.785088,93.4880803 C120.03849,98.661881 121.073535,78.7505261 126,77.0986602 L119.550077,62.0613963 Z"  fill="#4f1a00"/>
    </g>
    <g id="eyes" transform="translate(52,30)">
      <path d="M72.4985319,34.539172 C68.1589686,36.3718239 63.9704661,36.4971489 63.1425747,34.818883 C62.3166452,33.140617 65.1632574,30.2944668 69.5028207,28.461815 C73.8443458,26.6291631 78.0308865,26.5020217 78.856816,28.1802877 C79.6847074,29.8585536 76.8380951,32.7047038 72.4985319,34.539172" id="Fill-162" fill="#25110D"/>
      <path d="M15.6566726,34.8621306 C20.0106394,36.4052443 24.1441031,36.3749872 24.8849158,34.7948925 C25.6276626,33.2147979 22.6972941,30.6816036 18.3433274,29.1384899 C13.9874264,27.5953762 9.85589688,27.6239523 9.11508423,29.2057279 C8.37233735,30.7858226 11.3027059,33.3190169 15.6566726,34.8621306" id="Fill-164" fill="#25110D"/>
      <path d="M86.9925005,21.9982478 C87.4300374,21.7248296 68.6214917,9.0610428 57.0092271,9.51542844 C56.8633815,9.72000033 58.2756839,-4.45840529 73.6817807,1.43483878 C88.6115715,7.99294149 86.8577318,22.1811823 86.9925005,21.9982478" id="right-brow" fill="#221124"/>
      <path d="M0.0075591212,21.9982698 C-0.431680598,21.7339541 18.3725778,9.49176379 29.9829017,9.93102225 C30.1268542,10.1287836 29.7134521,-3.28666417 14.3123787,2.41038496 C-0.610698467,8.75015859 0.142283909,22.1751142 0.0075591212,21.9982698" id="left-brow" fill="#221124"/>
    </g>
    <g id="nose" transform="translate(87,65)">
      <path d="M17,20.0691977 C17,25.5545166 13.195549,30 8.5,30 C3.80445097,30 0,25.5545166 0,20.0691977 C0,14.5838788 3.80445097,0 8.5,0 C13.195549,0 17,14.5838788 17,20.0691977" fill="#b08078"/>
    </g>
  </g>
</svg>
