<!DOCTYPE svg PUBLIC "-//W3C//DTD SVG 1.0//EN" "http://www.w3.org/TR/2001/REC-SVG-20010904/DTD/svg10.dtd">
<svg xmlns:xlink="http://www.w3.org/1999/xlink" xmlns="http://www.w3.org/2000/svg" viewBox="0 0 210 250" width="210" height="250">
  <g transform="translate(0,57)">
    <g id="head">
      <path d="M118.658252,113.72549 L97.7825243,113.72549 L95.2854369,113.72549 L81.1378641,113.72549 C84.0504854,138.515686 72.8174757,154.743137 38.6970874,168.607843 C4.57669903,182.47451 -7.10542736e-15,198.6 -7.10542736e-15,198.6 L91.3184466,198.6 L97.7825243,198.6 L199.796117,198.6 C199.796117,198.6 195.219417,183.47451 161.099029,169.607843 C126.980583,155.743137 115.745631,138.515686 118.658252,113.72549 Z" id="shirt-tone" fill="#E3AF18"/>
      <path d="M145.995785,163.42549 C122.232679,150.647059 114.327824,134.962745 116.824912,113.72549 L95.9491834,113.72549 L93.4520961,113.72549 L79.3045232,113.72549 C81.5394747,132.735294 75.4385038,147.292157 57.0967563,159.301961 C56.1550087,169.196078 54.129766,178.772549 65.0385038,183.717647 C78.083164,189.631373 93.3006398,188.588235 107.042387,184.592157 C121.325882,180.439216 134.626853,173.086275 145.995785,163.42549"  fill="#FCC21C"/>
      <path d="M141.49581,160.770588 C121.342412,148.482353 114.635616,133.515686 116.959888,113.72549 L96.0841596,113.72549 L93.589014,113.72549 L79.4414412,113.72549 C81.4220237,130.578431 76.8511499,143.933333 63.0103732,155.115686 C62.9909557,155.437255 63.004548,155.735294 62.981247,156.060784 C62.3132858,165.354902 59.5424121,174.643137 69.7695965,179.278431 C81.1793053,184.45098 94.4880431,183.537255 106.505519,180.043137 C119.379305,176.3 131.354063,169.605882 141.49581,160.770588"  fill="#b08078"/>
      <path d="M49.6158343,69.597028 C55.9051547,81.7440868 53.2682615,95.6734986 43.7284557,100.710753 C34.1886499,105.748008 21.3575819,99.9833025 15.0682615,87.8362437 C8.77894112,75.6891849 11.4158343,61.7597731 20.9556401,56.724479 C30.495446,51.6872241 43.3265139,57.4499692 49.6158343,69.597028"  fill="#e2b2aa"/>
      <path d="M44.5029126,91.9960784 C44.4660194,91.5019608 44.3728155,91.0745098 44.3223301,90.5960784 C44.392233,90.9431373 44.4368932,91.2294118 44.4621359,91.4588235 C44.4019417,88.9862745 44.0466019,86.9647059 43.423301,85.3764706 C38.4563107,64.8137255 19.4174757,62.745098 19.4174757,62.745098 C29.0621359,68.6235294 35.0834951,75.1078431 38.8135922,80.4823529 C31.9669903,77.6666667 21.3864078,83.6294118 21.3864078,83.6294118 C33.9398058,80.2686275 39.6504854,83.0509804 42.2718447,86.2803922 C44.0019417,89.7588235 44.5029126,91.9960784 44.5029126,91.9960784"  fill="#b08078"/>
      <path d="M147.10624,69.597028 C140.818861,81.7440868 143.453813,95.6734986 152.993619,100.710753 C162.531483,105.748008 175.364492,99.9833025 181.653813,87.8362437 C187.941192,75.6891849 185.308182,61.7597731 175.768376,56.724479 C166.22857,51.6872241 153.39556,57.4499692 147.10624,69.597028"  fill="#e2b2aa"/>
      <path d="M153.398058,91.9960784 C153.434951,91.5019608 153.526214,91.0745098 153.578641,90.5960784 C153.508738,90.9431373 153.462136,91.2294118 153.438835,91.4588235 C153.499029,88.9862745 153.854369,86.9647059 154.47767,85.3764706 C159.44466,64.8137255 178.483495,62.745098 178.483495,62.745098 C168.836893,68.6235294 162.817476,75.1078431 159.08932,80.4823529 C165.932039,77.6666667 176.514563,83.6294118 176.514563,83.6294118 C163.959223,80.2686275 158.250485,83.0509804 155.627184,86.2803922 C153.900971,89.7588235 153.398058,91.9960784 153.398058,91.9960784"  fill="#b08078"/>
      <path d="M81.4815534,0 C59.384466,0 41.407767,17.9647059 41.176699,40.2784314 L40.776699,79.0803922 C40.776699,114.564706 62.6951456,143.333333 99.0524272,143.333333 C136.254369,143.333333 157.328155,114.564706 157.328155,79.0803922 L157.219417,37.9156863 C157.165049,16.9588235 140.326214,0 119.570874,0 L81.4815534,0 Z"  fill="#ecbcb4"/>
      <path d="M63.6661921,91.6184642 C63.4428911,91.6184642 63.2176484,91.5694446 63.0021144,91.465523 C62.2390076,91.092974 61.920561,90.1694446 62.2894931,89.4008172 L67.1186193,79.3047387 C67.4875513,78.5361113 68.4021144,78.2165034 69.1632795,78.5831701 C69.9263863,78.9557191 70.2428911,79.8792485 69.8759008,80.647876 L65.0467746,90.7439544 C64.7826969,91.2968956 64.2351241,91.6184642 63.6661921,91.6184642"  fill="#e2b2aa"/>
      <path d="M53.9562745,91.6184642 C53.7329735,91.6184642 53.505789,91.5694446 53.2921968,91.465523 C52.5310318,91.092974 52.2125852,90.1694446 52.5795755,89.4008172 L57.4087017,79.3047387 C57.775692,78.5361113 58.6921968,78.2165034 59.4533619,78.5831701 C60.2164687,78.9557191 60.5349153,79.8792485 60.1659832,80.647876 L55.336857,90.7439544 C55.0727793,91.2968956 54.5271483,91.6184642 53.9562745,91.6184642"  fill="#e2b2aa"/>
      <path d="M132.576872,91.6184642 C132.005998,91.6184642 131.460367,91.2968956 131.196289,90.7439544 L126.367163,80.647876 C125.998231,79.8792485 126.316678,78.9557191 127.079784,78.5831701 C127.842891,78.2165034 128.757454,78.5361113 129.124445,79.3047387 L133.953571,89.4008172 C134.322503,90.1694446 134.002114,91.092974 133.240949,91.465523 C133.025415,91.5694446 132.798231,91.6184642 132.576872,91.6184642"  fill="#e2b2aa"/>
      <path d="M142.28561,91.6184642 C141.714736,91.6184642 141.171046,91.2968956 140.905027,90.7439544 L136.075901,80.647876 C135.706969,79.8792485 136.025415,78.9557191 136.788522,78.5831701 C137.551629,78.2165034 138.46425,78.5361113 138.833182,79.3047387 L143.662309,89.4008172 C144.029299,90.1694446 143.710852,91.092974 142.949687,91.465523 C142.734153,91.5694446 142.506969,91.6184642 142.28561,91.6184642"  fill="#e2b2aa"/>
    </g>
    <g id="mouth" transform="translate(84, 110)">
      <path d="M4,9 C4,9 13.2526996,16.1571286 23.9998926,9.87193445 C23.9998926,9.87193445 24.148402,17.0036317 13.4030889,16.9999986 C5.34034434,16.9963656 4,9 4,9"  fill="#b08078"/>
      <path d="M2.57085816,4.42784723 C1.84013967,3.93606485 1.18138589,3.43856407 0.603823048,2.96012463 C-0.0899904605,2.38637852 -0.202550631,1.34181751 0.352869226,0.625111409 C0.906443834,-0.0896885566 1.90103288,-0.211681084 2.61514412,0.363971155 C3.16502823,0.8138186 16.0577809,11.2403674 25.2526551,1.75544842 C25.8818849,1.10736312 26.8949264,1.11117539 27.529692,1.75926069 C28.1570765,2.40925212 28.1570765,3.46334381 27.5278467,4.10952297 C19.4991697,12.3897658 8.63803586,8.52031529 2.57085816,4.42784723"  fill="#b08078"/>
    </g>
    <g id="hair" transform="translate(9,-40)">
      <path d="M163.396558,97.5237625 C164.507334,80.8372354 168.097802,53.7551485 164.09666,43.9272244 C167.221697,42.7293177 169.82068,40.0907912 170.714386,36.8454819 C170.994035,35.8256953 171.119193,34.737401 170.853233,33.7117423 C170.638117,32.88182 170.178553,32.134107 169.658365,31.4490296 C168.398964,29.7872277 166.71911,28.4914528 164.853474,27.5754065 C167.843575,24.2185274 168.398964,18.8807961 166.069853,15.0228318 C165.524242,14.1165724 164.820229,13.2749059 163.895234,12.7640339 C163.144286,12.3471154 162.285781,12.1689953 161.431187,12.0750418 C155.474452,11.4193249 149.304557,15.1246148 147.081048,20.693315 C146.660595,21.7463768 146.208853,22.9325393 145.786445,24.1774228 C141.666012,22.6076169 137.201393,22.0654271 132.55295,22.5782565 C132.066007,22.6037022 131.79418,22.6311053 131.79418,22.6311053 L131.749201,22.6389347 C128.475539,23.1595935 125.250766,22.865989 122.256754,21.9244969 L144.398058,82 L163.396558,97.5237625 Z"  fill="#241c11"/>
      <path d="M32.0462404,129 C32.0462404,129 16.6707375,99.3319474 23.9625082,62.8323586 L47,44 L32.0462404,129 Z"  fill="#241c11"/>
      <path d="M146.953331,129 C146.953331,129 162.330301,99.3319474 155.036831,62.8323586 L132,44 L146.953331,129 Z"  fill="#241c11"/>
      <path d="M149,83 L148.982388,77.0190357 C148.927594,56.0070155 131.957232,39 111.043688,39 L72.6529404,39 C50.3832542,39 32.2680973,57.0136735 32.0352245,79.386255 L32,82.8702355 C50.1719074,74.2448277 93.6486753,55.9264042 121.810631,63.1106394 C131.963103,65.7000313 141.092109,73.3522052 149,83"  fill="#1a1207"/>
      <path d="M118.74615,4.32191409 C96.6842047,-1.8623171 6.99815429,-11.567072 0,57.4969764 C7.80608399,51.2369724 18.2564789,48.1263993 25.8244773,48.1283422 C9.78297476,62.0977491 10.5596801,84.0155349 10.4308797,83.9999917 C71.1387949,42.437606 134.988659,40.6754013 147.425702,69.0902242 C147.093944,69.6653208 159.685157,15.3206363 118.74615,4.32191409"  fill="#241c11"/>
    </g>
    <g id="eyes" transform="translate(54,39)">
      <path d="M76,28 C76,32.4165103 74.4317799,36 72.5,36 C70.5662549,36 69,32.4165103 69,28 C69,23.5834897 70.5662549,20 72.5,20 C74.4317799,20 76,23.5834897 76,28" id="Fill-33" fill="#25110D"/>
      <path d="M87.9922875,18.9978421 C88.4432398,18.7305971 69.0148726,6.29572485 57.018358,6.74246284 C56.8686969,6.94189945 57.2586033,-4.10888277 73.1719051,1.67876748 C88.5929009,8.11658104 87.8544418,19.1773351 87.9922875,18.9978421" id="right-brow" fill="#080603" style="transform: rotate(4deg);"/>
      <path d="M15,28 C15,32.4165103 16.5662549,36 18.4980348,36 C20.4337451,36 22,32.4165103 22,28 C22,23.5834897 20.4337451,20 18.4980348,20 C16.5662549,20 15,23.5834897 15,28" id="Fill-37" fill="#25110D"/>
      <path d="M0.00771254488,18.9978421 C-0.443239827,18.7305971 18.9851274,6.29572485 30.981642,6.74246284 C31.1313031,6.94189945 30.7413967,-4.10888277 14.8280949,1.67876748 C-0.5948701,8.11658104 0.145558248,19.1773351 0.00771254488,18.9978421" id="left-brow" fill="#080603" style="transform: rotate(0deg);"/>
    </g>
    <g id="nose" transform="translate(89,70)">
      <path d="M17,20.0691977 C17,25.5545166 13.195549,30 8.5,30 C3.80445097,30 0,25.5545166 0,20.0691977 C0,14.5838788 3.80445097,0 8.5,0 C13.195549,0 17,14.5838788 17,20.0691977" fill="#b08078" />
    </g>
  </g>
</svg>
