<?xml version="1.0" standalone="no"?>
<svg xmlns:xlink="http://www.w3.org/1999/xlink" xmlns="http://www.w3.org/2000/svg" id="avatar" viewBox="0 0 210 259" width="210" height="259">
      <!-- Created with: Simpletar BY VINCENT.WTF -->
      <g id="avatar-heads" transform="translate(0, 60)" x="4.999992370605469px" y="29.4976806640625px">    <g id="Page-1" stroke="none" stroke-width="1" fill="none" fill-rule="evenodd">
        <g id="heads">
            <g id="turtle">
                <path d="M118.581368,116.698654 L97.8044066,116.698654 L95.3169695,116.698654 L81.2350213,116.698654 C84.1341322,141.012115 71.9532277,156.908269 37.9911094,170.506346 C4.03092385,184.106346 0.473521453,199.940962 0.473521453,199.940962 L91.3683804,199.940962 L97.8044066,199.940962 L199.344801,199.940962 C199.344801,199.940962 194.787399,185.106346 160.827213,171.506346 C126.865095,157.908269 115.682257,141.012115 118.581368,116.698654 Z" id="shirt" fill="#FCC21C"/>
                <path d="M65.7131813,154.507692 C73.4480093,164.315385 85.4599923,170.623077 98.9601855,170.623077 C112.460379,170.623077 124.474295,164.315385 132.209123,154.507692 C119.820255,143.844231 115.751836,131.180769 117.632393,115.384615 L96.855431,115.384615 L94.3699266,115.384615 L80.2879784,115.384615 C82.1724005,131.180769 78.1020487,143.844231 65.7131813,154.507692" id="tone" fill="#c7999a"/>
                <path d="M51.3170869,72.1047775 C57.5772338,84.018239 54.9545048,97.6797775 45.4589501,102.620162 C35.9633954,107.560547 23.1899126,101.906701 16.9316984,89.993239 C10.6715515,78.0797775 13.2942806,64.418239 22.7898353,59.4797775 C32.28539,54.5393928 45.0588728,60.1913159 51.3170869,72.1047775" id="tone" fill="#c7999a"/>
                <path d="M46.229223,94.0730769 C46.1905682,93.5884615 46.1016622,93.1692308 46.0475454,92.7 C46.1190568,93.0403846 46.1635099,93.3211538 46.1886355,93.5461538 C46.1287205,91.1211538 45.775029,89.1384615 45.1546193,87.5807692 C40.2106687,67.4134615 21.2601469,65.3846154 21.2601469,65.3846154 C30.8600696,71.15 36.8534983,77.5096154 40.5643603,82.7807692 C33.7514496,80.0192308 23.2199459,85.8673077 23.2199459,85.8673077 C35.7170468,82.5711538 41.3993042,85.3 44.0085041,88.4673077 C45.7286432,91.8788462 46.229223,94.0730769 46.229223,94.0730769" id="dark" fill="#956768"/>
                <path d="M148.356617,72.1047775 C142.098403,84.018239 144.721132,97.6797775 154.216687,102.620162 C163.712241,107.560547 176.485724,101.906701 182.743938,89.993239 C189.002152,78.0797775 186.381356,64.418239 176.885801,59.4797775 C167.390247,54.5393928 154.616764,60.1913159 148.356617,72.1047775" id="tone" fill="#c7999a"/>
                <path d="M152.686509,94.0730769 C152.725164,93.5884615 152.816003,93.1692308 152.868187,92.7 C152.796676,93.0403846 152.752223,93.3211538 152.727097,93.5461538 C152.787012,91.1211538 153.140704,89.1384615 153.761113,87.5807692 C158.706997,67.4134615 177.657518,65.3846154 177.657518,65.3846154 C168.055663,71.15 162.064167,77.5096154 158.351372,82.7807692 C165.164283,80.0192308 175.695787,85.8673077 175.695787,85.8673077 C163.200618,82.5711538 157.516428,85.3 154.907228,88.4673077 C153.187089,91.8788462 152.686509,94.0730769 152.686509,94.0730769" id="dark" fill="#956768"/>
                <path d="M81.1035949,0 C59.1109393,0 41.2156939,21.4653846 40.9876305,43.35 L40.5875532,81.4057692 C40.5875532,105.028846 52.5531504,125.615385 70.2589872,136.403846 C78.6374179,141.509615 91.7201392,146.346154 98.5929648,146.346154 C108.51179,146.346154 117.84886,141.717308 126.012756,136.95 C144.219173,126.321154 156.600309,105.432692 156.600309,81.4057692 L156.490143,41.0326923 C156.436026,20.4788462 139.6753,0 119.018168,0 L81.1035949,0 Z" id="color" fill="#d1a3a4"/>
                <path d="M65.3043706,93.7027245 C65.0821054,93.7027245 64.8559748,93.6546476 64.6414406,93.5527245 C63.8838063,93.1873399 63.5668368,92.2815707 63.9321248,91.5277245 L68.7388507,81.6258014 C69.1060714,80.8719553 70.0163923,80.5584938 70.7740266,80.9181091 C71.5335937,81.2834938 71.8505631,82.189263 71.4833424,82.9431091 L66.6785492,92.8450322 C66.4137637,93.3873399 65.8706636,93.7027245 65.3043706,93.7027245" id="tone" fill="#c7999a"/>
                <path d="M55.6386915,93.7027245 C55.4183591,93.7027245 55.1922285,93.6546476 54.979627,93.5527245 C54.2200599,93.1873399 53.9030905,92.2815707 54.2683784,91.5277245 L59.0751044,81.6258014 C59.4423251,80.8719553 60.3545787,80.5584938 61.1102803,80.9181091 C61.8698473,81.2834938 62.1868168,82.189263 61.8215288,82.9431091 L57.0128701,92.8450322 C56.7500174,93.3873399 56.2069173,93.7027245 55.6386915,93.7027245" id="tone" fill="#c7999a"/>
                <path d="M133.893887,93.7027245 C133.327594,93.7027245 132.784494,93.3873399 132.519709,92.8450322 L127.714916,82.9431091 C127.345762,82.189263 127.662732,81.2834938 128.424232,80.9181091 C129.183799,80.5584938 130.092187,80.8719553 130.459407,81.6258014 L135.266133,91.5277245 C135.631421,92.2815707 135.314452,93.1873399 134.556818,93.5527245 C134.342283,93.6546476 134.116153,93.7027245 133.893887,93.7027245" id="tone" fill="#c7999a"/>
                <path d="M143.558304,93.7027245 C142.992011,93.7027245 142.448911,93.3873399 142.184125,92.8450322 L137.377399,82.9431091 C137.010179,82.189263 137.327148,81.2834938 138.088648,80.9181091 C138.846282,80.5584938 139.756603,80.8719553 140.123824,81.6258014 L144.93055,91.5277245 C145.295838,92.2815707 144.978868,93.1873399 144.219301,93.5527245 C144.0067,93.6546476 143.780569,93.7027245 143.558304,93.7027245" id="tone" fill="#c7999a"/>
            </g>
        </g>
    </g>
</g>
      <g id="avatar-mouths" transform="translate(0, 60)"><g id="Page-1" stroke="none" stroke-width="1" fill="none" fill-rule="evenodd" transform="translate(85, 110)">
  <g id="mouths" fill="#FF6A68">
    <g id="line">
      <path d="M2.66445009,4.42825488 C1.90763062,3.93461039 1.22343524,3.43905994 0.627153239,2.96066315 C-0.093354183,2.3869682 -0.20993496,1.34250032 0.365324282,0.625858125 C0.940583524,-0.0888781077 1.97069891,-0.212765721 2.70840678,0.364741155 C3.27793254,0.814548491 16.6331205,11.2382617 26.154521,1.75800032 C26.8081378,1.10806684 27.8573648,1.11187876 28.5128928,1.75990628 C29.1626873,2.4079338 29.1626873,3.4619315 28.5109816,4.10995902 C20.1974344,12.3894635 8.94834506,8.52035806 2.66445009,4.42825488" id="tone" fill="#956768"/>
    </g>
  </g>
</g>
</g>
      <g id="avatar-hairs" transform="translate(0, 60)"><g id="Page-1" stroke="none" stroke-width="1" fill="none" fill-rule="evenodd" transform="translate(10, -50)">
  <g id="hairs" fill="#5A3825">
    <g id="medium">
      <path d="M31.665582,130 C35.1699525,98.1119333 38.625962,82.1679 42.0336104,82.1679 C61.7132741,82.1679 102.793971,67.9520882 139.582524,68.0023878 C142.223176,68.0059983 143.673127,130.431373 146.328155,130.431373 C149.947641,130.431373 152.809514,130.287582 154.913773,130 C155.568912,127.155636 156.088439,124.726036 156.273711,123.477941 C158.286878,118.049868 161.871995,112.313576 168.33934,108.44372 C181.600645,100.506138 183.951885,85.6754934 177.685093,74.5663037 C176.262124,72.0415743 174.361649,69.8269662 172.15366,68.0023878 C170.852933,66.9293303 168.929538,64.5149508 170.272286,60.2132077 C172.207141,54.0221983 170.843383,47.954857 168.018456,44.897404 C164.878375,41.5050962 162.078278,37.5001562 152.016265,38.9232893 C139.878056,40.6413229 143.342841,26.8723203 143.516654,16.6611503 C143.768777,1.85714183 118.571725,-9.19877557 92.7902062,15.8944088 C92.7902062,15.8944088 88.6015211,22.0873208 75.065173,18.1756074 C61.5307349,14.2657967 33.9518821,5.46634426 14.2939035,22.4107601 C-5.36407512,39.3570785 13.9730193,57.2813252 7.20389022,70.9666142 C0.43667119,84.6538057 -5.68686937,97.3630688 9.13874567,109.094404 C17.07108,115.372932 25.5114811,123.645368 31.665582,130 Z" id="color" fill="#5A3825"/>
      <path d="M63,14.7758987 C48.6897946,11.224341 28.9866833,8.87637733 13.9689648,22.0681502 C3.77212016,31.0282393 4.22936932,40.2596146 5.96992685,49 C5.96992685,49 13.413868,9.96725385 63,14.7758987" id="light" fill="#785643"/>
      <path d="M142.636131,22 L142.689195,21.8878172 C142.825644,19.8569214 142.96778,17.8240914 142.998102,15.9150494 C143.202776,3.72193798 126.828804,-5.96253361 107,4.36408788 C107,4.36408788 138.675297,-0.616442246 142.636131,22" id="light" fill="#785643"/>
      <path d="M153,38.0706835 C153.077915,38.0915798 168.322714,42.2689286 169.510448,58 C170.781798,52.3732118 169.461038,47.0503689 166.886032,44.252172 C163.986061,41.1082374 161.369246,37.4437963 153,38.0706835" id="light" fill="#785643"/>
      <path d="M28.0586225,140 C28.0586225,140 17.7400495,101.30569 24.0351456,90.7513094 C27.2677625,85.3320078 47,81 47,81 L28.0586225,140 Z" id="color" fill="#5A3825"/>
      <path d="M145.894362,143 C145.894362,143 154.827203,106.614451 151.083178,84 L136,93.7135822 L141.35609,141.991664 L145.894362,143 Z" id="color" fill="#5A3825"/>
      <path d="M166.174195,90.3076312 C169.598809,77.1385524 161.764576,61.3166274 153.840624,50.8993533 C147.455266,42.5050171 132.342297,37.4809755 122.394883,34.8604811 C118.355595,33.7966783 116.148877,31.0905468 115.417758,28 C113.42293,28.0970553 111.430011,28.2340747 109.446637,28.4567311 C101.56659,29.3397444 61,55.1488551 61,55.1488551 C61,55.1488551 75.8972597,50.9773782 87.0453885,59.398357 C95.2423174,65.5908689 102.192718,69.3379666 112.644088,71.4655721 C119.327239,72.824347 127.025938,69.8289525 132.691631,73.6141111 C142.492058,80.1586865 127.035482,101.706877 145.75823,104.934443 C148.896505,105.476811 151.967967,106.519681 155.043247,105.691856 C159.81938,104.411106 163.822398,101.206376 166.756418,97.1909488 C165.807682,95.2745814 165.488891,92.9528652 166.174195,90.3076312" id="color" fill="#5A3825"/>
    </g>
  </g>
</g>
</g>
      <g id="avatar-facials" transform="translate(0, 60)"/>
      <g id="avatar-eyes" transform="translate(0, 60)"><g id="Page-1" stroke="none" stroke-width="1" fill="none" fill-rule="evenodd" transform="translate(51, 44)">
  <g id="eyes">
    <g id="angry">
      <path d="M77,34.0009382 C77,38.4179665 75.4317799,42 73.5,42 C71.5662549,42 70,38.4179665 70,34.0009382 C70,29.5820335 71.5662549,26 73.5,26 C75.4317799,26 77,29.5820335 77,34.0009382" id="Fill-315" fill="#1F110B"/>
      <path d="M92.9924723,27.9979557 C93.4307826,27.7447762 74.6272708,15.9643709 63.0177651,16.3875964 C62.8729321,16.5765363 63.2502601,6.10737422 78.6521028,11.5904113 C93.5756155,17.6893926 92.8590735,28.1680017 92.9924723,27.9979557" id="right-brow" fill="#000000" transform="translate(78.000000, 19.000000) rotate(-44.000000) translate(-78.000000, -19.000000) "/>
      <path d="M16,34.0009382 C16,38.4179665 17.5662549,42 19.5,42 C21.4337451,42 23,38.4179665 23,34.0009382 C23,29.5820335 21.4337451,26 19.5,26 C17.5662549,26 16,29.5820335 16,34.0009382" id="Fill-319" fill="#1F110B"/>
      <path d="M3.00746375,24.9979557 C2.57105823,24.7447762 21.372704,12.9643709 32.9822342,13.3875964 C33.1270675,13.5765363 32.7497387,3.10737422 17.3497692,8.59041129 C2.42622496,14.6893926 3.14086282,25.1680017 3.00746375,24.9979557" id="left-brow" fill="#000000" transform="translate(18.000000, 16.000000) rotate(35.000000) translate(-18.000000, -16.000000) "/>
    </g>
  </g>
</g>
</g>
      <g id="avatar-noses" transform="translate(0, 60)"><g id="Page-1" stroke="none" stroke-width="1" fill="none" fill-rule="evenodd" transform="translate(91, 67)">
  <g id="noses" fill="#956768">
    <g id="long">
      <path d="M17,20.0691977 C17,25.5545166 13.195549,30 8.5,30 C3.80445097,30 0,25.5545166 0,20.0691977 C0,14.5838788 3.80445097,0 8.5,0 C13.195549,0 17,14.5838788 17,20.0691977" id="Fill-160"/>
    </g>
  </g>
</g>
</g>
      <g id="avatar-accessoires" transform="translate(0, 60)"><!--?xml version="1.0" encoding="UTF-8"?-->
<svg width="137px" height="128px" viewBox="0 0 137 128" version="1.1" xmlns="http://www.w3.org/2000/svg" xmlns:xlink="http://www.w3.org/1999/xlink">
    <!-- Generator: Sketch 52.6 (67491) - http://www.bohemiancoding.com/sketch -->
    <title>bearded</title>
    <desc>Created with Sketch.</desc>
</svg>
</g>
    </svg>